<svg xmlns="http://www.w3.org/2000/svg" width="175" height="189" viewBox="0 0 175 189"><path d="M34.012 121.634c0 10.04 4.695 19.44 13.223 26.484 4.42 3.646 9.604 6.422 15.242 8.237-5.832 3.326-13.007 9.455-14.784 19.87h60.132c-1.724-10.1-8.526-16.17-14.257-19.562 6.015-1.803 11.53-4.688 16.203-8.544 8.53-7.04 13.23-16.45 13.23-26.49 0-2.11-.21-4.19-.61-6.23 1.03-.98 2.38-2.38 3.6-4.08 3.24-4.55 3.9-8.95 1.92-12.73l-.03-.06c-.13-.23-3.22-5.46-9.92-5.46-2.5 0-5.18.75-7.96 2.23-.07-.06-.13-.12-.2-.18-8.38-6.91-19.49-10.72-31.27-10.72-11.14 0-21.68 3.4-29.87 9.62-22.41-5.98-15.18 13.26-13.12 17.97-.98 3.1-1.49 6.32-1.49 9.62zM21.8 87.494S1.748 127.27 10.496 176.226h27.07c.805-6.512 3.21-12.433 7.1-17.54-1.31-.895-2.574-1.85-3.794-2.854-10.872-8.98-16.858-21.124-16.858-34.198 0-3.024.33-6.036.98-8.99-1.228-3.436-2.172-7.28-2.257-11.107-.087-3.83.685-7.646 2.892-11.02 1.86-2.84 6.35-7.61 15.57-7.61 1.68 0 3.44.153 5.32.46 9.24-5.79 20.42-8.937 31.98-8.937.58 0 1.15.01 1.73.03-3.87-6.54-3.82-12.26-2.91-16.19 2.57-11.12 13.72-16.34 14.98-16.9l5.3-2.27 4.34 1.165c2.58.75 2.83.93 3.97.07-5.86-3.116-15.37-6.808-27.79-6.856 0 0 9.61-9.1 38.62 3.65.1-.07.2-.14.31-.21-5.72-5.57-51.7-47.91-87.59-5.5l-.1 14.93c-7.92-1.32-11.06-3.06-11.06-3.06 1.8 5.52 3.73 10.24 5.75 14.25-.43-.04-.84-.08-1.28-.11C-1.95 55.91.09 83.38.09 83.38c9.75.42 16.746 2.12 21.706 4.115zm68.643-12.622c7.648 1.455 14.843 4.294 21.138 8.384 2.14-.563 4.26-.85 6.36-.85 9.48 0 16.24 5.79 19.14 10.747l.18.312.11.19c3.85 7.368 2.87 16.07-2.69 23.87-.34.482-.7.96-1.08 1.434.06.89.09 1.78.09 2.67 0 .81-.29 1.88-.81 3.14-.88 11.87-6.73 22.81-16.72 31.06-1.53 1.26-3.13 2.44-4.8 3.53 3.6 4.95 5.83 10.64 6.6 16.86h46.93c-2.36-18.26-11.45-50.05-17.14-53.54 14.13-3.1 25.64-11.6 26.95-18.53 2.26-12-10-11.56-10-11.56.67-9.33-3.99-13.77-3.99-13.77l6.67 2c-1.7-11.4-6.16-18.22-11.33-22.26l1.13-12.2S144.07 40.97 137 53c-2.616.12-4.29.49-4.29.49h-.014c.84-3.275.806-6.345-1.32-7.994-5.993-4.67-11.323 1.996-11.323 1.996-9.8-1.633-10.34 2.988-9.29 6.813-2.27.57-4.326 1.306-6.176 2.19l-8.19-6.008s-17.32 7.67-5.29 21.955c-.24.784-.444 1.59-.63 2.4z" fill="#888"/></svg>