<svg xmlns="http://www.w3.org/2000/svg" width="175" height="189" viewBox="0 0 175 189"><path fill="#888" d="M175 49.02h-18.975V29.344h-10.543V49.02h-19.68v10.544h19.68V78.54h10.543V59.565H175zM34.012 121.634c0 10.04 4.695 19.44 13.223 26.484 4.42 3.646 9.604 6.422 15.242 8.237-5.832 3.326-13.007 9.455-14.784 19.87h60.132c-1.724-10.1-8.526-16.17-14.257-19.562 6.015-1.803 11.53-4.688 16.203-8.544 8.53-7.04 13.23-16.45 13.23-26.49 0-2.11-.21-4.19-.61-6.23 1.03-.98 2.38-2.38 3.6-4.08 3.24-4.55 3.9-8.95 1.92-12.73l-.03-.06c-.13-.23-3.22-5.46-9.92-5.46-2.5 0-5.18.75-7.96 2.23-.07-.06-.13-.12-.2-.18-8.38-6.91-19.49-10.72-31.27-10.72-11.14 0-21.68 3.4-29.87 9.62-22.41-5.98-15.18 13.26-13.12 17.97-.98 3.1-1.49 6.32-1.49 9.62zM21.8 87.494S1.748 127.27 10.496 176.226h27.07c.805-6.512 3.21-12.433 7.1-17.54-1.31-.895-2.574-1.85-3.794-2.854-10.872-8.98-16.858-21.124-16.858-34.198 0-3.024.33-6.036.98-8.99-1.228-3.436-2.172-7.28-2.257-11.107-.087-3.83.685-7.646 2.892-11.02 1.86-2.84 6.35-7.61 15.57-7.61 1.68 0 3.44.153 5.32.46 9.24-5.79 20.42-8.937 31.98-8.937.58 0 1.15.01 1.73.03-3.87-6.54-3.82-12.26-2.91-16.19 2.57-11.12 13.72-16.34 14.98-16.9l5.3-2.27 4.34 1.165c2.58.75 2.83.93 3.97.07-5.86-3.116-15.37-6.808-27.79-6.856 0 0 9.61-9.1 38.62 3.65.1-.07.2-.14.31-.21-5.72-5.57-51.7-47.91-87.59-5.5l-.1 14.93c-7.92-1.32-11.06-3.06-11.06-3.06 1.8 5.52 3.73 10.24 5.75 14.25-.43-.04-.84-.08-1.28-.11C-1.95 55.91.09 83.38.09 83.38c9.75.42 16.746 2.12 21.706 4.115zm142.867 5.11c.106-1.482.067-2.826-.056-4.063h-29.12V69.57h-19.68V47.202c-5.7.243-5.94 3.952-5.07 7.125-2.27.572-4.32 1.308-6.17 2.19l-8.18-6.005s-17.33 7.67-5.3 21.958c-.24.786-.44 1.59-.62 2.4 7.65 1.456 14.84 4.295 21.14 8.385 2.13-.563 4.25-.85 6.35-.85 9.48 0 16.23 5.79 19.14 10.747l.18.312.11.19c3.86 7.37 2.87 16.07-2.69 23.872-.34.48-.7.96-1.08 1.433.06.89.09 1.78.09 2.67 0 .81-.29 1.88-.81 3.14-.88 11.87-6.73 22.81-16.72 31.06-1.53 1.26-3.13 2.44-4.79 3.53 3.6 4.95 5.83 10.64 6.6 16.86h46.92c-2.36-18.26-11.44-50.05-17.13-53.54 14.12-3.1 25.64-11.6 26.94-18.53 2.26-12-10-11.56-10-11.56z"/></svg>