<svg xmlns="http://www.w3.org/2000/svg" width="189" height="189" viewBox="0 0 189 189"><path fill="#888" d="M133.56 49.542c0-21.536-17.522-39.057-39.06-39.057-21.536 0-39.058 17.52-39.058 39.058 0 19.008 13.65 34.88 31.663 38.346v52.12h-9c-4.143 0-7.5 3.35-7.5 7.5s3.357 7.5 7.5 7.5h9v16c0 4.14 3.357 7.5 7.5 7.5s7.5-3.36 7.5-7.5v-16h9c4.143 0 7.5-3.36 7.5-7.5s-3.357-7.5-7.5-7.5h-9V87.85c17.91-3.55 31.454-19.375 31.454-38.31zm-63.118 0c0-13.286 10.77-24.057 24.058-24.057s24.06 10.77 24.06 24.057c0 13.288-10.772 24.06-24.06 24.06-13.287 0-24.058-10.772-24.058-24.06z"/></svg>