<svg xmlns="http://www.w3.org/2000/svg" width="189" height="189" viewBox="0 0 189 189"><path fill="#888" d="M148.28 5.915h-35v.003c-4.145 0-7.5 3.358-7.5 7.5s3.353 7.5 7.5 7.5h9.216L101.433 41.97c-6.36-4.253-13.833-6.538-21.66-6.538-10.434 0-20.24 4.062-27.618 11.436-7.378 7.38-11.44 17.187-11.44 27.62v.043c0 .64.018 1.26.047 1.89.003.06.01.12.013.19.03.57.07 1.13.124 1.69.01.14.03.27.04.4.05.48.1.96.17 1.44.02.18.05.36.08.54.06.42.13.84.21 1.25.04.22.08.44.13.65.07.37.16.74.24 1.1l.18.75c.08.33.17.65.26.97l.24.83c.08.28.18.55.27.83.1.3.2.61.31.91.08.22.17.44.25.66.13.34.26.69.4 1.02.02.06.05.11.07.16.36.85.75 1.69 1.17 2.51.07.14.13.27.21.41.16.3.33.6.49.9.13.23.25.46.39.68.15.26.3.51.46.76.17.28.34.55.52.83.13.21.27.41.4.61.23.34.46.67.7 1 .1.14.2.28.3.41.33.44.67.88 1.02 1.3l.06.08c5.68 6.93 13.69 11.88 22.82 13.63v31.71h-9c-4.14 0-7.5 3.36-7.5 7.5s3.36 7.5 7.5 7.5h9v16c0 4.15 3.36 7.5 7.5 7.5 4.14 0 7.5-3.35 7.5-7.5v-16h9c4.14 0 7.5-3.35 7.5-7.5s-3.36-7.5-7.5-7.5h-9v-31.75c9.05-1.79 16.97-6.72 22.61-13.59l.08-.1c.34-.41.67-.84.99-1.27l.37-.52c.21-.29.42-.58.62-.88.16-.23.32-.48.48-.72.15-.23.3-.46.44-.69.18-.29.36-.58.53-.87l.3-.54c.19-.34.39-.68.57-1.03.04-.08.08-.16.13-.24.66-1.29 1.25-2.61 1.77-3.96l.18-.48c.12-.33.23-.66.34-.99.08-.25.17-.49.24-.74.09-.29.17-.58.26-.87.09-.31.17-.61.25-.92.06-.26.13-.51.19-.76.08-.36.16-.72.24-1.09.04-.21.09-.43.13-.64.08-.42.15-.85.22-1.27.02-.17.05-.33.08-.5.07-.5.13-1.01.19-1.52l.03-.3c.12-1.24.18-2.5.18-3.77 0-.88-.04-1.76-.1-2.63-.02-.26-.03-.52-.06-.78-.06-.66-.13-1.31-.22-1.95-.06-.44-.13-.88-.2-1.31-.09-.49-.18-.98-.28-1.46-.1-.47-.2-.94-.32-1.4l-.18-.67c-1.13-4.2-2.93-8.18-5.39-11.79l21.2-21.19V41c0 4.14 3.35 7.5 7.5 7.5 4.14 0 7.5-3.36 7.5-7.5V6zm-52.3 50.83c.52.478 1.022.98 1.503 1.5.076.084.152.17.23.254.438.49.858 1 1.257 1.52.086.11.17.23.252.34.367.5.717 1.02 1.045 1.55.113.18.223.37.33.55.268.46.522.93.76 1.41.17.34.332.69.483 1.04.144.33.277.66.406.99.187.49.364.98.517 1.47.064.2.12.41.18.62.156.57.302 1.13.416 1.71.03.15.05.31.08.46.11.63.21 1.27.27 1.9.01.09.01.19.02.28.06.68.1 1.36.1 2.05v.07c-.01 6.15-2.36 12.3-7.05 16.99-4.7 4.7-10.86 7.05-17.01 7.05-6.16 0-12.32-2.35-17.02-7.05-4.69-4.69-7.04-10.84-7.05-16.99v-.08c0-.67.04-1.35.09-2.02.01-.11.01-.21.02-.32.06-.62.16-1.24.27-1.86.03-.17.05-.34.09-.51.11-.55.25-1.1.4-1.64.06-.24.13-.48.2-.72.14-.46.31-.92.48-1.38.16-.43.33-.85.52-1.26.11-.26.23-.52.36-.77.28-.57.58-1.12.9-1.66l.18-.31c.37-.61.76-1.19 1.19-1.76l.09-.13c.44-.58.91-1.15 1.4-1.69.03-.03.05-.06.08-.09 4.4-4.82 10.73-7.84 17.77-7.84 6.21 0 11.87 2.35 16.14 6.22l.05.05z"/></svg>