<svg xmlns="http://www.w3.org/2000/svg" width="189" height="189" viewBox="0 0 189 189"><path d="M178.63 42.787c-7.317-7.32-17.05-11.35-27.4-11.35-2.218 0-4.402.198-6.546.56v15.245c2.137-.607 4.34-.922 6.545-.922 6.1 0 12.21 2.33 16.88 6.99 9.32 9.32 9.32 24.432 0 33.75-4.66 4.66-10.77 6.99-16.88 6.99-6.11 0-12.22-2.33-16.88-6.99-4.99-4.987-7.28-11.63-6.93-18.16-.04 0-.07.004-.1.004-5.34 0-10.11-2.416-13.3-6.21l-.99.992c-.36 2.127-.56 4.298-.56 6.498 0 7.885 2.35 15.407 6.69 21.782L90.92 120.21l-19.66 19.65v-8.956c0-4.11-3.33-7.44-7.44-7.44s-7.44 3.33-7.44 7.44v34.725h33.73c4.11 0 7.443-3.33 7.443-7.44s-3.33-7.44-7.44-7.44h-8.69l23.79-23.78 24.53-24.53c6.31 4.22 13.723 6.48 21.485 6.48 10.352 0 20.08-4.03 27.398-11.35 7.32-7.32 11.352-17.05 11.35-27.4.005-10.36-4.024-20.09-11.344-27.4zM22.893 129.51c-9.32-9.322-9.32-24.433 0-33.753 4.66-4.658 10.768-6.988 16.877-6.99 6.11 0 12.216 2.332 16.88 6.992 4.896 4.89 7.195 11.38 6.948 17.8.076 0 .15-.02.227-.02 5.39 0 10.213 2.46 13.4 6.33l.75-.75c.355-2.13.548-4.3.548-6.49 0-7.94-2.377-15.37-6.784-21.71l48.14-48.13v8.73c0 4.11 3.33 7.44 7.44 7.44s7.44-3.33 7.44-7.44V17.81h-33.73c-4.11 0-7.45 3.33-7.45 7.44s3.33 7.44 7.44 7.44h7.92L61.08 80.545c-6.27-4.082-13.62-6.185-21.31-6.185-10.35 0-20.08 3.795-27.4 11.11-7.32 7.32-11.35 16.93-11.35 27.28s4.033 20.024 11.35 27.344c7.323 7.317 17.054 11.32 27.405 11.32 2.267 0 4.5-.207 6.688-.587v-15.283c-2.18.634-4.436.957-6.688.957-6.11 0-12.22-2.33-16.88-6.99z" fill="#888"/></svg>