<svg xmlns="http://www.w3.org/2000/svg" width="189" height="189" viewBox="0 0 189 189"><path d="M158.116 46.207c-2.93-2.93-7.677-2.93-10.607 0l-11.29 11.287-6.25-6.247c-2.93-2.93-7.68-2.93-10.61 0-2.94 2.93-2.94 7.677 0 10.606l6.24 6.247-36.53 36.526c-6.37-4.303-13.85-6.662-21.69-6.662-10.44 0-20.24 4.187-27.62 11.562-7.38 7.38-11.44 17.248-11.44 27.684 0 10.434 4.06 20.27 11.44 27.646 7.38 7.377 17.19 11.454 27.62 11.454s20.24-4.06 27.62-11.434c13.45-13.455 15.01-34.448 4.69-49.664l36.51-36.507 6.24 6.246c1.46 1.47 3.38 2.2 5.3 2.2s3.84-.73 5.3-2.2c2.93-2.93 2.93-7.67 0-10.6l-6.24-6.25 11.29-11.29c2.92-2.92 2.92-7.67-.01-10.6zM84.413 154.28c-4.697 4.696-10.854 7.044-17.012 7.044-6.15 0-12.31-2.348-17.01-7.045-9.39-9.4-9.39-24.63 0-34.03 4.7-4.7 10.86-7.05 17.01-7.05 6.16 0 12.32 2.35 17.02 7.04 9.4 9.39 9.4 24.63 0 34.02zm62.76-33.712l6.248-6.246c2.93-2.93 2.93-7.678 0-10.607-2.92-2.928-7.67-2.928-10.6.002l-6.24 6.246-8.86-8.867-10.6 10.607 8.87 8.867-6.24 6.246c-2.93 2.93-2.93 7.678 0 10.604 1.47 1.463 3.39 2.195 5.31 2.195 1.92 0 3.84-.732 5.31-2.197l6.25-6.246 11.29 11.287c1.47 1.46 3.39 2.19 5.31 2.19 1.92 0 3.84-.73 5.3-2.2 2.93-2.93 2.93-7.68 0-10.61l-11.3-11.29zM67.4 90.808c7.972 0 15.574-2.38 22.01-6.79l14.81 14.81 10.606-10.608-14.878-14.877c10.065-15.163 8.424-35.858-4.93-49.21-7.376-7.378-17.185-11.44-27.618-11.44s-20.24 4.062-27.618 11.44c-7.378 7.375-11.44 17.184-11.44 27.617s4.063 20.242 11.44 27.62c7.378 7.375 17.187 11.437 27.62 11.437zm-17.01-56.07c4.697-4.698 10.855-7.047 17.012-7.047s12.314 2.35 17.012 7.05c9.395 9.4 9.394 24.63 0 34.03-4.698 4.7-10.855 7.05-17.012 7.05s-12.314-2.35-17.012-7.04c-9.397-9.39-9.397-24.62 0-34.02z" fill="#888"/></svg>