<svg xmlns="http://www.w3.org/2000/svg" width="189" height="189" viewBox="0 0 189 189"><path fill="#888" d="M94.5 1.438C43.104 1.438 1.438 43.104 1.438 94.5s41.664 93.063 93.063 93.063 93.07-41.666 93.07-93.063S145.9 1.438 94.5 1.438zm47.766 68.57c.05.712.075 1.78.075 3.205 0 6.61-.96 13.21-2.89 19.8-1.93 6.59-4.86 12.91-8.81 18.962-3.94 6.055-8.63 11.407-14.08 16.063-5.44 4.654-12 8.37-19.68 11.14-7.68 2.77-15.89 4.52-24.64 4.52-13.78 0-26.4-3.698-37.84-10.698h.01c1.78 0 3.77-.06 5.95-.06 11.44 0 21.64-3.69 30.6-10.71-5.34-.104-10.12-1.83-14.34-5.013-4.21-3.18-7.11-7.278-8.69-12.216 1.68.26 3.23.36 4.65.36 2.19 0 4.36-.29 6.49-.85-5.7-1.17-10.55-4.01-14.29-8.51C41 91.5 39 86.26 39 80.31V80c4 1.936 7.304 2.977 11.27 3.128-3.355-2.24-5.96-5.164-7.942-8.776-1.99-3.612-2.944-7.528-2.944-11.75 0-4.475 1.14-8.62 3.375-12.438 6.15 7.58 13.65 13.646 22.47 18.195 8.82 4.55 18.28 7.08 28.35 7.59-.41-1.94-.61-3.82-.61-5.65 0-6.82 2.4-12.63 7.21-17.44 4.81-4.81 10.62-7.21 17.43-7.22 7.12 0 13.12 2.59 18.01 7.78 5.54-1.07 10.76-3.05 15.64-5.95-1.88 5.85-5.49 10.38-10.83 13.58 4.73-.51 9.46-1.78 14.19-3.82-3.42 4.99-7.54 9.24-12.37 12.75z"/></svg>