<svg xmlns="http://www.w3.org/2000/svg" width="189" height="189" viewBox="0 0 189 189"><path d="M87.416 79.843c2.695-2.896 4.04-6.943 4.04-12.13 0-2.95-.433-6.13-1.3-9.536-.863-3.406-2.094-6.7-3.697-9.883-1.61-3.184-3.75-5.814-6.45-7.896-2.7-2.084-5.68-3.124-8.93-3.13-2.14 0-4.24.498-6.3 1.488-2.06.99-3.73 2.327-5 4.01-2.39 3-3.59 7.07-3.59 12.208l-.01.004c0 2.338.25 4.818.76 7.44.51 2.618 1.31 5.235 2.4 7.854 1.1 2.62 2.42 4.972 3.97 7.06 1.55 2.087 3.46 3.792 5.72 5.11 2.26 1.318 4.71 1.98 7.36 1.98 1.93 0 3.91-.418 5.95-1.26s3.71-1.943 5.04-3.32zM94.5 1.437C43.104 1.437 1.438 43.103 1.438 94.5c0 51.396 41.664 93.063 93.063 93.063s93.07-41.666 93.07-93.063S145.9 1.437 94.5 1.437zM107.47 139.9c-3.665 6.206-9.03 10.77-16.103 13.693-7.068 2.923-14.646 4.382-22.732 4.388-6.72 0-12.986-1.06-18.81-3.16-5.827-2.11-10.192-5.27-13.087-10.15-1.888-3.05-2.828-5.66-2.828-9.66h.008c0-4 1.136-8.27 3.4-11.78 2.265-3.51 5.28-6.6 9.043-8.94 6.66-4.16 16.94-6.79 30.82-7.7-1.62-2.14-2.83-4.06-3.62-5.69-.78-1.62-1.18-3.5-1.18-5.59 0-1.83.54-4 1.61-6.5-2.33.2-4.06.3-5.18.3-7.52 0-13.88-2.45-19.03-7.36-5.16-4.91-7.74-11.13-7.75-18.66 0-4.17.92-8.21 2.75-12.13s4.35-7.25 7.56-9.99c3.92-3.35 8.56-5.36 13.93-6.98C71.61 32.33 77.14 32 82.83 32h31.895l-10.53 6h-9.99c3.76 4 6.608 6.455 8.546 10.014 1.93 3.563 2.89 7.563 2.89 12.145 0 3.66-.62 6.92-1.87 9.84s-2.75 5.27-4.51 7.08c-1.76 1.81-3.52 3.45-5.3 4.95-1.78 1.5-3.3 3.06-4.54 4.68-1.25 1.63-1.88 3.31-1.88 5.03 0 1.83.81 3.62 2.44 5.37 1.62 1.75 3.59 3.48 5.91 5.19 2.31 1.7 4.61 3.57 6.9 5.6s4.24 4.68 5.88 7.94c1.63 3.25 2.44 6.86 2.44 10.83 0 4.58-1.22 8.97-3.66 13.2zM154 93h-16v17h-8V93h-16v-8h16V68h8v17h16v8zm-55.332 33.243c-.383-.913-1.066-1.97-2.06-3.167-.993-1.193-1.747-2.086-2.255-2.67-.508-.585-1.488-1.462-2.938-2.63-1.45-1.176-2.377-1.91-2.787-2.215-.407-.3-1.46-1.06-3.168-2.29-1.7-1.22-2.633-1.88-2.78-1.98-.818-.1-2.037-.15-3.664-.15-2.695 0-5.365.18-8.013.54-2.646.36-5.383.99-8.203 1.9-2.82.92-5.29 2.09-7.4 3.52-2.112 1.43-3.91 3.32-5.282 5.69-1.374 2.36-2.118 5.04-2.118 8.04v.01c0 3.56.95 6.7 2.727 9.43 1.783 2.72 4.14 4.84 7.014 6.33 2.88 1.5 5.92 2.62 9.1 3.36 3.18.73 6.43 1.11 9.74 1.11 2.95 0 5.79-.33 8.51-.99 2.72-.66 5.24-1.65 7.56-2.97 2.32-1.32 4.18-3.18 5.58-5.57 1.4-2.39 2.1-5.16 2.1-8.31 0-1.27-.17-2.51-.53-3.73-.36-1.22-.72-2.29-1.1-3.21z" fill="#888"/></svg>