<svg xmlns="http://www.w3.org/2000/svg" width="241" height="238" viewBox="0 0 241 238"><path d="M222.24 96.742l-.062-.26c16.506-16.524 4.516-26.75 4.516-26.75-6.154-3.935-14.39-1.296-19.32.982-.316-.312-.655-.607-.98-.914l10.594-29.375c-31.334-14.667-49.334 4-49.334 4l11.334-26.667c-50.668-7.333-58 30.667-58 30.667l-2-22.667c-29.093 9.212-24.684 32.88-20.115 45.104-5.36-1.98-19.3-5.49-9.77 16.14-2.854 6.213-4.42 12.942-4.42 19.972 0 6.108 1.193 11.987 3.375 17.5l-1.07-.384s-7.47 5.777-10.143 17.523c-7.39 1.247-14.144.692-20.053-1.733-7.912-3.247-12.185-8.91-13.158-10.322.498-.983 1-1.97 1.51-2.957 9.624-18.66 28.65-35.27 33.99-49.78 6.642-18.04 10.13-35.28 9.435-48.85-.49-.45-1.02-.85-1.58-1.19-2.67-1.6-6.02-1.68-10.25-.24-12.19 4.17-34.46 35.08-39.7 59.8-1.47 6.92-2.15 16.17 2.97 20.91 2.14 1.99 2.27 5.34.28 7.48-1.5 1.62-3.77 2.09-5.72 1.37-.64-.23-1.24-.59-1.77-1.08-4.84-4.48-9.82-13.47-6.13-30.87C32.43 57.06 56.4 22.3 73.32 16.51c4.684-1.6 9.02-1.997 12.972-1.202-2.345-6.724-6.49-11.592-12.702-13.88-19.484-7.17-39.96 18.13-53.09 53.805-4.595 12.482-2.717 32.624-4.948 51.102-3.815.836-8.72 4.272-9.9 16.09 0 0-9.233 15.95.946 23.87-3.345 15.252-4.227 26.387 2.984 29.04 9.016 3.32 17.06-11.62 26.824-31.272 4.327 4.23 11.13 9.225 20.71 11.693 4.03 1.04 8.202 1.56 12.51 1.56 2.233 0 4.504-.147 6.808-.425.867 5.66 2.874 12.05 6.55 19.2l14.666-17.66s-5.664 18.67 14.336 31.67l12.334-25.66s-6.335 24.67 17.665 36.67l14.415-15.5c-.573 2.21-.896 4.53-.896 6.92 0 15.18 12.302 27.48 27.478 27.48 2.338 0 4.606-.29 6.773-.84-10.59 6.97-24.604 12.22-42.818 12.27 0 0-29.14 1.42-53.706-24.59 0 0-14.13-13.73-19.22-41.1 0 0-1.55-6.62-7.36-2 0 0-5.6 2.83-1.97 12.65.17.44.23.77.21 1 3.2 8.96 7.9 17.55 14.14 25.41 30.61 38.57 86.68 45.02 125.25 14.42 36.99-29.36 44.43-82.14 17.97-120.44zm-27.095 4.877c0 3.57-2.896 6.46-6.47 6.46-3.57 0-6.465-2.9-6.465-6.47 0-3.58 2.896-6.47 6.466-6.47 3.572 0 6.47 2.89 6.47 6.46zM136.36 98.2c-.8-1.528-1.84-2.91-3.05-4.116h1.25c.723 1.306 1.34 2.676 1.807 4.116zm-2.79 3.672c0 2.99-2.426 5.417-5.42 5.417s-5.42-2.43-5.42-5.42 2.428-5.42 5.42-5.42 5.418 2.42 5.418 5.42zM91.85 94.09h17.772c-3.07 3.048-4.972 7.27-4.972 11.937 0 9.29 7.53 16.823 16.82 16.823 5.683 0 10.7-2.82 13.746-7.133-3.884 8.135-12.274 13.768-22.002 13.768-13.425 0-24.307-10.727-24.307-23.958 0-4.142 1.067-8.037 2.944-11.436zm77.884 41.78c-16.57 0-30.002-13.345-30.002-29.804 0-4.26.906-8.31 2.526-11.975h22.523c-2.72 3.43-4.36 7.76-4.36 12.48 0 11.09 8.99 20.08 20.08 20.08 7.27 0 13.63-3.86 17.15-9.64-4.38 11.05-15.23 18.87-27.91 18.87zm26.484-41.78h.976c.533 1.208 1.01 2.446 1.38 3.73-.647-1.333-1.443-2.58-2.356-3.73zm15.746-15.915s17.955-2.497 6.438 12.162c-.002 0-1.644-6.435-6.438-12.162z"/></svg>