<svg xmlns="http://www.w3.org/2000/svg" width="241" height="238" viewBox="0 0 241 238"><path d="M222.24 96.742l-.062-.26c16.504-16.524 4.516-26.75 4.516-26.75-6.155-3.935-14.39-1.296-19.32.982-.316-.312-.655-.608-.98-.914l10.594-29.375c-31.334-14.667-49.334 4-49.334 4l11.334-26.667c-50.668-7.333-58 30.667-58 30.667l-2-22.667C89.9 34.97 94.308 58.638 98.875 70.862c-5.36-1.98-19.3-5.49-9.77 16.14-2.853 6.213-4.418 12.942-4.418 19.972 0 6.108 1.192 11.987 3.374 17.5l-1.07-.384s-22 17-4 52l14.67-17.666s-5.67 18.666 14.33 31.666l12.34-25.666S118 189.09 142 201.09l14.41-15.493c-.57 2.21-.893 4.522-.893 6.913 0 15.175 12.3 27.478 27.477 27.478 2.338 0 4.607-.293 6.773-.842-10.59 6.97-24.606 12.218-42.82 12.27 0 0-29.14 1.412-53.707-24.596 0 0-14.13-13.73-19.22-41.104 0 0-1.063-4.504-4.702-3.483-3.51-7.275-8.363-14.078-14.994-17.588 0 0 8.116 8.428 6.76 21.873-.63-.354-1.27-.69-1.92-1.004-6.777-4.662-18.2-16.37-10.277-39.345 0 0-39.666 32.87-36.95 69.14 0 9.45 3.978 17.96 10.34 23.98l-10.17-.1c-7.83 3.13-7.44 13.89-7.44 13.89h80.7c3.917-7-4.7-13.22-4.7-13.22l-13.522-.14c5.37-4.88 9.117-11.52 10.357-18.99.507.67 1.007 1.35 1.534 2.01 30.608 38.56 86.684 45.02 125.25 14.41 36.99-29.36 44.43-82.15 17.97-120.44zM35.64 188.59c9.78-10.597 2.165-13.45 2.165-13.45s17.625 4.585 19.256 19.665l-.03-.01c.09.57.14 1.148.14 1.74 0 6.754-5.47 12.227-12.23 12.227-6.75 0-12.22-5.473-12.22-12.226 0-3.034 1.11-5.806 2.94-7.942l-.01-.005zm159.507-86.97c0 3.57-2.896 6.466-6.47 6.466-3.57 0-6.465-2.895-6.465-6.467 0-3.58 2.896-6.47 6.465-6.47 3.572 0 6.47 2.89 6.47 6.46zm-61.58.26c0 2.992-2.427 5.418-5.42 5.418s-5.417-2.426-5.417-5.418 2.426-5.418 5.418-5.418 5.418 2.426 5.418 5.418zm-20.352 27.604c-13.424 0-24.306-10.728-24.306-23.958 0-4.142 1.06-8.037 2.94-11.436h17.77c-3.07 3.047-4.97 7.27-4.97 11.936 0 9.29 7.53 16.822 16.82 16.822 5.68 0 10.7-2.818 13.74-7.132-3.89 8.136-12.28 13.768-22.01 13.768zM133.31 94.09h1.25c.72 1.31 1.337 2.68 1.806 4.118-.805-1.528-1.843-2.91-3.057-4.116zm36.424 41.78c-16.567 0-30.002-13.344-30.002-29.803 0-4.26.9-8.31 2.52-11.975h22.53c-2.725 3.43-4.363 7.76-4.363 12.478 0 11.09 8.99 20.08 20.07 20.08 7.26 0 13.63-3.86 17.15-9.644-4.39 11.05-15.24 18.867-27.92 18.867zm26.486-41.78h.992c.533 1.206.992 2.45 1.363 3.73-.646-1.332-1.443-2.58-2.355-3.73zm15.746-15.914s17.955-2.497 6.438 12.163c-.002 0-1.645-6.44-6.438-12.17zm-161.48-7.382c-20.28 0-35 8.43-35 20.047s14.72 20.05 35 20.05 35-8.43 35-20.04-14.72-20.04-35-20.04zm0 25.094c-11.03 0-17.804-3.206-19.667-5.047 1.86-1.84 8.63-5.04 19.66-5.04s17.8 3.21 19.66 5.05c-1.86 1.84-8.64 5.05-19.67 5.05zm-34.2-43.768c8.96 4.087 20.704 6.338 33.072 6.337 12.37 0 24.115-2.25 33.074-6.338 14.617-6.67 16.8-15.71 16.8-20.5S97.045 17.8 82.43 11.13c-8.96-4.087-20.705-6.34-33.074-6.34s-24.114 2.254-33.073 6.34C1.67 17.8-.513 26.835-.513 31.625S1.67 45.455 16.284 52.12zm33.072-32.326c22.65 0 34.87 8.397 34.87 11.83s-12.22 11.833-34.87 11.833c-10.117 0-19.903-1.816-26.847-4.984-5.88-2.686-8.02-5.566-8.02-6.847 0-3.434 12.22-11.83 34.87-11.832z"/></svg>