<svg xmlns="http://www.w3.org/2000/svg" width="241" height="238" viewBox="0 0 241 238"><path d="M222.24 96.742l-.062-.26c16.504-16.524 4.516-26.75 4.516-26.75-6.155-3.935-14.39-1.296-19.32.982-.316-.312-.655-.608-.98-.914l10.594-29.375c-31.334-14.667-49.334 4-49.334 4l11.334-26.667c-50.668-7.333-58 30.667-58 30.667l-2-22.667c-29.092 9.213-24.683 32.88-20.114 45.104-5.36-1.98-19.3-5.49-9.77 16.14-2.853 6.213-4.418 12.942-4.418 19.972 0 6.108 1.192 11.987 3.374 17.5l-1.07-.384s-22 17-4 52l14.666-17.666S91.99 177.09 111.99 190.09l12.334-25.666s-6.335 24.666 17.666 36.666l14.412-15.493c-.574 2.21-.896 4.522-.896 6.913 0 15.175 12.302 27.478 27.478 27.478 2.338 0 4.606-.293 6.772-.842-10.59 6.97-24.604 12.218-42.817 12.27 0 0-29.14 1.412-53.71-24.596 0 0-14.13-13.73-19.23-41.104 0 0-1.56-6.616-7.37-2.006 0 0-5.61 2.832-1.97 12.65.16.44.23.77.21.995 3.2 8.955 7.9 17.547 14.14 25.408 30.6 38.567 86.68 45.02 125.25 14.413 36.99-29.354 44.43-82.14 17.97-120.434zm-27.095 4.877c0 3.57-2.896 6.46-6.47 6.46-3.57 0-6.465-2.9-6.465-6.47 0-3.58 2.896-6.47 6.465-6.47 3.572 0 6.47 2.89 6.47 6.46zm-61.58.26c0 2.99-2.427 5.41-5.42 5.41s-5.417-2.43-5.417-5.42 2.426-5.42 5.418-5.42 5.418 2.42 5.418 5.42zm-20.353 27.6c-13.424 0-24.306-10.73-24.306-23.96 0-4.14 1.066-8.04 2.943-11.44h17.77c-3.07 3.04-4.98 7.27-4.98 11.93 0 9.29 7.53 16.82 16.82 16.82 5.68 0 10.7-2.82 13.74-7.14-3.89 8.14-12.28 13.77-22.01 13.77zm20.095-35.4h1.25c.72 1.3 1.338 2.67 1.807 4.11-.805-1.53-1.843-2.91-3.057-4.12zm36.425 41.78c-16.567 0-30.002-13.35-30.002-29.81 0-4.26.9-8.31 2.52-11.98h22.53c-2.725 3.43-4.363 7.76-4.363 12.48 0 11.09 8.99 20.08 20.078 20.08 7.266 0 13.63-3.86 17.154-9.65-4.39 11.05-15.24 18.87-27.92 18.87zm26.486-41.78h.992c.533 1.2.992 2.44 1.363 3.73-.646-1.34-1.443-2.58-2.355-3.73zm15.746-15.92s17.955-2.5 6.438 12.16c-.002 0-1.645-6.44-6.438-12.17zM23.886 86.33l13.67 16.132 16.733-17.63 11.81 11.83 10.61-10.6-22.7-22.73-15.82 16.674-12.4-14.626L2.2 84.69l9.5 11.607zm55.257 46.045l3.486-5.01-4.2-4.432c-11.93-12.593-24.56-18.977-37.55-18.977-22.83 0-37.39 19.912-37.99 20.76l-3.13 4.354 3.1 4.36c10.8 15.193 23.09 22.897 36.51 22.897 22.82.003 39.08-22.98 39.76-23.958zM18.71 129.41c2.92-2.874 7.46-6.57 13.083-8.71l.73 19.343c-4.676-1.758-9.294-5.307-13.813-10.632zm28.81 10.268l-.754-19.99c5.274 1.285 10.624 4.273 15.994 8.955-3.467 3.687-8.89 8.534-15.24 11.035z"/></svg>