<svg xmlns="http://www.w3.org/2000/svg" width="241" height="238" viewBox="0 0 241 238"><path d="M222.24 96.742l-.062-.26c16.504-16.524 4.516-26.75 4.516-26.75-6.155-3.935-14.39-1.296-19.32.982-5.273-5.194-11.67-9.59-18.866-12.976l3.18-6.023c-17.493-15.238-38.76-13.66-49.317-11.57l-3.34 11.412c-15.61 2.82-29.25 9.937-38.96 19.772-3.94-1.65-21.32-7.84-10.96 15.67-2.85 6.21-4.42 12.94-4.42 19.97 0 31.35 31.05 56.77 69.34 56.77 4.72 0 9.32-.39 13.77-1.12l2.96 5.28c-9.03 4.5-15.23 13.82-15.23 24.6 0 15.17 12.3 27.48 27.48 27.48 2.34 0 4.61-.3 6.77-.85-10.59 6.97-24.6 12.22-42.81 12.27 0 0-29.13 1.41-53.7-24.6 0 0-14.13-13.73-19.22-41.11 0 0-1.56-6.62-7.37-2.01 0 0-5.6 2.83-1.97 12.65.16.44.23.77.21 1 3.2 8.95 7.9 17.54 14.14 25.4 30.61 38.56 86.69 45.02 125.25 14.41C241.3 187.78 248.74 135 222.28 96.7zm-100.77-7.536c-9.29 0-16.82 7.53-16.82 16.82s7.53 16.824 16.82 16.824c5.683 0 10.7-2.82 13.746-7.133-3.885 8.135-12.274 13.768-22.003 13.768-13.424 0-24.306-10.727-24.306-23.958S99.79 81.57 113.213 81.57c10.835 0 20.014 6.986 23.148 16.638-2.81-5.35-8.42-9.002-14.89-9.002zm12.094 12.674c0 2.992-2.426 5.418-5.418 5.418s-5.418-2.426-5.418-5.418 2.426-5.418 5.418-5.418 5.418 2.426 5.418 5.418zm46.933-15.39c-11.088 0-20.078 8.99-20.078 20.078 0 11.09 8.99 20.08 20.07 20.08 7.26 0 13.63-3.86 17.15-9.644-4.39 11.05-15.24 18.868-27.92 18.868-16.57 0-30-13.345-30-29.805s13.43-29.805 30-29.805c13.69 0 25.24 9.11 28.84 21.56-3.25-6.707-10.12-11.332-18.08-11.332zm14.648 15.13c0 3.57-2.896 6.466-6.47 6.466-3.57 0-6.465-2.895-6.465-6.467 0-3.58 2.896-6.47 6.465-6.47 3.572 0 6.47 2.89 6.47 6.46zm16.82-23.445s17.954-2.497 6.437 12.163c-.002 0-1.645-6.436-6.438-12.163zm-13.117-40.03l2.14-4.053c-21-24-51.665-17.667-51.665-17.667l-2.313 7.887c13.733-1.45 33.963-.26 51.838 13.834zm-129.164 68.83c0-1.3.053-2.594.133-3.884h-44.83v-12h46.77c.367-1.38.77-2.76 1.233-4.12-1.04-3.1-1.853-6.46-2.08-9.87H24.988v-12h48.23c.303-.58.627-1.15.997-1.72 3.53-5.41 9.453-8.64 16.377-8.97l.026-.2C85.914 36.62 70.17 24.1 50.95 24.1h-.375c-23.08 0-42.588 18.336-42.588 41.415V141.1H79.85c-6.476-10.15-10.166-21.773-10.166-34.116z"/></svg>