<svg xmlns="http://www.w3.org/2000/svg" width="241" height="238" viewBox="0 0 241 238"><path d="M228.42 107.13l9.245-10.04s-.738-8.273-6.77-17.892c-.206-6.056-4.19-9.467-4.19-9.467-1.69-1.08-3.542-1.65-5.437-1.88-12.045-10.72-32.87-19.78-68.77-17.61-.344.01-.69.01-1.033.02-.55-5.85-2.85-9.68-4.945-11.99-5.32-5.88-12.606-6.15-13.42-6.16H33.222c-2.134-.76-4.42-1.2-6.807-1.2-11.394 0-20.667 9.29-20.708 20.73C5.63 56.88 8.97 67.5 22.23 70.72l3.535-14.58c-4.204-1.02-4.978-3.226-5.06-4.478.02-3.237 2.52-5.766 5.71-5.766 3.13 0 5.582 2.576 5.582 5.864v104.33c.042 10.188 7.758 18.93 17.55 20.696-.347.196-.55.305-.55.305h3.38c.263.02.522.05.786.05.354 0 .703-.02 1.053-.04H64.87c.012.09.03.19.024.27 3.2 8.96 7.9 17.55 14.14 25.41 30.606 38.57 86.682 45.02 125.25 14.42 33.743-26.78 42.88-73.06 24.135-110.05zM47 156.007V51.757c0-1.605-.198-3.163-.54-4.666h86.317l.025.01h.195l-.188.01c.37.05 1.78.28 2.63 1.28.65.76 1.02 2.03 1.12 3.67-6.31 1.35-12.27 3.4-17.75 6.05h68.18c4.14 0 7.5 3.36 7.5 7.5 0 4.14-3.36 7.5-7.5 7.5h-86c-2.64 0-4.95-1.36-6.29-3.42-5.98-1.15-13.14.21-5.6 17.33-2.86 6.22-4.42 12.95-4.42 19.98 0 16.71 8.82 31.73 22.85 42.12H59v7.5c0 2.85-2.83 5.54-6 5.54-3.23 0-6-2.92-6-6.12zm123.753 11.898c-.832.414-1.63.884-2.412 1.378l1.12-3.705 1.3 2.326zm-49.27-78.7c-9.293 0-16.823 7.53-16.823 16.82s7.53 16.824 16.822 16.824c5.68 0 10.7-2.82 13.744-7.14-3.885 8.13-12.274 13.77-22.002 13.77-13.424 0-24.306-10.73-24.306-23.96S99.8 81.57 113.224 81.57c10.834 0 20.012 6.986 23.15 16.637-2.813-5.35-8.426-9-14.892-9zm12.094 12.674c0 2.99-2.427 5.41-5.418 5.41-3 0-5.42-2.43-5.42-5.42s2.42-5.42 5.42-5.42c2.99 0 5.41 2.42 5.41 5.42zm13.37 129.53s-29.137 1.41-53.705-24.6c0 0-10.212-9.94-16.4-29.73h83.426c-2.992 4.4-4.752 9.7-4.752 15.42 0 15.17 12.3 27.48 27.478 27.48 2.338 0 4.606-.3 6.772-.85-10.59 6.97-24.603 12.21-42.818 12.27zM180.51 86.49c-11.09 0-20.078 8.99-20.078 20.078 0 11.09 8.99 20.08 20.077 20.08 7.26 0 13.63-3.86 17.15-9.644-4.39 11.05-15.24 18.868-27.92 18.868-16.57 0-30-13.345-30-29.805s13.43-29.805 30-29.805c13.69 0 25.24 9.11 28.84 21.56-3.25-6.707-10.13-11.332-18.08-11.332zm14.644 15.13c0 3.57-2.896 6.466-6.47 6.466-3.568 0-6.464-2.895-6.464-6.467 0-3.58 2.896-6.47 6.465-6.47 3.574 0 6.47 2.89 6.47 6.46z"/></svg>