<svg xmlns="http://www.w3.org/2000/svg" width="241" height="238" viewBox="0 0 241 238"><path d="M222.24 96.742l-.062-.26c16.506-16.524 4.516-26.75 4.516-26.75-6.154-3.935-14.39-1.296-19.32.982-3.277-3.228-6.99-6.146-11.053-8.71l10.67-3.912-6-11 15 4 20-32c-28.91 0-50.24 20.855-60.73 33.85-3.78-.996-7.71-1.732-11.74-2.185C173.92 39.173 189 24.092 189 24.092c-46-10-98 36-98 36l18 3.75c-3.24 2.27-6.24 4.768-8.924 7.487C96.13 69.68 78.75 63.49 89.11 87c-2.854 6.212-4.42 12.94-4.42 19.97 0 31.353 31.046 56.77 69.34 56.77 4.714 0 9.315-.387 13.765-1.12l2.955 5.285c-9.035 4.502-15.24 13.827-15.24 24.604 0 15.17 12.3 27.48 27.477 27.48 2.337 0 4.606-.3 6.773-.85-10.59 6.97-24.603 12.22-42.82 12.27 0 0-29.136 1.41-53.704-24.6 0 0-12.747-12.4-18.388-37.11l16.557 3.73 26.587 6.65c-1.382-2.81-2.547-6.12-3.512-9.75-18.622-8.45-33.095-22.67-40.117-39.84l-10.626 2.66-47.93-36.26L3.385 154l45.87 9.956 14.67 3.303c-.67 1.97-.817 4.89.743 9.1.16.44.23.77.21.99 3.2 8.95 7.9 17.54 14.14 25.4 30.606 38.56 86.682 45.02 125.25 14.41 36.99-29.36 44.43-82.14 17.97-120.44zm-100.77-7.536c-9.29 0-16.82 7.53-16.82 16.82s7.53 16.824 16.82 16.824c5.683 0 10.7-2.82 13.746-7.133-3.884 8.135-12.274 13.768-22.003 13.768-13.424 0-24.306-10.727-24.306-23.958S99.79 81.57 113.213 81.57c10.835 0 20.014 6.986 23.15 16.637-2.815-5.35-8.425-9-14.892-9zm12.094 12.674c0 2.992-2.426 5.418-5.418 5.418s-5.418-2.426-5.418-5.418 2.426-5.418 5.418-5.418c2.995 0 5.418 2.426 5.418 5.418zm46.934-15.39c-11.09 0-20.08 8.99-20.08 20.078 0 11.09 8.99 20.08 20.08 20.08 7.266 0 13.63-3.86 17.152-9.644-4.39 11.05-15.232 18.868-27.916 18.868-16.57 0-30.002-13.345-30.002-29.805s13.433-29.805 30.002-29.805c13.69 0 25.238 9.11 28.84 21.56-3.252-6.707-10.124-11.332-18.076-11.332zm14.647 15.13c0 3.57-2.896 6.466-6.47 6.466-3.57 0-6.465-2.895-6.465-6.467 0-3.58 2.896-6.47 6.466-6.47 3.572 0 6.47 2.89 6.47 6.46zm16.82-23.445s17.954-2.497 6.437 12.163c-.002 0-1.644-6.436-6.438-12.163zM70.577 117.38c-.583-3.398-.893-6.872-.893-10.406 0-4.63.522-9.2 1.536-13.682L19.14 81.99l47.847 36.195 3.59-.805z"/></svg>