<svg xmlns="http://www.w3.org/2000/svg" width="241" height="238" viewBox="0 0 241 238"><path d="M21.07 60.015l.075.023-.065-.058zm201.17 36.727l-.062-.26c16.506-16.524 4.516-26.75 4.516-26.75-6.154-3.935-14.39-1.296-19.32.982-.885-.87-1.81-1.714-2.753-2.54l27.37-10.084s-4-26-20-29c-11.17-2.09-33.05 12.86-45.24 22.088-4.12-.626-8.36-.97-12.71-.97-2.52 0-5 .123-7.45.337C162.47 39.53 196 23.092 196 23.092c-46-10-105 37-105 37l18 3.75c-3.24 2.27-6.24 4.77-8.924 7.488-3.94-1.642-21.32-7.838-10.96 15.673-2.853 6.215-4.42 12.944-4.42 19.974 0 31.352 31.046 56.768 69.34 56.768 4.714 0 9.315-.387 13.765-1.12l2.96 5.285c-9.03 4.502-15.24 13.827-15.24 24.604 0 15.176 12.3 27.477 27.48 27.477 2.34 0 4.61-.29 6.78-.84-10.59 6.97-24.6 12.22-42.82 12.27 0 0-29.13 1.42-53.7-24.59 0 0-14.13-13.73-19.22-41.1 0 0-1.55-6.61-7.37-2 0 0-5.6 2.83-1.97 12.65.17.44.23.77.22 1 3.2 8.96 7.9 17.55 14.14 25.41 30.61 38.57 86.68 45.02 125.25 14.42 36.99-29.35 44.43-82.14 17.97-120.43zm-100.77-7.536c-9.29 0-16.82 7.53-16.82 16.82s7.53 16.824 16.82 16.824c5.683 0 10.7-2.82 13.746-7.133-3.884 8.135-12.274 13.768-22.003 13.768-13.424 0-24.306-10.727-24.306-23.958S99.79 81.57 113.213 81.57c10.835 0 20.014 6.986 23.148 16.638-2.81-5.35-8.42-9.002-14.89-9.002zm12.094 12.674c0 2.992-2.426 5.418-5.418 5.418s-5.418-2.426-5.418-5.418 2.426-5.418 5.418-5.418 5.418 2.426 5.418 5.418zm46.934-15.39c-11.09 0-20.08 8.99-20.08 20.078 0 11.09 8.99 20.08 20.08 20.08 7.266 0 13.63-3.86 17.152-9.644-4.39 11.05-15.232 18.868-27.916 18.868-16.57 0-30.002-13.345-30.002-29.805s13.433-29.805 30.002-29.805c13.69 0 25.238 9.11 28.84 21.56-3.252-6.707-10.124-11.332-18.076-11.332zm14.647 15.13c0 3.57-2.896 6.466-6.468 6.466s-6.467-2.895-6.467-6.467c0-3.58 2.896-6.47 6.467-6.47s6.468 2.89 6.468 6.46zm16.82-23.445s17.954-2.497 6.437 12.162c-.002 0-1.644-6.435-6.438-12.162zM22.01 30.103L3.32 36.425l31.667 9.666zm29.536 39.045l-30.402-9.11 37.16 32.925 13.472-1.937c.362-1.362.76-2.716 1.214-4.06-1.257-3.75-2.187-7.882-2.14-12.033l-4.438-1.33 12.634-20.588-.194-.12 25.772-10.692-28.005-4.1 4.64-14.676L104.65.092l-35.078 8.73-21.12 25.526-26.446-4.245 37.897 25.42-8.362 13.625zm14.62 68.04c.15.045.293.105.44.154l12.765 3.825c-.29-.745-.58-1.495-.85-2.247-5.65-9.627-8.83-20.475-8.83-31.946 0-1.353.06-2.7.15-4.04l-15.16 2.18L17.44 72.13 3.56 118.45l62.118 18.614c.162.045.327.08.49.126z"/></svg>