<svg xmlns="http://www.w3.org/2000/svg" width="241" height="238" viewBox="0 0 241 238"><path d="M222.24 96.742l-.062-.26c16.506-16.524 4.516-26.75 4.516-26.75-6.154-3.935-14.39-1.296-19.32.982-2.443-2.406-5.128-4.64-8.018-6.686l13.965-25.604C175.99 5.09 132.66 23.09 132.66 23.09l3.357 22.944-34.02-9.61S98.38 48.162 124.92 55.46c-9.705 3.683-18.208 9.132-24.856 15.87-3.938-1.643-21.318-7.84-10.96 15.672-2.853 6.214-4.418 12.943-4.418 19.973 0 31.352 31.045 56.768 69.34 56.768 4.712 0 9.313-.388 13.763-1.12l2.95 5.284c-9.03 4.502-15.24 13.827-15.24 24.604 0 15.18 12.3 27.48 27.47 27.48 2.34 0 4.6-.29 6.77-.84-10.59 6.97-24.61 12.22-42.82 12.27 0 0-29.14 1.42-53.71-24.59 0 0-14.13-13.73-19.23-41.1 0 0-.19-.79-.67-1.63L88 154.94c4.92-4.91 3.75-16.77-3.064-27.82-6.807-11.03-16.86-17.39-23.46-15.224 5.843-3.974 6.296-14.015.925-22.72C56.94 80.3 47.5 76.196 41.33 80c-6.17 3.81-6.6 14.3-1.124 23.17 4.95 8.02 12.956 11.835 19.35 10.24L28.2 132.22l-.03-.028c-5.74 3.813-5.485 14.965.306 25.963-6.09 5.99-17.835 15.668-27.204 15.943l.442 14.993c14.44-.42 28.562-11.86 35.9-18.88 6.125 5.62 12.827 7.94 17.33 5.36l8.507-5.31c-.01 1.65.32 3.66 1.23 6.11.17.44.23.77.22 1 3.2 8.96 7.9 17.55 14.14 25.41 30.61 38.57 86.68 45.02 125.25 14.42 36.99-29.35 44.43-82.14 17.97-120.43zM65.497 121.746c2.41.953 6.995 4.193 10.948 10.6 3.953 6.406 4.795 11.957 4.566 14.54-2.41-.954-6.99-4.194-10.94-10.6-3.95-6.406-4.79-11.957-4.56-14.54zm55.975-32.54c-9.288 0-16.82 7.53-16.82 16.82s7.532 16.824 16.82 16.824c5.683 0 10.7-2.82 13.746-7.133-3.884 8.135-12.274 13.768-22.002 13.768-13.424 0-24.306-10.727-24.306-23.958S99.79 81.57 113.214 81.57c10.834 0 20.013 6.986 23.147 16.638-2.81-5.35-8.42-9.002-14.89-9.002zm12.094 12.674c0 2.992-2.426 5.418-5.418 5.418s-5.418-2.426-5.418-5.418 2.426-5.418 5.418-5.418 5.418 2.426 5.418 5.418zM180.5 86.49c-11.09 0-20.08 8.99-20.08 20.078 0 11.09 8.99 20.08 20.08 20.08 7.266 0 13.63-3.86 17.152-9.644-4.39 11.05-15.232 18.868-27.916 18.868-16.57 0-30.002-13.345-30.002-29.805s13.433-29.805 30.002-29.805c13.69 0 25.238 9.11 28.84 21.56-3.252-6.707-10.124-11.332-18.076-11.332zm14.647 15.13c0 3.57-2.896 6.466-6.468 6.466s-6.47-2.895-6.47-6.467c0-3.58 2.89-6.47 6.46-6.47s6.46 2.89 6.46 6.46zm16.82-23.445s17.954-2.497 6.437 12.163c-.002 0-1.644-6.436-6.438-12.163z"/></svg>