<svg xmlns="http://www.w3.org/2000/svg" width="241" height="238" viewBox="0 0 241 238"><path d="M32.415 107.81c1.15 2.976 3.99 4.8 7 4.8.738 0 1.488-.118 2.226-.35l2.18 5.62 22.39-8.652L64 103.49c2.94-1.88 4.255-5.63 2.947-9.01-1.495-3.86-5.837-5.78-9.7-4.29l-20.52 7.93c-3.867 1.5-5.79 5.84-4.296 9.7zM238 94.09l-19-39c-13-30-57-26-57-26-57-10-64 34-64 34l-2.214 8.12c-4.415-1.787-20.8-7.197-10.67 15.792-2.853 6.214-4.418 12.943-4.418 19.973 0 31.352 31.045 56.768 69.34 56.768 4.713 0 9.315-.388 13.764-1.12l2.954 5.284c-9.03 4.502-15.236 13.827-15.236 24.604 0 15.18 12.3 27.48 27.477 27.48 2.338 0 4.607-.29 6.773-.84-10.59 6.97-24.604 12.22-42.818 12.27 0 0-29.138 1.42-53.705-24.59 0 0-10.902-10.6-17.004-31.73H103v-15H88v-14H12.426l64.776-25.03-5.407-13.99-68.092 26.31L9 147.09v13.004H-4v15h64.267c.127.415.252.827.416 1.27.163.44.23.77.212.996 3.2 8.955 7.9 17.548 14.14 25.408 30.606 38.567 86.682 45.02 125.248 14.414 34.883-27.684 43.473-76.195 22.152-113.75L238 94.09zm-120.517-4.884c-9.29 0-16.82 7.53-16.82 16.82s7.53 16.824 16.82 16.824c5.68 0 10.7-2.82 13.746-7.133-3.89 8.135-12.28 13.768-22.01 13.768-13.43 0-24.31-10.727-24.31-23.958S95.8 81.57 109.23 81.57c10.834 0 20.01 6.986 23.15 16.637-2.817-5.35-8.428-9-14.895-9zm12.095 12.674c0 2.992-2.426 5.418-5.418 5.418s-5.418-2.426-5.418-5.418 2.426-5.418 5.418-5.418 5.418 2.426 5.418 5.418zm46.934-15.39c-11.09 0-20.08 8.99-20.08 20.078 0 11.09 8.99 20.08 20.08 20.08 7.266 0 13.63-3.86 17.152-9.644-4.39 11.05-15.232 18.868-27.917 18.868-16.57 0-30.002-13.345-30.002-29.805s13.433-29.805 30.002-29.805c13.69 0 25.24 9.11 28.84 21.56-3.252-6.707-10.124-11.332-18.075-11.332zm14.644 15.13c0 3.57-2.896 6.466-6.467 6.466-3.58 0-6.47-2.895-6.47-6.467 0-3.58 2.89-6.47 6.46-6.47s6.46 2.89 6.46 6.46zm17.233-23.493l.33.987c-.24-.314-.49-.628-.75-.94 0 0 .15-.02.41-.047z"/><circle cx="14.5" cy="32.341" r="7.5"/><circle cx="14.5" cy="68.341" r="7.5"/><path d="M37 81.09c3.313 0 6-2.686 6-6v-50c0-3.312-2.687-6-6-6s-6 2.688-6 6v50c0 3.315 2.687 6 6 6z"/></svg>