<svg xmlns="http://www.w3.org/2000/svg" width="241" height="238" viewBox="0 0 241 238"><path d="M222.24 96.742l-.062-.26c16.506-16.524 4.516-26.75 4.516-26.75-6.154-3.935-14.39-1.296-19.32.982 10.543-48.04-59.73-51.483-82.387-35.623-20 14-33.15 2.67-33.15 2.67-14.22 20.25.5 29.77 8.588 33.23-.117.12-.244.23-.36.35-3.938-1.64-21.32-7.84-10.96 15.68-2.854 6.22-4.42 12.95-4.42 19.98 0 31.35 31.047 56.77 69.34 56.77 4.714 0 9.315-.39 13.765-1.12l2.954 5.29c-9.032 4.5-15.237 13.83-15.237 24.61 0 15.18 12.3 27.48 27.477 27.48 2.338 0 4.607-.29 6.774-.84-10.59 6.97-24.604 12.22-42.82 12.27 0 0-29.137 1.41-53.704-24.59 0 0-3.063-2.98-6.85-8.92l27.427-13.46c.61-.04 1.11-.22 1.48-.56l.06-.06-.04-.05c2.25-3.46-4.06-14.22-14.18-25.15-10.12-10.93-20.36-18.05-23.98-16.07l-.04-.04c-.03.03-.07.05-.11.09-.36.34-.57.81-.65 1.41l-8.19 13.87c-1.37-1.68-3.46-2.76-5.81-2.76H45.31l-.49-6h4.507c4.143 0 7.5-3.35 7.5-7.5 0-4.14-3.357-7.5-7.5-7.5H40.99V122.8l27.703 8.386c.474.387.796.59 1.298.59.17 0 .24-.028.4-.07-.03.013.22.025.19.034l.42.037v-.074c3-1.01 6.68-13.194 6.68-28.09s-3.69-27.1-6.69-28.11v-.075l-.46.038c.04.008-.09.02-.06.032-.15-.04-.4-.07-.56-.07-.5 0-1.03.204-1.5.587L31.85 86.94l-.02-.003c-3.867 0-6.673 7.463-6.673 16.668 0 2.18-.173 4.254.827 6.16v24.327H19.32c-4.143 0-7.5 3.357-7.5 7.5s3.357 7.5 7.5 7.5h2.508l-4.1 50H12.32c-4.143 0-7.5 3.357-7.5 7.5s3.357 7.5 7.5 7.5h45c4.142 0 7.5-3.357 7.5-7.5s-3.358-7.5-7.5-7.5h-8.41l-2.377-29h14.374l-3.963 6.717c-.002 0 0-.01-.003 0-2.83 2.62-.06 10.22 6.19 16.98 5.52 5.95 11.89 9.25 15.27 8.15.21.27.41.55.63.82 30.61 38.56 86.68 45.02 125.25 14.41 37-29.36 44.44-82.14 17.97-120.44zM69.82 80.925c1.44 3.442 3.177 11.28 3.177 22.667 0 11.387-1.737 19.225-3.177 22.667-1.44-3.45-3.177-11.28-3.177-22.67 0-11.39 1.738-19.23 3.177-22.67zm28.656 80.123c7.736 8.354 11.786 15.286 13.07 18.79-3.396-1.548-9.997-6.117-17.733-14.473-7.736-8.356-11.786-15.287-13.068-18.79 3.394 1.548 9.994 6.118 17.73 14.473zm22.995-71.842c-9.29 0-16.82 7.53-16.82 16.82s7.53 16.824 16.82 16.824c5.69 0 10.7-2.82 13.75-7.133-3.88 8.135-12.27 13.768-22 13.768-13.42 0-24.3-10.727-24.3-23.958S99.8 81.57 113.22 81.57c10.836 0 20.015 6.986 23.15 16.637-2.81-5.35-8.42-9-14.89-9zm12.1 12.674c0 2.992-2.42 5.418-5.42 5.418s-5.42-2.426-5.42-5.418 2.43-5.418 5.42-5.418 5.42 2.426 5.42 5.418zm46.93-15.39c-11.09 0-20.08 8.99-20.08 20.078 0 11.09 8.99 20.08 20.08 20.08 7.27 0 13.63-3.86 17.15-9.644-4.39 11.05-15.23 18.868-27.91 18.868-16.57 0-30-13.345-30-29.805s13.44-29.805 30-29.805c13.69 0 25.24 9.11 28.84 21.56-3.25-6.707-10.12-11.332-18.07-11.332zm14.65 15.13c0 3.57-2.89 6.466-6.47 6.466s-6.46-2.895-6.46-6.467c0-3.58 2.9-6.47 6.47-6.47s6.47 2.89 6.47 6.46zm16.82-23.445s17.96-2.497 6.44 12.163c0 0-1.64-6.437-6.44-12.163zm-96.59 105.557l-.02.043c.09-.088.16-.178.23-.28-.02.032-.19.208-.21.237zm-38.04-41.398c-.08.047-.15.088-.22.135l.05-.02c.03-.02.14-.1.18-.12zm-.26.146l.01.01.03-.022-.03.012zm38.29 41.295l-.02.03.01.01.02-.04z"/></svg>