<svg xmlns="http://www.w3.org/2000/svg" width="241" height="238" viewBox="0 0 241 238"><circle cx="51.35" cy="68.086" r="25.088"/><path d="M51.35 31.664c16.97 0 31.216 13.254 34.998 27.592 2.023-.583 4.186-.89 6.445-.89 1.48 0 2.942.126 4.357.34 1.246-1 2.534-1.95 3.842-2.878V35.59c0-7.23-7.32-12.994-14.55-12.994h-6.45v-5.913c0-7.23-5.774-12.087-13.004-12.087H34.99c-7.227 0-13.997 4.857-13.997 12.087v5.913h-5.09c-7.23 0-12.91 5.766-12.91 12.996v26.004H15.92c2.997-15 17.737-29.932 35.43-29.932zm19.398 81.92c-1.437-1.707-2.453-3.563-3.16-5.104-1.14-2.493-1.765-5.13-2.042-7.643-4.357 1.766-9.152 2.943-14.195 2.943-18.29 0-33.42-12.186-35.69-31.186H3v28.446c0 7.23 5.68 14.554 12.91 14.554h54.94c-.04-.998-.07-1.42-.095-2.01zm161.244 67.012l-.39-.053c10.792-26.984 8.096-58.54-9.356-83.797-.02-.087-.043-.174-.063-.26 16.504-16.524 4.516-26.75 4.516-26.75-6.16-3.936-14.4-1.297-19.33.982-12.72-12.53-31.9-20.507-53.35-20.507-21.81 0-41.25 8.24-53.96 21.12-3.94-1.64-21.32-7.83-10.96 15.68-.7 1.53-1.33 3.09-1.87 4.68-1.62.55-10.64 3.22-10.64-5.25 0 0-8.79 20.35 8.38 25.74 3.21 28.92 32.88 51.58 69.04 51.58 4.71 0 9.31-.39 13.76-1.12l2.95 5.29c-2.02 1.01-3.88 2.26-5.58 3.71l-.18-.02-35.5 18s19 4 27 15c1.05 1.45 2.59 2.94 4.51 4.4 5.01 6.67 13 10.99 21.99 10.99 2.34 0 4.6-.29 6.77-.84-10.59 6.98-24.61 12.22-42.82 12.27 0 0-29.14 1.42-53.71-24.59 0 0-14.13-13.73-19.23-41.1 0 0-1.56-6.62-7.37-2.01 0 0-5.61 2.83-1.97 12.65.16.44.23.77.21 1 3.2 8.96 7.9 17.55 14.14 25.41 30.54 38.49 86.46 44.99 125.01 14.59 7.39-1.81 14.76-5.47 21.45-11.76 0 0 6-4 12.5 1l-6-26zm-43.31-85.44c3.57 0 6.467 2.895 6.467 6.467 0 3.572-2.9 6.467-6.47 6.467s-6.47-2.895-6.47-6.467c0-3.572 2.89-6.467 6.46-6.467zm-60.53 1.31c2.992 0 5.418 2.427 5.418 5.42 0 2.99-2.426 5.417-5.418 5.417s-5.418-2.426-5.418-5.418 2.426-5.418 5.418-5.418zM113.22 129.49c-13.426 0-24.308-10.728-24.308-23.957 0-3.163.628-6.18 1.758-8.944 9.695-7.15 18.686-8.21 26.17-6.72-7.033 2.01-12.186 8.48-12.186 16.16 0 9.29 7.53 16.82 16.82 16.82 5.683 0 10.7-2.82 13.747-7.14-3.88 8.13-12.27 13.77-22 13.77zm56.518 6.387c-16.568 0-30.002-13.345-30.002-29.805 0-2.988.45-5.87 1.272-8.594 4.91-3.15 17.035-9.775 31.747-9.43-7.242 3.03-12.333 10.183-12.333 18.525 0 11.09 8.99 20.08 20.08 20.08 7.265 0 13.63-3.86 17.15-9.644-4.384 11.05-15.23 18.87-27.914 18.87zm27.804-39.902c.18.117.356.23.534.352.174.498.354.992.502 1.5-.31-.64-.662-1.253-1.036-1.852zM211.97 78.18s17.954-2.497 6.437 12.162c0 0-1.643-6.436-6.438-12.162z"/></svg>