<svg xmlns="http://www.w3.org/2000/svg" width="241" height="238" viewBox="0 0 241 238"><path d="M93.987 56.092c-9.69-9.898-17.5-52.588-17.5-52.588S68.35 46.61 58.5 56.568C48.44 66.74 4.514 75.508 4.514 75.508s34.516 15.93 50.974 22.585c-1.485-10.28-5.5-16 2.5-27 1.016-1.396 17.052-13.728 36.15-14.855-.05-.05-.103-.096-.15-.145zm137.61 124.448c10.794-26.985 8.097-58.542-9.354-83.798-.02-.087-.043-.174-.063-.26 16.504-16.524 4.516-26.75 4.516-26.75-6.155-3.936-14.39-1.297-19.322.982-12.72-12.53-31.893-20.507-53.348-20.507-21.803 0-41.25 8.24-53.96 21.12-3.306-1.378-16.075-5.956-13.97 6.51-6.03.497-12.435 1.603-19.107 3.587 0 0-3.48 42.627 26.99 53.92 11.98 16.97 34.37 28.397 60.04 28.397 4.71 0 9.31-.38 13.76-1.12l2.95 5.29c-2.02 1.01-3.88 2.26-5.58 3.71l-.18-.02-35.5 18s19 4 27 15c1.05 1.45 2.59 2.95 4.5 4.4 5.01 6.68 12.99 11 21.98 11 2.34 0 4.6-.29 6.77-.84-10.59 6.98-24.61 12.22-42.82 12.27 0 0-29.14 1.42-53.71-24.59 0 0-14.13-13.73-19.23-41.1 0 0-1.56-6.61-7.37-2 0 0-5.61 2.84-1.97 12.65.16.44.23.77.21 1 3.2 8.96 7.9 17.55 14.14 25.41 30.55 38.49 86.46 44.99 125.02 14.59 7.38-1.81 14.76-5.47 21.45-11.76 0 0 6-4 12.5 1l-6-26-.39-.05zM218.4 90.337s-1.644-6.436-6.438-12.162c.002 0 17.957-2.497 6.438 12.162zm-20.33 5.982c.175.49.354.99.503 1.5-.312-.64-.662-1.26-1.036-1.86.178.12.358.23.533.35zm-9.394-1.17c3.572 0 6.47 2.89 6.47 6.46s-2.897 6.46-6.47 6.46c-3.57 0-6.466-2.9-6.466-6.47 0-3.58 2.894-6.47 6.466-6.47zm-60.53 1.31c2.992 0 5.418 2.42 5.418 5.42 0 2.99-2.426 5.41-5.418 5.41s-5.418-2.43-5.418-5.42c0-2.99 2.426-5.42 5.418-5.42zm-14.932 33.02c-13.425 0-24.307-10.73-24.307-23.96 0-3.17.628-6.18 1.758-8.95 9.695-7.15 18.686-8.21 26.17-6.72-7.033 2.01-12.186 8.48-12.186 16.16 0 9.29 7.53 16.82 16.82 16.82 5.68 0 10.7-2.82 13.74-7.13-3.89 8.13-12.28 13.77-22 13.77zm56.52 6.38c-16.57 0-30.002-13.35-30.002-29.81 0-2.99.447-5.87 1.27-8.6 4.91-3.15 17.036-9.78 31.748-9.43-7.243 3.03-12.333 10.18-12.333 18.52 0 11.09 8.99 20.08 20.08 20.08 7.266 0 13.63-3.86 17.152-9.65-4.39 11.05-15.24 18.87-27.92 18.87z"/></svg>