<svg xmlns="http://www.w3.org/2000/svg" width="241" height="238" viewBox="0 0 241 238"><path d="M51.378 137.69l-8.728-15.622-.33-.642-.998 28.793 28.33-8.8zm-10.064 12.74l.008-.21-.67.206zm190.284 30.11c10.793-26.985 8.096-58.542-9.355-83.798-.02-.087-.043-.174-.063-.26 16.504-16.524 4.516-26.75 4.516-26.75-2.57-1.643-5.504-2.13-8.406-1.986.804-10.897.23-49.025-48.3-42.154 0 0-72-2-82.5 13-7.522 10.745 4.453 8.405 11.853 6.213-8.48 3.01-24.326 9.532-22.854 15.787 2 8.5 27.5-1.5 27.5-1.5s0 1.725.79 7.935c-1.66 1.37-3.24 2.8-4.72 4.3-3.31-1.377-16.08-5.955-13.97 6.51-6.03.498-12.44 1.604-19.11 3.588 0 0-.94 11.497 2.42 24.13-10.17-6.883-23.23-8.84-35.21-4.738l-4.07-7.273 7.86-4.39-7.32-13.096-28.8 16.098 7.32 13.094 7.85-4.39 4.13 7.396c-14.05 12.06-18.17 32.774-8.8 49.55 10.24 18.33 32.94 25.394 51.65 16.55.17.638.37 1.3.63 2.006.16.44.23.77.21.996 3.2 8.955 7.9 17.547 14.14 25.408 30.54 38.49 86.46 44.987 125.01 14.59 7.38-1.808 14.76-5.47 21.45-11.764 0 0 6-4 12.5 1l-6-26-.39-.053zm-98.034-78.66c0 2.993-2.426 5.42-5.418 5.42s-5.418-2.427-5.418-5.42c0-2.99 2.426-5.417 5.418-5.417s5.418 2.426 5.418 5.418zm-20.35 27.604c-13.425 0-24.307-10.728-24.307-23.958 0-3.164.628-6.182 1.758-8.945 9.695-7.14 18.686-8.2 26.17-6.71-7.033 2.02-12.186 8.48-12.186 16.16 0 9.29 7.53 16.82 16.82 16.82 5.68 0 10.7-2.82 13.74-7.13-3.89 8.14-12.28 13.77-22 13.77zm85.36-31.663c-.313-.64-.663-1.25-1.037-1.85.178.12.355.23.533.35.175.5.356 1 .503 1.5zm-9.898-2.66c3.572 0 6.47 2.9 6.47 6.47s-2.897 6.47-6.47 6.47c-3.57 0-6.466-2.89-6.466-6.46s2.894-6.47 6.466-6.47zm-47.67 2.32c4.91-3.15 17.034-9.77 31.746-9.43-7.243 3.03-12.333 10.19-12.333 18.53 0 11.09 8.99 20.08 20.07 20.08 7.26 0 13.63-3.86 17.15-9.64-4.39 11.05-15.24 18.87-27.92 18.87-16.57 0-30-13.34-30-29.8 0-2.98.45-5.87 1.27-8.59zm77.394-7.14s-1.644-6.43-6.438-12.16c.002 0 17.957-2.49 6.438 12.16zM25.475 150.49c-6.656-11.913-2.38-27.02 9.532-33.677 11.913-6.655 27.02-2.38 33.676 9.534 6.656 11.913 2.38 27.02-9.53 33.678-11.916 6.656-27.022 2.378-33.678-9.534zm121.463 80.928s-29.14 1.412-53.706-24.596c0 0-13.56-13.19-18.897-39.473 9.8-9.24 14.21-22.88 11.85-36.01 2.313 1.57 4.903 2.92 7.797 4 11.984 16.97 34.375 28.4 60.043 28.4 4.713 0 9.314-.39 13.764-1.12l2.95 5.28c-2.02 1-3.88 2.26-5.58 3.71l-.18-.03-35.5 18s19 4 27 15c1.05 1.44 2.59 2.94 4.51 4.4 5.01 6.68 12.99 10.99 21.98 10.99 2.34 0 4.6-.3 6.77-.84-10.59 6.97-24.61 12.22-42.82 12.27z"/></svg>