<svg xmlns="http://www.w3.org/2000/svg" width="241" height="238" viewBox="0 0 241 238"><path d="M105.64 64.76s-18-34.333 29-36.667c34.09-1.692 46 0 58.333 3.334 25.87 6.992 53.334 26.666 42.666 41.333-10.67 14.667-52.67-14-52.67-14l-77.34 6zm74.667-29.333s-5.334-18.667 9.332-18.667l10.66 8.667s-22.67 2-12 22M94 127H12v54h82v-54zm-73 9h64v10H21v-10zm20.666 27.416c0 5.576-4.52 10.052-10.096 10.052-5.576 0-10.096-4.454-10.096-10.03 0-4.387 2.803-6.438 6.71-9.438h6.77c3.91 3 6.712 5.03 6.712 9.416zM12 188h82v10H12zm0 15h82v9H12zm0 14h82v9H12zM66.96 0H52v44.63c-5-2.24-10.62-3.537-16.77-3.537-17.535 0-31.76 10.52-31.76 23.5s14.208 23.5 31.744 23.5 31.75-9.818 31.75-22.796c0-.675-.052-1.296-.126-1.296H67V17.6C95 20.34 104.96 0 104.96 0h-38zm95.013 171.593l-35.5 18s19 4 27 15 43.5 25 69 1c0 0 6-4 12.5 1l-6-26"/><path d="M219.227 96.743c-.02-.087-.043-.174-.063-.26 16.505-16.524 4.516-26.75 4.516-26.75-6.154-3.936-14.39-1.297-19.322.982-12.72-12.53-31.893-20.507-53.346-20.507-21.804 0-41.252 8.24-53.963 21.12-3.31-1.378-16.08-5.956-13.97 6.51-6.03.497-12.44 2.057-19.11 4.04 0 0-1.59 19.122 6.84 36.122h18.1c-1.93-4-3.02-7.824-3.02-12.018 0-3.164.63-6.41 1.76-9.172 9.69-7.143 18.68-8.32 26.17-6.827-7.04 2.015-12.19 8.422-12.19 16.103 0 9.29 7.53 16.793 16.82 16.793 5.68 0 10.7-2.84 13.74-7.15-3.89 8.13-12.26 13.76-21.99 13.76-2.52 0-5.22-.39-7.22-1.09v19.47c12 9.81 29.37 15.86 48.02 15.86 4.71 0 9.31-.39 13.75-1.12l2.95 5.28c-9.03 4.5-15.24 13.83-15.24 24.6 0 15.17 12.3 27.47 27.47 27.47 2.34 0 4.6-.29 6.77-.84-10.59 6.97-24.59 12.21-42.8 12.27 0 0-19.94.95-40.94-13.59v7.71c30 16.7 69.31 14.62 98.27-8.36 36.99-29.36 44.42-82.15 17.96-120.44zM125.133 107.3c-2.992 0-5.418-2.426-5.418-5.418s2.426-5.418 5.418-5.418 5.418 2.426 5.418 5.418-2.42 5.418-5.41 5.418zm60.528-12.147c3.58 0 6.47 2.895 6.47 6.467 0 3.572-2.89 6.467-6.47 6.467s-6.46-2.895-6.46-6.467c0-3.572 2.9-6.467 6.47-6.467zm-18.94 40.72c-16.57 0-30-13.346-30-29.806 0-2.988.45-5.87 1.27-8.594 4.91-3.15 17.04-9.775 31.75-9.43-7.24 3.03-12.33 10.183-12.33 18.525 0 11.09 8.99 20.08 20.08 20.08 7.27 0 13.63-3.862 17.16-9.645-4.39 11.052-15.23 18.87-27.91 18.87zm27.8-39.903c.18.117.36.23.54.353.18.498.36.992.5 1.5-.31-.64-.66-1.254-1.03-1.853zm14.43-17.793s17.96-2.497 6.44 12.162c0 0-1.64-6.44-6.44-12.17z"/></svg>