<svg xmlns="http://www.w3.org/2000/svg" width="241" height="238" viewBox="0 0 241 238"><path d="M143.826 102.037c39.578 6.326 74.19-4.424 77.305-23.97 1.64-10.203-5.62-20.77-18.55-29.463.45 9.875-.49 19.316-4.39 23.793-15.54 17.853-90.45 17.09-92.67-19.49-.3-5.025.45-12.505 2.34-20.242 9.28 12.88 33.49 30.174 94.64 14.292-.77-12.298-3.59-24.867-5.6-29.093-3.74-7.827-13.12-2.73-17.64-1.876-4.53.854-9.8-1.563-9.8-1.563s-19.74-16.02-38.37-13.35C118.98 2.81 111.46 18 107.91 32.405l.074-.306C91.168 36.07 79.57 44.26 77.828 55.19c-3.13 19.56 26.427 40.53 65.998 46.845zm-16.28-95.704c9.347-8.405 17.894.104 18.765 4.872 1.49 8.296 18.41 7.187 18.41 7.187-42.3 8.315-37.17-12.06-37.17-12.06zM46.54 26.51C41.597 21.512 38.495-.408 38.495-.408s-3.252 22.122-8.27 27.142c-5.04 5.04-27.283 8.348-27.283 8.348s22.003 3.123 27.014 8.072c5.11 5.047 8.538 27.408 8.538 27.408s3.28-22.162 8.315-27.188c5.03-5.026 27.23-8.303 27.23-8.303s-22.44-3.44-27.5-8.56zM21.494 60.626s-2.043 13.996-5.188 17.17c-3.156 3.187-17.083 5.27-17.083 5.27s13.774 1.985 16.91 5.12c3.197 3.194 5.335 17.345 5.335 17.345s2.062-14.02 5.216-17.19c3.153-3.18 17.055-5.24 17.055-5.24s-14.06-2.2-17.22-5.44c-3.09-3.16-5.03-17.03-5.03-17.03zM231.598 180.54c10.793-26.985 8.096-58.542-9.355-83.798-.018-.08-.04-.16-.057-.237-.147-.12-.317-.244-.495-.368C211.02 107.217 191.2 114 166.16 114h-.01c-1.544 0-3.1-.493-4.66-.552 2.684 7.934 10.172 13.425 19.01 13.425 7.267 0 13.63-3.975 17.153-9.756-4.39 11.05-15.23 18.81-27.915 18.81-15.004 0-27.434-10.968-29.65-25.255-12.41-2.173-24.125-5.79-34.37-10.498-.682 1.827-1.064 3.793-1.064 5.86 0 9.29 7.53 16.817 16.82 16.817 5.684 0 10.7-2.82 13.747-7.13-3.88 8.14-12.27 13.77-22 13.77-13.42 0-24.3-10.73-24.3-23.96 0-3.16.63-6.18 1.76-8.94 1.25-.92 2.49-1.73 3.71-2.46-1.64-1.01-3.24-2.06-4.76-3.14-.57-.4-1.1-.82-1.65-1.23-.24.64-.49 1.28-.71 1.93-1.62.55-10.63 3.22-10.63-5.25 0 0-8.79 20.35 8.38 25.74 3.21 28.92 32.89 51.58 69.04 51.58 4.71 0 9.32-.39 13.77-1.12l2.96 5.29c-2.01 1.01-3.88 2.26-5.57 3.71l-.18-.02-35.5 18s19 4 27 15c1.06 1.45 2.6 2.94 4.51 4.4 5 6.66 12.98 10.98 21.97 10.98 2.34 0 4.61-.29 6.78-.84-10.59 6.97-24.6 12.22-42.82 12.27 0 0-29.13 1.41-53.7-24.59 0 0-14.13-13.73-19.22-41.1 0 0-1.55-6.61-7.36-2 0 0-5.6 2.83-1.97 12.65.16.44.23.77.21 1 3.2 8.96 7.9 17.55 14.14 25.41 30.55 38.49 86.46 44.99 125.02 14.59 7.39-1.81 14.76-5.47 21.45-11.76 0 0 6-4 12.5 1l-6-26-.39-.05z"/></svg>