<svg xmlns="http://www.w3.org/2000/svg" width="241" height="238" viewBox="0 0 241 238"><path d="M40.5 134.93s-3.427-22.36-8.537-27.408c-5.01-4.95-27.014-8.072-27.014-8.072s22.24-3.307 27.28-8.348c5.02-5.02 8.27-27.142 8.27-27.142s3.1 21.92 8.04 26.916c5.06 5.114 27.51 8.564 27.51 8.564s-22.21 3.274-27.24 8.3c-5.04 5.026-8.32 27.19-8.32 27.19zM24.477 64.897S22.34 50.747 19.14 47.55c-3.134-3.133-16.908-5.12-16.908-5.12s13.927-2.08 17.083-5.268c3.145-3.174 5.188-17.17 5.188-17.17s1.935 13.87 5.027 17.034c3.167 3.24 17.218 5.432 17.218 5.432s-13.9 2.063-17.055 5.24c-3.154 3.18-5.216 17.2-5.216 17.2zm108.52-8.437s-29-15.668-66-4.668c0 0-5.335 65.334 55 55.667 0 0-40.168-13.17-36.668-32.67s35.66-20.34 47.16-14.84.5-3.5.5-3.5zm32 85.5l-35.5 18s19 4 27 15 43.5 25 69 1c0 0 6-4 12.5 1l-6-26m-117-114.5s11-26 52-28c42.374-2.068 74 39 63 82s-39-58-39-58l-76 4zm11.563-12.15S115.008-9.878 91.835 1.334C68.66 12.547 114.6 22.814 114.6 22.814s-41.112-6.727-39.617 5.233 26.91 6.728 47.84 5.232"/><path d="M118.02 202.255l9.62-10.344-9.808-9.99-8.568 9.12c-13.45-15.93-35.366-15.77-47.28-13.01 0 0-21.395-5.72-15.967 8.54l16.978 16.01s31.644 3.02 33.99 16.64l-11.867 6.95 9.805 8.74c-.002 0 29.21-14.67 23.097-32.64zm86.244-5.92l-.512-14.117-14-.13.385 12.504c-20.777-1.756-36.156 13.856-42.63 24.23 0 0-19.18 11.082-5.255 17.326l23.324-.685s24.512-20.237 35.8-12.27l-3.478 13.305 13.113-.753c.01.002 10.28-31.027-6.74-39.41zM64.89 147.725c2.467 6.9 5.833 13.582 10.098 19.883 4.033.008 7.932.365 11.662 1.062-4.395-6.8-9.856-17.66-12.633-32.584 0 0-1.557-6.617-7.367-2.006 0 0-5.606 2.832-1.97 12.65.16.44.23.768.21.995zm84.946 54c-.954.03-1.914.057-2.89.06 0 0-5.876.276-14.563-1.76l-4.102 4.41c5.55 1.312 11.2 2.09 16.89 2.33 1.44-1.72 3-3.41 4.67-5.04zm17.96-68.737l2.955 5.285c-9.03 4.502-15.23 13.828-15.23 24.604 0 11.18 6.68 20.79 16.26 25.082 2.91-.98 5.94-1.71 9.09-2.12l-.4-12.84 31.97.29.24 6.64c29.56-30.24 33.89-77.65 9.58-112.84-.02-.09-.04-.18-.06-.26 16.51-16.53 4.52-26.75 4.52-26.75-6.15-3.94-14.39-1.3-19.32.98-12.71-12.53-31.89-20.51-53.34-20.51-21.8 0-41.25 8.24-53.96 21.12-3.94-1.64-21.32-7.84-10.96 15.67-.7 1.53-1.32 3.09-1.86 4.68-1.62.55-10.63 3.21-10.63-5.25 0 0-8.79 20.34 8.38 25.74 3.21 28.91 32.89 51.57 69.05 51.57 4.71 0 9.31-.39 13.76-1.12zm50.614-72.283s-1.645-6.436-6.438-12.162c0 0 17.956-2.497 6.438 12.162zm-20.33 5.983c.174.498.354.992.502 1.5-.31-.64-.662-1.252-1.036-1.852.18.117.356.23.534.352zm-9.394-1.168c3.57 0 6.467 2.895 6.467 6.467 0 3.572-2.896 6.467-6.467 6.467-3.572 0-6.467-2.895-6.467-6.467 0-3.572 2.89-6.467 6.46-6.467zm-60.53 1.31c2.992 0 5.418 2.426 5.418 5.418s-2.426 5.418-5.418 5.418-5.418-2.426-5.418-5.418 2.426-5.418 5.418-5.418zm-14.934 33.022c-13.425 0-24.307-10.727-24.307-23.957 0-3.164.628-6.182 1.758-8.945 9.695-7.143 18.686-8.208 26.17-6.714-7.033 2.015-12.186 8.48-12.186 16.16 0 9.29 7.53 16.82 16.82 16.82 5.683 0 10.702-2.82 13.747-7.132-3.883 8.135-12.275 13.768-22.002 13.768zm26.52-23.418c0-2.988.447-5.87 1.27-8.594 4.91-3.15 17.035-9.775 31.747-9.43-7.25 3.03-12.34 10.183-12.34 18.525 0 11.09 8.99 20.078 20.08 20.078 7.26 0 13.63-3.86 17.15-9.643-4.39 11.05-15.24 18.867-27.92 18.867-16.57 0-30-13.343-30-29.803z"/></svg>