<svg xmlns="http://www.w3.org/2000/svg" width="241" height="238" viewBox="0 0 241 238"><path d="M100.47 42.53s2.06-14.02 5.215-17.198c3.153-3.178 17.055-5.24 17.055-5.24s-14.05-2.192-17.218-5.432c-3.093-3.163-5.027-17.034-5.027-17.034s-2.043 13.996-5.188 17.17c-3.156 3.187-17.083 5.27-17.083 5.27s13.774 1.985 16.91 5.12c3.197 3.194 5.335 17.344 5.335 17.344zm131.128 138.01c10.793-26.985 8.096-58.542-9.355-83.798-.02-.087-.043-.174-.063-.26 16.504-16.524 4.516-26.75 4.516-26.75-3.176-2.03-6.904-2.305-10.45-1.787-2.49-4.092-8.188-11.185-20.244-17.94v-30.58c-11-.668-15.67 13.666-15.67 13.666-8.667-8.66-11.336 0-11.336 0-4-10.66-15.994-15-15.994-15v22.53c-12.256 1.98-19.68 7.48-19.68 7.48-8-15.33-26-12-26-12l15.334 19.34c-29.333-14-43.333 7.34-43.333 7.34 14.818-9.87 27.81-5.84 34.722-2.16-5.242 3.04-9.952 6.65-13.98 10.73-3.305-1.37-16.074-5.95-13.97 6.51-4.194.35-8.572 1-13.095 2.03v-15.8c0-3.9-3.165-7.06-7.068-7.06H9.068C5.165 57 2 60.17 2 64.07v106.865c0 3.9 3.165 7.065 7.068 7.065h37.657c-.867 4.39-2.42 10.777-4.42 12.796-3.155 3.187-17.082 5.27-17.082 5.27s13.774 1.985 16.91 5.12c3.197 3.194 5.335 17.346 5.335 17.346s2.062-14.02 5.216-17.198c3.153-3.178 17.055-5.24 17.055-5.24s-14.06-2.192-17.22-5.432c-1.96-2.005-3.46-8.312-4.29-12.66h16.89c3.19 8.724 7.8 17.094 13.89 24.767 30.54 38.49 86.45 44.98 125.01 14.58 7.38-1.81 14.76-5.47 21.45-11.77 0 0 6-4 12.5 1l-6-26-.39-.06zm-98.034-78.66c0 2.993-2.426 5.42-5.418 5.42s-5.418-2.427-5.418-5.42c0-2.99 2.426-5.417 5.418-5.417s5.418 2.426 5.418 5.418zm-20.35 27.604c-13.425 0-24.307-10.728-24.307-23.958 0-3.164.628-6.182 1.758-8.945 9.695-7.14 18.686-8.2 26.17-6.71-7.033 2.02-12.186 8.48-12.186 16.16 0 9.29 7.53 16.82 16.82 16.82 5.68 0 10.7-2.82 13.74-7.13-3.89 8.14-12.28 13.77-22 13.77zm81.93-27.865c0 3.57-2.895 6.46-6.468 6.46-3.57 0-6.466-2.9-6.466-6.47 0-3.58 2.896-6.47 6.466-6.47 3.572 0 6.47 2.89 6.47 6.46zm3.43-3.8c-.313-.64-.663-1.26-1.037-1.86.178.11.355.23.533.35.175.49.356.99.503 1.5zm-57.57-.35c4.91-3.15 17.036-9.78 31.748-9.43-7.243 3.03-12.333 10.18-12.333 18.52 0 11.09 8.99 20.08 20.07 20.08 7.26 0 13.63-3.86 17.15-9.65-4.39 11.05-15.24 18.86-27.92 18.86-16.57 0-30-13.35-30-29.81 0-2.99.45-5.87 1.27-8.59zm77.396-7.14s-1.644-6.44-6.438-12.17c.002 0 17.957-2.5 6.438 12.16zM36.487 66.42c9.94 0 18 8.06 18 18s-8.06 18-18 18-18-8.06-18-18 8.06-18 18-18zM59 152H45v14H30v-14H16v-15h14v-14h15v14h14v15zm87.938 79.416s-29.14 1.412-53.706-24.596c0 0-14.13-13.73-19.223-41.104 0 0-.28-1.15-1.01-2.155v-48.11c3.96 8.35 10.44 15.99 20.98 19.9 11.98 16.98 34.37 28.4 60.04 28.4 4.71 0 9.31-.39 13.76-1.12l2.95 5.29c-2.02 1.01-3.88 2.26-5.58 3.71l-.18-.02-35.5 18s19 4 27 15c1.05 1.45 2.59 2.95 4.51 4.4 5.02 6.67 13 10.99 21.99 10.99 2.33 0 4.6-.29 6.77-.84-10.59 6.97-24.61 12.22-42.82 12.27z"/></svg>