<svg xmlns="http://www.w3.org/2000/svg" width="241" height="238" viewBox="0 0 241 238"><path d="M231.993 180.595l-.392-.053c10.8-26.983 8.1-58.54-9.35-83.796l-.06-.26c16.51-16.524 4.52-26.75 4.52-26.75-5.81-3.716-13.47-1.57-18.46.6-.98-17.756-7.43-61.444-47.25-62.24 0 0-59-10-63 49L95.86 69.93c-4.86-1.204-11.3-1.223-9.76 7.91-6.028.498-12.435 1.604-19.106 3.588 0 0-3.386 41.61 25.92 53.496l-.92 44.17s14.773-16.098 38.807-18.62c7.27 2.115 15.08 3.27 23.24 3.27 4.71 0 9.32-.387 13.77-1.12l2.96 5.285c-2.01 1-3.88 2.26-5.57 3.7l-.17-.02-35.5 18s19 4 27 15c1.05 1.44 2.59 2.94 4.51 4.4 5.02 6.67 13 10.99 21.99 10.99 2.34 0 4.61-.3 6.78-.85-10.59 6.97-24.6 12.22-42.82 12.27 0 0-29.14 1.41-53.7-24.6 0 0-1.35-1.32-3.35-3.93.38-2.6.29-5.41-.27-8.44-2.23-11.98-11.06-22.14-11.13-35.25-.04-6.39 2.33-12.3 2.65-18.38.64-12.3-9.53-17.58-21.81-19.36l-.28-50.99-23.3-4.44-.02-3.62 23.27-1.8.03 5.22c1.11-.32 1.93-1.61 1.92-3.15l1.1-11.76 8.15-.05c.02 2.46 2.03 4.45 4.49 4.43 2.47-.01 4.46-2.02 4.45-4.48l-.06-7.42c-.01-2.47-2.02-4.45-4.48-4.44-2.46.01-4.45 2.02-4.44 4.49l.01 1.49-7.56.04 1.33-14.15 6.14-.03c.02 2.47 2.02 4.45 4.49 4.44 2.47-.01 4.46-2.02 4.44-4.49L79 23.3c-.01-2.47-2.027-4.455-4.49-4.44-2.46.015-4.45 2.023-4.44 4.49l.01 1.49-5.55.03.476-5.06c0-1.77-1.452-3.2-3.222-3.196l-29.82.17c-1.77.01-3.203 1.457-3.19 3.23l.534 5.05-6.602.035-.01-1.49c-.01-2.47-2.02-4.46-4.485-4.44-2.46.01-4.45 2.02-4.43 4.48l.04 7.43c.01 2.47 2.02 4.45 4.48 4.44 2.47-.01 4.45-2.02 4.44-4.49l7.2-.04 1.49 14.13-8.61.05-.01-1.49c-.02-2.47-2.02-4.46-4.49-4.44-2.47.01-4.46 2.02-4.44 4.48l.04 7.44c.01 2.46 2.02 4.45 4.48 4.43 2.46-.02 4.44-2.02 4.43-4.49l9.21-.05 1.24 11.74c.01 1.54.84 2.82 1.95 3.13l.31 55.62c-12.28 1.91-22.4 7.31-21.63 19.61.39 6.06 2.82 11.96 2.85 18.34.08 13.11-8.64 23.36-10.73 35.37C2.71 213.9 19.92 224.47 48 224.32c19.53-.11 32.8-4.73 38.69-13.21 31.57 30.84 81.84 34.19 117.38 6.17 7.39-1.81 14.77-5.47 21.45-11.765 0 0 6-4 12.5 1l-5.99-26zM56.95 51.53c-1.947.012-3.543-1.565-3.55-3.516-.013-1.946 1.56-3.54 3.517-3.55 1.94-.018 3.538 1.56 3.547 3.517.004 1.95-1.568 3.54-3.514 3.55zm-.152-27.716c1.945-.014 3.543 1.563 3.558 3.517.002 1.95-1.57 3.54-3.524 3.55-1.942.02-3.54-1.56-3.547-3.51-.01-1.95 1.566-3.54 3.513-3.55zm-19.944.106c1.95-.008 3.547 1.57 3.555 3.514.01 1.954-1.57 3.548-3.52 3.56-1.95.006-3.54-1.563-3.56-3.515-.02-1.96 1.56-3.55 3.51-3.56zm-3.402 24.206c-.01-1.948 1.564-3.542 3.518-3.56 1.95-.007 3.547 1.57 3.55 3.516.013 1.955-1.562 3.55-3.513 3.556-1.945.01-3.54-1.56-3.555-3.512zm13.553 92.933c9.727-.06 17.652 7.78 17.705 17.51.06 9.72-7.785 17.65-17.51 17.71-9.725.05-17.646-7.79-17.703-17.52-.05-9.73 7.784-17.66 17.508-17.71zm18.887 66.86l-35.48.19c-3.283.02-5.97-2.63-5.987-5.92l-.003-1c-.004-.73.13-1.43.367-2.07l.06-.18c.03-.09.08-.18.12-.27.03-.08.07-.16.11-.24l.12-.23c.05-.09.1-.18.15-.26l.12-.19c.06-.1.13-.19.2-.28.03-.05.07-.1.11-.15.09-.11.18-.21.27-.31.02-.03.05-.07.08-.1.26-.26.54-.5.85-.71l.02-.01c.14-.1.29-.19.44-.27l.11-.06c.12-.07.24-.13.37-.19l.15-.07c.12-.05.24-.09.36-.14l.18-.06c.12-.03.24-.07.36-.09.06-.02.12-.03.18-.05.13-.03.26-.05.39-.07.06-.01.11-.02.17-.02.19-.02.38-.03.57-.03l35.48-.19c.19 0 .38.01.57.02.06 0 .13.01.2.02.12.01.24.03.35.05l.23.05c.11.02.21.05.31.07.08.02.16.05.24.08.09.03.18.06.28.1.08.03.16.06.25.1l.24.11c.08.04.17.08.25.13.07.04-.02.55.05.59.09.05.04.63.11.63.2 0 .64-.11.86.1.02.02.12-.19.14-.17.09.09.22.06.31.16.03.03.07 0 .1.04.08.09.18.14.26.24.02.03.05.06.08.1.07.1.15.21.22.32l.06.1c.07.12.14.23.2.36l.03.06c.39.79.63 1.68.63 2.62l.01.99c.02 3.28-2.63 5.97-5.92 5.99zm129.256-106.3c0 3.57-2.896 6.46-6.467 6.46-3.57 0-6.46-2.9-6.46-6.47s2.9-6.47 6.47-6.47 6.47 2.89 6.47 6.46zm-61.578.26c0 2.99-2.426 5.42-5.418 5.42-2.99 0-5.418-2.43-5.418-5.42 0-2.99 2.427-5.42 5.418-5.42 2.993 0 5.418 2.42 5.418 5.42zm-42.9-5.3c9.696-7.15 18.687-8.21 26.17-6.72-7.032 2.01-12.185 8.48-12.185 16.16 0 9.29 7.53 16.82 16.82 16.82 5.683 0 10.7-2.82 13.746-7.13-3.88 8.13-12.27 13.76-22 13.76-13.42 0-24.3-10.73-24.3-23.96 0-3.17.63-6.18 1.76-8.95zm79.07 39.29c-16.57 0-30.002-13.35-30.002-29.81 0-2.99.447-5.87 1.27-8.6 4.91-3.15 17.036-9.78 31.748-9.43-7.243 3.03-12.333 10.18-12.333 18.52 0 11.09 8.99 20.08 20.08 20.08 7.266 0 13.63-3.86 17.152-9.65-4.387 11.05-15.23 18.86-27.915 18.86zm27.803-39.91c.178.11.355.23.534.35.174.49.354.99.502 1.5-.31-.64-.67-1.26-1.04-1.86zm14.427-17.79s17.955-2.5 6.44 12.16c-.003 0-1.646-6.44-6.44-12.16z"/></svg>