<svg xmlns="http://www.w3.org/2000/svg" width="241" height="238" viewBox="0 0 241 238"><path d="M59.59 57.425c.13-.126.24-.264.378-.386-1.538-4.79-4.102-8.86-8.72-9.09-5.062-.24-9.032-1.93-11.808-4.99-1.227-1.35-2.035-2.82-2.625-4.24-2.337 4.89-1.238 11.45 3.202 16.3 5.593 6.1 14.36 7.18 19.574 2.4zm-8.114-14.327c5.78.284 9.293 4.052 11.482 8.443 1.03-4.48-.332-9.75-4.063-13.82-5.186-5.66-13.094-6.98-18.377-3.35.526 3.11 2.65 8.33 10.958 8.73zm48.517 142c-3.59 7.457-1.332 16 5.038 19.064.17.074.34.125.5.206 3.88-3.205 6.71-7.097 5.2-11.472-1.66-4.787-1.56-9.102.25-12.814.8-1.64 1.86-2.936 2.96-4.012-5.41-.352-11.08 3.103-13.94 9.028zm23.077 11.1c3.332-6.917 1.625-14.753-3.714-18.306-2.688 1.642-6.748 5.55-4.035 13.414 1.89 5.47-.31 10.133-3.57 13.797 4.55-.707 8.93-3.93 11.33-8.905zm108.923-15.603l-.392-.053c10.8-26.983 8.1-58.54-9.35-83.796l-.06-.26c16.51-16.524 4.52-26.75 4.52-26.75-6.15-3.936-14.39-1.297-19.32.982-.42-.417-.87-.814-1.31-1.22C223.87 58.24 215 42.095 215 42.095c-3.785 13.074-11.357 19.282-15.713 21.883-.402-.284-.818-.554-1.23-.83 6.114-7.48 23.318-30.274 15.44-41.053-9.5-13-21.5-4.5-21.5-4.5L175.97 44.453l-.595-1.888 7.623-24.47c-6.266.812-10.467 3.278-13.25 6.57l-8.188-26.03L139.8 8.11l14.337 25.232-23.945-22.676-14.4 18.858 34.19 20.782c-20.15.95-37.995 8.948-49.914 21.025-3.306-1.37-16.074-5.95-13.97 6.51-6.028.5-12.435 1.61-19.106 3.59 0 0-1.892 23.27 9.407 39.98l-50.36-18.98-11.65 16.98 71.22 26.85 1.7-14.17c2.02 1.27 4.23 2.37 6.66 3.27 11.98 16.97 34.37 28.4 60.04 28.4 4.71 0 9.31-.39 13.76-1.12l2.95 5.29c-2.02 1.01-3.89 2.27-5.58 3.71l-.18-.02-35.5 18s19 4 27 15c1.05 1.45 2.59 2.95 4.5 4.4 5.02 6.68 13 11 21.99 11 2.33 0 4.6-.29 6.77-.84-10.59 6.97-24.61 12.22-42.82 12.27 0 0-29.14 1.41-53.7-24.59 0 0-14.13-13.73-19.23-41.1 0 0-.37-1.56-1.42-2.64L78 153.06 17.15 130.1 2.53 194.05l44.27 16.676 18.07-33.38c0 .008.004.02 0 .027 3.2 8.954 7.9 17.547 14.14 25.407 30.547 38.49 86.46 44.984 125.017 14.59 7.387-1.81 14.762-5.47 21.45-11.767 0 0 6-4 12.5 1l-6-25.997zm-194.44 2.32c-.18.007-.353.044-.534.06-7.06.39-13.16-6.005-13.62-14.27-.36-6.566 2.95-12.33 7.86-14.633-.45 1.475-.75 3.117-.66 4.94.2 4.128 2.2 7.95 5.97 11.345 3.42 3.107 2.82 7.88.98 12.557zm5.8-2.354c1.092-4.78.766-9.92-3.523-13.81-6.17-5.58-4.5-10.96-2.938-13.69 6.39.54 11.666 6.58 12.085 14.24.303 5.52-1.984 10.46-5.624 13.27zm151.795-78.93c0 3.57-2.896 6.47-6.467 6.47-3.57 0-6.46-2.89-6.46-6.46s2.9-6.46 6.47-6.46 6.47 2.9 6.47 6.47zm-66.996-5.15c2.992 0 5.418 2.43 5.418 5.42s-2.426 5.42-5.418 5.42c-2.99 0-5.418-2.42-5.418-5.42s2.427-5.41 5.418-5.41zM113.22 129.5c-13.425 0-24.307-10.728-24.307-23.957 0-3.163.628-6.18 1.758-8.944 9.7-7.15 18.69-8.21 26.17-6.72-7.03 2.01-12.18 8.48-12.18 16.16 0 9.29 7.53 16.82 16.82 16.82 5.69 0 10.7-2.82 13.75-7.13-3.88 8.13-12.27 13.76-22 13.76zm56.52 6.387c-16.57 0-30.002-13.344-30.002-29.803 0-2.987.447-5.87 1.27-8.593 4.91-3.15 17.036-9.77 31.748-9.43-7.243 3.03-12.333 10.19-12.333 18.53 0 11.09 8.99 20.08 20.08 20.08 7.266 0 13.63-3.86 17.152-9.64-4.387 11.05-15.23 18.87-27.915 18.87zm27.803-39.9c.178.116.355.23.534.35.174.5.354.993.502 1.5-.31-.64-.67-1.25-1.04-1.85zm14.427-17.8s17.955-2.498 6.44 12.16c-.003 0-1.646-6.434-6.44-12.16z"/></svg>