<svg xmlns="http://www.w3.org/2000/svg" width="241" height="238" viewBox="0 0 241 238"><path d="M77.972 31.336l.706.16L73 20.268v-.133l-.33-.02-.67-.804V20l-31.223-8.345-10.394 6.717 14.723 40.883 32.866-27.92zm-30.795-5.79l12.973 3.456-12.49 20.78-.483-24.236zm2.847 25.822l12.982-21.604 9.464 2.524-22.446 19.08zm24.532-21.46l-10.128-2.703 6.517-4.192 3.61 6.896zm-6.882-8.17l-4.842 3.113-2.65-5.1 7.492 2zm-11.21-2.982l3.808 7.34L48.654 23l6.963-4.475.847.23zm-4.57-1.225l-4.834 3.12-2.66-5.11 7.492 2zm-10.96-2.51l3.56 6.87-10.038-2.68 6.477-4.19zm-6.08 7.24l9.475 2.53.49 25.2-9.98-27.73zm.064 175.31l-1.71 9.76 31.455 13.25 1.324-33.31-10.013-3.24-21.056 13.55zm19.53-9.03l-.582 3.33-3.275-.89 3.86-2.44zm-7.402 4.69l.342-.21 5.338 1.45-6.632 4.2.952-5.43zm-3.206 2.03l-.58 3.33-3.277-.89 3.857-2.44zm-6.47 4.63l4.746 1.29-5.575 3.52.83-4.81zm1.347 6.75l5.68-3.59 12.95 11.43-18.63-7.84zm8.137-5.14l8.03-5.08 4.84 16.43-12.87-11.35zm15.367 9.9l-4.87-16.54 5.68-3.58-.8 20.13zm-4.67-24.28l4.79 1.29-5.63 3.56.85-4.84zm173.88-6.55c10.79-26.98 8.1-58.54-9.35-83.79l-.06-.26c16.51-16.52 4.52-26.75 4.52-26.75-.07-.05-.15-.08-.22-.13 15.24-12.21 13.13-22.44 7.52-26.18-6-4-16 9.01-16 9.01s18.01-37.32-5.66-43.98c-21.51-6.06-13.01 47.09-11.28 56.83-.53-.4-1.06-.81-1.6-1.2-13.5-17.99-46.43-31.55-46.43-31.55-37.33-15-51.98-1.88-51.98-1.88-17.08 8.02-7.6 30.46-2.51 40.08-4.59-1.64-14.28-3.88-12.42 7.1-6.03.5-12.44 1.6-19.11 3.59 0 0-3.47 42.63 26.99 53.92 11.99 16.97 34.38 28.4 60.05 28.4 4.71 0 9.31-.39 13.76-1.12l2.96 5.29c-2.01 1.01-3.88 2.26-5.57 3.71l-.18-.02-35.5 18s19 4 27 15c1.05 1.45 2.59 2.95 4.51 4.4 5 6.67 12.98 10.99 21.97 10.99 2.34 0 4.61-.29 6.78-.84-10.59 6.97-24.61 12.22-42.82 12.27 0 0-29.14 1.41-53.71-24.59 0 0-11.46-11.15-17.46-33.38 3.45-1.9 5.35-5.93 4.38-9.94L60.7 83.74c-1.164-4.816-6.013-7.776-10.827-6.61l-38.94 9.41C6.12 87.7 3.16 92.545 4.323 97.36l19.27 79.762c1.16 4.816 6.01 7.777 10.82 6.613l30.108-7.275c.14.385.2.69.19.9 3.2 8.95 7.9 17.544 14.14 25.404 30.55 38.49 86.46 44.99 125.02 14.59 7.39-1.806 14.76-5.47 21.45-11.762 0 0 6-4 12.5 1l-6-26-.39-.05zM24 93.67l16.524-3.997c1.342-.32 2.692.5 3.017 1.84.33 1.35-.5 2.7-1.84 3.02l-16.52 4c-1.34.33-2.69-.5-3.02-1.84-.32-1.34.5-2.69 1.85-3.01zm.216 64.76L12.94 111.77l46.656-11.27 11.274 46.65-46.656 11.272zm27.204 12.11c-2.95.714-5.92-1.102-6.64-4.055-.71-2.95 1.11-5.922 4.06-6.64 2.96-.71 5.93 1.107 6.64 4.058.71 2.956-1.1 5.928-4.05 6.64zm143.55-68.914c0 3.572-2.89 6.467-6.47 6.467-3.57 0-6.46-2.895-6.46-6.47s2.9-6.464 6.47-6.464 6.47 2.89 6.47 6.46zm-61.57.26c0 2.993-2.423 5.42-5.42 5.42-2.99 0-5.413-2.427-5.413-5.42 0-2.99 2.426-5.417 5.417-5.417 2.99 0 5.42 2.42 5.42 5.41zm-20.35 27.603c-13.424 0-24.306-10.73-24.306-23.96 0-3.17.626-6.18 1.756-8.95 9.694-7.15 18.685-8.21 26.17-6.72-7.034 2.02-12.187 8.48-12.187 16.16 0 9.29 7.53 16.82 16.82 16.82 5.68 0 10.7-2.81 13.743-7.13-3.883 8.14-12.273 13.77-22 13.77zm56.52 6.38c-16.566 0-30-13.35-30-29.81 0-2.99.448-5.87 1.27-8.6 4.91-3.15 17.036-9.78 31.75-9.43-7.24 3.03-12.33 10.18-12.33 18.52 0 11.09 8.99 20.08 20.08 20.08 7.265 0 13.63-3.86 17.15-9.64-4.39 11.05-15.233 18.87-27.916 18.87zm27.8-39.91c.177.12.354.23.53.35.175.5.355.99.5 1.5-.31-.64-.66-1.25-1.032-1.85zm14.42-17.79s17.956-2.5 6.44 12.16c0 0-1.642-6.44-6.436-12.16z"/></svg>