<svg xmlns="http://www.w3.org/2000/svg" width="175" height="189" viewBox="0 0 175 189"><path fill="#888" d="M87.5 21.276c-40.5 0-73.334 32.832-73.334 73.332 0 38.682 29.955 70.344 67.93 73.113v-48.49c-6.14-2.21-10.537-8.07-10.537-14.98 0-8.8 7.13-15.93 15.93-15.93s15.94 7.14 15.94 15.94c0 6.91-4.4 12.77-10.54 14.98v48.5c37.97-2.77 67.93-34.43 67.93-73.11 0-40.5-32.84-73.33-73.34-73.33zm-35.476 112.08c-6.835-8.254-10.603-18.682-10.603-29.365 0-14.73 6.98-27.83 17.77-36.27l4.96 4.96c-9.56 7.14-15.78 18.5-15.78 31.32 0 9.07 3.2 17.93 9.01 24.94l-5.35 4.43zm10.23-29.365c0 7.24 3.145 14.16 8.626 18.97l-4.585 5.22c-6.98-6.13-10.982-14.94-10.982-24.18 0-10.91 5.463-20.54 13.783-26.37l5.01 5.01C67.002 87.11 62.256 95 62.256 104zm46.45 24.19l-4.577-5.22c5.48-4.81 8.623-11.72 8.623-18.97 0-8.99-4.746-16.88-11.855-21.35l5.014-5.01c8.32 5.83 13.77 15.47 13.77 26.37 0 9.24-4 18.06-10.99 24.19zm14.273 5.18l-5.354-4.43c5.813-7.01 9.01-15.87 9.01-24.94 0-12.81-6.222-24.18-15.77-31.32l4.952-4.95c10.79 8.44 17.764 21.55 17.764 36.28-.01 10.69-3.78 21.12-10.61 29.37z"/></svg>