<svg xmlns="http://www.w3.org/2000/svg" width="175" height="189" viewBox="0 0 175 189"><g fill="#888"><path d="M142.973 52.01l17.47 16.022V16.794h-35v51.298"/><path d="M142.975 64.222l-16.558 15.19c4.524 7.115 7.16 15.54 7.16 24.58 0 10.684-3.77 21.11-10.6 29.367l-5.355-4.43c5.813-7.02 9.01-15.87 9.01-24.94 0-7.23-1.98-14-5.42-19.81l-4.77-6.43c-1.697-1.87-3.56-3.58-5.582-5.09l4.953-4.96c.215.16.418.35.63.52v-41C107.56 23.4 97.78 21.27 87.5 21.27c-40.503 0-73.336 32.833-73.336 73.333 0 38.68 29.955 70.34 67.93 73.11v-48.5c-6.14-2.22-10.537-8.08-10.537-14.99 0-8.8 7.136-15.935 15.938-15.935 8.805 0 15.945 7.138 15.945 15.94 0 6.903-4.4 12.76-10.538 14.978V167.7c37.975-2.77 67.932-34.434 67.932-73.115 0-5.33-.584-10.527-1.664-15.536L142.975 64.2zm-90.95 69.135c-6.836-8.255-10.604-18.682-10.604-29.366 0-14.73 6.98-27.83 17.77-36.27l4.96 4.96c-9.56 7.14-15.78 18.5-15.78 31.32 0 9.07 3.2 17.93 9.01 24.94l-5.35 4.43zm10.23-29.366c0 7.25 3.144 14.16 8.625 18.97l-4.585 5.22c-6.98-6.13-10.982-14.94-10.982-24.18 0-10.9 5.463-20.54 13.783-26.37l5.01 5.01C67.002 87.11 62.256 95 62.256 104zm46.45 24.19l-4.578-5.22c5.48-4.81 8.623-11.72 8.623-18.97 0-8.99-4.746-16.88-11.855-21.35l5.014-5.01c8.32 5.83 13.77 15.47 13.77 26.37 0 9.24-4 18.06-10.99 24.19z"/></g></svg>