<svg xmlns="http://www.w3.org/2000/svg" width="175" height="189" viewBox="0 0 175 189"><path fill="#888" d="M142.973 52.01l17.47 16.022V16.794h-35v51.298"/><g fill="#888"><path d="M106.445 91.536c0-9.92-8.16-17.96-18.085-17.96-9.922 0-18.012 8.04-18.012 17.96 0 5.634 3.652 10.603 6.652 13.898V161h23v-55.578c4-3.293 6.445-8.256 6.445-13.886z"/><path d="M65.33 113.22c-5.12-5.564-8.28-12.956-8.28-21.093 0-12.492 7.405-23.267 18.037-28.24L64.515 53.314C51.443 61.324 42.68 75.707 42.68 92.126c0 12.1 4.77 23.08 12.496 31.246L65.33 113.22z"/><path d="M48.017 130.53c-9.55-10-15.458-23.513-15.458-38.403 0-19.202 9.76-36.164 24.6-46.174L46.9 35.697C29.536 48.46 18.19 68.97 18.19 92.127c0 18.85 7.518 35.955 19.673 48.56l10.154-10.158z"/></g><path fill="#888" d="M142.974 60.15l-5.88 5.397c4.33 7.9 6.817 16.948 6.817 26.58 0 15.536-6.4 29.587-16.7 39.694l10.16 10.16c12.9-12.71 20.92-30.35 20.92-49.85 0-7.27-1.12-14.27-3.19-20.86l-12.11-11.11zm-23.53 21.59V59.003c-1.836-1.73-3.804-3.32-5.904-4.728l-10.445 10.443c9.713 5.29 16.327 15.59 16.327 27.41 0 8.78-3.66 16.708-9.527 22.38l10.16 10.158c8.46-8.28 13.736-19.797 13.736-32.54 0-6.978-1.58-13.592-4.4-19.51l-9.94 9.124z"/></svg>