<svg xmlns="http://www.w3.org/2000/svg" width="175" height="189" viewBox="0 0 175 189"><path fill="#888" d="M161.438 21.32c-3.676-3.91-9.553-1.622-13.266 1.87-.23.217-.44.434-.637.65-3.86-1.62-8.322-2.547-13.078-2.547-4.865 0-9.426.974-13.352 2.667-.222-.256-.46-.513-.732-.77-3.712-3.492-9.59-5.78-13.266-1.87-3.27 3.475-.906 8.935 2.606 12.45-1.2 2.248-1.86 4.698-1.86 7.264 0 8.07 6.52 15.007 15.863 18.063 0 0 12.324 3.565 21.827-.11 9.166-3.113 15.535-9.978 15.535-17.954 0-2.662-.715-5.194-2.002-7.51 3.377-3.52 5.554-8.81 2.362-12.203z"/><g fill="#888"><path d="M106.445 91.536c0-9.92-8.16-17.96-18.085-17.96-9.922 0-18.012 8.04-18.012 17.96 0 5.634 3.652 10.603 6.652 13.898V161h23v-55.578c4-3.293 6.445-8.256 6.445-13.886z"/><path d="M65.33 113.22c-5.12-5.564-8.28-12.956-8.28-21.093 0-12.492 7.405-23.267 18.037-28.24L64.515 53.314C51.443 61.324 42.68 75.707 42.68 92.126c0 12.1 4.77 23.08 12.496 31.246L65.33 113.22z"/><path d="M48.017 130.53c-9.55-10-15.458-23.513-15.458-38.403 0-19.202 9.76-36.164 24.6-46.174L46.9 35.697C29.536 48.46 18.19 68.97 18.19 92.127c0 18.85 7.518 35.955 19.673 48.56l10.154-10.158z"/></g><path fill="#888" d="M147.59 64.628c-2.94 1.12-6.27 1.77-9.923 1.958 3.983 7.65 6.244 16.33 6.244 25.54 0 15.535-6.4 29.586-16.7 39.693l10.16 10.15c12.9-12.71 20.92-30.36 20.92-49.85 0-10.45-2.31-20.36-6.44-29.27-1.34.66-2.76 1.26-4.25 1.76z"/><path fill="#888" d="M122.05 64.86l-.198-.06c-4.727-1.546-8.792-3.91-12.008-6.83l-6.75 6.748c9.714 5.29 16.328 15.59 16.328 27.41 0 8.78-3.66 16.708-9.527 22.38l10.16 10.158c8.46-8.28 13.736-19.797 13.736-32.54 0-9.887-3.17-19.045-8.54-26.52-1.89-.374-3.08-.713-3.19-.745z"/></svg>