<?xml version="1.0" encoding="utf-8"?>
<!-- Generator: Adobe Illustrator 16.0.0, SVG Export Plug-In . SVG Version: 6.00 Build 0)  -->
<!DOCTYPE svg PUBLIC "-//W3C//DTD SVG 1.1//EN" "http://www.w3.org/Graphics/SVG/1.1/DTD/svg11.dtd">
<svg version="1.1" id="Layer_1" xmlns="http://www.w3.org/2000/svg" xmlns:xlink="http://www.w3.org/1999/xlink" x="0px" y="0px"
	 width="175px" height="189px" viewBox="0 0 175 189" enable-background="new 0 0 175 189" xml:space="preserve">
<g id="Layer_14" display="none">
	<g display="inline">
		<path fill="#888888" d="M149.406,89.703v-62.71c0-3.463-3.455-6.056-6.92-6.056h-44.5H77.014h-44.5
			c-3.465,0-6.92,2.593-6.92,6.056v62.71l-0.001,0.001v71.849c0,0.002,0.001,0.004,0.001,0.008v0.054
			c0.002,0.77,0.115,1.52,0.324,2.22c0.02,0.04,0.029,0.09,0.039,0.141c0.101,0.289,0.211,0.58,0.34,0.85l0.08,0.16
			c0.141,0.271,0.291,0.521,0.45,0.771c0.03,0.04,0.06,0.069,0.091,0.11c0.18,0.25,0.369,0.479,0.59,0.689l0.01,0.01
			c0.22,0.211,0.449,0.399,0.699,0.569c0.041,0.021,0.08,0.05,0.121,0.08c0.153,0.103,0.325,0.181,0.493,0.263
			c0.078,0.041,0.15,0.092,0.23,0.129l0.156,0.068c0.272,0.11,0.56,0.2,0.86,0.271l0.14,0.02c0.319,0.061,0.649,0.1,0.996,0.1h0.054
			h112.465h0.054c0.347,0,0.677-0.039,0.996-0.1l0.14-0.02c0.301-0.07,0.588-0.16,0.86-0.271l0.155-0.068
			c0.082-0.037,0.155-0.09,0.235-0.131c0.166-0.082,0.336-0.158,0.488-0.261c0.041-0.03,0.08-0.062,0.121-0.08
			c0.25-0.17,0.479-0.358,0.698-0.569l0.011-0.01c0.221-0.211,0.409-0.439,0.59-0.689c0.03-0.041,0.062-0.07,0.091-0.11
			c0.159-0.25,0.311-0.5,0.45-0.771l0.08-0.16c0.129-0.27,0.239-0.561,0.34-0.85c0.01-0.051,0.021-0.101,0.039-0.141
			c0.209-0.7,0.321-1.45,0.323-2.22v-0.048c0-0.004,0.002-0.01,0.002-0.014V89.703L149.406,89.703z M136.395,155.109H38.578v-39.815
			h97.816V155.109L136.395,155.109z"/>
	</g>
</g>
<g id="Layer_13" display="none">
	<g display="inline">
		<path fill="#888888" d="M87.5,21.276c-40.501,0-73.334,32.832-73.334,73.332c0,38.682,29.955,70.344,67.929,73.113v-48.494
			c-6.139-2.217-10.536-8.074-10.536-14.981c0-8.802,7.136-15.936,15.938-15.936c8.805,0,15.944,7.136,15.944,15.939
			c0,6.904-4.4,12.762-10.539,14.979v48.496c37.976-2.77,67.933-34.434,67.933-73.115C160.834,54.108,128,21.276,87.5,21.276z
			 M52.024,133.355c-6.835-8.254-10.603-18.682-10.603-29.364c0-14.732,6.975-27.836,17.767-36.277l4.953,4.953
			c-9.554,7.141-15.776,18.506-15.776,31.324c0,9.067,3.198,17.924,9.007,24.938L52.024,133.355z M62.255,103.991
			c0,7.239,3.144,14.155,8.625,18.969l-4.585,5.222c-6.98-6.136-10.982-14.949-10.982-24.189c0-10.908,5.463-20.545,13.783-26.369
			l5.01,5.01C67.002,87.104,62.255,94.993,62.255,103.991z M108.705,128.182l-4.578-5.222c5.479-4.813,8.623-11.728,8.623-18.969
			c0-8.996-4.746-16.887-11.855-21.359l5.015-5.01c8.321,5.824,13.778,15.465,13.778,26.369
			C119.688,113.23,115.691,122.05,108.705,128.182z M122.977,133.357l-5.354-4.428c5.813-7.014,9.01-15.871,9.01-24.938
			c0-12.816-6.222-24.182-15.771-31.322l4.953-4.955c10.791,8.441,17.765,21.551,17.765,36.277
			C133.578,114.675,129.807,125.104,122.977,133.357z"/>
	</g>
</g>
<g id="Layer_12" display="none">
	<path display="inline" fill="#888888" d="M87.5,21.276c-40.501,0-73.334,32.832-73.334,73.332
		c0,38.682,29.955,70.344,67.929,73.113v-48.494c-6.139-2.217-10.536-8.074-10.536-14.981c0-8.802,7.136-15.936,15.938-15.936
		c8.805,0,15.944,7.136,15.944,15.939c0,6.904-4.4,12.762-10.539,14.979v48.496c37.976-2.77,67.933-34.434,67.933-73.115
		C160.834,54.108,128,21.276,87.5,21.276z M52.024,133.355c-6.835-8.254-10.603-18.682-10.603-29.364
		c0-14.732,6.975-27.836,17.767-36.277l4.953,4.953c-9.554,7.141-15.776,18.506-15.776,31.324c0,9.067,3.198,17.924,9.007,24.938
		L52.024,133.355z M62.255,103.991c0,7.239,3.144,14.155,8.625,18.969l-4.585,5.222c-6.98-6.136-10.982-14.949-10.982-24.189
		c0-10.908,5.463-20.545,13.783-26.369l5.01,5.01C67.002,87.104,62.255,94.993,62.255,103.991z M108.705,128.182l-4.578-5.222
		c5.479-4.813,8.623-11.728,8.623-18.969c0-8.996-4.746-16.887-11.855-21.359l5.015-5.01c8.321,5.824,13.778,15.465,13.778,26.369
		C119.688,113.23,115.691,122.05,108.705,128.182z M122.977,133.357l-5.354-4.428c5.813-7.014,9.01-15.871,9.01-24.938
		c0-12.816-6.222-24.182-15.771-31.322l4.953-4.955c10.791,8.441,17.765,21.551,17.765,36.277
		C133.578,114.675,129.807,125.104,122.977,133.357z"/>
</g>
<g id="Layer_11" display="none">
	<g display="inline">
		<polygon fill="#888888" points="142.973,52.009 160.443,68.032 160.443,16.794 125.443,16.794 125.443,68.092 		"/>
		<path fill="#888888" d="M142.975,64.222l-16.558,15.19c4.524,7.115,7.161,15.54,7.161,24.579c0,10.685-3.771,21.11-10.602,29.368
			l-5.354-4.428c5.813-7.016,9.01-15.871,9.01-24.94c0-7.229-1.979-13.996-5.42-19.804l-4.771-6.429
			c-1.696-1.865-3.56-3.577-5.582-5.09l4.953-4.954c0.215,0.167,0.418,0.349,0.629,0.52V27.219
			c-8.881-3.819-18.662-5.943-28.942-5.943c-40.501,0-73.334,32.833-73.334,73.333c0,38.681,29.955,70.344,67.929,73.114v-48.496
			c-6.139-2.216-10.536-8.074-10.536-14.981c0-8.802,7.136-15.936,15.938-15.936c8.805,0,15.945,7.138,15.945,15.94
			c0,6.903-4.401,12.762-10.539,14.978v48.496c37.975-2.769,67.932-34.433,67.932-73.114c0-5.331-0.584-10.524-1.664-15.533
			L142.975,64.222z M52.024,133.357c-6.835-8.256-10.603-18.683-10.603-29.366c0-14.731,6.975-27.836,17.767-36.276l4.953,4.953
			c-9.554,7.141-15.776,18.506-15.776,31.323c0,9.067,3.198,17.924,9.007,24.938L52.024,133.357z M62.255,103.991
			c0,7.241,3.144,14.157,8.625,18.969l-4.585,5.222c-6.98-6.135-10.982-14.949-10.982-24.189c0-10.907,5.463-20.545,13.783-26.368
			l5.01,5.01C67.002,87.104,62.255,94.993,62.255,103.991z M108.705,128.182l-4.578-5.222c5.479-4.812,8.623-11.726,8.623-18.969
			c0-8.996-4.746-16.887-11.855-21.358l5.015-5.01c8.321,5.823,13.778,15.464,13.778,26.368
			C119.688,113.23,115.691,122.05,108.705,128.182z"/>
	</g>
</g>
<g id="Layer_10" display="none">
	<g display="inline">
		<path fill="#888888" d="M141.754,76.958c-1.74,1.823-4.109,2.784-6.511,2.784c-1.411,0-2.833-0.332-4.147-1.015
			c-3.551-1.846-5.457-5.814-4.678-9.74l2.464-12.397h-8.417c-11.314,0-20.52-9.205-20.52-20.519V22.349
			c-4.049-0.692-8.201-1.073-12.445-1.073c-40.501,0-73.334,32.833-73.334,73.333c0,38.681,29.954,70.344,67.929,73.114v-48.496
			c-6.14-2.216-10.536-8.074-10.536-14.981c0-8.802,7.136-15.936,15.938-15.936c8.805,0,15.942,7.138,15.942,15.94
			c0,6.903-4.399,12.762-10.537,14.978v48.496c37.975-2.769,67.931-34.433,67.931-73.114c0-10.931-2.408-21.293-6.697-30.612
			L141.754,76.958z M52.023,133.357c-6.835-8.256-10.603-18.683-10.603-29.366c0-14.731,6.976-27.836,17.768-36.276l4.952,4.953
			c-9.554,7.141-15.775,18.506-15.775,31.323c0,9.067,3.198,17.924,9.007,24.938L52.023,133.357z M62.255,103.991
			c0,7.241,3.144,14.157,8.625,18.969l-4.585,5.222c-6.98-6.135-10.982-14.949-10.982-24.189c0-10.907,5.463-20.545,13.783-26.368
			l5.01,5.01C67.002,87.104,62.255,94.993,62.255,103.991z M108.703,128.182l-4.578-5.222c5.479-4.812,8.625-11.726,8.625-18.969
			c0-8.996-4.748-16.887-11.857-21.358l5.017-5.01c8.321,5.823,13.776,15.464,13.776,26.368
			C119.686,113.23,115.691,122.05,108.703,128.182z M122.975,133.359l-5.352-4.428c5.813-7.016,9.01-15.871,9.01-24.94
			c0-12.816-6.223-24.182-15.773-31.322l4.955-4.954c10.789,8.441,17.764,21.55,17.764,36.276
			C133.577,114.676,129.805,125.104,122.975,133.359z"/>
		<path fill="#888888" d="M171.404,36.072c0,6.361-5.158,11.52-11.521,11.52h-2.522l-22.115,23.149l4.6-23.15h-19.381
			c-6.361,0-11.52-5.158-11.52-11.519V21.737c0-6.361,5.158-11.52,11.52-11.52h39.42c6.362,0,11.52,5.158,11.52,11.519V36.072
			L171.404,36.072z"/>
	</g>
</g>
<g id="Layer_9">
	<g>
		<polygon fill="#888888" points="145.041,41.035 145.041,16.794 132.057,16.794 132.057,41.035 107.816,41.035 107.816,54.017 
			132.057,54.017 132.057,77.389 145.041,77.389 145.041,54.017 168.414,54.017 168.414,41.035 		"/>
	</g>
</g>
<g id="Layer_8" display="none">
	<path display="inline" fill="#888888" stroke="#888888" stroke-miterlimit="10" d="M172.959,57.501
		c-0.42-9.169-5.15-15.999-13.762-15.999v-0.001h-29.576l-2.121-11c0-9.94-6.006-18-13.416-18h-52.17
		c-7.408,0-13.414,8.06-13.414,18l-2.121,11H38.5l-21.25-0.08C9.648,42.45,2.737,49.037,2.066,57.499H2v1.342v6.66v13.998v56.397v22
		c0,9.851,9.323,18.603,18.352,18.603h138.846c9.026,0,13.803-8.752,13.803-18.603v-22V79.501v-22H172.959z M64.777,134.484
		c-9.798-6.619-15.649-17.625-15.649-29.437c0-16.88,11.847-31.037,27.659-34.617l-12.455-8.979l6.855-9.512l28.301,20.4
		l-20.4,28.299h-0.001l-9.509-6.857l8.309-11.526c-9.835,2.914-17.033,12.028-17.033,22.796c0,7.91,3.921,15.283,10.486,19.721
		L64.777,134.484z M98.211,142.215l12.453,8.98l-6.859,9.517l-28.299-20.397l20.402-28.299l9.51,6.858l-8.313,11.532
		c9.836-2.915,17.033-12.028,17.033-22.797c0-7.91-3.921-15.282-10.486-19.718l6.563-9.716c9.797,6.62,15.648,17.624,15.648,29.435
		l0.01-0.016C125.873,124.475,114.023,138.633,98.211,142.215z M159.604,59.501h-33v-11h33V59.501z"/>
</g>
<g id="Layer_7" display="none">
	<polygon display="inline" fill="#888888" points="123,23 105,23 22,23 22,166 105,166 123,166 153,166 153,23 	"/>
</g>
<g id="Layer_6" display="none">
	<polygon display="inline" fill="#888888" points="22.167,20.184 22.167,168.816 152.833,94.5 	"/>
</g>
<g id="Layer_5" display="none">
	<path display="inline" fill="#888888" d="M87.497,145.086c-13.512,0-26.214-5.26-35.77-14.813
		c-19.726-19.725-19.726-51.82,0-71.546c9.557-9.558,22.263-14.82,35.775-14.821c13.512,0,26.215,5.261,35.77,14.813
		c19.727,19.729,19.727,51.821,0.002,71.546c-9.558,9.563-22.262,14.827-35.776,14.827V145.086z M87.503,52.087
		c-11.329,0-21.979,4.412-29.989,12.425c-16.535,16.537-16.535,43.442,0,59.974c8.008,8.012,18.657,12.421,29.983,12.421
		c11.329,0,21.979-4.414,29.991-12.421c16.533-16.535,16.533-43.443-0.002-59.979c-8.01-8.009-18.656-12.417-29.983-12.417V52.087z
		 M87.499,66.618c-15.397,0-27.879,12.482-27.879,27.879c0,15.397,12.483,27.884,27.879,27.884
		c15.397,0,27.879-12.486,27.879-27.876c0-15.4-12.485-27.881-27.885-27.881L87.499,66.618z M79.835,103.47
		c-8.558,0-15.491-6.936-15.491-15.493c0-8.556,6.934-15.491,15.491-15.491c8.554,0,15.492,6.937,15.492,15.491
		c0,8.558-6.938,15.493-15.497,15.493H79.835z"/>
</g>
<g id="Layer_4" display="none">
	<path display="inline" fill="#888888" d="M87.501,71.759c-31.046,0-58.532,15.464-75.215,39.078l6.404,6.403
		c14.964-22.037,40.224-36.546,68.811-36.546c28.586,0,53.845,14.508,68.81,36.544l6.403-6.404
		C146.031,87.222,118.546,71.759,87.501,71.759z"/>
</g>
<g id="Layer_3" display="none">
	<path display="inline" fill="#888888" d="M87.5,74.788c-25.3,0-47.542,13.283-60.162,33.229l6.193,6.193
		C44.436,95.738,64.538,83.31,87.5,83.31s43.064,12.426,53.969,30.901l6.193-6.193C135.041,88.071,112.799,74.788,87.5,74.788z"/>
</g>
<g id="Layer_2" display="none">
	<polygon display="inline" fill="#888888" points="157.93,52.771 97.496,58.124 120.072,2.072 17.071,105.059 74.021,107.1 
		42,184.333 	"/>
</g>
<g>
	<path fill="#888888" d="M106.445,91.536c0-9.919-8.161-17.961-18.085-17.961c-9.922,0-18.012,8.042-18.012,17.961
		c0,5.634,3.652,10.603,6.652,13.898V161h23v-55.578C104,102.129,106.445,97.166,106.445,91.536z"/>
	<path fill="#888888" d="M65.329,113.219c-5.118-5.563-8.279-12.955-8.279-21.092c0-12.492,7.405-23.267,18.037-28.239
		L64.515,53.313c-13.072,8.012-21.835,22.394-21.835,38.813c0,12.1,4.771,23.08,12.496,31.246L65.329,113.219z"/>
	<path fill="#888888" d="M48.017,130.529c-9.549-10-15.458-23.512-15.458-38.402c0-19.202,9.768-36.164,24.601-46.174L46.901,35.697
		C29.535,48.459,18.189,68.97,18.189,92.127c0,18.85,7.519,35.955,19.674,48.561L48.017,130.529z"/>
</g>
<path fill="#888888" d="M151.041,83.389h-7.844c0.454,2.849,0.714,5.762,0.714,8.738c0,15.535-6.408,29.586-16.7,39.693
	l10.153,10.156c12.896-12.709,20.918-30.355,20.918-49.85c0-11.103-2.612-21.595-7.241-30.919V83.389z"/>
<path fill="#888888" d="M126.057,83.389V66.806c-1.64-2.44-3.505-4.713-5.572-6.789h-12.688l-4.702,4.701
	c9.713,5.289,16.327,15.591,16.327,27.409c0,8.781-3.661,16.709-9.527,22.381l10.159,10.158
	c8.461-8.279,13.737-19.797,13.737-32.539c0-2.988-0.292-5.909-0.845-8.738H126.057z"/>
</svg>
