<svg xmlns="http://www.w3.org/2000/svg" width="175" height="189" viewBox="0 0 175 189"><g fill="#888"><path d="M154.04 86.39h-23.986c2.262 5.425 3.523 11.365 3.523 17.602 0 10.684-3.77 21.11-10.602 29.367l-5.353-4.43c5.813-7.02 9.01-15.87 9.01-24.94 0-12.82-6.222-24.18-15.772-31.32l4.954-4.96c2.663 2.08 5.09 4.45 7.242 7.06V63.02h-24.24V32.035h24.24v-1.562c-10.534-5.853-22.652-9.197-35.557-9.197-40.51 0-73.34 32.833-73.34 73.333 0 38.68 29.95 70.34 67.93 73.11v-48.5c-6.14-2.22-10.54-8.08-10.54-14.99 0-8.8 7.13-15.94 15.94-15.94 8.8 0 15.94 7.13 15.94 15.94 0 6.9-4.4 12.76-10.54 14.97v48.5c37.97-2.77 67.93-34.44 67.93-73.12 0-11.01-2.45-21.45-6.8-30.82v22.6zM52.025 133.356c-6.835-8.254-10.603-18.682-10.603-29.365 0-14.73 6.976-27.83 17.768-36.27l4.953 4.96C54.59 79.82 48.368 91.18 48.368 104c0 9.07 3.198 17.924 9.007 24.94l-5.348 4.425zm10.23-29.365c0 7.24 3.145 14.16 8.626 18.97l-4.58 5.22c-6.98-6.13-10.98-14.94-10.98-24.18 0-10.9 5.47-20.54 13.79-26.37l5.01 5.01C67.01 87.12 62.27 95 62.27 104zm46.45 24.19l-4.578-5.22c5.48-4.81 8.624-11.72 8.624-18.97 0-8.99-4.74-16.88-11.85-21.35l5.02-5.01c8.32 5.83 13.78 15.47 13.78 26.37 0 9.24-3.99 18.06-10.98 24.19z"/><path d="M145.04 41.035v-24.24h-12.983v24.24h-24.24v12.982h24.24V77.39h12.984V54.016h23.38v-12.98"/></g></svg>