<svg xmlns="http://www.w3.org/2000/svg" width="175" height="189" viewBox="0 0 175 189"><path fill="#888" d="M145.04 41.035v-24.24h-12.983v24.24h-24.24v12.982h24.24V77.39h12.984V54.016h23.38v-12.98"/><g fill="#888"><path d="M106.445 91.536c0-9.92-8.16-17.96-18.085-17.96-9.922 0-18.012 8.04-18.012 17.96 0 5.634 3.652 10.603 6.652 13.898V161h23v-55.578c4-3.293 6.445-8.256 6.445-13.886z"/><path d="M65.33 113.22c-5.12-5.564-8.28-12.956-8.28-21.093 0-12.492 7.405-23.267 18.037-28.24L64.515 53.314C51.443 61.324 42.68 75.707 42.68 92.126c0 12.1 4.77 23.08 12.496 31.246L65.33 113.22z"/><path d="M48.017 130.53c-9.55-10-15.458-23.513-15.458-38.403 0-19.202 9.76-36.164 24.6-46.174L46.9 35.697C29.536 48.46 18.19 68.97 18.19 92.127c0 18.85 7.518 35.955 19.673 48.56l10.154-10.158z"/></g><path fill="#888" d="M151.04 83.39h-7.843c.454 2.848.714 5.76.714 8.737 0 15.535-6.4 29.586-16.7 39.693l10.16 10.156c12.9-12.71 20.92-30.355 20.92-49.85 0-11.103-2.61-21.595-7.24-30.92V83.39zm-24.983 0V66.805c-1.64-2.44-3.505-4.713-5.572-6.79h-12.688l-4.702 4.702c9.713 5.29 16.327 15.59 16.327 27.41 0 8.78-3.66 16.708-9.527 22.38l10.16 10.158c8.46-8.28 13.736-19.797 13.736-32.54 0-2.987-.29-5.908-.84-8.737h-6.89z"/></svg>