<?xml version="1.0" encoding="utf-8"?>
<!-- Generator: Adobe Illustrator 16.0.0, SVG Export Plug-In . SVG Version: 6.00 Build 0)  -->
<!DOCTYPE svg PUBLIC "-//W3C//DTD SVG 1.1//EN" "http://www.w3.org/Graphics/SVG/1.1/DTD/svg11.dtd">
<svg version="1.1" id="Layer_1" xmlns="http://www.w3.org/2000/svg" xmlns:xlink="http://www.w3.org/1999/xlink" x="0px" y="0px"
	 width="175px" height="189px" viewBox="0 0 175 189" enable-background="new 0 0 175 189" xml:space="preserve">
<rect x="87.501" y="-15.307" transform="matrix(0.7071 0.7071 -0.7071 0.7071 90.0217 -40.9986)" fill="#888888" width="14" height="206.948"/>
<g>
	<path fill="#888888" d="M28.363,137.527h25.926l50.533-50.533c-1.835-3.031-2.912-6.577-2.912-10.379v-0.242
		c-0.104-1.34-1.104-2.322-2.406-2.322c-1.414,0-2.563,1.15-2.563,2.57c0,0.3-0.021,0.6-0.041,0.9
		c-0.469,10.62-9.229,19.12-19.959,19.12c-10.94,0-19.85-8.97-19.85-20.01v-0.24c-0.11-1.34-1.11-2.32-2.41-2.32
		c-1.41,0-2.56,1.149-2.56,2.57c0,4.82-3.9,8.73-8.72,8.73s-8.72-3.9-8.72-8.72c0-11.03,8.98-20.01,20.01-20.01
		c10.96,0,19.87,8.98,19.87,20.01v0.24c0.11,1.34,1.1,2.32,2.4,2.32c1.41,0,2.56-1.15,2.56-2.56c0-0.3,0.02-0.6,0.05-0.89
		c0.47-10.62,9.229-19.12,19.97-19.12c9.641,0,17.69,6.962,19.48,16.153l43.547-43.546c-2.721-6.089-8.818-10.34-15.918-10.34
		l-0.014,0.002H28.363c-9.634,0-17.445,7.812-17.445,17.443v83.73C10.918,129.715,18.73,137.527,28.363,137.527z"/>
	<path fill="#888888" d="M140.109,71.505c1.064,1.448,1.701,3.23,1.701,5.166c0,11.04-8.979,20.011-20.01,20.011l-0.037-0.057
		c-2.046,0-4.02-0.314-5.877-0.896l-41.799,41.799h41.193l24.38,32.562V137.52h6.979c9.641,0,17.45-7.82,17.45-17.451V47.524
		L140.109,71.505z"/>
</g>
</svg>
