<svg xmlns="http://www.w3.org/2000/svg" width="175" height="189" viewBox="0 0 175 189"><path fill="#888" d="M162.717 10.05l9.9 9.9L26.284 166.28l-9.9-9.9z"/><path d="M28.363 137.527H54.29l50.532-50.533c-1.835-3.03-2.912-6.577-2.912-10.38v-.24c-.104-1.34-1.104-2.323-2.406-2.323-1.414 0-2.563 1.15-2.563 2.57 0 .3-.02.6-.04.9-.47 10.62-9.23 19.12-19.96 19.12-10.94 0-19.85-8.97-19.85-20.01v-.24c-.11-1.34-1.11-2.32-2.41-2.32-1.41 0-2.56 1.15-2.56 2.57 0 4.82-3.9 8.73-8.72 8.73s-8.72-3.9-8.72-8.72c0-11.03 8.98-20.01 20.01-20.01 10.96 0 19.87 8.98 19.87 20.01v.24c.11 1.34 1.1 2.32 2.4 2.32 1.41 0 2.56-1.15 2.56-2.56 0-.3.02-.6.05-.89.47-10.62 9.23-19.12 19.97-19.12 9.65 0 17.69 6.97 19.48 16.16l43.55-43.54c-2.72-6.09-8.82-10.34-15.92-10.34H28.37c-9.634 0-17.445 7.82-17.445 17.45v83.73c0 9.63 7.81 17.45 17.445 17.45zM140.11 71.505c1.063 1.448 1.7 3.23 1.7 5.166 0 11.04-8.98 20.02-20.01 20.02l-.037-.05c-2.046 0-4.02-.31-5.877-.89l-41.8 41.8h41.194l24.38 32.56v-32.57h6.98c9.64 0 17.45-7.82 17.45-17.45V47.53l-23.98 23.98z" fill="#888"/></svg>