<svg xmlns="http://www.w3.org/2000/svg" width="175" height="189" viewBox="0 0 175 189"><g fill="#888"><path d="M87.497 171.586c-13.512 0-26.214-5.26-35.77-14.813C32 137.05 32 104.953 51.727 85.227c9.557-9.558 22.263-14.82 35.775-14.82 13.51 0 26.215 5.26 35.77 14.813 19.726 19.73 19.726 51.82 0 71.546-9.556 9.562-22.26 14.827-35.775 14.827v-.007zm.006-93c-11.33 0-21.98 4.413-29.99 12.426-16.534 16.537-16.534 43.442 0 59.974 8.01 8.012 18.658 12.42 29.984 12.42 11.33 0 21.98-4.413 29.99-12.42 16.534-16.535 16.534-43.443 0-59.978-8.01-8.01-18.657-12.417-29.984-12.417zM87.5 93.12c-15.398 0-27.88 12.482-27.88 27.88 0 15.396 12.483 27.883 27.88 27.883 15.396 0 27.878-12.485 27.878-27.875 0-15.4-12.486-27.88-27.885-27.88l.006-.007zm-7.665 36.852c-8.558 0-15.49-6.936-15.49-15.493s6.933-15.49 15.49-15.49c8.554 0 15.492 6.93 15.492 15.49 0 8.55-6.94 15.49-15.497 15.49h.005zM87.5 10.26c-31.045 0-58.53 15.463-75.214 39.077l6.404 6.403C33.654 33.703 58.914 19.194 87.5 19.194c28.587 0 53.846 14.508 68.81 36.544l6.404-6.404C146.03 25.722 118.546 10.26 87.5 10.26z"/><path d="M87.5 43.788c-25.3 0-47.542 13.283-60.162 33.23l6.193 6.193c10.91-18.47 31.01-30.9 53.97-30.9s43.07 12.43 53.97 30.9l6.2-6.19C135.05 57.07 112.8 43.79 87.5 43.79z"/></g></svg>