<svg xmlns="http://www.w3.org/2000/svg" width="175" height="189" viewBox="0 0 175 189"><path fill="#888" stroke="#888" stroke-miterlimit="10" d="M172.96 57.5c-.42-9.168-5.152-15.998-13.763-15.998H129.62l-2.12-11c0-9.94-6.006-18-13.416-18h-52.17c-7.408 0-13.414 8.06-13.414 18l-2.12 11H38.5l-21.25-.08C9.648 42.45 2.737 49.036 2.066 57.498H2v100.398c0 9.85 9.323 18.602 18.352 18.602h138.846c9.027 0 13.803-8.753 13.803-18.603V57.5h-.04zM64.776 134.485c-9.798-6.62-15.65-17.624-15.65-29.436 0-16.88 11.848-31.04 27.66-34.62L64.33 61.45l6.856-9.512 28.3 20.4-20.4 28.3-9.51-6.857 8.31-11.52c-9.836 2.91-17.033 12.03-17.033 22.79 0 7.91 3.92 15.29 10.486 19.72l-6.57 9.72zm33.434 7.73l12.454 8.982-6.86 9.516-28.298-20.397 20.402-28.3 9.51 6.86-8.312 11.53c9.835-2.914 17.032-12.027 17.032-22.795 0-7.91-3.92-15.28-10.486-19.72l6.563-9.71c9.797 6.62 15.648 17.63 15.648 29.44l.01-.01c0 16.88-11.85 31.04-27.662 34.62zm61.394-82.713h-33v-11h33v11z"/></svg>