<svg xmlns="http://www.w3.org/2000/svg" width="220" height="189" viewBox="0 0 220 189"><path fill="#878787" d="M163.655 121.232c-2.25 0-4.222-1.646-4.568-3.938C155.025 90.4 131.433 70.12 104.21 70.12c-19.26 0-36.87 9.79-47.114 26.187-1.354 2.166-4.207 2.827-6.373 1.474-2.167-1.35-2.826-4.2-1.473-6.37 11.944-19.12 32.49-30.54 54.958-30.54 15.573 0 30.632 5.63 42.407 15.86 11.652 10.12 19.33 24.04 21.62 39.19.38 2.53-1.358 4.88-3.884 5.27-.23.04-.46.06-.69.06z"/><path fill="#878787" d="M27.15 109.098c-.406 0-.82-.054-1.23-.166-2.462-.678-3.91-3.223-3.233-5.687 10.055-36.592 43.578-62.15 81.52-62.15 32.083 0 61.015 17.84 75.51 46.56 1.152 2.28.236 5.062-2.044 6.212-2.28 1.15-5.063.236-6.213-2.044-12.913-25.584-38.683-41.477-67.252-41.477-33.792 0-63.646 22.76-72.602 55.35-.563 2.054-2.424 3.402-4.456 3.402zm174.6-.808c-2.117 0-4.025-1.46-4.51-3.61-9.7-43.115-48.826-74.407-93.033-74.407-33.41 0-64.826 17.9-81.987 46.713-1.307 2.194-4.146 2.914-6.34 1.606-2.195-1.307-2.915-4.146-1.607-6.34 9.12-15.312 22.08-28.14 37.48-37.104 15.88-9.24 34.02-14.125 52.454-14.125 23.86 0 47.217 8.28 65.766 23.315 18.275 14.814 31.164 35.52 36.29 58.31.563 2.493-1.003 4.97-3.496 5.526-.34.08-.682.115-1.018.115z"/><path fill="#878787" d="M98.282 83.7c5.515 4.695 7.866 12.466 5.32 19.706-3.305 9.393-13.597 14.326-22.99 11.023-5.895-2.08-10.033-6.91-11.48-12.54-1.985 2.94-3.634 6.17-4.867 9.68-7.76 22.06 3.833 46.23 25.893 53.99 22.06 7.76 46.234-3.83 53.996-25.9 7.76-22.06-3.832-46.24-25.89-54-6.64-2.34-13.467-2.91-19.982-1.98z"/></svg>