<svg xmlns="http://www.w3.org/2000/svg" width="175" height="189" viewBox="0 0 175 189"><path fill="#878787" d="M133.693 114.688c-1.867 0-3.503-1.367-3.79-3.27-3.372-22.322-22.953-39.155-45.55-39.155C68.37 72.263 53.75 80.39 45.25 94c-1.124 1.797-3.492 2.346-5.29 1.224-1.798-1.125-2.346-3.492-1.222-5.29 9.913-15.873 26.966-25.35 45.615-25.35 12.926 0 25.425 4.674 35.198 13.16 9.68 8.396 16.05 19.948 17.95 32.528.32 2.096-1.12 4.052-3.22 4.368-.19.033-.38.048-.58.048z"/><path fill="#878787" d="M20.395 104.616c-.337 0-.68-.045-1.02-.138-2.045-.563-3.247-2.675-2.685-4.72 8.345-30.373 36.17-51.584 67.662-51.584 26.628 0 50.643 14.807 62.674 38.645.955 1.89.195 4.2-1.697 5.15-1.9.95-4.21.19-5.16-1.7-10.72-21.23-32.11-34.42-55.82-34.42-28.05 0-52.83 18.89-60.26 45.94-.47 1.7-2.01 2.82-3.7 2.82zm144.917-.67c-1.756 0-3.34-1.213-3.74-2.997-8.053-35.79-40.527-61.76-77.22-61.76-27.73 0-53.805 14.85-68.048 38.77-1.085 1.82-3.44 2.42-5.264 1.33-1.82-1.09-2.418-3.44-1.333-5.26 7.57-12.71 18.327-23.36 31.11-30.8C53.997 35.56 69.05 31.5 84.353 31.5c19.805 0 39.19 6.872 54.585 19.35 15.17 12.297 25.866 29.484 30.122 48.4.467 2.067-.834 4.123-2.902 4.585-.283.065-.567.095-.846.095z"/><path fill="#878787" d="M79.434 83.535c4.577 3.897 6.53 10.348 4.415 16.357-2.75 7.796-11.29 11.89-19.08 9.15-4.9-1.723-8.33-5.733-9.53-10.41-1.65 2.44-3.02 5.127-4.04 8.035-6.44 18.31 3.18 38.375 21.49 44.817 18.31 6.44 38.37-3.18 44.81-21.492 6.44-18.313-3.18-38.375-21.49-44.817-5.51-1.936-11.18-2.41-16.59-1.64z"/></svg>