<?xml version="1.0" encoding="utf-8"?>
<!-- Generator: Adobe Illustrator 16.0.0, SVG Export Plug-In . SVG Version: 6.00 Build 0)  -->
<!DOCTYPE svg PUBLIC "-//W3C//DTD SVG 1.1//EN" "http://www.w3.org/Graphics/SVG/1.1/DTD/svg11.dtd">
<svg version="1.1" id="Layer_1" xmlns="http://www.w3.org/2000/svg" xmlns:xlink="http://www.w3.org/1999/xlink" x="0px" y="0px"
	 width="220px" height="189px" viewBox="0 0 220 189" enable-background="new 0 0 220 189" xml:space="preserve">
<g>
	<g>
		<path fill="#878787" d="M163.655,121.232c-2.25,0-4.222-1.646-4.568-3.938c-4.062-26.894-27.654-47.175-54.878-47.175
			c-19.258,0-36.87,9.79-47.113,26.188c-1.354,2.166-4.207,2.827-6.373,1.474c-2.167-1.354-2.826-4.207-1.473-6.374
			c11.944-19.123,32.489-30.539,54.958-30.539c15.573,0,30.632,5.63,42.407,15.854c11.652,10.117,19.331,24.034,21.619,39.19
			c0.382,2.526-1.357,4.882-3.883,5.264C164.118,121.214,163.885,121.232,163.655,121.232z"/>
	</g>
	<g>
		<path fill="#878787" d="M27.15,109.098c-0.406,0-0.819-0.054-1.229-0.166c-2.463-0.678-3.911-3.223-3.234-5.687
			c10.055-36.592,43.578-62.149,81.521-62.149c32.082,0,61.014,17.84,75.51,46.559c1.151,2.28,0.235,5.062-2.045,6.212
			c-2.281,1.151-5.063,0.236-6.213-2.044c-12.913-25.584-38.683-41.477-67.252-41.477c-33.792,0-63.646,22.761-72.602,55.349
			C31.043,107.75,29.182,109.098,27.15,109.098z"/>
	</g>
	<g>
		<path fill="#878787" d="M201.749,108.289c-2.116,0-4.024-1.46-4.508-3.609c-9.701-43.115-48.827-74.407-93.034-74.407
			c-33.41,0-64.826,17.899-81.987,46.713c-1.307,2.194-4.146,2.914-6.341,1.606c-2.194-1.307-2.914-4.146-1.606-6.34
			c9.12-15.312,22.08-28.141,37.481-37.104c15.88-9.241,34.018-14.125,52.453-14.125c23.861,0,47.217,8.28,65.766,23.315
			c18.275,14.814,31.164,35.521,36.291,58.311c0.562,2.492-1.004,4.968-3.497,5.525
			C202.427,108.253,202.085,108.289,201.749,108.289z"/>
	</g>
	<g>
		<path fill="#878787" d="M98.282,83.699c5.515,4.696,7.866,12.467,5.319,19.707c-3.304,9.393-13.596,14.326-22.988,11.023
			c-5.896-2.074-10.034-6.906-11.48-12.539c-1.986,2.94-3.635,6.176-4.868,9.68c-7.76,22.06,3.833,46.234,25.893,53.996
			c22.06,7.761,46.234-3.832,53.996-25.894c7.761-22.062-3.832-46.235-25.891-53.996C111.623,83.343,104.797,82.772,98.282,83.699z"
			/>
	</g>
</g>
</svg>
