<?xml version="1.0" encoding="utf-8"?>
<!-- Generator: Adobe Illustrator 16.0.0, SVG Export Plug-In . SVG Version: 6.00 Build 0)  -->
<!DOCTYPE svg PUBLIC "-//W3C//DTD SVG 1.1//EN" "http://www.w3.org/Graphics/SVG/1.1/DTD/svg11.dtd">
<svg version="1.1" id="Layer_1" xmlns="http://www.w3.org/2000/svg" xmlns:xlink="http://www.w3.org/1999/xlink" x="0px" y="0px"
	 width="175px" height="189px" viewBox="0 0 175 189" enable-background="new 0 0 175 189" xml:space="preserve">
<g>
	<g>
		<path fill="#878787" d="M133.693,114.688c-1.867,0-3.503-1.367-3.791-3.27c-3.371-22.322-22.952-39.155-45.549-39.155
			C68.37,72.264,53.751,80.39,45.25,94c-1.124,1.797-3.492,2.346-5.29,1.224c-1.798-1.125-2.346-3.492-1.222-5.291
			c9.913-15.872,26.966-25.348,45.615-25.348c12.926,0,25.425,4.673,35.198,13.159c9.672,8.396,16.044,19.948,17.944,32.528
			c0.316,2.096-1.127,4.052-3.223,4.368C134.078,114.673,133.885,114.688,133.693,114.688z"/>
	</g>
	<g>
		<path fill="#878787" d="M20.395,104.616c-0.337,0-0.68-0.045-1.021-0.138c-2.044-0.563-3.246-2.675-2.684-4.72
			c8.345-30.373,36.17-51.584,67.662-51.584c26.628,0,50.643,14.807,62.674,38.645c0.955,1.893,0.195,4.201-1.697,5.156
			c-1.893,0.955-4.203,0.196-5.157-1.696c-10.718-21.235-32.106-34.427-55.819-34.427c-28.047,0-52.826,18.893-60.26,45.94
			C23.625,103.498,22.081,104.616,20.395,104.616z"/>
	</g>
	<g>
		<path fill="#878787" d="M165.312,103.945c-1.756,0-3.34-1.212-3.741-2.996c-8.052-35.786-40.526-61.757-77.218-61.757
			c-27.731,0-53.806,14.855-68.049,38.772c-1.085,1.82-3.441,2.418-5.264,1.333c-1.82-1.084-2.418-3.441-1.333-5.262
			c7.569-12.709,18.327-23.357,31.109-30.796c13.181-7.67,28.235-11.724,43.537-11.724c19.805,0,39.19,6.872,54.585,19.351
			c15.169,12.296,25.866,29.483,30.122,48.398c0.467,2.068-0.834,4.124-2.902,4.586
			C165.875,103.915,165.591,103.945,165.312,103.945z"/>
	</g>
	<g>
		<path fill="#878787" d="M79.434,83.535c4.577,3.897,6.529,10.348,4.415,16.357c-2.743,7.796-11.285,11.891-19.08,9.149
			c-4.894-1.722-8.329-5.732-9.529-10.408c-1.649,2.44-3.017,5.126-4.04,8.034c-6.441,18.31,3.181,38.375,21.491,44.817
			c18.31,6.441,38.375-3.181,44.816-21.492c6.441-18.313-3.181-38.375-21.489-44.817C90.507,83.239,84.841,82.765,79.434,83.535z"/>
	</g>
</g>
</svg>
