<svg xmlns="http://www.w3.org/2000/svg" width="215" height="189" viewBox="0 0 215 189"><path d="M44.068 84.276c2.553 9.848 11.5 17.12 22.146 17.12 12.635 0 22.878-10.244 22.878-22.876 0-1.79-.212-3.527-.6-5.198-14.284 6.646-33.284 10.913-44.424 10.954zm81.84-5.76c0 12.636 10.242 22.878 22.877 22.878 10.646 0 19.593-7.27 22.146-17.122-11.14-.04-30.14-4.307-44.42-10.957-.38 1.674-.6 3.412-.6 5.2zm78.512-36.04c-6.436-6.434-15.12-9.98-24.455-9.98-2.473 0-4.945.255-7.38.75-17.435-14.92-40.626-23.32-65.085-23.32-24.46 0-47.652 8.4-65.085 23.32-2.434-.494-4.906-.747-7.38-.747-9.334 0-18.02 3.54-24.456 9.97-13.83 13.83-13.17 36.97 1.45 51.6.43.43.88.86 1.34 1.27.37 22.37 10.39 43.23 28.3 58.88 17.68 15.44 41.05 23.95 65.82 23.95 24.76 0 48.14-8.51 65.82-23.95 17.91-15.65 27.92-36.51 28.3-58.88.45-.42.9-.85 1.33-1.28 6.9-6.9 10.94-15.91 11.4-25.39.47-9.87-3.15-19.43-9.94-26.22zM66.068 152.95c9.412-12.604 24.275-20.197 40.274-20.197 16.492 0 31.568 7.913 40.916 21.063-11.686 5.942-25.26 9.365-39.756 9.365-15.193.01-29.38-3.74-41.433-10.23zm126.29-69.483c-1.838 1.837-3.895 3.297-6.053 4.42.202 2.033.327 4.087.327 6.168 0 20.59-10.318 39.07-26.674 51.735-12.092-17.49-31.915-28.037-53.618-28.037-21.048 0-40.582 10.116-52.77 26.87-15.5-12.62-25.205-30.6-25.205-50.568 0-2.08.125-4.134.33-6.168-2.163-1.122-4.216-2.583-6.054-4.42-8.79-8.79-9.44-22.393-1.45-30.38 3.74-3.743 8.72-5.587 13.85-5.587 3.75 0 7.59.984 11.09 2.93 14.51-15.56 36.61-25.5 61.38-25.5s46.86 9.943 61.38 25.502c3.51-1.947 7.34-2.93 11.09-2.93 5.14 0 10.11 1.843 13.85 5.585 7.99 7.988 7.34 21.59-1.45 30.382z" fill="#888"/></svg>