<svg xmlns="http://www.w3.org/2000/svg" width="215" height="189" viewBox="0 0 215 189"><g fill="#888"><circle cx="66.214" cy="78.517" r="22.878"/><circle cx="148.786" cy="78.517" r="22.878"/><path d="M204.42 42.477c-6.436-6.435-15.12-9.98-24.455-9.98-2.473 0-4.945.254-7.38.75-17.435-14.92-40.626-23.32-65.085-23.32-24.46 0-47.652 8.4-65.085 23.32-2.434-.495-4.906-.748-7.38-.748-9.334 0-18.02 3.54-24.456 9.97-13.83 13.83-13.17 36.97 1.45 51.6.43.43.88.86 1.34 1.27.37 22.37 10.39 43.23 28.3 58.88 17.68 15.44 41.05 23.95 65.82 23.95 24.76 0 48.14-8.51 65.82-23.95 17.91-15.65 27.92-36.51 28.3-58.88.45-.42.9-.85 1.33-1.28 6.9-6.9 10.94-15.91 11.4-25.39.47-9.87-3.15-19.43-9.94-26.22zM107.5 163.182c-25.73 0-48.584-10.732-63.037-27.35h126.073c-14.453 16.615-37.307 27.35-63.036 27.35zm84.857-79.715c-1.838 1.837-3.895 3.297-6.053 4.42.202 2.033.327 4.087.327 6.168 0 9.496-2.19 18.542-6.15 26.778H34.53c-3.967-8.235-6.16-17.282-6.16-26.778 0-2.08.123-4.134.33-6.168-2.165-1.122-4.218-2.583-6.056-4.42-8.79-8.79-9.443-22.393-1.456-30.38 3.742-3.743 8.715-5.587 13.85-5.587 3.75 0 7.586.984 11.09 2.93 14.51-15.56 36.61-25.5 61.375-25.5s46.863 9.943 61.376 25.502c3.5-1.947 7.33-2.93 11.09-2.93 5.13 0 10.1 1.843 13.85 5.585 7.98 7.988 7.33 21.59-1.46 30.382z"/></g></svg>