<svg xmlns="http://www.w3.org/2000/svg" width="215" height="189" viewBox="0 0 215 189"><g fill="#888"><circle cx="72.744" cy="78.517" r="26.387"/><circle cx="145.41" cy="78.517" r="26.387"/><path d="M204.42 42.477c-6.436-6.435-15.12-9.98-24.455-9.98-2.473 0-4.945.254-7.38.75-17.435-14.92-40.626-23.32-65.085-23.32-24.46 0-47.652 8.4-65.085 23.32-2.434-.495-4.906-.748-7.38-.748-9.334 0-18.02 3.54-24.456 9.97-13.83 13.83-13.17 36.97 1.45 51.6.43.43.88.86 1.34 1.27.37 22.37 10.39 43.23 28.3 58.88 17.68 15.44 41.05 23.95 65.82 23.95 24.76 0 48.14-8.51 65.82-23.95 17.91-15.65 27.92-36.51 28.3-58.88.45-.42.9-.85 1.33-1.28 6.9-6.9 10.94-15.91 11.4-25.39.47-9.87-3.15-19.43-9.94-26.22zm-12.063 40.99c-1.838 1.837-3.895 3.297-6.053 4.42.202 2.033.327 4.087.327 6.168 0 30.01-21.89 55.542-52.48 65.1.98-1.884 1.52-4.317 1.52-7.488 0-15.28-12.39-41.667-27.67-41.667s-27.66 26.387-27.66 41.667c0 3.367.61 5.912 1.71 7.837-31.21-9.263-53.67-35.056-53.67-65.45 0-2.08.13-4.133.33-6.167-2.16-1.122-4.21-2.583-6.05-4.42-8.79-8.79-9.44-22.393-1.45-30.38 3.74-3.743 8.72-5.587 13.85-5.587 3.75 0 7.59.984 11.09 2.93 14.51-15.56 36.61-25.502 61.38-25.502 24.77 0 46.86 9.943 61.38 25.502 3.51-1.947 7.34-2.93 11.09-2.93 5.14 0 10.11 1.843 13.85 5.585 7.99 7.988 7.34 21.59-1.45 30.382z"/></g></svg>