<svg xmlns="http://www.w3.org/2000/svg" width="215" height="189" viewBox="0 0 215 189"><circle fill="#888" cx="66.214" cy="78.517" r="22.878"/><circle fill="#888" cx="148.786" cy="78.517" r="22.878"/><path fill="#888" d="M107.5 24.928c24.766 0 46.863 9.943 61.376 25.502 3.503-1.947 7.338-2.93 11.09-2.93 5.134 0 10.107 1.843 13.85 5.585 7.987 7.988 7.335 21.59-1.458 30.382-1.838 1.837-3.893 3.297-6.053 4.42.204 2.033.33 4.087.33 6.168 0 38.177-35.432 69.126-79.135 69.126-43.705 0-79.134-30.94-79.134-69.12 0-2.08.125-4.13.33-6.17-2.163-1.12-4.216-2.58-6.054-4.42-8.792-8.79-9.444-22.39-1.457-30.38 3.742-3.74 8.715-5.58 13.85-5.58 3.75 0 7.586.99 11.09 2.93 14.51-15.56 36.61-25.5 61.375-25.5m0-15c-24.46 0-47.652 8.4-65.085 23.32-2.434-.49-4.906-.75-7.38-.75-9.334 0-18.02 3.55-24.456 9.98-13.83 13.82-13.17 36.97 1.45 51.59.43.44.88.87 1.34 1.28.37 22.37 10.39 43.23 28.3 58.88 17.68 15.44 41.05 23.95 65.82 23.95 24.76 0 48.14-8.51 65.82-23.95 17.91-15.64 27.92-36.51 28.3-58.88.45-.41.9-.84 1.33-1.27 6.9-6.89 10.94-15.91 11.4-25.38.47-9.87-3.15-19.42-9.94-26.21-6.44-6.43-15.12-9.98-24.46-9.98-2.48 0-4.95.26-7.38.75-17.41-14.94-40.6-23.34-65.06-23.34z"/><path fill="#888" d="M52.468 113.667c2.892 22.476 26.425 40 55.032 40 28.607 0 52.14-17.524 55.03-40H52.47z"/></svg>