<svg xmlns="http://www.w3.org/2000/svg" width="215" height="189" viewBox="0 0 215 189"><path d="M140.864 83.802c-2.67 0-4.832 2.158-4.832 4.82 0 11.73-5.92 19.915-11.256 19.915-7.978 0-10.43-6.01-11.045-18.323 3.74-1.132 6.34-3.45 6.34-6.16 0-3.812-5.09-6.9-11.36-6.9s-11.36 3.09-11.36 6.9c0 2.71 2.6 5.034 6.35 6.16-.61 12.313-3.08 18.316-11.06 18.316-5.32 0-11.24-8.18-11.24-19.918 0-2.66-2.16-4.82-4.82-4.82s-4.83 2.157-4.83 4.82c0 4.994.92 9.584 2.4 13.676 1.07 24.947 15.46 43.422 34.37 43.422 18.62 0 32.88-17.88 34.33-42.164 1.8-4.373 2.89-9.425 2.89-14.938.01-2.648-2.15-4.806-4.82-4.806zm-32.386 55.63c-12.316 0-22.256-10.174-26.246-25.19 3.05 2.44 6.557 3.942 10.383 3.942 8.086 0 13.043-3.377 16.092-8.293 3.045 4.92 7.997 8.3 16.07 8.3 3.6 0 6.918-1.34 9.845-3.52-4.083 14.79-13.95 24.77-26.144 24.77zM88.135 71.84c1.6 1.763 4.326 1.895 6.08.3 1.763-1.6 1.896-4.324.3-6.084-7.676-8.464-15.98-12.435-24.543-11.814-14.508 1.03-24.09 14.966-24.49 15.563-1.33 1.97-.814 4.65 1.16 5.98.74.5 1.58.734 2.406.734 1.383 0 2.738-.67 3.57-1.9.07-.11 7.746-11.07 17.966-11.8 5.86-.44 11.744 2.61 17.55 9.01zm56.453-17.6c-14.507 1.03-24.084 14.964-24.485 15.56-1.336 1.97-.817 4.647 1.154 5.982.74.498 1.57.736 2.41.736 1.382 0 2.736-.668 3.566-1.896.076-.107 7.758-11.064 17.97-11.794 5.844-.437 11.763 2.618 17.562 9.012 1.604 1.765 4.326 1.896 6.078.302 1.77-1.6 1.895-4.326.303-6.086-7.663-8.452-15.892-12.444-24.558-11.816zm70.142 10.7c0-16.3-13.52-29.562-30.142-29.562-3.664 0-7.23.64-10.634 1.902-17.806-16.69-42.82-26.247-68.774-26.247-25.666 0-49.68 8.947-67.618 25.195-2.35-.565-4.747-.852-7.154-.852-16.62 0-30.14 13.26-30.14 29.562 0 8.84 3.903 16.998 10.772 22.633-.228 2.39-.34 4.67-.34 6.93 0 46.03 42.382 83.47 94.478 83.47 52.094 0 94.48-37.44 94.48-83.46 0-1.22-.047-2.48-.13-3.9 9.43-5.26 15.203-14.92 15.203-25.66zm-21.97 16.12l-5.407 2.582.488 5.977c.16 1.88.23 3.43.23 4.88 0 39.63-37.19 71.87-82.88 71.87-45.7 0-82.89-32.24-82.89-71.88 0-2.33.15-4.69.44-7.23l.58-5.02-4.08-2.99c-4.69-3.44-7.37-8.66-7.37-14.32 0-9.91 8.32-17.97 18.55-17.97 1.84 0 3.68.27 5.47.8l4.79 1.43 4.19-3.93c.15-.15.31-.29.47-.44 15.8-14.32 37.06-22.21 59.85-22.21 23.3 0 45.68 8.6 61.4 23.63l4.86 4.77 5.41-2.42c2.45-1.09 5.05-1.65 7.75-1.65 10.23 0 18.55 8.06 18.55 17.97 0 6.88-3.98 13.06-10.38 16.11z" fill="#888"/></svg>