<svg xmlns="http://www.w3.org/2000/svg" width="214" height="189" viewBox="0 0 214 189"><path fill="#888" d="M214.23 64.94c0-16.3-13.52-29.562-30.142-29.562-3.664 0-7.23.64-10.633 1.902-17.805-16.69-42.818-26.247-68.775-26.247-25.666 0-49.68 8.947-67.618 25.195-2.35-.566-4.748-.85-7.153-.85-16.62 0-30.15 13.26-30.15 29.56 0 8.84 3.9 17 10.77 22.632-.23 2.385-.34 4.664-.34 6.93 0 46.02 42.38 83.466 94.48 83.466 52.09 0 94.47-37.442 94.47-83.465 0-1.22-.05-2.48-.13-3.9 9.43-5.26 15.2-14.92 15.2-25.66zM136.5 134v11h-58v-11h23v-17.915l-6.12-7.427c-5.447 4.482-12.302 7.22-19.945 7.22-17.377 0-31.41-13.942-31.41-31.1 0-1.27.157-2.778.306-3.778H58.9c-.814 2-1.28 3.875-1.28 5.98 0 8.646 7.573 15.66 16.92 15.66 9.353 0 16.927-7.02 16.927-15.668 0-2.104-.46-3.972-1.288-5.972h31.64c-.82 2-1.28 3.875-1.28 5.98 0 8.645 7.57 15.66 16.92 15.66 9.34 0 16.92-7.02 16.92-15.667 0-2.104-.47-3.973-1.28-5.973h16.57c.14 1 .25 2.51.25 3.78.01 17.155-14.08 31.07-31.47 31.07-7.03 0-13.5-3.184-18.73-7.046l-8.22 7.28V134h24.99z"/></svg>