<svg xmlns="http://www.w3.org/2000/svg" width="215" height="189" viewBox="0 0 215 189"><path fill="#888" d="M214.732 64.94c0-16.3-13.52-29.562-30.144-29.562-3.664 0-7.23.64-10.635 1.902-17.808-16.69-42.813-26.247-68.772-26.247-25.66 0-49.68 8.947-67.62 25.195-2.35-.566-4.74-.85-7.15-.85-16.62 0-30.14 13.26-30.14 29.56 0 8.84 3.91 16.997 10.78 22.632-.23 2.385-.34 4.664-.34 6.93 0 46.023 42.39 83.466 94.48 83.466s94.48-37.442 94.48-83.465c0-1.22-.04-2.48-.13-3.9 9.44-5.26 15.21-14.92 15.21-25.66zM145.252 113c-18.668 0-34.23-13.288-37.75-30.92C103.98 99.71 88.42 113 69.752 113c-21.264 0-38.5-17.236-38.5-38.5 0-1.695.122-3.36.334-5h151.832c.213 1.64.334 3.305.334 5 0 21.264-17.236 38.5-38.5 38.5z"/></svg>