<svg xmlns="http://www.w3.org/2000/svg" width="225.404" height="214.49" viewBox="0 0 225.404 214.49"><path d="M209.728 95.863c.23.14.348.214.348.214-.094-.675-.215-.48-.348-.214zm-.332-.197c2.373-2.248 5.438-5.466 8.205-9.337 7.53-10.57 9.07-20.81 4.47-29.62l-.07-.12c-.3-.53-7.5-12.71-23.08-12.71-5.83 0-12.05 1.75-18.52 5.2-.16-.14-.31-.28-.48-.41-19.48-16.09-45.31-24.95-72.73-24.95-25.93 0-50.43 7.92-69.49 22.38C-14.44 32.18 2.37 76.94 7.16 87.9c-2.28 7.208-3.47 14.715-3.47 22.38 0 23.35 10.92 45.23 30.76 61.604 10.04 8.29 21.79 14.62 34.55 18.85l139.97-94.67m-131.296 69c-.006-.186-.01-.37-.013-.557-.21-15.195 10.02-31.05 29.59-45.854 16.79-12.7 34.65-19.14 53.1-19.138 4.52 0 8.78.39 12.72 1.02l-95.4 64.525zM209.73 95.86l-.333-.197c-.05.046-.104.1-.152.145.158.79.33.37.484.06z" fill="#888"/></svg>