<svg xmlns="http://www.w3.org/2000/svg" width="216" height="189" viewBox="0 0 216 189"><path fill="#888" d="M194.04 81.264c0-35.77-38.522-64.767-86.04-64.767-47.518 0-86.04 28.996-86.04 64.767S60.483 146.03 108 146.03c12.21 0 23.82-1.92 34.34-5.37l31.844 31.843-1.39-48.63c13.23-11.39 21.245-26.294 21.245-42.61zM56.47 100.646c-8.616 0-15.602-6.984-15.602-15.604 0-8.616 6.983-15.6 15.602-15.6 8.615 0 15.6 6.983 15.6 15.6 0 8.62-6.985 15.604-15.6 15.604zm51.528 0c-8.615 0-15.6-6.984-15.6-15.604 0-8.616 6.982-15.6 15.6-15.6s15.602 6.983 15.602 15.6-6.985 15.604-15.602 15.604zm51.53 0c-8.618 0-15.605-6.984-15.605-15.604 0-8.616 6.984-15.6 15.604-15.6 8.614 0 15.6 6.983 15.6 15.6s-6.985 15.604-15.6 15.604z"/></svg>