<svg xmlns="http://www.w3.org/2000/svg" width="216" height="189" viewBox="0 0 216 189"><path fill="#888" d="M216 28h-27V0h-15v28h-28v15h28v27h15V43h27zm-22.118 57H159V58h-28V18.856c-7.324-1.526-15.03-2.36-23-2.36-47.518 0-86.04 28.997-86.04 64.768S60.483 146.03 108 146.03c12.21 0 23.82-1.92 34.34-5.37l31.844 31.843-1.39-48.63c12.21-10.517 19.964-24.026 21.086-38.873zm-137.41 15.646c-8.616 0-15.602-6.984-15.602-15.604 0-8.616 6.983-15.6 15.602-15.6 8.615 0 15.6 6.983 15.6 15.6 0 8.62-6.985 15.604-15.6 15.604zm51.528 0c-8.615 0-15.6-6.984-15.6-15.604 0-8.616 6.982-15.6 15.6-15.6s15.602 6.983 15.602 15.6-6.985 15.604-15.602 15.604z"/></svg>