<svg xmlns="http://www.w3.org/2000/svg" width="216" height="189" viewBox="0 0 216 189"><path fill="#888" d="M33.05 128.55L76.1 85.5 33.05 42.453V61.7L0 61.703v45.96h33.05zm160.99-47.286c0-35.77-38.522-64.767-86.04-64.767-23.73 0-45.183 7.252-60.745 18.948L92.92 81.107C94.666 74.4 100.744 69.44 108 69.44c8.618 0 15.602 6.984 15.602 15.6S116.62 100.646 108 100.646c-6.992 0-12.91-4.602-14.89-10.942l-40.854 40.854c15.018 9.635 34.465 15.47 55.744 15.47 12.21 0 23.82-1.92 34.34-5.368l31.844 31.843-1.39-48.63c13.23-11.39 21.245-26.294 21.245-42.61zm-34.51 19.382c-8.618 0-15.605-6.984-15.605-15.604 0-8.616 6.984-15.6 15.604-15.6 8.61 0 15.6 6.983 15.6 15.6s-6.99 15.604-15.6 15.604z"/></svg>