<svg xmlns="http://www.w3.org/2000/svg" width="216" height="189" viewBox="0 0 216 189"><path fill="#888" d="M215.785 67.082c0-35.77-38.52-64.767-86.04-64.767S43.708 31.312 43.708 67.082s38.52 64.767 86.04 64.767c12.208 0 23.82-1.92 34.34-5.38l31.843 31.84-1.39-48.63c13.23-11.39 21.25-26.3 21.25-42.61zM78.218 86.464c-8.616 0-15.602-6.984-15.602-15.602 0-8.616 6.983-15.6 15.602-15.6 8.615 0 15.6 6.983 15.6 15.6s-6.985 15.602-15.6 15.602zm51.528 0c-8.615 0-15.6-6.984-15.6-15.602 0-8.616 6.982-15.6 15.6-15.6s15.602 6.983 15.602 15.6-6.985 15.602-15.602 15.602zm51.53 0c-8.618 0-15.605-6.984-15.605-15.602 0-8.616 6.99-15.6 15.61-15.6s15.6 6.983 15.6 15.6-6.98 15.602-15.6 15.602zm-51.53 59.564c-26.04 0-50.676-7.748-69.368-21.82-19.896-14.977-30.854-35.264-30.854-57.126 0-7.912 1.443-15.616 4.217-22.938C13.36 55.987.22 74.56.22 95.446c0 16.313 8.017 31.22 21.245 42.605l-1.39 48.64 31.845-31.84c10.52 3.45 22.13 5.37 34.34 5.37 20.69 0 39.66-5.49 54.5-14.65-3.637.31-7.31.48-11.014.48z"/></svg>