<svg xmlns="http://www.w3.org/2000/svg" width="196" height="175" viewBox="0 0 196 175"><path fill="#888" d="M159.475 18.05l-37.168 78.236c-4.972-1.01-10.76-.612-15.844.198 8.373-7.705 21.02-44.892 39.377-81.917L136.152 2.64s-32.713 116.934-63.77 88.37c-31.06-28.566-48.127.592-48.127.592 21.07 39.676 60.72 50.057 60.72 50.057s5.985-7.17 22.968-9.26c16.986-2.09 5.847 23.87 5.847 23.87l22.644 13.96C135.668 138.36 196 77.5 196 77.5c-5.32-14.02-19.462-54.773-36.525-59.45zm-121.1 32.794c3.656 0 7.325.534 11 1.594l2.367-30.314-16.93 27.62L23.23 24.796l-6.237 28.51L.956 42.616l10.222 19.877c6.095-5.954 15.374-11.648 27.196-11.648z"/></svg>