<svg xmlns="http://www.w3.org/2000/svg" width="196" height="175" viewBox="0 0 196 175"><path fill="#888" d="M.956 77.5s60.332 60.86 59.566 92.73l22.644-13.96s-11.14-25.96 5.847-23.87c16.983 2.09 22.968 9.26 22.968 9.26s39.65-10.382 60.73-50.058c0 0-17.06-29.158-48.12-.592C93.52 119.574 60.81 2.64 60.81 2.64l-9.69 11.927c18.358 37.025 31 74.213 39.374 81.917-5.084-.81-10.872-1.21-15.844-.198L37.48 18.05C20.42 22.727 6.277 63.48.957 77.5zm157.626-26.655c11.822 0 21.102 5.694 27.195 11.648L196 42.616l-16.037 10.69-6.236-28.51-11.582 24.948-16.93-27.62 2.366 30.314c3.68-1.06 7.35-1.594 11.01-1.593z"/></svg>