<?xml version="1.0" encoding="utf-8"?>
<!-- Generator: Adobe Illustrator 16.0.0, SVG Export Plug-In . SVG Version: 6.00 Build 0)  -->
<!DOCTYPE svg PUBLIC "-//W3C//DTD SVG 1.1//EN" "http://www.w3.org/Graphics/SVG/1.1/DTD/svg11.dtd">
<svg version="1.1" id="Layer_1" xmlns="http://www.w3.org/2000/svg" xmlns:xlink="http://www.w3.org/1999/xlink" x="0px" y="0px"
	 width="196px" height="175px" viewBox="0 0 196 175" enable-background="new 0 0 196 175" xml:space="preserve">
<path fill="#888888" d="M0.956,77.5c0,0,60.332,60.859,59.566,92.729l22.644-13.959c0,0-11.14-25.961,5.847-23.871
	c16.983,2.091,22.968,9.261,22.968,9.261s39.65-10.382,60.721-50.058c0,0-17.066-29.158-48.127-0.592
	C93.517,119.574,60.804,2.64,60.804,2.64l-9.688,11.927C69.474,51.592,82.12,88.779,90.493,96.484
	c-5.084-0.811-10.872-1.209-15.844-0.198L37.481,18.05C20.418,22.727,6.276,63.48,0.956,77.5z M158.582,50.845
	c11.822,0,21.102,5.694,27.195,11.648L196,42.616l-16.037,10.69l-6.236-28.51l-11.582,24.948l-16.931-27.62l2.367,30.314
	C151.256,51.378,154.925,50.844,158.582,50.845L158.582,50.845z"/>
</svg>
