<svg xmlns="http://www.w3.org/2000/svg" width="215" height="189" viewBox="0 0 215 189"><g fill="#888"><circle cx="58.308" cy="74.911" r="22.029"/><path d="M188.17 56.14c4.93-7.298 9.165-18.31.334-28.48 0 0-8.674-9.132-26.838-.676-16.76-15.73-40.77-24.713-66.246-24.713-26.058 0-50.472 9.34-67.27 25.69h-.004l.003-.01c-.25-.09-.46-.15-.71-.24-.16-.05-.31-.1-.47-.16-13.2-4.58-16.58 1.62-16.58 1.62-5.39 8.4 1.98 20.77 2.11 20.98l.01.03c-3.48 7.91-5.23 16.22-5.23 24.7 0 40.03 39.53 72.59 88.13 72.59 5.26 0 10.53-.39 15.7-1.14l1.6 2.88c-11.12 6.53-17.93 18.33-17.93 31.37 0 2.07.2 4.09.54 6.06 1.36.05 2.72.11 4.09.11 48.44 0 90.06-29.18 108.28-70.91-1.26-21.94-8.24-42.32-19.54-59.68zM48.695 106.86c-17.58 0-31.828-14.044-31.828-31.37 0-17.327 14.248-31.373 31.828-31.373s31.83 14.046 31.83 31.372-14.25 31.37-31.83 31.37zm87.513-5.657c10.862 0 20.185-6.59 24.192-15.99-4.77 16.214-19.824 28.072-37.69 28.072-21.696 0-39.29-17.475-39.29-39.03 0-21.557 17.594-39.03 39.29-39.03 19.224 0 35.193 13.72 38.595 31.835-3.338-10.684-13.313-18.438-25.098-18.438-14.522 0-26.293 11.77-26.293 26.29s11.77 26.29 26.292 26.29z"/></g></svg>