<?xml version="1.0" encoding="utf-8"?>
<!-- Generator: Adobe Illustrator 16.0.0, SVG Export Plug-In . SVG Version: 6.00 Build 0)  -->
<!DOCTYPE svg PUBLIC "-//W3C//DTD SVG 1.1//EN" "http://www.w3.org/Graphics/SVG/1.1/DTD/svg11.dtd">
<svg version="1.1" id="Layer_1" xmlns="http://www.w3.org/2000/svg" xmlns:xlink="http://www.w3.org/1999/xlink" x="0px" y="0px"
	 width="215px" height="189px" viewBox="0 0 215 189" enable-background="new 0 0 215 189" xml:space="preserve">
<g id="Layer_1_1_" display="none">
	<path display="inline" d="M193.547,62.883c-14.15-40.512-46.683-66.004-72.668-56.928c-6.043,2.108-11.184,5.921-15.365,11.009
		L29.7,88.429c-1.844-0.778-3.609-0.984-5.188-0.432c-7.129,2.491-14.127,13.591-5.824,37.37
		c8.39,24.027,20.694,28.105,27.819,25.615c2.132-0.739,3.692-2.723,4.682-5.577l7.572,0.637l-0.219,15.938
		c-0.168,12.264,9.674,22.381,21.941,22.551l25.49,0.35c0.109,0,0.215,0,0.322,0c5.824,0,11.319-2.229,15.503-6.302
		c4.259-4.144,6.649-9.697,6.729-15.642l0.15-11.015l29.857,2.511l-0.016-0.045c4.639,0.344,9.207-0.185,13.596-1.715
		C198.102,143.6,207.696,103.396,193.547,62.883z M114.033,162.743c-0.029,2.067-0.86,4.004-2.346,5.444
		c-1.481,1.441-3.364,2.162-5.512,2.192l-25.493-0.35c-4.273-0.056-7.702-3.582-7.645-7.854l0.204-14.918l40.956,3.444
		L114.033,162.743z M165.758,134.461c-13.615,4.757-37.076-13.513-48.1-45.078c-11.021-31.562-4.034-60.46,9.58-65.212
		c13.613-4.756,37.074,13.511,48.095,45.073C186.355,100.809,179.368,129.708,165.758,134.461z"/>
</g>
<g id="Layer_4" display="none">
	<path display="inline" d="M200.247,94.5c0-41.992-28.06-77.534-66.407-88.916l-0.061-0.116l-3.303-0.842
		c-0.317-0.081-0.642-0.134-0.959-0.212c-1.369-0.334-2.746-0.643-4.137-0.916c-0.529-0.103-1.061-0.191-1.598-0.285
		c-1.303-0.232-2.613-0.438-3.936-0.614c-0.463-0.063-0.926-0.124-1.388-0.177c-1.528-0.182-3.067-0.323-4.617-0.43
		c-0.245-0.015-0.487-0.04-0.731-0.056c-1.859-0.111-3.729-0.185-5.613-0.185s-3.753,0.073-5.611,0.185
		c-0.246,0.016-0.488,0.041-0.732,0.056c-1.55,0.106-3.089,0.248-4.616,0.43c-0.464,0.053-0.926,0.116-1.388,0.177
		c-1.322,0.177-2.635,0.382-3.938,0.614c-0.532,0.094-1.066,0.183-1.597,0.285c-1.389,0.273-2.767,0.582-4.133,0.916
		c-0.318,0.078-0.643,0.131-0.96,0.212L81.22,5.468l-0.062,0.116C42.812,16.966,14.753,52.508,14.753,94.5
		s28.058,77.534,66.405,88.915l0.063,0.117l3.303,0.841c0.357,0.092,0.721,0.155,1.079,0.241c1.313,0.317,2.633,0.616,3.967,0.88
		c0.592,0.113,1.185,0.212,1.778,0.318c1.189,0.209,2.385,0.398,3.59,0.561c0.604,0.084,1.207,0.162,1.813,0.232
		c1.255,0.145,2.518,0.261,3.787,0.354c0.53,0.04,1.059,0.091,1.589,0.121c1.78,0.104,3.568,0.167,5.372,0.167
		s3.593-0.066,5.372-0.167c0.537-0.03,1.068-0.081,1.604-0.121c1.262-0.097,2.521-0.21,3.764-0.354
		c0.617-0.07,1.227-0.148,1.839-0.232c1.194-0.164,2.383-0.352,3.563-0.561c0.6-0.104,1.197-0.203,1.795-0.321
		c1.356-0.267,2.701-0.568,4.037-0.896c0.334-0.08,0.67-0.14,1.004-0.224l3.299-0.841l0.063-0.117
		C172.188,172.034,200.247,136.492,200.247,94.5z M123.107,170.133c-0.461,0.094-0.926,0.165-1.385,0.25
		c-0.8,0.149-1.597,0.307-2.401,0.43c-1.349,0.209-2.7,0.375-4.059,0.513v-45.474c8.617,0.207,16.677,0.769,24.165,1.676
		c-3.955,16.55-10.203,31.207-16.072,42.548C123.271,170.093,123.188,170.115,123.107,170.133z M93.754,170.47
		c-0.628-0.114-1.258-0.216-1.883-0.343c-0.077-0.018-0.151-0.037-0.227-0.053c-5.868-11.342-12.12-25.998-16.074-42.549
		c7.491-0.906,15.547-1.469,24.165-1.676v45.475c-1.364-0.137-2.726-0.307-4.079-0.514C95.018,170.712,94.389,170.583,93.754,170.47
		z M30.282,94.5c0-9.431,1.706-18.47,4.815-26.831c6.699,2.656,14.148,4.835,22.305,6.541c-0.899,6.583-1.424,13.359-1.424,20.29
		c0,6.934,0.524,13.71,1.424,20.29c-8.157,1.706-15.605,3.885-22.305,6.542C31.988,112.97,30.282,103.932,30.282,94.5z M71.509,94.5
		c0-6.046,0.45-11.974,1.218-17.747c8.398,1.06,17.399,1.709,27.009,1.934v31.629c-9.609,0.223-18.61,0.871-27.008,1.935
		C71.959,106.475,71.509,100.546,71.509,94.5z M91.892,18.867c0.482-0.099,0.971-0.172,1.455-0.263
		c0.773-0.145,1.544-0.296,2.325-0.418c1.348-0.204,2.704-0.374,4.063-0.51v45.475c-8.618-0.207-16.674-0.768-24.165-1.676
		c3.954-16.551,10.206-31.206,16.075-42.551C91.728,18.907,91.809,18.885,91.892,18.867z M121.656,18.604
		c0.484,0.091,0.971,0.164,1.451,0.263c0.084,0.018,0.164,0.04,0.248,0.058c5.869,11.345,12.117,26,16.072,42.551
		c-7.488,0.908-15.548,1.469-24.165,1.676V17.677c1.357,0.136,2.716,0.306,4.063,0.51C120.109,18.309,120.883,18.46,121.656,18.604z
		 M115.264,110.316v-31.63c9.607-0.225,18.611-0.874,27.01-1.934c0.769,5.773,1.218,11.701,1.218,17.747s-0.449,11.974-1.218,17.75
		C133.875,111.188,124.871,110.538,115.264,110.316z M157.598,74.21c8.156-1.706,15.604-3.885,22.305-6.541
		c3.108,8.361,4.814,17.4,4.814,26.831c0,9.432-1.706,18.47-4.814,26.832c-6.701-2.657-14.147-4.836-22.305-6.542
		c0.897-6.58,1.424-13.356,1.424-20.29C159.021,87.569,158.495,80.793,157.598,74.21z M173.02,53.708
		c-5.482,2.101-11.582,3.848-18.242,5.255c-2.758-11.867-6.584-22.819-10.694-32.447C155.927,32.916,165.908,42.326,173.02,53.708z
		 M70.919,26.516c-4.11,9.628-7.938,20.58-10.696,32.447c-6.661-1.407-12.76-3.154-18.244-5.255
		C49.091,42.326,59.073,32.913,70.919,26.516z M41.978,135.292c5.485-2.101,11.584-3.845,18.246-5.256
		c2.758,11.87,6.585,22.819,10.695,32.448C59.073,156.087,49.091,146.674,41.978,135.292z M144.079,162.487
		c4.11-9.632,7.938-20.581,10.694-32.451c6.664,1.411,12.763,3.155,18.246,5.256C165.908,146.674,155.927,156.087,144.079,162.487z"
		/>
</g>
<g id="Layer_3" display="none">
	<polygon display="inline" points="200.9,87.676 179.021,87.676 187.718,80.727 177.641,67.19 157.145,87.676 123.975,87.676 
		147.436,64.213 176.404,64.213 173.961,47.519 162.896,48.751 177.755,33.894 168.104,24.243 153.252,39.099 154.486,28.039 
		137.784,25.591 137.78,54.569 114.325,78.025 114.325,44.844 134.809,24.358 121.273,14.281 114.325,22.976 114.325,1.965 
		100.675,1.965 100.675,22.975 93.728,14.281 80.189,24.358 100.675,44.853 100.675,78.025 77.218,54.569 77.213,25.591 
		60.514,28.042 61.749,39.099 46.281,23.632 36.631,33.283 52.098,48.751 41.035,47.519 38.591,64.213 67.563,64.216 91.024,87.676 
		57.852,87.676 37.358,67.19 27.281,80.73 35.972,87.676 14.1,87.676 14.1,101.324 35.975,101.324 27.281,108.275 37.358,121.809 
		57.843,101.324 91.024,101.324 67.569,124.78 38.591,124.787 41.038,141.486 52.098,140.252 37.241,155.105 46.892,164.758 
		61.749,149.898 60.516,160.963 77.211,163.409 77.213,134.438 100.675,110.975 100.675,144.148 80.189,164.643 93.728,174.718 
		100.675,166.025 100.675,187.035 114.325,187.035 114.325,166.023 121.273,174.718 134.809,164.643 114.325,144.157 
		114.325,110.975 137.784,134.438 137.784,163.409 154.48,160.963 153.246,149.898 168.718,165.368 178.368,155.717 
		162.896,140.249 173.961,141.48 176.404,124.787 147.432,124.78 123.975,101.324 157.157,101.324 177.641,121.809 187.718,108.273 
		179.021,101.324 200.9,101.324 	"/>
</g>
<g id="Layer_2">
	<g>
		<circle fill="#888888" cx="58.308" cy="74.911" r="22.029"/>
		<path fill="#888888" d="M188.169,56.14c4.931-7.298,9.166-18.311,0.335-28.479c0,0-8.674-9.133-26.838-0.677
			C144.907,11.255,120.896,2.271,95.42,2.271c-26.058,0-50.472,9.338-67.271,25.682c-0.002,0-0.002,0-0.003,0l0.003-0.009
			c-0.244-0.092-0.46-0.152-0.701-0.24c-0.154-0.055-0.309-0.106-0.47-0.162c-13.196-4.578-16.574,1.621-16.574,1.621
			c-5.396,8.393,1.979,20.771,2.104,20.977c0.003,0.011,0.007,0.02,0.011,0.029c-3.475,7.909-5.231,16.215-5.231,24.699
			c0,40.026,39.533,72.592,88.131,72.592c5.266,0,10.533-0.39,15.699-1.147l1.607,2.875c-11.122,6.53-17.929,18.334-17.929,31.375
			c0,2.068,0.206,4.088,0.541,6.063c1.361,0.05,2.719,0.104,4.09,0.104c48.448,0,90.062-29.179,108.281-70.908
			C206.451,93.886,199.466,73.498,188.169,56.14z M48.696,106.861c-17.58,0-31.828-14.045-31.828-31.372
			c0-17.326,14.248-31.372,31.828-31.372c17.579,0,31.831,14.046,31.831,31.372C80.527,92.816,66.275,106.861,48.696,106.861z
			 M136.209,101.203c10.863,0,20.186-6.591,24.193-15.99c-4.771,16.214-19.824,28.072-37.691,28.072
			c-21.695,0-39.288-17.475-39.288-39.031c0-21.556,17.593-39.028,39.288-39.028c19.225,0,35.194,13.719,38.596,31.834
			c-3.338-10.684-13.313-18.438-25.098-18.438c-14.521,0-26.292,11.771-26.292,26.29
			C109.917,89.432,121.688,101.203,136.209,101.203z"/>
	</g>
</g>
</svg>
