<svg xmlns="http://www.w3.org/2000/svg" width="215" height="189" viewBox="0 0 215 189"><path fill="#888" d="M200.247 94.5c0-41.992-28.06-77.534-66.407-88.916l-.06-.116-3.304-.842c-.317-.08-.642-.134-.96-.212-1.368-.334-2.745-.643-4.136-.916-.53-.103-1.06-.19-1.598-.285-1.303-.232-2.613-.438-3.936-.614-.463-.07-.926-.13-1.388-.18-1.528-.18-3.067-.33-4.617-.43l-.73-.06c-1.86-.11-3.73-.19-5.61-.19s-3.75.07-5.61.18c-.24.01-.49.04-.73.05-1.55.1-3.09.25-4.61.43-.46.05-.92.11-1.39.17-1.32.17-2.63.38-3.93.61-.53.09-1.06.18-1.59.28-1.39.27-2.76.58-4.13.91-.32.08-.64.13-.96.21l-3.3.84-.06.11C42.81 16.96 14.75 52.51 14.75 94.5s28.06 77.534 66.406 88.915l.063.117 3.31.84c.36.093.72.156 1.08.242 1.31.317 2.63.616 3.97.88.59.113 1.18.212 1.78.318 1.19.21 2.38.398 3.59.56.6.085 1.2.163 1.81.233 1.25.145 2.52.26 3.79.354.53.04 1.06.09 1.59.12 1.78.1 3.57.16 5.37.16s3.59-.07 5.37-.17c.54-.03 1.07-.08 1.6-.12 1.26-.1 2.52-.21 3.76-.36.61-.07 1.22-.15 1.84-.23 1.19-.17 2.38-.36 3.56-.56.6-.11 1.19-.21 1.79-.33 1.35-.27 2.7-.57 4.03-.9.33-.08.67-.14 1-.23l3.3-.84.06-.12c38.35-11.38 66.4-46.92 66.4-88.91zm-77.14 75.633c-.46.094-.926.165-1.385.25-.8.15-1.597.307-2.4.43-1.35.21-2.7.375-4.06.513v-45.474c8.617.207 16.677.77 24.165 1.676-3.955 16.55-10.203 31.207-16.072 42.548-.084.017-.167.04-.248.057zm-29.353.337c-.628-.114-1.258-.216-1.883-.343-.07-.018-.15-.037-.22-.053-5.87-11.342-12.12-25.998-16.07-42.55 7.49-.905 15.55-1.468 24.17-1.675v45.47c-1.36-.14-2.72-.31-4.08-.52-.63-.1-1.26-.23-1.9-.34zM30.282 94.5c0-9.43 1.706-18.47 4.815-26.83 6.7 2.655 14.148 4.834 22.305 6.54-.9 6.583-1.424 13.36-1.424 20.29 0 6.934.524 13.71 1.424 20.29-8.157 1.706-15.605 3.885-22.305 6.542-3.11-8.362-4.815-17.4-4.815-26.832zm41.227 0c0-6.046.45-11.974 1.21-17.747 8.4 1.06 17.4 1.71 27.01 1.934v31.63c-9.61.222-18.61.87-27.01 1.934-.77-5.77-1.22-11.7-1.22-17.75zm20.38-75.633c.48-.1.97-.172 1.45-.263.77-.145 1.54-.296 2.32-.418 1.34-.204 2.7-.374 4.06-.51V63.15c-8.62-.206-16.68-.767-24.17-1.675 3.96-16.55 10.21-31.205 16.08-42.55.08-.018.16-.04.24-.058zm29.76-.263c.48.09.97.164 1.45.263.08.018.16.04.25.058 5.87 11.345 12.11 26 16.07 42.55-7.49.91-15.55 1.47-24.17 1.677V17.677c1.35.136 2.71.306 4.06.51.78.122 1.55.273 2.33.417zm-6.39 91.712v-31.63c9.6-.225 18.61-.874 27.01-1.934.77 5.773 1.22 11.7 1.22 17.747s-.45 11.97-1.22 17.75c-8.4-1.07-17.41-1.72-27.01-1.94zm42.33-36.106c8.15-1.706 15.6-3.885 22.3-6.54 3.11 8.36 4.81 17.4 4.81 26.83 0 9.432-1.71 18.47-4.82 26.832-6.7-2.657-14.15-4.836-22.3-6.542.89-6.58 1.42-13.356 1.42-20.29 0-6.93-.53-13.707-1.43-20.29zm15.42-20.502c-5.48 2.1-11.58 3.848-18.24 5.255-2.76-11.867-6.59-22.82-10.7-32.447 11.84 6.4 21.82 15.81 28.93 27.192zM70.92 26.516c-4.11 9.628-7.94 20.58-10.697 32.447-6.66-1.407-12.76-3.154-18.244-5.255 7.11-11.382 17.09-20.795 28.94-27.192zM41.977 135.292c5.485-2.1 11.584-3.845 18.246-5.256 2.758 11.87 6.585 22.82 10.695 32.448-11.847-6.397-21.83-15.81-28.942-27.192zm102.1 27.195c4.11-9.632 7.94-20.58 10.695-32.45 6.664 1.41 12.763 3.154 18.246 5.255-7.112 11.382-17.093 20.795-28.94 27.195z"/></svg>