<svg xmlns="http://www.w3.org/2000/svg" width="215" height="189" viewBox="0 0 215 189"><path fill="#888" d="M200.9 87.676h-21.88l8.698-6.95L177.64 67.19l-20.495 20.486h-33.17l23.46-23.463h28.97L173.96 47.52l-11.064 1.23 14.86-14.856-9.652-9.65L153.252 39.1l1.234-11.06-16.702-2.45-.004 28.98-23.455 23.454v-33.18l20.484-20.487-13.54-10.077-6.95 8.696V1.966h-13.65v21.01l-6.95-8.696-13.54 10.08 20.49 20.5v33.17L77.22 54.57l-.005-28.98-16.7 2.452L61.75 39.1 46.28 23.63l-9.65 9.65L52.1 48.753 41.037 47.52l-2.444 16.693 28.973.003 23.46 23.46h-33.17l-20.5-20.486L27.28 80.73l8.692 6.946H14.1v13.648h21.875l-8.694 6.95 10.08 13.536 20.49-20.486h33.18L67.57 124.78l-28.98.007 2.448 16.7 11.06-1.235-14.857 14.853 9.66 9.653 14.86-14.86-1.23 11.065 16.7 2.446.01-28.98 23.46-23.47v33.17l-20.5 20.5 13.54 10.07 6.95-8.7v21.01h13.65V166l6.95 8.696 13.54-10.076-20.49-20.48v-33.18l23.46 23.464v28.97l16.7-2.447-1.23-11.062 15.48 15.47 9.65-9.65-15.47-15.47 11.07 1.23 2.44-16.695-28.97-.007-23.47-23.45h33.18l20.48 20.485 10.08-13.54-8.7-6.95h21.88"/></svg>