<?xml version="1.0" encoding="utf-8"?>
<!-- Generator: Adobe Illustrator 16.0.0, SVG Export Plug-In . SVG Version: 6.00 Build 0)  -->
<!DOCTYPE svg PUBLIC "-//W3C//DTD SVG 1.1//EN" "http://www.w3.org/Graphics/SVG/1.1/DTD/svg11.dtd">
<svg version="1.1" id="Layer_1" xmlns="http://www.w3.org/2000/svg" xmlns:xlink="http://www.w3.org/1999/xlink" x="0px" y="0px"
	 width="189px" height="189px" viewBox="0 0 189 189" enable-background="new 0 0 189 189" xml:space="preserve">
<path fill="#888888" d="M132.188,155.5h18.885c8.938,0,15.428-8.123,15.428-17.061V48.224c0-8.938-6.488-14.725-15.427-14.725H148.8
	c-8.938,0-17.3,5.78-17.3,14.72v54.28h12V48.22c0-2.264,3.034-2.725,5.3-2.725h2.273c2.265,0,3.428,0.46,3.428,2.724v85.85
	c0,4.671-3.12,9.421-7.79,9.421h-14.521c-4.672,0-9.687-4.761-9.687-9.431V23.54c0-4.67,5.017-7.042,9.687-7.042h33.888
	c4.75,0,8.472,3.316,8.472,7.94L174.499,135H186.6l0.039-110.969c0-11.26-9.229-20.521-20.58-20.521H132.18
	C120.843,3.5,110.5,12.2,110.5,23.55v110.53c0,11.343,10.343,21.423,21.688,21.423V155.5z"/>
<polygon fill="#888888" points="94.5,32.5 31.5,32.5 31.5,100.445 76.576,79.47 94.5,97.517 "/>
<path fill="#888888" d="M94.5,134.08v-15.363L73.174,97.53L31.5,117.023V157.5h71.78C97.846,150.987,94.5,142.767,94.5,134.08z"/>
<path fill="#888888" d="M171.5,157.5v15h-155v-155h78.541c0.981-5.528,3.28-10.629,6.579-15H2.5v184h184v-29H171.5z"/>
</svg>
