<?xml version="1.0" encoding="utf-8"?>
<!-- Generator: Adobe Illustrator 16.0.0, SVG Export Plug-In . SVG Version: 6.00 Build 0)  -->
<!DOCTYPE svg PUBLIC "-//W3C//DTD SVG 1.1//EN" "http://www.w3.org/Graphics/SVG/1.1/DTD/svg11.dtd">
<svg version="1.1" id="Layer_1" xmlns="http://www.w3.org/2000/svg" xmlns:xlink="http://www.w3.org/1999/xlink" x="0px" y="0px"
	 width="189px" height="189px" viewBox="0 0 189 189" enable-background="new 0 0 189 189" xml:space="preserve">
<path fill="#888888" d="M141.634,89.973c1.615-3.144,2.533-6.702,2.533-10.473v-35c0-12.682-10.317-23-23-23h-11.5H74.334H65h-1.833
	h-4.833H49h-9.833v16H49v114H36.5v16H59h60.5h10c12.683,0,23-10.317,23-23v-35C152.5,101.27,148.151,94.038,141.634,89.973z
	 M109.667,37.5c3.859,0,7,3.14,7,7v35c0,3.86-3.141,7-7,7H74.334v-49H109.667z M74.334,151.5v-49h35.333h9.833c3.859,0,7,3.141,7,7
	v35c0,3.859-3.141,7-7,7H74.334z"/>
</svg>
