<svg xmlns="http://www.w3.org/2000/svg" width="175" height="189" viewBox="0 0 175 189"><path fill="#888" d="M146.637 18.91H28.363c-9.634 0-17.445 7.812-17.445 17.443v83.73c0 9.632 7.812 17.444 17.445 17.444h86.918l24.38 32.562v-32.57h6.98c9.64 0 17.45-7.82 17.45-17.45V36.35c0-9.63-7.81-17.442-17.44-17.442zm-24.873 77.715c-10.95 0-19.854-8.98-19.854-20.01v-.242c-.104-1.34-1.104-2.322-2.406-2.322-1.414 0-2.563 1.15-2.563 2.57 0 .3-.02.6-.04.9-.47 10.62-9.23 19.12-19.96 19.12-10.94 0-19.85-8.97-19.85-20.01v-.24c-.11-1.34-1.11-2.32-2.41-2.32-1.41 0-2.56 1.15-2.56 2.57 0 4.82-3.9 8.73-8.72 8.73s-8.72-3.9-8.72-8.72c0-11.03 8.98-20.01 20.01-20.01 10.96 0 19.87 8.98 19.87 20.01v.24c.11 1.34 1.1 2.32 2.4 2.32 1.41 0 2.56-1.15 2.56-2.56 0-.3.02-.6.05-.89.47-10.62 9.23-19.12 19.97-19.12 10.95 0 19.86 8.98 19.86 20.01v.24c.11 1.34 1.11 2.33 2.4 2.33 1.42 0 2.57-1.15 2.57-2.56 0-4.81 3.9-8.72 8.72-8.72s8.72 3.91 8.72 8.73c0 11.04-8.98 20.01-20.01 20.01z"/></svg>