<svg xmlns="http://www.w3.org/2000/svg" width="175" height="189" viewBox="0 0 175 189"><path fill="#888" d="M159.368 16.08H37.514c-8.412 0-15.233 6.82-15.233 15.23v73.114c0 8.41 6.83 15.232 15.24 15.232H132l21.287 28.433v-28.44h6.093c8.412 0 15.23-6.83 15.23-15.24v-73.1c.005-8.41-6.816-15.23-15.23-15.23zm-32.03 77.835c-7.718 7.72-17.98 11.974-28.898 11.974-10.915 0-21.175-4.25-28.895-11.97-15.935-15.94-15.935-41.86 0-57.8 7.72-7.72 17.982-11.97 28.898-11.97s21.177 4.25 28.895 11.97c15.933 15.93 15.933 41.86 0 57.79zM98.44 42.375c-12.504 0-22.643 10.14-22.643 22.645s10.14 22.643 22.644 22.643c12.51 0 22.65-10.14 22.65-22.644 0-12.51-10.13-22.65-22.64-22.65zm-6.223 29.93c-6.95 0-12.582-5.63-12.582-12.58 0-6.948 5.633-12.58 12.582-12.58 6.947 0 12.58 5.632 12.58 12.58 0 6.95-5.63 12.582-12.58 12.582zm32.263 62.35H37.514c-16.67 0-30.233-13.562-30.233-30.23V48.257C2.92 50.937 0 55.737 0 61.23v73.114c0 8.41 6.82 15.232 15.233 15.232h6.092v28.434l21.288-28.434h93.04l-11.173-14.92z"/></svg>