<svg xmlns="http://www.w3.org/2000/svg" width="175" height="189" viewBox="0 0 175 189"><path fill="#888" d="M130.532 85.42L98 115.263v-81.33H32.527c-3.465 0-6.92 2.593-6.92 6.056v134.62c.002.77.116 1.52.324 2.22.02.04.03.09.04.14.1.29.21.58.34.85l.08.16c.14.27.29.52.45.77.03.04.06.07.09.11.18.25.37.48.59.69l.01.01c.22.21.45.4.7.57.04.02.08.05.12.08.24.16.5.29.77.41.05.02.1.04.16.06.27.11.56.2.86.26.05.01.09.01.14.02.32.06.65.1 1 .1H143.8c.347 0 .677-.04.996-.1l.14-.02c.3-.07.588-.16.86-.27l.156-.07c.264-.12.52-.26.76-.42.04-.03.074-.05.11-.08.246-.17.48-.36.694-.57l.01-.01c.213-.22.405-.45.585-.7.03-.04.06-.08.08-.12.17-.24.32-.5.45-.77l.08-.15c.13-.27.24-.56.33-.85.02-.05.03-.1.04-.14.21-.71.33-1.46.33-2.24V102.7l-18.86-17.3zm5.876 82.685H38.592V128.29h97.816v39.815zM130.53 65.067L148 81.09V29.852h-35V81.15z"/></svg>