<svg xmlns="http://www.w3.org/2000/svg" width="175" height="189" viewBox="0 0 175 189"><path fill="#888" d="M154.783 67.723c-1.467-2.83-2.325-4.927-2.59-5.595-.036-.025-.073-.047-.105-.07l-.072-.05.082-.135c-.43-1.283-2.798-8.558-4.326-15.978.013-.485-.04-.98-.2-1.468l-.022-.077-.025-.07-.037-.127c-.045-.167-.117-.436-.19-.757-.247-1.43-.458-2.84-.603-4.186-.045-.617-.084-1.247-.098-1.937-.01-.853.012-1.747.074-2.672.07-.92.18-1.86.32-2.81.15-.94.35-1.88.6-2.8.25-.91.52-1.81.86-2.65.15-.42.34-.83.52-1.22.17-.4.38-.77.57-1.15.39-.73.81-1.4 1.23-2 .2-.3.44-.57.64-.83.21-.26.43-.5.64-.72.39-.46.84-.81 1.18-1.13.38-.3.72-.54.99-.74.29-.18.52-.31.68-.4l.24-.13c1.63-.93 3-2.35 3.88-4.18 2.29-4.8.27-10.55-4.53-12.85-4.8-2.29-10.54-.27-12.85 4.52l-.6 1.25-.88 1.85c-.26.6-.56 1.32-.9 2.13-.3.83-.65 1.75-.96 2.76-.16.51-.32 1.03-.46 1.58s-.3 1.1-.41 1.67c-.26 1.15-.48 2.35-.66 3.57-.17 1.23-.31 2.48-.37 3.74-.02.32-.03.63-.05.94l-.01.38-.03-.01c0 .01.02.11.03.23v.35c-.03.63-.02 1.25-.02 1.88 0 .63.02 1.24.04 1.86.04.61.07 1.22.1 1.82.09 1.2.19 2.37.32 3.48.02.14.04.26.06.39-2.02-1.48-5.55-3.72-11.17-7-32.2-18.83-32.56 2.36-32.56 2.36-.07 4.53 2.83 7.16 2.83 7.16.23.25.46.47.69.71-12.99 3.78-8.43 14.63-8.43 14.63 1.76 4.18 5.48 5.42 5.48 5.42 1.96.86 3.72 1.45 5.31 1.82-5.87 8.46 2.04 13.58 2.04 13.58 3.34 2.16 6.65 1.21 6.65 1.21 6.65-1.28 9.79-3.72 11.05-6.36 5.45 3.61 12.07 4.83 18.29 3.53 1.1.92 2.26 1.86 3.56 2.77.55.41 1.12.83 1.7 1.25.58.43 1.16.87 1.79 1.26 1.25.81 2.55 1.65 3.89 2.51 5.46 3.3 11.99 6.51 19.44 9.02 2.43.82 5 1.53 7.62 2.17v-.01c-10.15-6.44-16.82-17.07-20.22-23.65zm-55.23-23.29c-.15-1.07.332-1.784 1.2-2.246.948.666 1.858 1.2 2.724 1.59-2.217.178-3.924.655-3.924.655zm5.347 17.604c-.325-.356-.48-.727-.51-1.1.71-.077 1.366-.204 1.967-.387-.896.83-1.457 1.487-1.457 1.487zm11.275-31.95c-.233.195-.444.417-.677.62-3.22-2.69-8.447-3.45-8.447-3.45.96-3.366 6.48-.693 10.49 1.798-.46.325-.92.67-1.36 1.033zm24.007 62.943l-.344-.213-3.81-2.452c-.99-.62-1.79-1.21-2.384-1.647 0 0-.813-.595-1.1-.807-.15.01-.3.01-.45.01-3.717 0-7.38-.52-10.897-1.54-2.802 1.46-6.207 2.7-10.35 3.53-1.163.27-2.905.55-5.028.55-4.6 0-9.08-1.31-12.94-3.8-2.06-1.33-8.82-6.33-10.66-15.65-.13-.62-.23-1.29-.31-1.99-2.97-2.36-5.76-5.65-7.57-9.94-.75-1.79-4.21-11.09.43-20.82.64-1.34 1.51-2.81 2.64-4.29h-44.9c-3.47 0-6.92 2.59-6.92 6.06v134.61c0 .44.03.86.1 1.28.46 2.9 2.49 5.22 5.52 5.22h112.55c3.46 0 5.62-3.02 5.62-6.49v-76.6c-3.14-1.52-6.22-3.18-9.21-4.99zm-3.774 75.075H38.592V128.29h97.816v39.815z"/></svg>