<svg xmlns="http://www.w3.org/2000/svg" width="175" height="189" viewBox="0 0 175 189"><path fill="#888" d="M128.094 92.413l-.576-1.188-1.025-2.14-.1-.223c-.246-.563-.523-1.222-.832-1.96l-.31-.748-.25-.7-3.74-3.446c-6.3 2.57-11.98 3.833-17.17 3.833-16.59 0-25.77-12.84-25.97-24.92-.01-.85.02-1.69.09-2.51-1.53-1.8-2.62-3.61-3.39-5.24-3.84-8.05-2.14-15.78-1.02-19.23H32.53c-3.465 0-6.92 2.59-6.92 6.06v134.61c0 .44.034.86.1 1.28.46 2.9 2.49 5.22 5.52 5.22h112.546c3.462 0 5.62-3.02 5.62-6.49v-68.25c-9.064-.34-17.357-5.73-21.3-13.94zm8.314 75.692H38.592V128.29h97.816v39.815zM175 .01V0c-2.623.645-5.19 1.35-7.623 2.174-7.454 2.51-13.98 5.728-19.44 9.026-1.344.86-2.64 1.7-3.894 2.505-.633.388-1.214.834-1.794 1.26-.58.417-1.15.84-1.7 1.248-1.3.91-2.47 1.853-3.56 2.77-6.22-1.304-12.84-.08-18.29 3.527-1.27-2.637-4.4-5.077-11.05-6.36 0 0-3.31-.944-6.65 1.207 0 0-7.91 5.118-2.04 13.573-1.59.378-3.35.965-5.31 1.82 0 0-3.72 1.238-5.48 5.414 0 0-4.56 10.853 8.43 14.63-.23.235-.45.457-.68.707 0 0-2.91 2.64-2.83 7.16 0 0 .36 21.2 32.49 2.42 5.62-3.28 9.15-5.52 11.17-7-.02.14-.04.26-.06.39-.14 1.12-.24 2.29-.32 3.48-.04.6-.07 1.21-.1 1.82-.02.61-.04 1.23-.04 1.86-.01.63-.02 1.25.02 1.88v.35c-.01.13-.03.23-.03.24l.03-.01c0 .13.01.25.01.38.02.32.03.63.06.94.06 1.26.2 2.51.37 3.74.18 1.23.39 2.43.65 3.57.11.58.28 1.13.41 1.67.13.55.29 1.07.46 1.58.31 1.01.66 1.94.96 2.76.34.82.64 1.53.9 2.13l.89 1.85.6 1.25c2.3 4.8 8.05 6.82 12.84 4.52 4.8-2.29 6.82-8.04 4.52-12.84-.87-1.82-2.25-3.24-3.88-4.18l-.23-.14c-.16-.09-.39-.22-.68-.4-.27-.19-.61-.43-.99-.74-.35-.32-.79-.67-1.18-1.13-.21-.22-.43-.46-.64-.73-.21-.26-.44-.53-.64-.83-.42-.6-.85-1.26-1.23-2-.19-.37-.4-.75-.57-1.15-.18-.39-.37-.8-.52-1.23-.34-.84-.61-1.74-.86-2.65-.25-.92-.45-1.86-.6-2.8-.15-.94-.26-1.88-.32-2.81-.07-.92-.09-1.82-.08-2.67.01-.69.05-1.32.1-1.94.14-1.34.35-2.75.6-4.18.07-.32.14-.59.19-.76l.03-.12.02-.07.02-.07c.16-.49.22-.98.2-1.47 1.52-7.42 3.89-14.69 4.32-15.98l-.08-.13.07-.05c.03-.02.07-.04.1-.07.27-.67 1.12-2.76 2.59-5.59 3.5-6.66 10.17-17.29 20.32-23.74zm-71.523 47.6c-.865.392-1.774.925-2.723 1.59-.87-.46-1.352-1.176-1.2-2.244 0 0 1.706.477 3.923.654zm2.88-16.772c-.6-.184-1.256-.31-1.967-.386.028-.374.185-.745.51-1.1 0 0 .56.655 1.457 1.486zm11.184 31.494c-4.01 2.49-9.53 5.165-10.49 1.8 0 0 5.23-.762 8.45-3.453.23.2.44.42.68.62.45.36.9.71 1.37 1.03z"/></svg>