<svg xmlns="http://www.w3.org/2000/svg" width="175" height="189" viewBox="0 0 175 189"><path fill="#888" d="M83.13 106.572c0-2.59-1.14-4.496-3.013-5.553-1.095-.62-2.438-.95-3.95-.95H23.23c-4.105 0-7.896 2.39-7.896 6.5v65.93c0 1.95.87 3.94 2.22 5.49 1.477 1.69 3.53 2.86 5.674 2.86h52.936c4.103 0 6.963-4.26 6.963-8.36v-65.93zm-60.363 66.864V157.65H63.74v-.002H75.7v15.787H22.767zm60.936-112.66c-1.102.5-2.266 1.18-3.475 2.03-1.11-.59-1.726-1.502-1.533-2.864 0 0 2.18.608 5.008.835zm3.68-21.403c-.768-.236-1.605-.398-2.513-.494.04-.48.237-.96.65-1.41 0-.01.718.83 1.863 1.9zm14.27 40.194c-5.126 3.18-12.17 6.595-13.392 2.297 0 0 6.68-.972 10.79-4.405.3.26.57.54.86.79.58.46 1.16.9 1.75 1.31zm60.644-30.864V24.205c-1.93 3.058-4.552 5.596-7.712 7.41 0 0-.534.31-.58.338-.103.074-.212.156-.328.245-.073.067-.38.336-.46.41l-.064.077-.176.187c-.09.097-.188.195-.277.31l-.385.48-.088.122c-.346.49-.637.96-.888 1.43l-.19.365c-.07.13-.15.26-.21.41l-.17.37c-.08.18-.18.37-.25.56l-.08.22-.09.2c-.27.67-.52 1.55-.71 2.23-.23.86-.42 1.7-.55 2.53-.15.93-.25 1.85-.31 2.72-.06.82-.08 1.66-.07 2.58.01.61.05 1.17.09 1.72.14 1.26.34 2.65.61 4.25.01.06.03.11.04.16l.06.2c.36 1.17.59 2.38.67 3.63.61 2.89 1.33 5.74 2.02 8.31h2.62v8.91l.32 1.01c.27.66 1.23 3.02 2.88 6.21.65 1.26 1.44 2.72 2.37 4.31 1.17-1.56 1.85-3.59 1.85-5.58V48.7zM115.543 26.66l1.69-7.534c.144-.696.305-1.3.437-1.796.048-.18.096-.356.14-.532.212-.854.456-1.696.772-2.655.387-1.252.8-2.377 1.133-3.287l.31-.844.278-.67c.18-.427.347-.826.51-1.207H102.4c-4.104 0-7.896 2.398-7.896 6.5V17.6c6.237 1.598 13.202 4.598 21.04 9.06zm33.654 59.775c-1.87-3.61-2.967-6.288-3.305-7.142-.047-.032-.096-.06-.137-.09-.027-.02-.06-.042-.094-.063l.11-.172c-.54-1.637-3.57-10.922-5.52-20.392.02-.62-.05-1.25-.25-1.874l-.03-.1-.03-.088-.05-.162c-.05-.213-.15-.557-.24-.967-.31-1.823-.58-3.623-.77-5.342-.06-.787-.1-1.592-.12-2.472-.01-1.08.02-2.22.1-3.41.08-1.17.22-2.38.41-3.58.19-1.2.45-2.4.77-3.57.31-1.17.66-2.31 1.09-3.39.19-.54.44-1.06.66-1.56.22-.51.49-.99.73-1.47.5-.93 1.03-1.78 1.57-2.55.26-.38.55-.73.82-1.06.27-.34.55-.64.82-.93.5-.59 1.07-1.03 1.51-1.45.48-.39.92-.7 1.26-.95.36-.23.66-.39.86-.51l.3-.17c2.09-1.19 3.83-3.01 4.95-5.33 2.94-6.12.35-13.46-5.77-16.39-6.12-2.93-13.46-.35-16.4 5.77l-.77 1.59-1.13 2.37c-.33.76-.71 1.68-1.15 2.72-.38 1.06-.83 2.24-1.22 3.53-.21.65-.42 1.31-.59 2.01-.17.7-.39 1.4-.53 2.14-.33 1.47-.6 2.99-.84 4.56-.22 1.57-.39 3.17-.48 4.77l-.06 1.2-.02.49-.05-.01c0 .02.02.14.04.3-.01.14-.01.29-.01.44-.04.8-.03 1.59-.02 2.39 0 .8.03 1.59.05 2.37.05.78.08 1.55.13 2.32.11 1.52.23 3.02.41 4.44.02.17.05.32.07.5-2.58-1.88-7.08-4.75-14.26-8.93C71 12.25 70.54 39.3 70.54 39.3c-.09 5.78 3.62 9.138 3.62 9.138.297.32.58.608.87.9-16.61 4.79-10.8 18.64-10.8 18.64 2.246 5.33 6.992 6.91 6.992 6.91 2.5 1.09 4.75 1.84 6.78 2.328-7.5 10.79 2.6 17.32 2.6 17.32 4.264 2.75 8.48 1.55 8.48 1.55 8.49-1.635 12.49-4.75 14.1-8.114 6.96 4.605 15.41 6.17 23.35 4.503 1.398 1.17 2.885 2.37 4.54 3.54.7.52 1.43 1.06 2.167 1.6.73.54 1.48 1.11 2.28 1.61 1.6 1.03 3.25 2.1 4.97 3.2 6.97 4.21 15.3 8.32 24.81 11.52 3.1 1.05 6.38 1.95 9.73 2.78v-.01c-12.96-8.23-21.47-21.795-25.8-30.19zm-70.49-29.727c-.19-1.363.425-2.275 1.533-2.865 1.21.85 2.37 1.53 3.475 2.03-2.828.226-5.008.835-5.008.835zm6.826 22.47c-.416-.456-.613-.93-.65-1.406.906-.097 1.744-.26 2.51-.493-1.145 1.06-1.86 1.89-1.86 1.89zM99.923 38.4c-.3.25-.57.532-.864.792-4.11-3.435-10.79-4.406-10.79-4.406 1.21-4.295 8.26-.883 13.39 2.297-.6.415-1.18.855-1.75 1.318zm-34.35 50.44c-.313-1.588-.49-3.524-.295-5.717-.784-.417-1.674-.954-2.608-1.625H23V65.71h30.437c-.458-3.563-.337-8.254 1.92-12.985 1.094-2.293 2.896-4.994 5.854-7.465-.48-1.844-.77-3.916-.73-6.203.15-8.98 6.4-22.226 22.89-22.803v-1.62c0-2.59-1.14-4.497-3.01-5.554-1.09-.618-2.43-.947-3.95-.947H23.47c-4.105 0-7.896 2.398-7.896 6.5V80.57c0 1.958.87 3.946 2.22 5.495 1.477 1.695 3.53 2.862 5.674 2.862h42.13c-.006-.03-.015-.057-.02-.088zm96.49 34.497c-9.285-3.13-18.3-7.313-26.773-12.432l-.227-.142-4.908-3.158c-.982-.61-1.82-1.23-2.497-1.73l-.36-.266c-.607-.44-1.242-.92-1.863-1.38l-.246-.18c-.55-.39-1.07-.77-1.57-1.14-1.13.09-2.26.14-3.38.14-5.16 0-10.22-.97-14.96-2.83-2.86 2.02-6.4 3.59-10.57 4.73-.14.5-.22 1.03-.22 1.6v65.94c0 1.96.87 3.94 2.22 5.49 1.48 1.69 3.53 2.86 5.67 2.86h52.93c4.1 0 6.96-4.26 6.96-8.36V123.4c-.08-.02-.17-.05-.24-.073zm-7.195 50.1h-52.935V157.65h40.974v-.002h11.96v15.788z"/></svg>