<?xml version="1.0" encoding="utf-8"?>
<!-- Generator: Adobe Illustrator 16.0.0, SVG Export Plug-In . SVG Version: 6.00 Build 0)  -->
<!DOCTYPE svg PUBLIC "-//W3C//DTD SVG 1.1//EN" "http://www.w3.org/Graphics/SVG/1.1/DTD/svg11.dtd">
<svg version="1.1" id="Layer_1" xmlns="http://www.w3.org/2000/svg" xmlns:xlink="http://www.w3.org/1999/xlink" x="0px" y="0px"
	 width="175px" height="189px" viewBox="0 0 175 189" enable-background="new 0 0 175 189" xml:space="preserve">
<path fill="#888888" d="M142.473,33.933h-43.07H75.598h-43.07c-3.465,0-6.92,2.592-6.92,6.055v35.604v99.011
	c0,0.785,0.116,1.547,0.329,2.256c0.011,0.037,0.021,0.076,0.032,0.111c0.096,0.303,0.211,0.592,0.342,0.871
	c0.021,0.046,0.044,0.092,0.066,0.139c0.136,0.272,0.288,0.535,0.458,0.78c0.024,0.034,0.05,0.066,0.074,0.102
	c0.364,0.504,0.798,0.938,1.298,1.29c0.035,0.024,0.068,0.052,0.104,0.076c0.242,0.159,0.499,0.297,0.769,0.416
	c0.049,0.021,0.099,0.043,0.149,0.063c0.275,0.11,0.562,0.201,0.863,0.265c0.045,0.01,0.092,0.016,0.137,0.022
	c0.32,0.059,0.651,0.097,0.998,0.097h0.001h112.543h0.002c0.349,0,0.679-0.038,1-0.097c0.043-0.008,0.09-0.015,0.134-0.022
	c0.303-0.063,0.59-0.152,0.866-0.265c0.049-0.021,0.098-0.04,0.146-0.062c0.271-0.119,0.528-0.258,0.771-0.42
	c0.035-0.022,0.067-0.049,0.103-0.072c0.5-0.353,0.937-0.788,1.3-1.293c0.024-0.033,0.051-0.064,0.073-0.1
	c0.171-0.246,0.321-0.509,0.458-0.781c0.023-0.047,0.045-0.092,0.066-0.139c0.131-0.279,0.246-0.568,0.343-0.871
	c0.012-0.035,0.021-0.074,0.032-0.111c0.211-0.709,0.328-1.471,0.328-2.256V75.593V39.988
	C149.393,36.525,145.938,33.933,142.473,33.933z M57.336,59.62c3.843-3.668,8.115-0.429,10.487,2.071
	c5.377-2.688,11.859-4.257,18.83-4.257c6.902,0,13.318,1.538,18.664,4.175c2.391-2.488,6.606-5.618,10.414-1.989
	c3.432,3.273,2.059,7.68,0.422,10.671c2.717,3.61,4.267,7.767,4.267,12.196v0.001h-0.007c0,10.117-8.081,18.832-19.711,22.785
	c4.928,2.672,7.571,6.605,8.992,10.06H64.283c1.392-3.391,3.966-7.251,8.738-9.921c-11.853-3.889-20.125-12.689-20.125-22.925
	c0-4.35,1.495-8.441,4.125-12.006C55.337,67.489,53.829,62.963,57.336,59.62z M136.408,168.105H38.592V128.29h97.816V168.105z"/>
</svg>
