<svg xmlns="http://www.w3.org/2000/svg" width="175" height="189" viewBox="0 0 175 189"><path fill="#888" d="M142.473 33.933H32.528c-3.465 0-6.92 2.592-6.92 6.055v134.614c0 .786.116 1.548.33 2.257l.03.11c.097.3.212.59.343.87l.07.14c.14.27.29.53.46.78.03.03.05.06.08.1.37.5.8.94 1.3 1.29.04.02.07.05.11.07.25.16.5.29.77.41l.15.06c.28.11.56.2.87.26.05.01.1.01.14.02.32.06.65.1 1 .1H143.8c.35 0 .68-.04 1-.1l.13-.02c.304-.07.59-.15.867-.27l.146-.06c.27-.12.528-.26.77-.42.036-.02.068-.05.104-.07.5-.35.93-.79 1.3-1.29.02-.04.05-.07.07-.1.17-.25.32-.51.453-.78l.064-.14c.13-.28.246-.57.343-.87.012-.04.02-.08.032-.12.21-.71.32-1.47.32-2.26V39.99c0-3.463-3.46-6.055-6.92-6.055zM57.336 59.62c3.843-3.668 8.115-.43 10.487 2.07 5.377-2.687 11.86-4.256 18.83-4.256 6.902 0 13.318 1.538 18.664 4.175 2.39-2.49 6.606-5.62 10.414-1.99 3.44 3.27 2.06 7.68.43 10.67 2.72 3.61 4.27 7.76 4.27 12.19 0 10.12-8.08 18.83-19.71 22.78 4.93 2.67 7.57 6.6 8.99 10.06H64.29c1.39-3.39 3.965-7.25 8.737-9.92C61.172 101.52 52.9 92.72 52.9 82.48c0-4.35 1.495-8.44 4.125-12.003-1.683-2.99-3.19-7.52.316-10.86zm79.072 108.485H38.592V128.29h97.816v39.815z"/></svg>