<svg xmlns="http://www.w3.org/2000/svg" width="175" height="189" viewBox="0 0 175 189"><path fill="#888" d="M142.473 33.933H32.528c-3.465 0-6.92 2.592-6.92 6.055v134.615c0 .786.116 1.547.33 2.257l.03.11c.097.303.212.593.343.872l.07.138c.14.273.29.535.46.78l.08.102c.37.504.8.94 1.3 1.29l.11.076c.25.16.5.298.77.417l.15.063c.28.11.56.2.87.265.05.01.1.015.14.022.32.06.65.097 1 .097H143.8c.35 0 .68-.038.996-.097.05-.008.096-.014.14-.023.3-.063.588-.152.86-.263l.154-.07c.27-.12.53-.26.77-.42.04-.03.07-.06.11-.08.246-.18.48-.37.696-.58l.005-.01c.22-.22.41-.45.59-.7.03-.04.06-.07.08-.11.17-.24.32-.5.46-.77l.08-.15c.13-.28.25-.57.34-.86.02-.04.03-.09.04-.13.21-.71.33-1.47.33-2.25V39.99c0-3.463-3.45-6.055-6.92-6.055zm-7.45 74.977c0 9.68-7.848 17.53-17.53 17.53h-3.84L80 161.666l7-35.228H57.506c-9.68 0-17.53-7.85-17.53-17.53V87.096c0-9.68 7.85-17.53 17.53-17.53h59.988c9.682 0 17.53 7.85 17.53 17.53v21.814z"/></svg>