<?xml version="1.0" encoding="utf-8"?>
<!-- Generator: Adobe Illustrator 16.0.0, SVG Export Plug-In . SVG Version: 6.00 Build 0)  -->
<!DOCTYPE svg PUBLIC "-//W3C//DTD SVG 1.1//EN" "http://www.w3.org/Graphics/SVG/1.1/DTD/svg11.dtd">
<svg version="1.1" id="Layer_1" xmlns="http://www.w3.org/2000/svg" xmlns:xlink="http://www.w3.org/1999/xlink" x="0px" y="0px"
	 width="175px" height="189px" viewBox="0 0 175 189" enable-background="new 0 0 175 189" xml:space="preserve">
<path fill="#888888" d="M142.473,33.933h-43.07H75.598h-43.07c-3.465,0-6.92,2.592-6.92,6.055v35.605v99.01
	c0,0.786,0.116,1.547,0.329,2.257c0.011,0.037,0.021,0.075,0.032,0.111c0.096,0.302,0.211,0.592,0.342,0.871
	c0.021,0.046,0.044,0.092,0.066,0.138c0.136,0.273,0.288,0.535,0.458,0.781c0.024,0.034,0.05,0.066,0.074,0.101
	c0.364,0.504,0.798,0.939,1.298,1.291c0.035,0.024,0.068,0.051,0.104,0.075c0.242,0.16,0.499,0.298,0.769,0.417
	c0.049,0.021,0.099,0.043,0.149,0.063c0.275,0.111,0.562,0.201,0.863,0.265c0.045,0.009,0.092,0.015,0.137,0.022
	c0.32,0.059,0.651,0.097,0.998,0.097h0.001h112.545h0.001c0.348,0,0.678-0.038,0.997-0.097c0.046-0.008,0.093-0.014,0.138-0.023
	c0.301-0.063,0.587-0.152,0.861-0.263c0.052-0.021,0.103-0.042,0.152-0.064c0.27-0.118,0.525-0.255,0.766-0.415
	c0.038-0.025,0.073-0.053,0.109-0.079c0.247-0.174,0.482-0.363,0.697-0.577c0.002-0.001,0.002-0.002,0.004-0.003
	c0.215-0.215,0.408-0.453,0.59-0.703c0.026-0.036,0.055-0.071,0.08-0.108c0.168-0.243,0.318-0.503,0.453-0.773
	c0.024-0.049,0.049-0.099,0.072-0.148c0.129-0.275,0.242-0.562,0.337-0.858c0.014-0.043,0.024-0.088,0.038-0.132
	c0.209-0.706,0.324-1.462,0.324-2.243v-99.01V39.988C149.393,36.525,145.938,33.933,142.473,33.933z M135.023,108.91
	c0,9.68-7.848,17.529-17.529,17.529h-3.84L80,161.667l7-35.228H57.506c-9.681,0-17.529-7.85-17.529-17.529V87.096
	c0-9.681,7.849-17.529,17.529-17.529h59.988c9.682,0,17.529,7.848,17.529,17.529V108.91z"/>
</svg>
