<svg xmlns="http://www.w3.org/2000/svg" width="175" height="189" viewBox="0 0 175 189"><path fill="#888" d="M149.406 89.703v-62.71c0-3.463-3.455-6.056-6.92-6.056H32.514c-3.465 0-6.92 2.593-6.92 6.056v134.62c.002.77.115 1.52.324 2.22.02.04.03.09.04.14.1.29.21.58.34.85l.08.16c.14.27.29.52.45.77.03.04.06.07.09.11.18.25.37.48.59.69l.01.01c.22.21.45.4.7.57.04.02.08.05.12.08.153.104.325.18.493.264.08.04.15.09.23.128l.16.07c.27.11.56.2.86.27l.14.02c.32.06.65.1 1 .1h112.57c.35 0 .68-.04 1-.1l.14-.02c.3-.07.59-.16.86-.27l.16-.07c.08-.037.16-.09.24-.13.17-.083.34-.16.49-.26.05-.03.08-.062.13-.08.25-.17.48-.36.7-.57l.01-.01c.22-.21.41-.44.59-.69.03-.04.06-.07.09-.11.16-.25.31-.5.45-.77l.08-.16c.13-.27.24-.56.34-.85.01-.05.02-.1.04-.14.21-.7.32-1.45.33-2.22V89.703zm-13.01 65.406h-97.82v-39.82h97.817v39.81z"/></svg>