<?xml version="1.0" encoding="utf-8"?>
<!-- Generator: Adobe Illustrator 16.0.0, SVG Export Plug-In . SVG Version: 6.00 Build 0)  -->
<!DOCTYPE svg PUBLIC "-//W3C//DTD SVG 1.1//EN" "http://www.w3.org/Graphics/SVG/1.1/DTD/svg11.dtd">
<svg version="1.1" id="Layer_1" xmlns="http://www.w3.org/2000/svg" xmlns:xlink="http://www.w3.org/1999/xlink" x="0px" y="0px"
	 width="189px" height="189px" viewBox="0 0 189 189" enable-background="new 0 0 189 189" xml:space="preserve">
<g>
	<g>
		<rect x="57.38" y="32.15" fill="#888888" width="113" height="16"/>
	</g>
	<g>
		<path fill="#888888" d="M27.448,39.266L19.831,39.9l-0.586-7.031c0.781-0.065,1.514-0.171,2.197-0.317s1.302-0.317,1.855-0.513
			c0.586-0.195,1.106-0.415,1.563-0.659c0.456-0.244,0.862-0.513,1.221-0.806c0.358-0.325,0.675-0.684,0.952-1.074
			c0.276-0.391,0.513-0.813,0.708-1.27c0.195-0.456,0.358-0.968,0.488-1.538c0.13-0.569,0.211-1.164,0.244-1.782l7.666-0.684
			l2.979,33.887l-9.912,0.879L27.448,39.266z"/>
	</g>
	<g>
		<rect x="57.38" y="84.65" fill="#888888" width="113" height="16"/>
	</g>
	<g>
		<path fill="#888888" d="M20.27,112.273c0-0.065-0.017-0.146-0.049-0.244c0-0.098-0.008-0.18-0.024-0.244
			c-0.017-0.065-0.024-0.114-0.024-0.146c-0.065-0.618-0.073-1.221-0.024-1.807s0.138-1.172,0.269-1.758
			c0.13-0.586,0.309-1.172,0.537-1.758c0.228-0.586,0.504-1.155,0.83-1.709c0.325-0.586,0.708-1.172,1.147-1.758
			s0.936-1.172,1.489-1.758c0.553-0.618,1.155-1.245,1.807-1.88c0.651-0.635,1.367-1.277,2.148-1.929
			c0.195-0.162,0.415-0.35,0.659-0.562c0.244-0.211,0.513-0.431,0.806-0.659c0.293-0.228,0.602-0.464,0.928-0.708
			c0.325-0.244,0.667-0.513,1.025-0.806c0.846-0.651,1.595-1.286,2.246-1.904c0.651-0.618,1.188-1.204,1.611-1.758
			c0.391-0.553,0.684-1.074,0.879-1.563s0.276-0.944,0.244-1.367c-0.033-0.358-0.09-0.684-0.171-0.977
			c-0.082-0.293-0.171-0.569-0.269-0.83c-0.13-0.228-0.269-0.456-0.415-0.684c-0.146-0.228-0.317-0.423-0.513-0.586
			c-0.228-0.163-0.456-0.309-0.684-0.439c-0.228-0.13-0.472-0.228-0.732-0.293c-0.261-0.098-0.529-0.154-0.806-0.171
			c-0.277-0.016-0.578-0.008-0.903,0.024c-0.391,0.033-0.757,0.098-1.099,0.195s-0.659,0.212-0.952,0.342
			c-0.293,0.163-0.554,0.35-0.781,0.562c-0.228,0.212-0.423,0.448-0.586,0.708c-0.195,0.293-0.35,0.603-0.464,0.928
			c-0.114,0.326-0.204,0.684-0.269,1.074c-0.065,0.391-0.106,0.814-0.122,1.27c-0.017,0.456,0.008,0.944,0.073,1.465l0.049,0.586
			l-8.984,0.781c0-0.065-0.008-0.138-0.024-0.22c-0.017-0.081-0.041-0.171-0.073-0.269c0-0.098-0.008-0.187-0.024-0.269
			C19.008,91.074,19,91.001,19,90.936c-0.098-1.042-0.106-2.034-0.024-2.979c0.081-0.944,0.252-1.839,0.513-2.686
			c0.228-0.846,0.553-1.644,0.977-2.393c0.423-0.749,0.928-1.448,1.514-2.1c0.553-0.651,1.188-1.229,1.904-1.733
			c0.716-0.504,1.497-0.952,2.344-1.343c0.879-0.358,1.807-0.659,2.783-0.903s2.018-0.415,3.125-0.513
			c1.009-0.065,1.978-0.073,2.905-0.024s1.814,0.155,2.661,0.317c0.813,0.195,1.595,0.448,2.344,0.757
			c0.749,0.31,1.448,0.692,2.1,1.147c0.651,0.423,1.237,0.912,1.758,1.465c0.521,0.554,0.96,1.14,1.318,1.758
			c0.358,0.651,0.643,1.343,0.854,2.075c0.211,0.732,0.35,1.506,0.415,2.319c0.065,0.554,0.089,1.083,0.073,1.587
			c-0.017,0.505-0.057,0.985-0.122,1.44c-0.098,0.456-0.22,0.896-0.366,1.318c-0.146,0.423-0.317,0.83-0.513,1.221
			c-0.195,0.358-0.456,0.749-0.781,1.172c-0.326,0.423-0.716,0.847-1.172,1.27c-0.456,0.456-0.96,0.92-1.514,1.392
			c-0.554,0.473-1.188,0.969-1.904,1.489c-0.163,0.098-0.375,0.244-0.635,0.439c-0.261,0.195-0.57,0.424-0.928,0.684
			c-0.651,0.488-1.27,0.952-1.855,1.392s-1.123,0.854-1.611,1.245c-0.521,0.424-0.993,0.822-1.416,1.196
			c-0.423,0.375-0.798,0.725-1.123,1.05l15.137-1.318l0.732,8.301l-28.174,2.49C20.286,112.403,20.27,112.338,20.27,112.273z"/>
	</g>
	<g>
		<rect x="57.38" y="137.15" fill="#888888" width="113" height="16"/>
	</g>
	<g>
		<path fill="#888888" d="M28.083,152.127c0.032,0.424,0.098,0.814,0.195,1.172c0.098,0.358,0.211,0.684,0.342,0.977
			c0.13,0.326,0.285,0.61,0.464,0.854c0.179,0.244,0.382,0.464,0.61,0.659c0.195,0.163,0.423,0.31,0.684,0.439
			c0.26,0.131,0.553,0.244,0.879,0.342c0.293,0.065,0.61,0.114,0.952,0.146c0.342,0.033,0.708,0.033,1.099,0
			c0.358-0.032,0.684-0.09,0.977-0.171s0.569-0.171,0.83-0.269c0.26-0.098,0.496-0.22,0.708-0.366
			c0.211-0.146,0.398-0.317,0.562-0.513c0.163-0.195,0.301-0.398,0.415-0.61c0.114-0.212,0.22-0.447,0.317-0.708
			c0.065-0.26,0.105-0.529,0.122-0.806c0.016-0.276,0.008-0.577-0.024-0.903c-0.033-0.325-0.09-0.627-0.171-0.903
			c-0.082-0.276-0.188-0.528-0.317-0.757c-0.13-0.228-0.285-0.432-0.464-0.61c-0.179-0.179-0.383-0.333-0.61-0.464
			c-0.228-0.13-0.488-0.236-0.781-0.317s-0.619-0.154-0.977-0.22c-0.358-0.032-0.741-0.049-1.147-0.049
			c-0.407,0-0.854,0.017-1.343,0.049l-0.83,0.098l-0.537-5.859l0.684-0.049c0.456-0.032,0.879-0.081,1.27-0.146
			c0.391-0.064,0.749-0.162,1.074-0.293c0.358-0.098,0.667-0.211,0.928-0.342c0.26-0.13,0.504-0.276,0.732-0.439
			c0.195-0.162,0.374-0.342,0.537-0.537c0.163-0.195,0.293-0.406,0.391-0.635c0.098-0.228,0.163-0.472,0.195-0.732
			c0.032-0.26,0.032-0.537,0-0.83c-0.033-0.26-0.073-0.496-0.122-0.708s-0.122-0.415-0.22-0.61s-0.22-0.366-0.366-0.513
			s-0.301-0.284-0.464-0.415c-0.163-0.13-0.35-0.236-0.562-0.317c-0.212-0.081-0.432-0.138-0.659-0.171
			c-0.261-0.064-0.521-0.098-0.781-0.098c-0.261,0-0.554,0-0.879,0c-0.326,0.033-0.643,0.082-0.952,0.146
			c-0.31,0.065-0.594,0.163-0.854,0.293c-0.261,0.098-0.497,0.212-0.708,0.342c-0.212,0.131-0.399,0.277-0.562,0.439
			c-0.163,0.163-0.31,0.35-0.439,0.562c-0.13,0.212-0.228,0.448-0.293,0.708c-0.098,0.229-0.163,0.48-0.195,0.757
			c-0.033,0.276-0.049,0.578-0.049,0.903l-9.082,0.781c-0.065-0.879-0.049-1.709,0.049-2.49s0.276-1.529,0.537-2.246
			c0.26-0.716,0.602-1.399,1.025-2.051c0.423-0.65,0.928-1.27,1.514-1.855c0.553-0.553,1.18-1.058,1.88-1.514
			c0.7-0.455,1.44-0.846,2.222-1.172c0.813-0.357,1.676-0.643,2.588-0.854c0.911-0.212,1.872-0.35,2.881-0.415
			c0.977-0.098,1.912-0.13,2.808-0.098c0.895,0.033,1.75,0.131,2.563,0.293c0.781,0.163,1.53,0.383,2.246,0.659
			c0.716,0.276,1.383,0.61,2.002,1.001c0.618,0.391,1.172,0.83,1.66,1.318s0.911,1.025,1.27,1.611
			c0.325,0.554,0.594,1.164,0.806,1.831c0.211,0.667,0.35,1.359,0.415,2.075c0.032,0.391,0.041,0.766,0.024,1.123
			c-0.017,0.358-0.041,0.7-0.073,1.025c-0.065,0.358-0.139,0.691-0.22,1.001c-0.082,0.31-0.188,0.61-0.317,0.903
			c-0.13,0.293-0.285,0.57-0.464,0.83c-0.179,0.261-0.366,0.521-0.562,0.781c-0.228,0.229-0.464,0.456-0.708,0.684
			c-0.244,0.229-0.513,0.439-0.806,0.635c0.391,0.098,0.765,0.229,1.123,0.391c0.358,0.163,0.684,0.358,0.977,0.586
			c0.325,0.195,0.618,0.415,0.879,0.659c0.26,0.244,0.488,0.513,0.684,0.806c0.228,0.293,0.431,0.619,0.61,0.977
			c0.179,0.358,0.333,0.732,0.464,1.123c0.13,0.391,0.236,0.806,0.317,1.245c0.081,0.439,0.138,0.903,0.171,1.392
			c0.098,0.912,0.098,1.782,0,2.612s-0.277,1.62-0.537,2.368c-0.228,0.749-0.562,1.457-1.001,2.124s-0.952,1.278-1.538,1.831
			c-0.586,0.586-1.245,1.107-1.978,1.563c-0.732,0.456-1.538,0.847-2.417,1.172c-0.879,0.357-1.823,0.643-2.832,0.854
			c-1.009,0.212-2.083,0.366-3.223,0.464c-1.042,0.098-2.043,0.122-3.003,0.073c-0.96-0.049-1.864-0.188-2.71-0.415
			c-0.879-0.195-1.701-0.464-2.466-0.806c-0.765-0.342-1.473-0.772-2.124-1.294c-0.684-0.488-1.286-1.033-1.807-1.636
			c-0.521-0.603-0.96-1.261-1.318-1.978c-0.391-0.748-0.7-1.529-0.928-2.344c-0.228-0.813-0.375-1.692-0.439-2.637l-0.049-0.684
			L28.083,152.127z"/>
	</g>
</g>
</svg>
