<svg xmlns="http://www.w3.org/2000/svg" width="241" height="238" viewBox="0 0 241 238"><path d="M222.24 96.742l-.062-.26c16.506-16.524 4.516-26.75 4.516-26.75-6.154-3.936-14.39-1.297-19.32.982-12.72-12.53-31.895-20.507-53.348-20.507-21.803 0-41.25 8.24-53.963 21.12C96.125 69.685 78.745 63.49 89.103 87c-1.287 2.806-2.297 5.72-3.034 8.714-1.88-.125-9.47-1.136-9.47-9.285 0 0-8.79 20.34 8.38 25.73.92 8.28 4.01 16.04 8.8 22.91-14.15 6.64-26.82 7.98-36.99 3.8-7.91-3.25-12.19-8.91-13.16-10.33.5-.99 1-1.97 1.51-2.96 9.62-18.67 28.65-35.28 33.99-49.79 6.64-18.05 10.13-35.29 9.43-48.85-.49-.45-1.01-.86-1.58-1.19-2.67-1.61-6.02-1.69-10.25-.25-12.19 4.17-34.46 35.08-39.7 59.8-1.47 6.92-2.15 16.16 2.97 20.9 2.14 1.99 2.27 5.34.28 7.48-1.5 1.61-3.77 2.08-5.72 1.37-.64-.24-1.24-.6-1.77-1.09-4.83-4.48-9.82-13.47-6.13-30.87 5.77-27.04 29.74-61.8 46.66-67.59 4.68-1.6 9.02-2 12.97-1.2C83.94 7.58 79.8 2.71 73.59.42 54.106-6.748 33.63 18.552 20.5 54.23c-4.595 12.484-2.716 32.626-4.947 51.104-3.816.836-8.72 4.272-9.902 16.09 0 0-9.23 15.95.95 23.87-3.34 15.252-4.23 26.387 2.99 29.04 9.02 3.32 17.06-11.62 26.83-31.272 4.33 4.23 11.13 9.226 20.71 11.694 4.04 1.04 8.21 1.56 12.52 1.56 10.79 0 22.42-3.257 34.75-9.734 12.59 10.58 30.18 17.16 49.65 17.16 4.71 0 9.31-.388 13.76-1.12l2.95 5.284c-9.03 4.502-15.24 13.827-15.24 24.604 0 15.177 12.3 27.48 27.47 27.48 2.34 0 4.61-.294 6.77-.844-10.59 6.972-24.6 12.22-42.82 12.27 0 0-29.13 1.413-53.7-24.595 0 0-14.13-13.73-19.22-41.1 0 0-1.56-6.61-7.37-2 0 0-5.6 2.84-1.97 12.65.17.44.23.77.22 1 3.2 8.96 7.9 17.55 14.14 25.41 30.61 38.57 86.68 45.02 125.25 14.41 36.99-29.36 44.43-82.14 17.97-120.44zm-27.095 4.877c0 3.57-2.896 6.46-6.47 6.46-3.57 0-6.465-2.9-6.465-6.47 0-1.53.53-2.93 1.41-4.03h10.11c.883 1.1 1.415 2.5 1.415 4.02zm-61.58.26c0 2.99-2.427 5.41-5.42 5.41s-5.417-2.43-5.417-5.42c0-1.75.832-3.3 2.117-4.29h6.603c1.284.99 2.116 2.54 2.116 4.29zm-20.352 27.6c-13.424 0-24.306-10.73-24.306-23.96 0-2.78.486-5.45 1.37-7.94h16.655c-1.443 2.48-2.283 5.35-2.283 8.43 0 9.29 7.53 16.82 16.82 16.82 5.68 0 10.7-2.82 13.74-7.14-3.89 8.14-12.28 13.77-22 13.77zm22.8-31.9h.122c.073.2.16.4.23.61-.113-.21-.235-.41-.353-.62zm33.72 38.28c-16.568 0-30-13.35-30-29.81 0-2.95.436-5.79 1.235-8.48h21.586c-1.354 2.7-2.137 5.75-2.137 8.98 0 11.09 8.99 20.08 20.08 20.08 7.266 0 13.63-3.86 17.152-9.65-4.39 11.05-15.24 18.87-27.92 18.87zm28.72-38.28h.043c.023.07.055.15.077.23-.038-.08-.083-.16-.12-.23zm13.51-19.42s17.957-2.49 6.437 12.17c0 0-1.64-6.44-6.43-12.17zm-70.106-34.08c5.973 1.12 11.73-2.54 13.35-8.28l33.518 6.3c-.578 5.93 3.46 11.43 9.435 12.55 6.32 1.19 12.405-2.98 13.593-9.3.43-2.28.152-4.53-.66-6.53 1.483-1.57 2.557-3.56 2.983-5.84 1.188-6.32-2.972-12.41-9.292-13.6-5.86-1.1-11.514 2.4-13.254 7.95l-33.588-6.31c.396-5.81-3.6-11.12-9.46-12.22-6.318-1.19-12.405 2.97-13.595 9.29-.428 2.27-.152 4.52.66 6.52-1.482 1.56-2.555 3.56-2.982 5.83-1.188 6.32 2.972 12.41 9.292 13.6z"/></svg>