<svg xmlns="http://www.w3.org/2000/svg" width="241" height="238" viewBox="0 0 241 238"><path d="M16.28 52.186c8.958 4.087 20.702 6.405 33.07 6.405h.008c12.37 0 24.115-2.31 33.074-6.4C97.047 45.52 99.23 36.42 99.23 31.63c0-4.79-2.184-13.823-16.8-20.49-8.96-4.088-20.704-6.335-33.073-6.335s-24.114 2.26-33.073 6.348C1.67 17.82-.513 26.87-.513 31.66S1.67 45.52 16.28 52.186zm33.077-32.393c22.65 0 34.78 8.397 34.78 11.83s-12.31 11.834-34.96 11.834l-.19 7.5v-7.5c-22 0-34.68-8.396-34.68-11.83s12.4-11.833 35.05-11.834zm172.883 76.95l-.062-.26c16.506-16.525 4.516-26.75 4.516-26.75-6.154-3.937-14.39-1.298-19.32.98-12.72-12.53-31.895-20.506-53.348-20.506-21.803 0-41.25 8.24-53.962 21.12-3.938-1.642-21.32-7.838-10.96 15.674-1.288 2.81-2.297 5.72-3.035 8.72-.33-.02-.84-.07-1.44-.18.55-1.49.85-3.06.85-4.69 0-11.61-14.72-20.04-35-20.04s-35 8.43-35 20.05 14.72 20.05 35 20.05c10.34 0 19.23-2.19 25.47-5.89 1.51 3.04 4.27 5.68 9.02 7.17 3.2 28.92 32.88 51.58 69.04 51.58 4.71 0 9.31-.39 13.76-1.12l2.95 5.28c-9.03 4.5-15.24 13.83-15.24 24.61 0 15.18 12.3 27.48 27.48 27.48 2.34 0 4.6-.29 6.77-.84-10.59 6.97-24.61 12.22-42.82 12.27 0 0-29.14 1.41-53.71-24.59 0 0-14.13-13.73-19.23-41.1 0 0-1.06-4.5-4.7-3.48-3.51-7.27-8.37-14.07-15-17.58 0 0 8.12 8.43 6.76 21.87-.63-.35-1.27-.69-1.92-1-6.78-4.66-18.2-16.37-10.28-39.34 0 0-39.67 32.87-36.95 69.15 0 9.59 4.09 18.22 10.62 24.26l-10.45-.13c-7.84 3.13-7.44 14.14-7.44 14.14h80.71c3.91-7-4.7-13.34-4.7-13.34l-13.92-.16c5.57-4.91 9.48-11.68 10.75-19.33.5.67 1 1.35 1.53 2.01 30.6 38.56 86.68 45.02 125.25 14.41 36.99-29.36 44.43-82.14 17.97-120.44zM35.64 188.59c9.78-10.597 2.165-13.45 2.165-13.45s17.625 4.585 19.256 19.665l-.03-.01c.09.57.14 1.148.14 1.74 0 6.754-5.47 12.227-12.23 12.227-6.75 0-12.22-5.473-12.22-12.226 0-3.034 1.11-5.806 2.94-7.942l-.01-.005zm159.507-86.97c0 3.57-2.896 6.466-6.47 6.466-3.57 0-6.465-2.895-6.465-6.467 0-1.53.53-2.93 1.412-4.03h10.108c.883 1.1 1.415 2.5 1.415 4.02zm-61.58.26c0 2.992-2.427 5.418-5.42 5.418s-5.417-2.426-5.417-5.418c0-1.748.832-3.3 2.117-4.29h6.604c1.29.992 2.12 2.542 2.12 4.29zM50.49 95.888c-11.03 0-17.806-3.206-19.67-5.047 1.863-1.84 8.638-5.04 19.668-5.04s17.805 3.2 19.668 5.05c-1.863 1.85-8.64 5.05-19.668 5.05zm62.725 33.596c-13.424 0-24.306-10.728-24.306-23.958 0-2.782.48-5.45 1.37-7.936h16.65c-1.45 2.48-2.29 5.357-2.29 8.436 0 9.29 7.53 16.822 16.82 16.822 5.68 0 10.7-2.818 13.74-7.132-3.89 8.136-12.28 13.768-22 13.768zm22.8-31.893h.122c.073.21.16.41.23.62-.112-.21-.234-.41-.353-.61zm33.72 38.28c-16.568 0-30-13.34-30-29.8 0-2.94.437-5.78 1.237-8.47h21.586c-1.355 2.71-2.14 5.75-2.14 8.98 0 11.09 8.99 20.08 20.08 20.08 7.267 0 13.63-3.86 17.153-9.64-4.38 11.05-15.23 18.87-27.91 18.87zm28.72-38.28h.044c.02.08.05.16.07.23-.04-.07-.08-.15-.12-.23zm13.51-19.41s17.956-2.49 6.44 12.16c-.003 0-1.645-6.43-6.44-12.16zm-70.108-34.09c5.973 1.13 11.73-2.53 13.35-8.27l33.518 6.3c-.576 5.94 3.46 11.44 9.435 12.56 6.32 1.19 12.405-2.97 13.594-9.29.43-2.28.15-4.52-.66-6.52 1.482-1.57 2.556-3.56 2.982-5.83 1.188-6.32-2.972-12.4-9.292-13.59-5.86-1.1-11.514 2.4-13.252 7.96l-33.59-6.31c.396-5.8-3.6-11.12-9.46-12.22-6.318-1.18-12.405 2.98-13.593 9.3-.43 2.28-.16 4.52.65 6.52-1.49 1.57-2.56 3.56-2.99 5.84-1.19 6.32 2.97 12.41 9.29 13.6z"/></svg>