<svg xmlns="http://www.w3.org/2000/svg" width="241" height="238" viewBox="0 0 241 238"><path d="M222.24 96.742l-.062-.26c16.506-16.524 4.516-26.75 4.516-26.75-6.154-3.936-14.39-1.297-19.32.982-12.72-12.53-31.895-20.507-53.348-20.507-21.803 0-41.25 8.24-53.962 21.12-3.938-1.642-21.32-7.838-10.96 15.674-1.288 2.81-2.297 5.72-3.035 8.72-1.88-.12-9.47-1.13-9.47-9.28 0 0-2.86 6.62-2.13 13.3l-8.36-6.64-5.79 7.29c-4.71-2.28-9.49-3.68-14.33-4.19V84H31v13.502c-3.848 1.094-7.35 2.682-10.462 4.49l-5.964-8.283L2.4 102.47l6.293 8.74c-2.932 2.95-4.6 5.228-4.798 5.503L.77 121.07l3.105 4.37c10.805 15.192 23.09 22.896 36.51 22.896 22.827 0 39.078-22.982 39.76-23.96l3.485-5.012-4.198-4.43c-2.164-2.285-4.35-4.357-6.56-6.232l3.03-3.816c1.5 3.085 4.27 5.77 9.083 7.282 3.206 28.916 32.884 51.574 69.04 51.574 4.712 0 9.314-.39 13.764-1.12l2.95 5.284c-9.03 4.502-15.24 13.828-15.24 24.604 0 15.175 12.3 27.478 27.48 27.478 2.34 0 4.6-.293 6.77-.842-10.59 6.97-24.61 12.218-42.82 12.27 0 0-29.14 1.412-53.71-24.596 0 0-14.13-13.73-19.23-41.104 0 0-1.56-6.616-7.37-2.006 0 0-5.61 2.832-1.97 12.65.16.44.23.77.21.995 3.2 8.955 7.9 17.547 14.14 25.408 30.61 38.567 86.68 45.02 125.25 14.413 36.99-29.354 44.43-82.14 17.97-120.434zm-202.53 24.67c2.922-2.876 7.46-6.572 13.084-8.71l.73 19.34c-4.676-1.757-9.295-5.306-13.813-10.63zm28.81 10.266l-.753-19.99c5.274 1.284 10.624 4.272 15.994 8.955-3.46 3.687-8.89 8.534-15.24 11.035zm146.625-30.06c0 3.573-2.896 6.468-6.47 6.468-3.57 0-6.465-2.895-6.465-6.467 0-1.35.408-2.59 1.106-3.62h10.72c.698 1.03 1.11 2.27 1.11 3.62zm-61.58.262c0 2.992-2.427 5.418-5.42 5.418s-5.417-2.426-5.417-5.418c0-1.522.63-2.896 1.642-3.88h7.554c1.012.984 1.64 2.358 1.64 3.88zm-20.352 27.604c-13.424 0-24.306-10.728-24.306-23.958 0-2.63.437-5.16 1.23-7.527h16.548c-1.298 2.38-2.036 5.12-2.036 8.02 0 9.29 7.53 16.82 16.82 16.82 5.68 0 10.7-2.82 13.74-7.13-3.89 8.13-12.28 13.77-22 13.77zM136.243 98h.042c.023.07.055.137.076.208-.03-.07-.07-.138-.11-.208zm33.49 37.87c-16.568 0-30-13.345-30-29.804 0-2.797.395-5.5 1.12-8.066h21.506c-1.24 2.602-1.94 5.5-1.94 8.568 0 11.09 8.98 20.08 20.07 20.08 7.26 0 13.63-3.86 17.15-9.644-4.39 11.05-15.24 18.867-27.92 18.867zm42.23-57.695s17.956-2.497 6.438 12.162c0 0-1.64-6.435-6.43-12.162zM141.857 44.09c5.973 1.122 11.73-2.535 13.35-8.274l33.518 6.3c-.578 5.935 3.46 11.433 9.435 12.556 6.32 1.188 12.405-2.973 13.593-9.293.43-2.28.152-4.53-.66-6.53 1.483-1.57 2.557-3.56 2.983-5.84 1.188-6.32-2.972-12.41-9.292-13.6-5.86-1.1-11.514 2.4-13.254 7.95l-33.588-6.32c.396-5.81-3.6-11.12-9.46-12.22-6.318-1.19-12.405 2.97-13.595 9.29-.428 2.28-.152 4.52.66 6.52-1.482 1.57-2.555 3.56-2.982 5.84-1.188 6.32 2.972 12.4 9.292 13.59z"/></svg>