<svg xmlns="http://www.w3.org/2000/svg" width="241" height="238" viewBox="0 0 241 238"><path d="M90.602 54.62l-.014.002c.012.045.027.09.04.134l-.026-.135zM73.1 127.842c-5.527-3.38-8.735-8.017-10.562-11.683-2.096-4.21-2.975-8.16-3.155-12.16H25V92h35.662c.807-4 1.763-6.096 2.185-7.07l10.65-1.657C72.525 80.288 71.14 81 70.923 78H25V66h48.228c.303-1 .627-1.612.997-2.18 3.528-5.41 9.445-8.86 16.363-9.198C85.84 37.112 70.132 25 50.96 25h-.375C27.505 25 8 42.427 8 65.505V142h71.862c-2.8-5-5.077-9.28-6.762-14.158zm60.382-94.674c.418-.148 42.348-14.37 69.703 19.164 1.482 1.817 3.642 2.76 5.816 2.76 1.67 0 3.35-.554 4.74-1.69 3.21-2.617 3.69-7.342 1.07-10.55-14.07-17.25-33.48-26.848-56.14-27.754-16.85-.672-29.62 3.73-30.16 3.917-3.9 1.372-5.96 5.653-4.59 9.56 1.38 3.91 5.66 5.967 9.57 4.593zm75.84 133.092c-3.65 0-6.85-2.67-7.408-6.39-.614-4.095 2.208-7.914 6.305-8.528l26.66-4c1.07-.162 2.13-.08 3.11.192.04-17.63-5.11-35.384-15.75-50.792l-.06-.26c16.5-16.524 4.51-26.75 4.51-26.75-6.16-3.936-14.39-1.297-19.32.982-5.28-5.195-11.67-9.59-18.87-12.977l3.18-6.023c-17.5-15.237-38.76-13.66-49.32-11.57l-3.35 11.412c-15.62 2.82-29.26 9.936-38.96 19.77-3.92-1.64-21.3-7.836-10.94 15.674-1.16 2.52-2.09 5.127-2.81 7.798-3.17 1.156-9.7 2.684-9.7-4.364 0 0-9 20.844 9.04 25.924 5.46 26.887 33.99 47.39 68.38 47.39 4.71 0 9.31-.39 13.76-1.122l2.95 5.287c-9.03 4.5-15.24 13.828-15.24 24.604 0 15.176 12.3 27.48 27.47 27.48 2.34 0 4.6-.294 6.77-.843-10.59 6.97-24.61 12.22-42.82 12.27 0 0-29.14 1.413-53.71-24.595 0 0-14.13-13.73-19.22-41.11 0 0-1.56-6.62-7.37-2.01 0 0-5.61 2.83-1.97 12.65.16.44.23.77.21.99 3.2 8.95 7.9 17.55 14.14 25.41 30.61 38.56 86.68 45.02 125.25 14.41 17.95-14.25 28.91-34.01 32.45-54.95l-26.29 3.94c-.39.06-.76.08-1.13.08zm9.09-75.923s-1.645-6.436-6.438-12.162c0 0 17.956-2.497 6.438 12.162zm-23.258 11.282c0 3.57-2.896 6.46-6.47 6.46-3.57 0-6.464-2.9-6.464-6.47 0-3.19 2.303-5.83 5.334-6.37 2.272.9 4.565 2.01 6.865 3.37.46.89.73 1.91.73 2.98zm-69.868-4.33c3.41 1.8 6.188 3.91 8.185 5.65-.49 2.48-2.68 4.35-5.31 4.35-2.99 0-5.42-2.43-5.42-5.42 0-1.94 1.02-3.63 2.55-4.59zm-12.063 32.19c-13.424 0-24.306-10.73-24.306-23.96 0-1.62.166-3.21.477-4.73 7.596-5.68 14.765-7.63 21.123-7.51-3.58 3.08-5.857 7.64-5.857 12.74 0 9.29 7.53 16.82 16.82 16.82 5.683 0 10.7-2.82 13.746-7.13-3.883 8.13-12.275 13.77-22.003 13.77zm56.522 6.38c-16.57 0-30.002-13.35-30.002-29.81 0-1.59.127-3.14.366-4.66 4.35-2.79 14.17-8.16 26.37-9.21-3.74 3.64-6.06 8.73-6.06 14.36 0 11.09 8.99 20.08 20.08 20.08 7.26 0 13.63-3.86 17.15-9.65-4.39 11.05-15.23 18.86-27.92 18.86z"/></svg>