<svg xmlns="http://www.w3.org/2000/svg" width="241" height="238" viewBox="0 0 241 238"><path d="M149.28 15h.32c27.394 0 50.62 9.017 68.003 27.047l1.883-4.228c-37-59-105.5-26.62-105.5-26.62l.288 8.31C122.25 17.27 134.81 15 149.28 15zm72.96 81.742l-.062-.26c16.506-16.524 4.516-26.75 4.516-26.75-6.154-3.936-14.39-1.297-19.32.982-.748-.736-1.522-1.453-2.313-2.157l5.61-11.706C195.73 38.85 175.28 30 149.79 30h-.184c-15.3 0-28.415 3-34.762 5.01l.076 1.99H31.21c-2.134-1-4.418-1.65-6.807-1.65-11.393 0-20.667 9.068-20.708 20.5-.077 5.26 3.263 15.77 16.525 18.98l3.533-14.63c-4.203-1.02-4.978-3.254-5.06-4.505.02-3.236 2.527-5.78 5.715-5.78 3.13 0 5.59 2.56 5.59 5.85v104.33c0 10.19 7.75 19.384 17.544 21.15-.35.196-.557.76-.557.76h3.38c.264 0 .522.04.786.04.36 0 .71-.04 1.06-.04h14.5c3.08 7.28 7.16 14.272 12.32 20.765 30.61 38.567 86.68 45.02 125.25 14.414 36.99-29.36 44.43-82.144 17.97-120.44zm-27.095 4.877c0 3.57-2.896 6.46-6.47 6.46-3.57 0-6.465-2.9-6.465-6.47 0-3.58 2.896-6.47 6.466-6.47 3.572 0 6.47 2.89 6.47 6.46zm-26.047 63.34l1.646 2.94c-1.063.53-2.084 1.13-3.063 1.79l1.42-4.73zm-55.885-35.48c-13.424 0-24.306-10.73-24.306-23.96 0-3.17.628-6.18 1.758-8.95 9.695-7.15 18.686-8.21 26.17-6.72-7.033 2.01-12.186 8.48-12.186 16.16 0 9.29 7.53 16.82 16.82 16.82 5.68 0 10.7-2.82 13.74-7.13-3.89 8.13-12.28 13.76-22 13.76zm9.516-27.61c0-3 2.42-5.42 5.42-5.42 2.99 0 5.41 2.42 5.41 5.42s-2.43 5.41-5.42 5.41c-3 0-5.42-2.43-5.42-5.42zM57 160.59c0 2.848-2.83 5.54-6 5.54-3.227 0-6-2.92-6-6.124V55.758c0-1.606-.21-2.758-.55-3.758h71.012l.28 7.663c-5.923 3.22-11.223 7.15-15.68 11.665-3.938-1.642-21.318-7.838-10.96 15.674-.702 1.53-1.324 3.09-1.866 4.678-1.62.548-10.633 3.217-10.633-5.25 0 0-8.79 20.346 8.382 25.738 1.93 17.41 13.462 32.54 30.218 41.833H57v6.6zm89.936 70.824s-29.137 1.412-53.704-24.596c0 0-8.526-8.29-14.72-24.82h79.093c-1.344 3.24-2.1 6.785-2.1 10.512 0 15.176 12.3 27.478 27.477 27.478 2.338 0 4.606-.294 6.773-.843-10.59 6.97-24.605 12.217-42.82 12.27zm22.798-95.545c-16.57 0-30.002-13.35-30.002-29.81 0-2.99.447-5.87 1.27-8.6 4.91-3.15 17.037-9.78 31.75-9.43-7.244 3.03-12.334 10.18-12.334 18.52 0 11.09 8.99 20.08 20.08 20.08 7.266 0 13.63-3.86 17.152-9.65-4.388 11.05-15.232 18.87-27.916 18.87zm27.803-39.9c.178.11.355.23.533.35.175.5.354.99.503 1.5-.31-.64-.663-1.25-1.036-1.85zm14.426-17.8s17.956-2.5 6.438 12.16c0 0-1.64-6.44-6.43-12.16z"/></svg>