<svg xmlns="http://www.w3.org/2000/svg" width="241" height="238" viewBox="0 0 241 238"><path d="M222.253 96.752c-.02-.087-.043-.174-.063-.26 16.506-16.524 4.517-26.75 4.517-26.75-6.155-3.936-14.392-1.297-19.322.982-2.028-1.998-4.237-3.866-6.577-5.62L209 62.102l-6-11 15 4 20-32c-26.952 0-47.313 18.12-58.446 31.104-2.58-.837-5.238-1.546-7.96-2.128 3.314-4.316 7.85-9.664 13.53-15.085l-8.176-2.324c-13.024-4.26-25.594-5.2-34.948-4.9-17.517.56-15.397 19.08-14.345 24.71-10.846 3.66-20.315 9.49-27.58 16.85-3.937-1.65-21.318-7.84-10.96 15.67-1.39 3.02-2.468 6.18-3.214 9.42-3.17.35-7.28-.28-7.28-6 0 0-8.26 19.12 6.88 25.2 5.1 27.24 33.84 48.11 68.54 48.11 4.71 0 9.32-.39 13.77-1.12l2.96 5.28c-6.35 3.16-11.3 8.73-13.68 15.5l-20.57 11.18s13.28 1.72 23.58 13.08c4.18 6.3 10.87 10.77 18.65 11.99 2.42.65 4.99 1.18 7.65 1.57-10.14 5.9-23.09 10.13-39.43 10.18 0 0-29.13 1.41-53.7-24.6 0 0-12.74-12.4-18.38-37.11l16.56 3.73 26.59 6.65c-1.38-2.81-2.54-6.12-3.51-9.75-18.62-8.46-33.09-22.67-40.11-39.84l-10.62 2.66-47.96-36.24L3.41 154l45.87 9.957 14.67 3.306c-.67 1.97-.82 4.89.74 9.104.16.44.23.77.21 1 3.2 8.96 7.9 17.55 14.14 25.41 28.86 36.37 80.37 44.17 118.49 19.26 15.15-.04 30.7-4.66 37.47-15.93l-7.76-16.26c15.58-28.79 14.52-64.87-4.99-93.09zm-27.1 4.877c0 3.57-2.895 6.46-6.466 6.46s-6.467-2.9-6.467-6.47c0-3.58 2.896-6.47 6.467-6.47 3.573 0 6.467 2.89 6.467 6.46zm-61.576.26c0 2.99-2.427 5.42-5.418 5.42-3 0-5.42-2.43-5.42-5.42 0-2.99 2.42-5.42 5.42-5.42 2.99 0 5.41 2.42 5.41 5.42zm64.94-4.27c.022.07.05.13.068.2-.04-.09-.09-.17-.13-.25.02.01.04.03.063.04zm19.896-7.28s-1.644-6.44-6.438-12.16c0 0 17.957-2.5 6.438 12.16zm-105.187 39.15c-13.425 0-24.307-10.73-24.307-23.96 0-2.64.43-5.18 1.23-7.55 9.06-6.87 17.53-8.4 24.74-7.43-6.02 2.56-10.24 8.52-10.24 15.48 0 9.29 7.53 16.82 16.82 16.82 5.68 0 10.7-2.82 13.74-7.13-3.88 8.13-12.28 13.77-22 13.77zm56.52 6.38c-16.57 0-30.002-13.35-30.002-29.81 0-2.55.322-5.02.926-7.37 4.455-2.91 15.918-9.38 30.06-9.66-6.14 3.43-10.298 9.99-10.298 17.52 0 11.09 8.988 20.08 20.078 20.08 7.266 0 13.63-3.86 17.153-9.65-4.39 11.05-15.233 18.86-27.917 18.86zM70.59 117.39c-.583-3.397-.894-6.87-.894-10.405 0-4.63.523-9.2 1.536-13.682L19.154 82 67 118.193l3.59-.803z"/></svg>