<svg xmlns="http://www.w3.org/2000/svg" width="241" height="238" viewBox="0 0 241 238"><path d="M21.082 60.017l.075.022-.064-.06zm201.17 36.726l-.062-.26c16.506-16.524 4.517-26.75 4.517-26.75-3.612-2.31-7.938-2.348-11.896-1.53-2.2-4.13-6.57-11.46-13.18-18.736l1.88-14.375c3-23-21.5-13-21.5-13-14.73-7.715-18.87.553-20.04 6.182-1.93-.164-3.91-.23-5.95-.182-41 1-46.5 27-46.5 27s29-22 74-5.5l.61 6.224c-9.1-3.592-19.3-5.607-30.07-5.607-21.8 0-41.25 8.24-53.96 21.12-3.94-1.65-21.32-7.84-10.96 15.67-1.06 2.32-1.95 4.71-2.64 7.16-3.15.68-8.86 1-8.86-5.74 0 0-8.51 19.72 7.62 25.47 4.18 28.08 33.38 49.84 68.81 49.84 4.72 0 9.32-.39 13.77-1.12l2.96 5.28c-5.28 2.63-9.59 6.93-12.26 12.19l-23 12.5s12.87 1.66 23.1 12.54c4.58 8.81 13.78 14.85 24.4 14.85 1.66 0 3.29-.16 4.87-.44.36.04.73.07 1.1.11-10.49 6.71-24.25 11.7-42.01 11.75 0 0-29.13 1.41-53.7-24.6 0 0-14.13-13.73-19.22-41.11 0 0-1.56-6.62-7.37-2.01 0 0-5.61 2.83-1.97 12.65.16.44.23.77.21 1 3.2 8.95 7.9 17.54 14.14 25.4 29.67 37.38 83.26 44.59 121.65 17.12 13.77-.82 27.17-5.56 33.31-15.8l-6.78-14.22c15.61-28.79 14.56-64.9-4.95-93.13zm-27.1 4.877c0 3.572-2.894 6.467-6.465 6.467s-6.467-2.895-6.467-6.467c0-3.572 2.896-6.467 6.467-6.467 3.573 0 6.467 2.895 6.467 6.467zm-61.575.262c0 2.992-2.427 5.418-5.418 5.418-3 0-5.42-2.426-5.42-5.418s2.42-5.418 5.42-5.418c2.99 0 5.41 2.426 5.41 5.418zm63.638-7.762c.53 1.2 1.002 2.428 1.37 3.703-.86-1.777-1.983-3.403-3.308-4.84.646.358 1.29.738 1.938 1.137zm21.198-3.78s-1.644-6.437-6.438-12.163c0 0 17.957-2.497 6.438 12.162zm-105.187 39.144c-13.424 0-24.306-10.727-24.306-23.957 0-4.155 1.074-8.063 2.962-11.47 9.982-6.495 19.133-6.695 26.545-4.56-7.828 1.437-13.765 8.284-13.765 16.53 0 9.29 7.53 16.822 16.82 16.822 5.682 0 10.7-2.82 13.746-7.14-3.884 8.14-12.276 13.77-22.002 13.77zm56.52 6.388c-16.57 0-30.002-13.345-30.002-29.805 0-3.146.494-6.177 1.404-9.024 4.37-2.937 17.94-10.953 34.438-9.918-8.705 2.198-15.156 10.058-15.156 19.445 0 11.09 8.99 20.08 20.08 20.08 7.266 0 13.63-3.862 17.152-9.645-4.39 11.05-15.232 18.867-27.916 18.867zM22.022 30.104l-18.69 6.323L35 46.093zM51.56 69.15l-30.403-9.11 37.16 32.924 13.472-1.937c.36-1.362.75-2.716 1.21-4.06-1.26-3.75-2.19-7.882-2.14-12.033l-4.44-1.33 12.63-20.59-.2-.12 25.77-10.69-28.01-4.1 4.64-14.677L104.66.09 69.58 8.825 48.47 34.35l-26.45-4.245 37.898 25.42-8.36 13.624zm14.62 68.038c.15.045.292.105.44.154l12.764 3.825c-.298-.745-.582-1.495-.854-2.247-5.648-9.627-8.833-20.475-8.833-31.945 0-1.353.056-2.7.143-4.04l-15.165 2.18-37.223-32.982-13.88 46.316 62.118 18.61c.163.04.328.07.49.12z"/></svg>