<svg xmlns="http://www.w3.org/2000/svg" width="241" height="238" viewBox="0 0 241 238"><path d="M222.253 96.743c-.02-.087-.043-.174-.063-.26 16.506-16.524 4.517-26.75 4.517-26.75-6.155-3.936-14.392-1.297-19.322.982-2.786-2.745-5.897-5.256-9.26-7.527l4.54-14.762c-37.332-33.334-56.665-22-56.665-22l-7.48 17.627-23.52-6.96s-9.547 10.615 13.49 17.117c-11.192 3.637-20.965 9.572-28.414 17.12-3.938-1.642-21.32-7.838-10.96 15.674-1.065 2.32-1.95 4.712-2.642 7.165-3.147.68-8.857 1-8.857-5.74 0 0-8.512 19.72 7.613 25.47 4.177 28.08 33.38 49.84 68.808 49.84 4.712 0 9.313-.39 13.763-1.12l2.96 5.28c-5.28 2.63-9.59 6.93-12.26 12.19l-22.99 12.5s12.87 1.66 23.1 12.54c4.58 8.82 13.78 14.85 24.4 14.85 1.66 0 3.29-.16 4.87-.44.37.04.73.07 1.1.11-10.49 6.71-24.25 11.7-42.01 11.75 0 0-29.13 1.41-53.7-24.6 0 0-13.83-13.46-19.05-40.26l13.84-8.65c4.92-4.92 3.75-16.78-3.07-27.83-6.81-11.03-16.86-17.4-23.46-15.23 5.84-3.98 6.3-14.02.93-22.72-5.47-8.87-14.91-12.98-21.08-9.17-6.16 3.81-6.6 14.3-1.12 23.17 4.95 8.02 12.96 11.83 19.35 10.23l-31.4 18.86-.03-.03c-5.74 3.81-5.49 14.96.31 25.96-6.09 5.99-17.83 15.66-27.2 15.94l.44 15c14.44-.43 28.56-11.87 35.9-18.89 6.13 5.62 12.83 7.94 17.33 5.37l8.79-5.49c.2 1 .5 2.09.94 3.28.17.44.23.77.21 1 3.2 8.96 7.9 17.55 14.14 25.41 29.67 37.39 83.27 44.6 121.65 17.13 13.77-.81 27.17-5.55 33.32-15.79l-6.78-14.22c15.6-28.79 14.55-64.9-4.96-93.13zM65.507 124.747c2.41.953 6.995 4.194 10.95 10.6 3.952 6.406 4.794 11.958 4.565 14.54-2.41-.953-6.995-4.193-10.948-10.6-3.954-6.406-4.796-11.957-4.567-14.54zm129.647-23.127c0 3.572-2.896 6.467-6.467 6.467s-6.467-2.895-6.467-6.467c0-3.572 2.896-6.467 6.467-6.467 3.573 0 6.467 2.895 6.467 6.467zm-61.577.262c0 2.992-2.427 5.418-5.418 5.418-3 0-5.42-2.426-5.42-5.418s2.42-5.418 5.42-5.418c2.99 0 5.41 2.426 5.41 5.418zm63.638-7.762c.53 1.2 1.002 2.428 1.37 3.703-.86-1.777-1.983-3.403-3.308-4.84.646.358 1.29.738 1.938 1.137zm21.198-3.78s-1.644-6.437-6.438-12.163c0 0 17.957-2.497 6.438 12.162zm-105.187 39.144c-13.424 0-24.306-10.727-24.306-23.957 0-4.155 1.074-8.063 2.962-11.47 9.982-6.495 19.133-6.695 26.545-4.56-7.828 1.437-13.765 8.284-13.765 16.53 0 9.29 7.53 16.822 16.82 16.822 5.682 0 10.7-2.82 13.746-7.14-3.884 8.14-12.276 13.77-22.002 13.77zm56.52 6.388c-16.57 0-30.002-13.345-30.002-29.805 0-3.146.494-6.177 1.404-9.024 4.37-2.937 17.94-10.953 34.438-9.918-8.705 2.198-15.156 10.058-15.156 19.445 0 11.09 8.99 20.08 20.08 20.08 7.266 0 13.63-3.862 17.152-9.645-4.39 11.05-15.232 18.867-27.916 18.867z"/></svg>