<svg xmlns="http://www.w3.org/2000/svg" width="241" height="238" viewBox="0 0 241 238"><path d="M34.415 106.813c1.15 2.975 3.99 4.798 7 4.798.738 0 1.488-.11 2.226-.34l2.18 5.62 22.38-8.66-2.21-5.73c2.94-1.88 4.26-5.63 2.95-9.02-1.5-3.86-5.84-5.78-9.7-4.29l-20.52 7.93c-3.87 1.5-5.79 5.84-4.3 9.7z"/><circle cx="16.5" cy="31.343" r="7.5"/><circle cx="16.5" cy="67.343" r="7.5"/><path d="M39 81c3.313 0 6-2.686 6-6V25c0-3.312-2.687-6-6-6s-6 2.688-6 6v50c0 3.314 2.687 6 6 6zm185.166 23.744L238 96.15l-19-38.944c-13-30-57-25.886-57-25.886-57-10-64 34.227-64 34.227l-1.458 5.567c-4.74-1.87-20.376-6.694-10.426 15.89-1.065 2.32-1.95 4.71-2.642 7.164-3.147.686-8.857 1.002-8.857-5.737 0 0-4.35 10.07-.957 17.92L5.703 132.5 11 146.09V160H-2v15h63.237c.134.443.27.89.446 1.36.163.442.23.772.212.997 3.2 8.955 7.9 17.548 14.14 25.408 29.668 37.385 83.266 44.592 121.65 17.123 13.768-.815 27.168-5.554 33.313-15.797l-6.785-14.21c14.17-26.14 14.596-58.29-.047-85.13zm-93.588-2.862c0 2.992-2.426 5.418-5.418 5.418s-5.418-2.426-5.418-5.418 2.426-5.418 5.418-5.418 5.418 2.426 5.418 5.418zm-12.096 20.968c5.682 0 10.702-2.818 13.747-7.132-3.89 8.136-12.28 13.77-22.01 13.77-13.43 0-24.31-10.73-24.31-23.96 0-4.154 1.07-8.062 2.96-11.468 9.98-6.496 19.13-6.696 26.54-4.562-7.83 1.438-13.77 8.285-13.77 16.53 0 9.29 7.53 16.822 16.82 16.822zm77.104-25.028c-.86-1.778-1.984-3.403-3.31-4.84.647.36 1.294.74 1.94 1.137.53 1.19 1.002 2.42 1.37 3.7zm-3.43 3.798c0 3.572-2.896 6.467-6.467 6.467-3.58 0-6.47-2.895-6.47-6.467 0-3.572 2.89-6.467 6.46-6.467s6.46 2.895 6.46 6.467zm-54.008-4.577c4.37-2.937 17.94-10.952 34.438-9.918-8.704 2.198-15.155 10.058-15.155 19.445 0 11.09 8.99 20.08 20.08 20.08 7.27 0 13.63-3.862 17.16-9.645-4.39 11.05-15.23 18.867-27.91 18.867-16.57 0-30-13.345-30-29.805.01-3.146.5-6.177 1.41-9.024zm5.8 134.374s-29.137 1.412-53.704-24.596c0 0-10.933-10.63-17.03-31.82H105v-15H90v-14H14.426l64.776-25.48-4.893-12.86c1.47 2.6 3.96 4.85 7.92 6.26 4.17 28.09 33.38 49.84 68.8 49.84 4.71 0 9.31-.39 13.76-1.12l2.95 5.29c-5.29 2.64-9.59 6.93-12.26 12.19l-22.99 12.5s12.86 1.67 23.09 12.55c4.57 8.82 13.78 14.85 24.4 14.85 1.66 0 3.28-.15 4.86-.44.36.04.73.08 1.1.11-10.5 6.71-24.25 11.71-42.01 11.76z"/></svg>