<svg xmlns="http://www.w3.org/2000/svg" width="241" height="238" viewBox="0 0 241 238"><path d="M117.396 187.74l-.018.044c.08-.09.16-.18.227-.28-.02.032-.187.207-.21.237zM79.35 146.342c-.087.047-.158.088-.226.135l.05-.016c.03-.01.14-.1.176-.11zm-.263.146l.01.01c.008-.008.017-.016.026-.022l-.036.012zm38.29 41.296l-.022.03.008.01.015-.04zM222.26 96.75c-.022-.087-.044-.174-.064-.26 16.506-16.524 4.517-26.75 4.517-26.75-.97-.62-1.997-1.063-3.05-1.383 10.168-8.787 4.857-29.574-15.324-39.924-22.32-11.447-27.45 6.586-28.45 11.92-13.68-5.732-26.22-5.92-26.22-5.92-7.12 5.982-9.12 11.717-9.09 16.328-4.56.51-8.98 1.38-13.21 2.58.05-8.87 7.63-20.23 7.63-20.23-23.61.95-24.81 17.27-23.51 26.72-5.82 3.2-11.03 7.07-15.42 11.52-3.94-1.64-21.32-7.84-10.96 15.68-1.07 2.32-1.95 4.71-2.65 7.17-2.54.56-6.73.86-8.27-2.56-.18-.91-.37-1.78-.58-2.61-.01-.18-.02-.36-.02-.56l-.08.18c-1.31-5.18-3.01-8.59-4.53-9.11v-.07l-.47.04c.03.01-.1.02-.06.03-.16-.04-.41-.07-.57-.07-.5 0-1.04.21-1.51.59l-36.5 10.89h-.02c-3.87 0-6.67 7.46-6.67 16.67 0 2.18-.17 4.26.83 6.16v25.24h-6.68c-4.15 0-7.5 3.36-7.5 7.5s3.35 7.5 7.5 7.5h2.5l-4.1 50h-5.41c-4.14 0-7.5 3.36-7.5 7.5s3.36 7.5 7.5 7.5h45c4.14 0 7.5-3.35 7.5-7.5s-3.36-7.5-7.5-7.5h-8.41l-2.38-29h13.84l-3.42 5.81c-2.84 2.63-.06 10.23 6.19 16.99 6.05 6.54 13.14 9.87 16.16 7.69 30.07 34.99 81.95 41.19 119.38 14.41 13.77-.81 27.17-5.55 33.32-15.79l.99-33.78c6.51-24.48 2.57-51.44-12.72-73.57zm-88.677 5.138c0 2.992-2.426 5.418-5.418 5.418s-5.42-2.426-5.42-5.418 2.428-5.418 5.42-5.418 5.418 2.426 5.418 5.418zm-12.097 20.967c5.683 0 10.7-2.818 13.746-7.13-3.883 8.134-12.274 13.767-22 13.767-13.425 0-24.307-10.727-24.307-23.958 0-4.155 1.074-8.063 2.962-11.47 9.982-6.495 19.133-6.695 26.545-4.56-7.83 1.437-13.766 8.284-13.766 16.53 0 9.29 7.532 16.82 16.82 16.82zM198.59 97.83c-.86-1.778-1.982-3.404-3.307-4.842.646.36 1.29.74 1.938 1.138.53 1.2 1.01 2.428 1.37 3.703zm-3.43 3.796c0 3.572-2.895 6.467-6.467 6.467-3.57 0-6.467-2.895-6.467-6.467 0-3.572 2.896-6.467 6.467-6.467 3.573 0 6.468 2.89 6.468 6.46zm-54.006-4.577c4.37-2.94 17.94-10.96 34.438-9.92-8.705 2.2-15.156 10.06-15.156 19.44 0 11.09 8.99 20.08 20.08 20.08 7.266 0 13.63-3.86 17.152-9.65-4.39 11.05-15.232 18.87-27.917 18.87-16.56 0-30-13.35-30-29.81 0-3.15.5-6.18 1.41-9.03zm77.265-6.71s-1.65-6.44-6.44-12.16c0 0 17.95-2.5 6.44 12.16zM71.83 84.93c1.44 3.44 3.177 11.28 3.177 22.666s-1.738 19.222-3.177 22.665c-1.44-3.44-3.176-11.28-3.176-22.66 0-11.39 1.737-19.22 3.176-22.66zm75.116 146.49s-29.137 1.413-53.704-24.595c0 0-1.783-1.737-4.305-5.188l26.88-13.196c.61-.03 1.106-.22 1.475-.56.02-.02.035-.05.055-.07l-.042-.04c2.25-3.45-4.068-14.22-14.19-25.14-10.12-10.93-20.364-18.05-23.984-16.07l-.04-.04c-.03.03-.07.05-.11.09-.36.34-.57.81-.65 1.41L70 162.11c-.128.015-.26.035-.396.063-1.354-1.336-3.214-2.162-5.267-2.162H47.32l-.49-6h4.507c4.142 0 7.5-3.35 7.5-7.5s-3.358-7.5-7.5-7.5h-8.32v-12.22l27.697 8.39c.473.39.792.59 1.293.59.162 0 .238-.02.397-.07-.036.01.225.03.19.03l.423.04v-.07c2.795-.93 6.176-11.58 6.625-25.07 1.406 1.33 3.24 2.46 5.592 3.3 4.177 28.09 33.38 49.84 68.81 49.84 4.71 0 9.313-.38 13.763-1.12l2.953 5.29c-1.438.72-2.795 1.57-4.076 2.52l-.346.01s-35.188 11.31-30.833 22.17c2.96 7.39 13.42 2.97 23.206 12.77 4.62 8.7 13.76 14.63 24.29 14.63 1.66 0 3.29-.15 4.86-.44.37.04.74.08 1.1.11-10.49 6.71-24.24 11.7-42 11.76zm-64.19-80.84c3.394 1.548 9.994 6.118 17.73 14.474 7.736 8.354 11.786 15.285 13.07 18.79-3.396-1.55-9.997-6.118-17.733-14.474-7.738-8.354-11.787-15.286-13.07-18.79z"/></svg>