<svg xmlns="http://www.w3.org/2000/svg" width="189" height="189" viewBox="0 0 189 189"><path fill="#888" d="M139.63 114.758c-7.07 0-13.444 2.954-17.974 7.688L74.074 97.952c.108-.937.168-1.886.168-2.85 0-1.48-.137-2.932-.385-4.34l47.547-24.474c4.54 4.89 11.023 7.953 18.225 7.953 13.73 0 24.87-11.13 24.87-24.87S153.36 24.5 139.63 24.5s-24.874 11.136-24.874 24.872c0 1.53.146 3.028.41 4.48l-47.47 24.44C63.15 73.338 56.623 70.23 49.37 70.23c-13.734 0-24.87 11.136-24.87 24.874 0 13.733 11.136 24.87 24.873 24.87 7.778 0 14.722-3.573 19.28-9.165l46.583 23.97c-.31 1.57-.477 3.19-.477 4.84 0 13.73 11.13 24.87 24.87 24.87 13.73 0 24.87-11.14 24.87-24.88s-11.14-24.88-24.88-24.88z"/></svg>