<svg xmlns="http://www.w3.org/2000/svg" width="189" height="189" viewBox="0 0 189 189"><path fill="#888" d="M139.69 136.723c-2.814-5.428-4.458-9.447-4.966-10.73-.07-.05-.144-.088-.205-.134-.05-.03-.09-.07-.15-.1l.16-.26c-.82-2.46-5.37-16.41-8.29-30.63.02-.93-.08-1.88-.39-2.82l-.05-.15-.05-.14-.07-.25c-.09-.32-.23-.84-.37-1.45-.48-2.74-.88-5.45-1.15-8.03-.09-1.19-.17-2.4-.19-3.71-.02-1.64.02-3.35.14-5.13.12-1.77.33-3.58.62-5.39.27-1.81.67-3.61 1.14-5.38.48-1.76.99-3.48 1.64-5.1.29-.82.64-1.6.98-2.35.32-.77.73-1.49 1.09-2.21.74-1.41 1.55-2.68 2.36-3.83.38-.58.83-1.1 1.23-1.6.39-.51.82-.97 1.22-1.4.74-.88 1.6-1.56 2.26-2.18.72-.59 1.36-1.05 1.88-1.43.55-.35.99-.6 1.29-.78l.45-.27c3.13-1.79 5.75-4.52 7.43-8.02 4.41-9.2.53-20.22-8.67-24.62-9.2-4.4-20.22-.53-24.63 8.67l-1.16 2.38-1.7 3.55c-.5 1.14-1.08 2.52-1.73 4.08-.57 1.59-1.25 3.35-1.85 5.3-.31.96-.62 1.96-.88 3.01-.26 1.04-.58 2.1-.79 3.2-.51 2.19-.92 4.49-1.27 6.84-.32 2.35-.59 4.76-.72 7.16-.04.61-.06 1.2-.1 1.81l-.02.73c-.02-.01-.05-.01-.07-.02 0 .02.02.2.05.45-.01.22-.01.44-.02.66-.07 1.2-.04 2.4-.04 3.6.01 1.2.04 2.38.07 3.55.07 1.17.12 2.33.19 3.48.16 2.29.35 4.53.61 6.67.03.26.07.49.1.75-3.87-2.83-10.64-7.14-21.42-13.42-61.6-35.98-62.29 4.65-62.29 4.65-.14 8.68 5.43 13.72 5.43 13.72.44.48.87.91 1.31 1.36C3.26 88.13 12 108.93 12 108.93c3.37 8.01 10.5 10.38 10.5 10.38 3.76 1.64 7.13 2.77 10.18 3.49-11.26 16.21 3.91 26.02 3.91 26.02 6.4 4.12 12.74 2.31 12.74 2.31 12.76-2.453 18.77-7.14 21.19-12.19 10.45 6.92 23.14 9.265 35.06 6.77 2.1 1.76 4.323 3.57 6.82 5.32 1.054.78 2.14 1.59 3.244 2.4 1.113.81 2.23 1.67 3.44 2.41 2.396 1.55 4.89 3.15 7.46 4.81 10.47 6.32 22.98 12.49 37.27 17.3 4.657 1.58 9.583 2.93 14.614 4.17v-.02c-19.475-12.38-32.266-32.76-38.77-45.37zM33.805 92.07c-.29-2.048.637-3.42 2.302-4.306 1.817 1.276 3.563 2.3 5.22 3.05-4.247.34-7.522 1.255-7.522 1.255zm10.253 33.75c-.624-.685-.92-1.396-.98-2.113 1.362-.145 2.623-.39 3.774-.742-1.72 1.596-2.795 2.855-2.795 2.855zM65.67 64.57c-.45.372-.853.796-1.294 1.186-6.172-5.16-16.196-6.616-16.196-6.616 1.825-6.453 12.41-1.328 20.11 3.45-.888.623-1.765 1.284-2.62 1.98z"/></svg>