<svg xmlns="http://www.w3.org/2000/svg" width="189" height="189" viewBox="0 0 189 189"><path fill="#888" d="M163.85 11.058c-14.296 4.813-26.807 10.985-37.282 17.307-2.57 1.653-5.053 3.256-7.453 4.806-1.217.75-2.328 1.61-3.438 2.42-1.113.81-2.193 1.61-3.254 2.39-2.496 1.75-4.72 3.56-6.82 5.32-11.92-2.49-24.608-.15-35.063 6.77-2.42-5.05-8.426-9.74-21.186-12.19 0 0-6.342-1.81-12.744 2.32 0 0-15.167 9.82-3.912 26.02-3.047.74-6.42 1.86-10.178 3.5 0 0-7.127 2.37-10.502 10.38 0 0-8.733 20.81 16.172 28.05-.445.45-.876.88-1.314 1.36 0 0-5.568 5.04-5.428 13.73 0 0 .69 40.63 62.297 4.65 10.776-6.29 17.542-10.59 21.41-13.42-.03.26-.07.48-.1.75-.26 2.14-.45 4.38-.617 6.67-.063 1.15-.12 2.31-.192 3.48-.035 1.17-.067 2.36-.074 3.55 0 1.19-.022 2.39.04 3.6.008.22.008.44.014.66-.024.25-.052.43-.052.45.02-.01.046-.01.068-.02l.017.73c.05.61.06 1.21.1 1.81.12 2.41.39 4.81.72 7.17.34 2.35.75 4.65 1.26 6.84.21 1.1.53 2.16.79 3.21.25 1.05.56 2.05.87 3.02.59 1.95 1.27 3.71 1.85 5.3.65 1.57 1.23 2.94 1.73 4.08l1.7 3.55 1.15 2.4c4.41 9.2 15.43 13.07 24.62 8.67 9.19-4.41 13.07-15.43 8.66-24.62-1.68-3.5-4.31-6.22-7.44-8.02l-.46-.26c-.3-.18-.75-.43-1.29-.77-.52-.37-1.17-.84-1.89-1.43-.67-.62-1.52-1.3-2.27-2.17-.4-.43-.83-.89-1.23-1.4-.4-.5-.85-1.02-1.23-1.6-.81-1.15-1.61-2.42-2.36-3.83-.35-.71-.76-1.44-1.08-2.2-.34-.76-.7-1.54-.99-2.36-.64-1.62-1.16-3.34-1.64-5.1-.47-1.76-.86-3.57-1.14-5.37-.29-1.81-.49-3.62-.62-5.39-.13-1.76-.16-3.47-.14-5.1.02-1.32.1-2.53.19-3.72.28-2.58.67-5.29 1.16-8.02.14-.62.27-1.14.36-1.46l.07-.24.05-.13.05-.15c.29-.94.4-1.89.38-2.82 2.92-14.22 7.47-28.17 8.29-30.63l-.17-.26c.05-.03.09-.06.14-.09.07-.05.14-.09.21-.13.5-1.29 2.15-5.3 4.97-10.73 6.5-12.61 19.29-32.99 38.77-45.37v-.1c-5.03 1.24-9.95 2.59-14.61 4.17zM36.106 101.24c-1.67-.887-2.59-2.262-2.303-4.31 0 0 3.27.913 7.516 1.255-1.66.75-3.4 1.78-5.22 3.055zm6.97-35.942c.04-.48.192-.957.47-1.42.14-.237.3-.47.512-.7 0 0 1.068 1.26 2.787 2.86l.004.002c-1.16-.358-2.41-.6-3.78-.742zm25.215 61.114c-7.7 4.78-18.28 9.902-20.11 3.447v-.01s1.75-.26 4.22-.93c3.47-.94 8.38-2.69 11.98-5.7.44.39.85.81 1.3 1.19.86.69 1.73 1.35 2.62 1.97h.01z"/></svg>