<svg xmlns="http://www.w3.org/2000/svg" width="189" height="189" viewBox="0 0 189 189"><path fill="#888" d="M186.936 109.85V79.154l-25.29-2.057c-1.64-6.305-4.15-12.256-7.386-17.734l16.454-19.368-21.707-21.707-19.366 16.455c-5.47-3.234-11.43-5.75-17.73-7.384l-2.06-25.3H79.16L77.1 27.35c-6.34 1.65-12.32 4.18-17.827 7.44L39.99 18.28 18.28 39.99l16.51 19.28c-3.278 5.532-5.82 11.55-7.464 17.926L2.063 79.153v30.695l25.265 1.955c1.642 6.38 4.187 12.396 7.464 17.928l-16.508 19.28 21.706 21.71 19.28-16.51c5.532 3.28 11.55 5.82 17.928 7.47l1.955 25.27h30.697l1.957-25.26c6.342-1.63 12.326-4.16 17.834-7.41l19.37 16.46 21.71-21.7-16.45-19.37c3.24-5.47 5.75-11.43 7.39-17.73l25.3-2.05zM57.402 94.5c0-20.454 16.644-37.095 37.097-37.095 20.45 0 37.09 16.64 37.09 37.095s-16.65 37.097-37.1 37.097S57.4 114.955 57.4 94.5z"/></svg>