<svg xmlns="http://www.w3.org/2000/svg" width="189" height="189" viewBox="0 0 189 189"><path d="M77.612 84.623l34.795-48.268-48.27-34.793-11.694 16.224L73.688 33.1C46.716 39.208 26.51 63.354 26.51 92.147c0 20.147 9.98 38.917 26.692 50.207l11.195-16.57c-11.2-7.567-17.887-20.143-17.887-33.636 0-18.367 12.277-33.912 29.052-38.883L61.39 72.927l16.22 11.696zm79.783 11.893c0-20.146-9.98-38.915-26.69-50.206L119.51 62.882c11.2 7.566 17.886 20.14 17.886 33.634 0 18.366-12.275 33.91-29.05 38.883l14.175-19.67-16.22-11.7-34.8 48.27 48.27 34.79 11.7-16.23-21.24-15.32c26.97-6.11 47.18-30.26 47.18-59.05z" fill="#888"/></svg>