<svg xmlns="http://www.w3.org/2000/svg" width="189.359" height="189" viewBox="0 0 189.359 189"><path d="M94.68 22c39.977 0 72.5 32.523 72.5 72.5S134.657 167 94.68 167c-39.978 0-72.5-32.523-72.5-72.5S54.702 22 94.68 22m0-17C45.25 5 5.18 45.07 5.18 94.5S45.25 184 94.68 184s89.5-40.07 89.5-89.5S144.11 5 94.68 5zm3.017 37.09l1.982 55.055-3.61-6.83 33.18 25.764c2.05 1.59 2.42 4.55.83 6.6-1.44 1.85-3.99 2.33-5.99 1.23l-36.81-20.24c-2.48-1.36-3.81-4-3.62-6.65l.01-.19 3.98-54.95c.2-2.77 2.61-4.85 5.37-4.65 2.58.18 4.56 2.31 4.66 4.83z" fill="#888"/></svg>