<svg xmlns="http://www.w3.org/2000/svg" width="189" height="189" viewBox="0 0 189 189"><path fill="#888" d="M94.5 5.695C45.533 5.695 5.695 45.533 5.695 94.5s39.838 88.805 88.805 88.805 88.805-39.838 88.805-88.805S143.467 5.695 94.5 5.695zm0 15c17.652 0 33.87 6.236 46.585 16.61L37.308 141.085c-10.376-12.712-16.613-28.93-16.613-46.585 0-40.695 33.11-73.805 73.805-73.805zm0 147.61c-17.652 0-33.872-6.236-46.586-16.61l103.78-103.78c10.374 12.715 16.61 28.935 16.61 46.588 0 40.692-33.11 73.802-73.804 73.802z"/></svg>