<svg xmlns="http://www.w3.org/2000/svg" width="189" height="189" viewBox="0 0 189 189"><path fill="#888" d="M182.206 171.388l-32.27-32.267c12.165-14.67 18.792-32.95 18.792-52.25 0-21.92-8.537-42.52-24.037-58.02-15.49-15.5-36.1-24.03-58.02-24.03s-42.53 8.54-58.03 24.04S4.6 64.97 4.6 86.88c0 21.92 8.535 42.527 24.036 58.023 15.5 15.495 36.104 24.027 58.02 24.027 19.503 0 37.954-6.77 52.706-19.174l32.245 32.237c1.465 1.465 3.383 2.195 5.304 2.195 1.92 0 3.84-.73 5.31-2.197 2.93-2.92 2.93-7.67 0-10.6zM86.653 153.93c-17.91 0-34.75-6.974-47.417-19.637C26.57 121.63 19.594 104.79 19.594 86.877s6.976-34.753 19.643-47.42c12.67-12.67 29.514-19.646 47.43-19.646 17.913 0 34.752 6.98 47.417 19.64 12.666 12.67 19.643 29.51 19.643 47.42s-6.977 34.76-19.644 47.42c-12.67 12.67-29.514 19.65-47.43 19.65z"/></svg>