<svg xmlns="http://www.w3.org/2000/svg" width="189" height="189" viewBox="0 0 189 189"><path fill="#888" d="M94.495 187.25c-24.77 0-48.06-9.645-65.577-27.16-36.164-36.16-36.164-95.002-.002-131.17C46.436 11.398 69.73 1.748 94.506 1.748c24.77 0 48.06 9.646 65.576 27.163 36.164 36.17 36.165 95.01.003 131.17-17.52 17.53-40.814 27.18-65.59 27.18zm.01-170.5c-20.77 0-40.295 8.088-54.98 22.777-30.315 30.318-30.315 79.645 0 109.956 14.683 14.685 34.205 22.77 54.97 22.77 20.77 0 40.296-8.09 54.983-22.775 30.313-30.317 30.313-79.644-.002-109.957-14.683-14.68-34.205-22.77-54.97-22.77zM94.5 43.386c-28.23 0-51.113 22.888-51.113 51.115 0 28.23 22.886 51.12 51.112 51.12 28.23 0 51.11-22.89 51.11-51.11 0-28.23-22.89-51.11-51.12-51.11zM80.446 110.95c-15.687 0-28.4-12.716-28.4-28.403 0-15.685 12.713-28.4 28.4-28.4 15.685 0 28.403 12.716 28.403 28.4 0 15.687-12.72 28.402-28.41 28.402z"/></svg>