<svg xmlns="http://www.w3.org/2000/svg" width="214" height="189" viewBox="0 0 214 189"><path fill="#888" d="M107 63.882c-30.227 0-54.73 24.507-54.73 54.734 0 30.23 24.506 54.73 54.73 54.73 30.23 0 54.732-24.508 54.732-54.732.004-30.225-24.503-54.732-54.732-54.732zM91.953 136.23c-16.797 0-30.412-13.616-30.412-30.413 0-16.796 13.62-30.412 30.42-30.412 16.8 0 30.42 13.616 30.42 30.41 0 16.8-13.61 30.414-30.41 30.414zM18.64 119.01h-15c0-57 46.368-103.357 103.36-103.357S210.36 62.01 210.36 119.01h-15c0-49-39.64-88.357-88.36-88.357-48.722 0-88.36 39.358-88.36 88.358z"/></svg>