<svg xmlns="http://www.w3.org/2000/svg" width="189" height="189" viewBox="0 0 189 189"><path d="M157.273 27.608c-7.19-7.19-15.496-12.98-24.432-17.26V27.44c4.96 3.01 9.61 6.603 13.78 10.774 28.78 28.78 28.86 75.608.08 104.388-13.94 13.938-32.43 21.616-52.14 21.616s-38.23-7.68-52.18-21.622c-28.78-28.78-28.87-75.606-.1-104.386 4.53-4.53 9.2-8.37 14.57-11.52V9.78C47.37 14.11 39.2 20.088 31.69 27.6c-34.626 34.628-34.57 90.97.056 125.6 16.774 16.777 39.104 26.02 62.824 26.02s45.982-9.237 62.754-26.012c34.63-34.627 34.59-90.972-.04-125.6zM94.5 9.78c8.285 0 15 6.716 15 15l.002 63.368c0 8.285-6.717 15.002-15 15.002-8.285 0-15-6.717-15-15V24.78c0-8.283 6.715-15 14.998-15z" fill="#888"/></svg>