<svg xmlns="http://www.w3.org/2000/svg" width="189" height="189" viewBox="0 0 189 189"><path fill="#888" d="M132.188 155.5h18.885c8.938 0 15.428-8.123 15.428-17.06V48.223c0-8.938-6.48-14.725-15.42-14.725h-2.28c-8.93 0-17.3 5.78-17.3 14.72v54.28h12V48.22c0-2.264 3.04-2.725 5.3-2.725h2.28c2.27 0 3.43.46 3.43 2.724v85.85c0 4.67-3.12 9.42-7.79 9.42H132.2c-4.67 0-9.683-4.76-9.683-9.43V23.54c0-4.67 5.018-7.042 9.688-7.042h33.89c4.75 0 8.47 3.316 8.47 7.94L174.5 135h12.1l.04-110.97c0-11.26-9.23-20.52-20.58-20.52h-33.88c-11.337-.01-21.68 8.69-21.68 20.04v110.53c0 11.343 10.343 21.423 21.688 21.423v-.003zM94.5 32.5h-63v67.945L76.576 79.47 94.5 97.517zm0 101.58v-15.363L73.174 97.53 31.5 117.023V157.5h71.78c-5.434-6.513-8.78-14.733-8.78-23.42zm77 23.42v15h-155v-155h78.54c.982-5.528 3.28-10.63 6.58-15H2.5v184h184v-29h-15z"/></svg>