<?xml version="1.0" encoding="utf-8"?>
<!-- Generator: Adobe Illustrator 16.0.0, SVG Export Plug-In . SVG Version: 6.00 Build 0)  -->
<!DOCTYPE svg PUBLIC "-//W3C//DTD SVG 1.1//EN" "http://www.w3.org/Graphics/SVG/1.1/DTD/svg11.dtd">
<svg version="1.1" id="Layer_1" xmlns="http://www.w3.org/2000/svg" xmlns:xlink="http://www.w3.org/1999/xlink" x="0px" y="0px"
	 width="189px" height="189px" viewBox="0 0 189 189" enable-background="new 0 0 189 189" xml:space="preserve">
<g>
	<g>
		<polygon fill="#888888" points="128.623,-461.063 129.225,-495.447 102.664,-500.268 73.211,-465.439 126.756,-420.095 
			163.641,-463.712 		"/>
		<path fill="#888888" d="M152.217-558.867l-42.146,49.842l28.678,5.271l-0.777,32.438l34.211-2.493l33.579-39.709L152.217-558.867z
			 M154.984-487.556c-6.408-5.427-7.207-15.03-1.777-21.45c5.428-6.417,15.021-7.219,21.432-1.792
			c6.41,5.43,7.205,15.032,1.779,21.448C170.99-482.93,161.395-482.129,154.984-487.556z"/>
	</g>
</g>
<g>
	<polygon fill="#888888" points="617.021,116.785 624.692,109.113 624.692,12.199 708.618,12.199 708.618,25.193 717.61,16.201 
		717.61,3.208 615.7,3.208 615.7,135.551 635.788,135.551 	"/>
</g>
<path fill="#888888" d="M665.349,68.459l9.467-9.467c-5.986-2.047-10.293-7.718-10.293-14.398c0-8.404,6.813-15.217,15.217-15.217
	c6.681,0,12.352,4.307,14.398,10.295l7.62-7.621V21.191h-70.206v51.263l25.317-14.51L665.349,68.459z"/>
<g>
	<polygon fill="#888888" points="658.741,75.066 654.958,70.436 631.552,83.921 631.552,102.254 	"/>
</g>
<g>
	<path fill="#888888" d="M607.858,92.797c-1.373-0.705-2.664-1.627-3.813-2.775c-5.944-5.942-5.944-15.575-0.002-21.518
		c1.149-1.149,2.44-2.07,3.815-2.776V53.113l-43.674,43.673l36.251,36.243l7.423-27.357V92.797z"/>
</g>
<g>
	<polygon fill="#888888" points="610.803,143.395 632.337,164.923 653.868,143.395 	"/>
</g>
<polygon fill="#888888" points="663.7,146.279 633.847,176.131 552.976,95.279 607.858,40.397 607.858,27.684 540.259,95.279 
	633.849,188.845 670.126,152.57 "/>
<g>
	<g>
		<g>
			<polygon fill="#888888" points="405.877,125.838 381.262,95.699 354.779,110.953 354.773,149.029 434.207,149.049 
				434.211,97.947 			"/>
			<path fill="#888888" d="M354.783,39.961l-0.005,58.016l28.647-16.414l23.037,28.582l27.75-27.162l0.004-43L354.783,39.961z
				 M409.299,83.682c-9.506-0.002-17.215-7.713-17.215-17.227c0.001-9.51,7.711-17.219,17.217-17.217
				c9.512,0.004,17.219,7.717,17.217,17.225C426.518,75.977,418.807,83.684,409.299,83.682z"/>
		</g>
		<g>
			<path fill="#888888" d="M441.979,29.807l-0.012,129.424l-94.955-0.025l0.012-129.424L441.979,29.807 M452.152,19.635
				l-115.3-0.031l-0.015,149.775l115.303,0.029L452.152,19.635L452.152,19.635z"/>
		</g>
	</g>
	<g>
		<polygon fill="#888888" points="458.557,146.896 478.811,137.23 458.563,94.858 		"/>
		<polygon fill="#888888" points="419.543,13.209 414.24,2.111 391.001,13.201 		"/>
		<polygon fill="#888888" points="369.471,175.803 374.765,186.881 397.961,175.811 		"/>
		<polygon fill="#888888" points="330.434,42.102 310.193,51.762 330.428,94.105 		"/>
	</g>
	<g>
		<polygon fill="#888888" points="382.332,0.781 369.912,13.195 394.752,13.203 382.332,0.781 		"/>
		<path fill="#888888" d="M467.615,98.885l7.809,7.811l-7.809,7.807V98.885 M458.563,77.025l-0.004,59.33l29.672-29.658
			L458.563,77.025L458.563,77.025z"/>
		<polygon fill="#888888" points="394.264,175.811 406.668,188.219 419.076,175.816 394.264,175.811 		"/>
		<path fill="#888888" d="M321.377,74.508l-0.003,15.596l-7.798-7.801L321.377,74.508 M330.434,52.654L300.77,82.301l29.656,29.662
			L330.434,52.654L330.434,52.654z"/>
	</g>
</g>
<path fill="#888888" d="M151.834-566.808l61.839,52.313l-86.535,102.342L65.3-464.465L151.834-566.808 M151.131-580.265
	c-1.42,0-2.832,0.602-3.821,1.771L53.028-466.987c-1.783,2.108-1.52,5.264,0.589,7.048l71,60.062
	c0.938,0.794,2.085,1.183,3.226,1.183c1.42,0,2.832-0.603,3.82-1.772l94.283-111.505c1.782-2.109,1.52-5.264-0.59-7.048l-71-60.063
	C153.417-579.877,152.271-580.265,151.131-580.265L151.131-580.265z"/>
<path fill="#888888" d="M151.834-566.808l61.839,52.313l-86.535,102.342L65.3-464.465L151.834-566.808 M151.131-580.265
	c-1.42,0-2.832,0.602-3.821,1.771L53.028-466.987c-1.783,2.108-1.52,5.264,0.589,7.048l71,60.062
	c0.938,0.794,2.085,1.183,3.226,1.183c1.42,0,2.832-0.603,3.82-1.772l94.283-111.505c1.782-2.109,1.52-5.264-0.59-7.048l-71-60.063
	C153.417-579.877,152.271-580.265,151.131-580.265L151.131-580.265z"/>
<g>
	<path fill="#888888" d="M77.443-513.959l8.363-9.891l-5.477-16.941l27.247-8.805l13.449-15.907l-49.789,16.091
		c-2.627,0.85-4.068,3.668-3.219,6.297L77.443-513.959z"/>
	<path fill="#888888" d="M201.527-464.999l-8.363,9.892l5.477,16.939l-27.246,8.807l-13.45,15.906l49.789-16.092
		c2.63-0.85,4.069-3.668,3.22-6.296L201.527-464.999z"/>
</g>
<g>
	<path fill="#888888" d="M125.834-571.283l-18.088-3.3c-2.717-0.496-5.32,1.306-5.816,4.022l-6.411,35.129L125.834-571.283z"/>
	<path fill="#888888" d="M153.145-407.688l18.087,3.299c2.718,0.496,5.321-1.305,5.817-4.022l6.411-35.129L153.145-407.688z"/>
</g>
<path fill="#888888" d="M49.171,74.283l9.134-58.326l76.546,25.459l-9.137,58.324L49.171,74.283 M42.521,79.061
	c0.402,0.955,1.108,1.712,1.983,2.003l83.396,27.737c1.578,0.523,3.108-0.664,3.421-2.651l10.487-66.964
	c0.139-0.887,0.012-1.781-0.309-2.551c-0.402-0.95-1.109-1.711-1.984-2.001L56.12,6.897c-1.577-0.522-3.106,0.663-3.42,2.651
	L42.211,76.513C42.072,77.4,42.199,78.292,42.521,79.061L42.521,79.061z"/>
<path fill="#888888" d="M139.504,152.805l-7.631-1.986L55.085,171.66l-11.078-57.732l12.267-3.33l0.984-8.517l-18.217,4.947
	c-1.593,0.431-2.578,2.375-2.201,4.348l12.718,66.281c0.167,0.878,0.577,1.61,1.122,2.115c0.679,0.63,1.564,0.905,2.448,0.665
	l84.253-22.865c1.594-0.432,2.58-2.377,2.201-4.348L139.504,152.805z"/>
<path fill="#888888" d="M84.998,138.615l-23.993,0.653c-2.276-0.595-4.282-2.418-5.502-5.001c-1.026-2.162-1.434-4.729-1.145-7.223
	l1.434-12.256l-7.664,2.076l9.573,50.02l37.662-10.219L83.539,140.9L84.998,138.615z"/>
<polygon fill="#888888" points="91.073,140.199 91.006,140.306 101.981,154.869 124.24,148.832 "/>
<path fill="#888888" d="M158.31,77.281c0.104-0.895-0.058-1.778-0.409-2.523c-0.438-0.924-1.176-1.633-2.061-1.862l-13.394-3.487
	l-3.208,47.463c-0.889,5.674-5.025,9.229-9.416,8.096c0,0,0,0-0.002,0c-0.146-0.037-0.295-0.08-0.441-0.128L63.454,94.507
	l-3.106,26.889c-0.104,0.896,0.06,1.778,0.412,2.521c0.438,0.928,1.174,1.635,2.059,1.865l84.376,21.966
	c1.597,0.415,3.078-0.874,3.31-2.883L158.31,77.281z"/>
<polygon fill="#888888" points="99.434,73.072 72.959,53.301 57.235,52.972 54.507,70.439 122.526,92.721 125.996,70.486 "/>
<path fill="#888888" d="M61.985,22.553L58.167,47l16.874,0.367l26.193,19.561l25.711-2.525L130,44.834L61.985,22.553z
	 M109.958,59.958c-4.671,0-8.458-3.786-8.458-8.458c0-4.671,3.787-8.458,8.458-8.458c4.672,0,8.458,3.788,8.458,8.459
	C118.416,56.173,114.63,59.958,109.958,59.958z"/>
</svg>
