<?xml version="1.0" encoding="utf-8"?>
<!-- Generator: Adobe Illustrator 16.0.0, SVG Export Plug-In . SVG Version: 6.00 Build 0)  -->
<!DOCTYPE svg PUBLIC "-//W3C//DTD SVG 1.1//EN" "http://www.w3.org/Graphics/SVG/1.1/DTD/svg11.dtd">
<svg version="1.1" id="Layer_1" xmlns="http://www.w3.org/2000/svg" xmlns:xlink="http://www.w3.org/1999/xlink" x="0px" y="0px"
	 width="189px" height="189px" viewBox="0 0 189 189" enable-background="new 0 0 189 189" xml:space="preserve">
<g>
	<g>
		<polygon fill="#888888" points="128.623,-461.063 129.225,-495.447 102.664,-500.268 73.211,-465.439 126.756,-420.095 
			163.641,-463.712 		"/>
		<path fill="#888888" d="M152.217-558.867l-42.146,49.842l28.679,5.271l-0.776,32.438l34.211-2.493l33.578-39.709L152.217-558.867z
			 M154.984-487.556c-6.408-5.427-7.207-15.03-1.777-21.45c5.428-6.417,15.021-7.219,21.432-1.792
			c6.41,5.43,7.205,15.032,1.779,21.448C170.99-482.93,161.395-482.129,154.984-487.556z"/>
	</g>
</g>
<g>
	<polygon fill="#888888" points="617.021,116.785 624.692,109.113 624.692,12.199 708.618,12.199 708.618,25.193 717.61,16.201 
		717.61,3.208 615.7,3.208 615.7,135.551 635.788,135.551 	"/>
</g>
<path fill="#888888" d="M665.349,68.459l9.468-9.467c-5.986-2.047-10.293-7.718-10.293-14.398c0-8.404,6.813-15.217,15.217-15.217
	c6.681,0,12.352,4.307,14.397,10.295l7.62-7.621v-10.86h-70.206v51.263l25.317-14.51L665.349,68.459z"/>
<g>
	<polygon fill="#888888" points="658.741,75.066 654.958,70.436 631.552,83.921 631.552,102.254 	"/>
</g>
<g>
	<path fill="#888888" d="M607.858,92.797c-1.373-0.705-2.664-1.627-3.813-2.775c-5.944-5.942-5.944-15.575-0.002-21.518
		c1.149-1.149,2.44-2.07,3.815-2.776V53.113l-43.675,43.673l36.251,36.243l7.423-27.357L607.858,92.797L607.858,92.797z"/>
</g>
<g>
	<polygon fill="#888888" points="610.803,143.395 632.337,164.923 653.868,143.395 	"/>
</g>
<polygon fill="#888888" points="663.7,146.279 633.847,176.131 552.976,95.279 607.858,40.397 607.858,27.684 540.259,95.279 
	633.849,188.846 670.126,152.57 "/>
<g>
	<polygon fill="#888888" points="405.877,125.838 381.262,95.699 354.779,110.953 354.773,149.029 434.207,149.049 434.211,97.947 	
		"/>
	<path fill="#888888" d="M354.783,39.961l-0.005,58.016l28.646-16.414l23.037,28.582l27.75-27.162l0.004-43L354.783,39.961z
		 M409.299,83.682c-9.506-0.002-17.215-7.713-17.215-17.227c0.001-9.51,7.711-17.219,17.217-17.217
		c9.513,0.004,17.219,7.717,17.217,17.225C426.518,75.977,418.807,83.684,409.299,83.682z"/>
</g>
<g>
	<path fill="#888888" d="M441.979,29.807l-0.012,129.423l-94.955-0.024l0.013-129.424L441.979,29.807 M452.152,19.635
		l-115.301-0.031l-0.015,149.775l115.303,0.029L452.152,19.635L452.152,19.635z"/>
</g>
<g>
	<polygon fill="#888888" points="458.557,146.896 478.811,137.23 458.563,94.858 	"/>
	<polygon fill="#888888" points="419.543,13.209 414.24,2.111 391.001,13.201 	"/>
	<polygon fill="#888888" points="369.471,175.803 374.765,186.881 397.961,175.811 	"/>
	<polygon fill="#888888" points="330.434,42.102 310.193,51.762 330.428,94.105 	"/>
</g>
<g>
	<polygon fill="#888888" points="382.332,0.781 369.912,13.195 394.752,13.203 	"/>
	<path fill="#888888" d="M467.615,98.885l7.809,7.811l-7.809,7.808V98.885 M458.563,77.025l-0.004,59.331l29.673-29.658
		L458.563,77.025L458.563,77.025z"/>
	<polygon fill="#888888" points="394.264,175.811 406.668,188.219 419.076,175.816 	"/>
	<path fill="#888888" d="M321.377,74.508l-0.003,15.596l-7.798-7.801L321.377,74.508 M330.434,52.654L300.77,82.301l29.656,29.662
		L330.434,52.654L330.434,52.654z"/>
</g>
<path fill="#888888" d="M151.834-566.808l61.839,52.313l-86.534,102.342L65.3-464.465L151.834-566.808 M151.131-580.265
	c-1.42,0-2.832,0.602-3.82,1.771L53.028-466.987c-1.783,2.108-1.52,5.264,0.589,7.048l71,60.062
	c0.938,0.794,2.085,1.183,3.226,1.183c1.421,0,2.832-0.603,3.82-1.772l94.282-111.505c1.783-2.109,1.521-5.264-0.59-7.048
	l-71-60.063C153.417-579.877,152.271-580.265,151.131-580.265L151.131-580.265z"/>
<path fill="#888888" d="M151.834-566.808l61.839,52.313l-86.534,102.342L65.3-464.465L151.834-566.808 M151.131-580.265
	c-1.42,0-2.832,0.602-3.82,1.771L53.028-466.987c-1.783,2.108-1.52,5.264,0.589,7.048l71,60.062
	c0.938,0.794,2.085,1.183,3.226,1.183c1.421,0,2.832-0.603,3.82-1.772l94.282-111.505c1.783-2.109,1.521-5.264-0.59-7.048
	l-71-60.063C153.417-579.877,152.271-580.265,151.131-580.265L151.131-580.265z"/>
<g>
	<path fill="#888888" d="M77.443-513.959l8.363-9.891l-5.477-16.941l27.247-8.805l13.449-15.907l-49.79,16.091
		c-2.627,0.85-4.068,3.668-3.219,6.297L77.443-513.959z"/>
	<path fill="#888888" d="M201.527-464.999l-8.363,9.892l5.477,16.939l-27.246,8.807l-13.449,15.906l49.789-16.092
		c2.629-0.85,4.068-3.668,3.22-6.296L201.527-464.999z"/>
</g>
<g>
	<path fill="#888888" d="M125.834-571.283l-18.088-3.3c-2.717-0.496-5.32,1.306-5.816,4.022l-6.41,35.129L125.834-571.283z"/>
	<path fill="#888888" d="M153.145-407.688l18.088,3.299c2.718,0.496,5.32-1.305,5.816-4.022l6.411-35.129L153.145-407.688z"/>
</g>
<path fill="#888888" d="M9.125-173.467l12.34-73.832l102.477,24.427l-12.345,73.83L9.125-173.467 M0.141-167.419
	c0.543,1.209,1.497,2.167,2.679,2.535l111.73,27.311c2.133,0.663,4.198-0.841,4.62-3.355l14.168-84.767
	c0.188-1.123,0.017-2.255-0.418-3.229c-0.541-1.202-1.497-2.166-2.679-2.533l-111.729-27.31c-2.131-0.661-4.196,0.839-4.621,3.355
	l-14.17,84.768C-0.465-169.522-0.293-168.393,0.141-167.419L0.141-167.419z"/>
<path fill="#888888" d="M155.633-177.473c0.139-1.134-0.079-2.251-0.555-3.194c-0.591-1.169-1.589-2.067-2.783-2.357l-18.095-4.414
	l-4.332,57.104c-1.201,7.182-6.789,11.683-12.721,10.248c0,0,0,0-0.002,0c-0.198-0.046-0.398-0.1-0.598-0.162l-89.059-35.42
	l-4.196,34.039c-0.141,1.133,0.081,2.25,0.556,3.19c0.593,1.176,1.586,2.069,2.781,2.361l113.987,27.806
	c2.156,0.525,4.157-1.106,4.471-3.649L155.633-177.473z"/>
<polygon fill="#888888" points="76.094,-182.801 40.33,-207.828 20.019,-200.444 16.333,-178.333 107.29,-157.928 111.979,-186.075 
	"/>
<path fill="#888888" d="M26.436-238.95l-5.158,30.946l21.864-7.335l35.384,24.761l34.734-3.197l4.127-24.771L26.436-238.95z
	 M90.312-199.401c-6.31,0-11.426-4.792-11.426-10.707c0-5.913,5.116-10.707,11.426-10.707c6.313,0,11.426,4.795,11.426,10.708
	C101.737-204.193,96.624-199.401,90.312-199.401z"/>
<g>
	<g>
		<polygon fill="#888888" points="86.489,141.298 51.633,116.724 30.04,129.161 30.035,160.207 116.458,160.223 116.46,118.557 		
			"/>
		<path fill="#888888" d="M30.043,71.277l-0.004,47.303l23.357-13.382l33.569,23.304l29.495-22.146l0.004-35.06L30.043,71.277z
			 M74.493,106.926c-7.75-0.002-14.036-6.289-14.036-14.046c0.001-7.754,6.287-14.04,14.038-14.038
			c7.756,0.003,14.04,6.292,14.038,14.044C88.532,100.644,82.245,106.927,74.493,106.926z"/>
	</g>
	<path fill="#888888" d="M127.345,180H19.155C13.556,180,9,175.444,9,169.845V61.655c0-5.6,4.556-10.155,10.155-10.155h108.189
		c5.6,0,10.155,4.556,10.155,10.155v108.189C137.5,175.444,132.944,180,127.345,180z M22,167h102.5V64.5H22V167z"/>
</g>
<g>
	<g>
		<polygon fill="#888888" points="-132.511,-215.702 -167.367,-240.276 -188.96,-227.839 -188.965,-196.793 -102.542,-196.777 
			-102.54,-238.443 		"/>
		<path fill="#888888" d="M-188.957-285.723l-0.004,47.303l23.357-13.382l33.569,23.304l29.495-22.146l0.004-35.06L-188.957-285.723
			z M-144.507-250.074c-7.75-0.002-14.036-6.289-14.036-14.046c0.001-7.754,6.287-14.04,14.038-14.038
			c7.756,0.003,14.04,6.292,14.038,14.044C-130.468-256.356-136.755-250.073-144.507-250.074z"/>
	</g>
	<path fill="#888888" d="M-91.655-177h-108.189c-5.6,0-10.155-4.556-10.155-10.155v-108.189c0-5.6,4.556-10.155,10.155-10.155
		h108.189c5.6,0,10.155,4.556,10.155,10.155v108.189C-81.5-181.556-86.056-177-91.655-177z M-197-190h102.5v-102.5H-197V-190z"/>
</g>
<path fill="#888888" d="M73.043,29.277L73.042,41.5h34.029c2.569-2.854,6.281-4.66,10.423-4.659
	c4.156,0.002,7.878,1.819,10.448,4.689c10.835,0.32,19.558,9.213,19.558,20.125v11.681l11.961-8.981l0.004-35.06L73.043,29.277z"/>
<polygon fill="#888888" points="147.5,85.631 147.5,118.221 159.458,118.223 159.46,76.557 "/>
<path fill="#888888" d="M170.345,9.5H62.155C56.556,9.5,52,14.056,52,19.655V41.5h13v-19h102.5V125h-20v13h22.845
	c5.6,0,10.155-4.556,10.155-10.155V19.655C180.5,14.056,175.944,9.5,170.345,9.5z"/>
</svg>
