<?xml version="1.0" encoding="utf-8"?>
<!-- Generator: Adobe Illustrator 16.0.0, SVG Export Plug-In . SVG Version: 6.00 Build 0)  -->
<!DOCTYPE svg PUBLIC "-//W3C//DTD SVG 1.1//EN" "http://www.w3.org/Graphics/SVG/1.1/DTD/svg11.dtd">
<svg version="1.1" id="Layer_1" xmlns="http://www.w3.org/2000/svg" xmlns:xlink="http://www.w3.org/1999/xlink" x="0px" y="0px"
	 width="189px" height="189px" viewBox="0 0 189 189" enable-background="new 0 0 189 189" xml:space="preserve">
<g>
	<g>
		<polygon fill="#888888" points="86.489,141.298 51.633,116.725 30.04,129.161 30.035,160.207 116.458,160.223 116.46,118.557 		
			"/>
		<path fill="#888888" d="M30.043,71.277l-0.004,47.303l23.357-13.382l33.569,23.304l29.495-22.146l0.004-35.06L30.043,71.277z
			 M74.493,106.926c-7.75-0.002-14.036-6.289-14.036-14.046c0.001-7.754,6.287-14.04,14.038-14.038
			c7.756,0.003,14.04,6.292,14.038,14.044C88.532,100.645,82.245,106.927,74.493,106.926z"/>
	</g>
	<path fill="#888888" d="M127.346,180H19.155C13.556,180,9,175.443,9,169.846V61.655c0-5.6,4.556-10.155,10.155-10.155h108.189
		c5.6,0,10.155,4.556,10.155,10.155v108.189C137.5,175.443,132.943,180,127.346,180z M22,167h102.5V64.5H22V167z"/>
</g>
<path fill="#888888" d="M73.043,29.277L73.042,41.5h34.028c2.57-2.854,6.281-4.66,10.424-4.659
	c4.156,0.002,7.878,1.819,10.447,4.689c10.836,0.32,19.559,9.213,19.559,20.125v11.681l11.961-8.981l0.004-35.06L73.043,29.277z"/>
<polygon fill="#888888" points="147.5,85.631 147.5,118.221 159.458,118.223 159.46,76.557 "/>
<path fill="#888888" d="M170.346,9.5H62.155C56.556,9.5,52,14.056,52,19.655V41.5h13v-19h102.5V125h-20v13h22.846
	c5.6,0,10.154-4.557,10.154-10.154V19.655C180.5,14.056,175.943,9.5,170.346,9.5z"/>
</svg>
