<svg xmlns="http://www.w3.org/2000/svg" width="189" height="189" viewBox="0 0 189 189"><path fill="#888" d="M177 72h-46.666L177 25.333M95 176H10V13h85v163zm-67-18h49V31H28v127z"/><path fill="#888" d="M94 91h9v18h-9zm59 18h-18V91h18v18zm-25 0h-18V91h18v18zm32-18h18v18h-18zm18 60.982h-18v-15.476h18v15.476zm0-21.49h-18v-15.475h18v15.474zM160 158h18v18h-18zm-7 18h-18v-18h18v18zm-25 0h-18v-18h18v18zm-34-18h9v18h-9zm15.333-117.178c17.625 1.205 33.194 9.99 43.474 23.117l19.745-15.31c-14.86-19.02-37.567-31.62-63.22-32.86v25.05z"/></svg>