<svg xmlns="http://www.w3.org/2000/svg" width="189" height="189" viewBox="0 0 189 189"><g fill="#888"><path d="M86.49 141.298l-34.857-24.573L30.04 129.16l-.005 31.047 86.423.016.002-41.666"/><path d="M30.043 71.277l-.004 47.303 23.35-13.382 33.57 23.304 29.49-22.146v-35.06l-86.42-.02zm44.45 35.65c-7.75-.003-14.036-6.29-14.036-14.047 0-7.754 6.287-14.04 14.038-14.038 7.756.003 14.04 6.292 14.038 14.044 0 7.76-6.288 14.04-14.04 14.04z"/><path d="M127.346 180H19.156C13.556 180 9 175.443 9 169.846V61.656c0-5.6 4.556-10.156 10.155-10.156h108.19c5.6 0 10.154 4.556 10.154 10.155v108.19c0 5.598-4.56 10.155-10.16 10.155zM22 167h102.5V64.5H22V167z"/></g><path fill="#888" d="M73.043 29.277V41.5h34.027c2.57-2.854 6.28-4.66 10.424-4.66 4.156.003 7.878 1.82 10.447 4.69 10.84.32 19.56 9.213 19.56 20.125v11.68l11.96-8.98.01-35.06-86.42-.018zM147.5 85.63v32.59l11.958.003.002-41.666"/><path fill="#888" d="M170.346 9.5H62.156C56.556 9.5 52 14.056 52 19.655V41.5h13v-19h102.5V125h-20v13h22.846c5.6 0 10.154-4.557 10.154-10.154V19.656c0-5.6-4.557-10.156-10.154-10.156z"/></svg>