<?xml version="1.0" encoding="utf-8"?>
<!-- Generator: Adobe Illustrator 16.0.0, SVG Export Plug-In . SVG Version: 6.00 Build 0)  -->
<!DOCTYPE svg PUBLIC "-//W3C//DTD SVG 1.1//EN" "http://www.w3.org/Graphics/SVG/1.1/DTD/svg11.dtd">
<svg version="1.1" id="Layer_1" xmlns="http://www.w3.org/2000/svg" xmlns:xlink="http://www.w3.org/1999/xlink" x="0px" y="0px"
	 width="189px" height="189px" viewBox="0 0 189 189" enable-background="new 0 0 189 189" xml:space="preserve">
<g>
	<g>
		<polygon fill="#888888" points="698.476,132.711 701.913,98.505 675.827,91.49 652.038,115.276 701.687,164.912 733.612,132.988 
					"/>
		<path fill="#888888" d="M720.179,47.14l-36.245,36.243l28.163,7.641l-3.453,32.25l34.319,0.366l26.863-26.864L720.179,47.14z
			 M726.949,108.512c-5.942-5.94-5.944-15.574-0.002-21.518c5.942-5.94,15.577-5.94,21.521,0c5.943,5.943,5.943,15.576,0.002,21.518
			S732.893,114.453,726.949,108.512z"/>
	</g>
	<g>
		<path fill="#888888" d="M781.034,95.268l-80.856,80.853l-59.35-59.335l80.856-80.854L781.034,95.268 M793.752,95.268
			l-72.067-72.049l-93.572,93.566l72.066,72.049L793.752,95.268L793.752,95.268z"/>
	</g>
</g>
<g>
	<polygon fill="#888888" points="617.021,116.785 624.692,109.113 624.692,12.199 708.618,12.199 708.618,25.193 717.61,16.201 
		717.61,3.208 615.7,3.208 615.7,135.551 635.788,135.551 	"/>
</g>
<path fill="#888888" d="M665.349,68.459l9.467-9.467c-5.986-2.047-10.293-7.718-10.293-14.398c0-8.404,6.813-15.217,15.217-15.217
	c6.681,0,12.352,4.307,14.398,10.295l7.62-7.621V21.191h-70.206v51.263l25.317-14.51L665.349,68.459z"/>
<g>
	<polygon fill="#888888" points="658.741,75.066 654.958,70.436 631.552,83.921 631.552,102.254 	"/>
</g>
<g>
	<path fill="#888888" d="M607.858,92.797c-1.373-0.705-2.664-1.627-3.813-2.775c-5.944-5.942-5.944-15.575-0.002-21.518
		c1.149-1.149,2.44-2.07,3.815-2.776V53.113l-43.674,43.673l36.251,36.243l7.423-27.357V92.797z"/>
</g>
<g>
	<polygon fill="#888888" points="610.803,143.395 632.337,164.923 653.868,143.395 	"/>
</g>
<polygon fill="#888888" points="663.7,146.279 633.847,176.131 552.976,95.279 607.858,40.397 607.858,27.684 540.259,95.279 
	633.849,188.845 670.126,152.57 "/>
<g>
	<g>
		<g>
			<polygon fill="#888888" points="105.877,125.838 81.262,95.699 54.78,110.953 54.774,149.029 134.207,149.049 134.211,97.947 			
				"/>
			<path fill="#888888" d="M54.784,39.961l-0.005,58.016l28.647-16.414l23.037,28.582l27.75-27.162l0.004-43L54.784,39.961z
				 M109.299,83.682c-9.506-0.002-17.215-7.713-17.215-17.227c0.001-9.51,7.711-17.219,17.217-17.217
				c9.512,0.004,17.219,7.717,17.217,17.225C126.518,75.977,118.807,83.684,109.299,83.682z"/>
		</g>
		<g>
			<path fill="#888888" d="M141.979,29.807l-0.012,129.424l-94.955-0.025l0.011-129.424L141.979,29.807 M152.152,19.635
				l-115.3-0.031l-0.015,149.775l115.303,0.029L152.152,19.635L152.152,19.635z"/>
		</g>
	</g>
	<g>
		<polygon fill="#888888" points="158.557,146.896 178.811,137.23 158.563,94.858 		"/>
		<polygon fill="#888888" points="119.543,13.209 114.24,2.111 91.001,13.201 		"/>
		<polygon fill="#888888" points="69.47,175.803 74.765,186.881 97.961,175.811 		"/>
		<polygon fill="#888888" points="30.433,42.102 10.193,51.762 30.428,94.105 		"/>
	</g>
	<g>
		<polygon fill="#888888" points="82.333,0.781 69.912,13.195 94.751,13.203 82.333,0.781 		"/>
		<path fill="#888888" d="M167.615,98.885l7.809,7.811l-7.809,7.807V98.885 M158.563,77.025l-0.004,59.33l29.672-29.658
			L158.563,77.025L158.563,77.025z"/>
		<polygon fill="#888888" points="94.263,175.811 106.668,188.219 119.076,175.816 94.263,175.811 		"/>
		<path fill="#888888" d="M21.376,74.508l-0.002,15.596l-7.798-7.801L21.376,74.508 M30.433,52.654L0.77,82.301l29.656,29.662
			L30.433,52.654L30.433,52.654z"/>
	</g>
</g>
</svg>
