<svg xmlns="http://www.w3.org/2000/svg" width="189" height="189" viewBox="0 0 189 189"><g fill="#888"><path d="M698.476 132.71l3.437-34.205-26.086-7.015-23.79 23.786 49.65 49.636 31.925-31.924"/><path d="M720.18 47.14l-36.246 36.243 28.163 7.64-3.453 32.25 34.32.367 26.862-26.864L720.18 47.14zm6.77 61.372c-5.943-5.94-5.945-15.574-.003-21.518 5.942-5.94 15.577-5.94 21.52 0 5.944 5.943 5.944 15.576.003 21.518s-15.577 5.94-21.52 0z"/></g><path fill="#888" d="M781.034 95.268l-80.856 80.853-59.35-59.33 80.856-80.85 59.35 59.34m12.718 0l-72.067-72.05-93.572 93.57 72.066 72.05 93.57-93.56z"/><path fill="#888" d="M617.02 116.785l7.672-7.672V12.2h83.926v12.993l8.992-8.992V3.21H615.7v132.34h20.088"/><path fill="#888" d="M665.35 68.46l9.466-9.468c-5.986-2.047-10.293-7.718-10.293-14.398 0-8.404 6.813-15.217 15.217-15.217 6.68 0 12.352 4.307 14.398 10.295l7.62-7.62V21.19h-70.206v51.262l25.317-14.51 8.48 10.515zm-6.61 6.606l-3.782-4.63-23.406 13.485v18.34m-23.694-9.46c-1.373-.7-2.664-1.62-3.813-2.77-5.944-5.94-5.944-15.57-.002-21.52 1.15-1.15 2.44-2.07 3.815-2.77V53.12l-43.674 43.67 36.25 36.242 7.424-27.36V92.8zm2.945 50.6l21.534 21.53 21.53-21.53m9.833 2.89l-29.853 29.85-80.87-80.85 54.88-54.88V27.69L540.26 95.28l93.59 93.565 36.276-36.275"/><g fill="#888"><path d="M105.877 125.838l-24.615-30.14-26.482 15.255-.006 38.076 79.433.02.004-51.11"/><path d="M54.784 39.96l-.005 58.017 28.64-16.414 23.03 28.582 27.75-27.162v-43l-79.43-.023zM109.3 83.683c-9.507-.002-17.216-7.713-17.216-17.227 0-9.51 7.71-17.22 17.217-17.217 9.52 0 17.22 7.71 17.22 17.22 0 9.51-7.71 17.22-17.22 17.22z"/><path d="M141.98 29.807l-.013 129.424-94.955-.02.01-129.42 94.957.03m10.17-10.17l-115.3-.03-.02 149.78 115.3.03.01-149.77zm6.4 127.26l20.25-9.66-20.25-42.37m-39.02-81.65l-5.31-11.1L91 13.2M69.47 175.803l5.295 11.078 23.196-11.07M30.44 42.11L10.2 51.77l20.234 42.34"/><path d="M82.333.78l-12.42 12.415 24.838.008L82.34.78m85.28 98.105l7.81 7.81-7.81 7.808V98.885m-9.05-21.86l-.005 59.33 29.67-29.658-29.667-29.672zm-64.3 98.785l12.404 12.41 12.408-12.404-24.813-.005M21.38 74.51v15.6l-7.8-7.8 7.8-7.796m9.057-21.853L.77 82.3l29.656 29.663.007-59.31z"/></g></svg>