<?xml version="1.0" encoding="utf-8"?>
<!-- Generator: Adobe Illustrator 16.0.0, SVG Export Plug-In . SVG Version: 6.00 Build 0)  -->
<!DOCTYPE svg PUBLIC "-//W3C//DTD SVG 1.1//EN" "http://www.w3.org/Graphics/SVG/1.1/DTD/svg11.dtd">
<svg version="1.1" id="Layer_1" xmlns="http://www.w3.org/2000/svg" xmlns:xlink="http://www.w3.org/1999/xlink" x="0px" y="0px"
	 width="189px" height="189px" viewBox="0 0 189 189" enable-background="new 0 0 189 189" xml:space="preserve">
<g>
	<path fill="#888888" d="M82.266,132.975l-23.453,23.452c-5.464,5.466-14.354,5.466-19.82-0.001l-6.42-6.418
		c-5.464-5.466-5.464-14.355,0-19.82l44.943-44.942c5.464-5.465,14.355-5.466,19.821,0l6.419,6.418
		c0.896,0.897,1.635,1.894,2.236,2.947l12.48-12.482c-0.75-0.951-1.558-1.87-2.435-2.747l-6.42-6.419
		c-12.237-12.237-32.15-12.237-44.387,0L20.29,117.904c-12.238,12.238-12.237,32.15,0,44.387l6.419,6.42
		c12.237,12.236,32.149,12.238,44.386,0l28.571-28.57C91.835,138.747,85.743,135.339,82.266,132.975z"/>
	<path fill="#888888" d="M106.732,56.026l23.455-23.453c5.463-5.464,14.354-5.464,19.819,0l6.419,6.419
		c5.465,5.465,5.465,14.356,0,19.82l-44.941,44.943c-5.465,5.464-14.354,5.466-19.822,0l-6.418-6.419
		c-0.898-0.898-1.634-1.895-2.236-2.947l-12.482,12.483c0.75,0.948,1.558,1.869,2.435,2.747l6.419,6.418
		c12.238,12.238,32.151,12.238,44.39,0l44.94-44.942c12.237-12.238,12.235-32.149-0.002-44.387l-6.418-6.419
		c-12.237-12.237-32.149-12.238-44.386-0.001L89.333,48.86C97.166,50.254,103.259,53.661,106.732,56.026z"/>
</g>
</svg>
