<?xml version="1.0" encoding="utf-8"?>
<!-- Generator: Adobe Illustrator 16.0.0, SVG Export Plug-In . SVG Version: 6.00 Build 0)  -->
<!DOCTYPE svg PUBLIC "-//W3C//DTD SVG 1.1//EN" "http://www.w3.org/Graphics/SVG/1.1/DTD/svg11.dtd">
<svg version="1.1" id="Layer_1" xmlns="http://www.w3.org/2000/svg" xmlns:xlink="http://www.w3.org/1999/xlink" x="0px" y="0px"
	 width="189px" height="189px" viewBox="0 0 189 189" enable-background="new 0 0 189 189" xml:space="preserve">
<path fill="#888888" d="M-220.5,1.438c-51.398,0-93.062,41.665-93.062,93.062s41.664,93.063,93.063,93.063
	c51.399,0,93.069-41.666,93.069-93.063c0-51.398-41.67-93.063-93.059-93.062H-220.5z M-188,52h-11.518
	c-4.377,0-7.498,0.953-9.021,2.782c-1.522,1.833-2.462,4.616-2.462,8.279V78h22.697l-2.975,22H-211v58h-24v-58h-19V78h19V60.85
	c0-9.46,3.146-16.797,8.438-22.013s12.353-7.822,21.148-7.82c7.477,0,13.414,0.308,17.414,0.914V52z"/>
<polygon fill="#888888" points="446.834,74.834 381.166,74.834 446.834,9.166 "/>
<path fill="#888888" d="M425.107,84.202c0.58,3.348,0.894,6.786,0.894,10.297c0,33.36-27.141,60.501-60.5,60.501
	C332.141,155,305,127.86,305,94.5s27.141-60.5,60.501-60.501c19.328,0,36.556,9.121,47.639,23.274l19.745-15.309
	C417.223,21.922,392.85,8.999,365.5,8.999C318.355,9,280,47.355,280,94.5s38.355,85.5,85.501,85.5c47.145,0,85.5-38.355,85.5-85.501
	c0-1.828-0.073-3.64-0.188-5.439L425.107,84.202z"/>
<path fill="#888888" d="M175.57,131.374l-25.029,0.039l-0.154-79.364l32.581-32.582L169.532,6.033l-32.351,32.351L57.413,38.54
	L57.374,13.4l-19,0.029l0.039,25.147l-25.017,0.049l0.037,19l25.009-0.049l0.115,74.01L13.4,131.626l0.029,19l25.157-0.039
	l0.039,25.013l19-0.029l-0.039-25.013l73.992-0.115l0.049,25.161l19-0.037l-0.049-25.153l25.021-0.039L175.57,131.374z
	 M118.145,57.421l-60.608,60.608L57.442,57.54L118.145,57.421z M70.898,131.537l60.524-60.525l0.118,60.431L70.898,131.537z"/>
</svg>
