<?xml version="1.0" encoding="utf-8"?>
<!-- Generator: Adobe Illustrator 16.0.0, SVG Export Plug-In . SVG Version: 6.00 Build 0)  -->
<!DOCTYPE svg PUBLIC "-//W3C//DTD SVG 1.1//EN" "http://www.w3.org/Graphics/SVG/1.1/DTD/svg11.dtd">
<svg version="1.1" id="Layer_1" xmlns="http://www.w3.org/2000/svg" xmlns:xlink="http://www.w3.org/1999/xlink" x="0px" y="0px"
	 width="189px" height="189px" viewBox="0 0 189 189" enable-background="new 0 0 189 189" xml:space="preserve">
<path fill="#888888" d="M175.57,131.374l-25.029,0.039l-0.154-79.364l32.581-32.582L169.532,6.033l-32.351,32.351L57.413,38.54
	L57.374,13.4l-19,0.029l0.039,25.147l-25.017,0.049l0.037,19l25.009-0.049l0.115,74.01l-25.157,0.04l0.029,19l25.157-0.039
	l0.039,25.013l19-0.029l-0.039-25.012l73.992-0.115l0.049,25.16l19-0.037l-0.049-25.152l25.021-0.039L175.57,131.374z
	 M118.145,57.421l-60.607,60.608L57.442,57.54L118.145,57.421z M70.898,131.537l60.524-60.525l0.118,60.431L70.898,131.537z"/>
</svg>
