<?xml version="1.0" encoding="utf-8"?>
<!-- Generator: Adobe Illustrator 16.0.0, SVG Export Plug-In . SVG Version: 6.00 Build 0)  -->
<!DOCTYPE svg PUBLIC "-//W3C//DTD SVG 1.1//EN" "http://www.w3.org/Graphics/SVG/1.1/DTD/svg11.dtd">
<svg version="1.1" id="Layer_1" xmlns="http://www.w3.org/2000/svg" xmlns:xlink="http://www.w3.org/1999/xlink" x="0px" y="0px"
	 width="189px" height="189px" viewBox="0 0 189 189" enable-background="new 0 0 189 189" xml:space="preserve">
<path fill="#888888" d="M-220.5,1.438c-51.398,0-93.062,41.664-93.062,93.062s41.664,93.063,93.063,93.063
	s93.069-41.666,93.069-93.063c0-51.398-41.67-93.063-93.059-93.062H-220.5z M-188,52h-11.518c-4.377,0-7.498,0.953-9.021,2.782
	c-1.522,1.833-2.462,4.616-2.462,8.278V78h22.697l-2.975,22H-211v58h-24v-58h-19V78h19V60.85c0-9.46,3.146-16.797,8.438-22.013
	s12.353-7.822,21.148-7.82c7.477,0,13.414,0.309,17.414,0.914V52z"/>
<polygon fill="#888888" points="446.834,74.834 381.166,74.834 446.834,9.166 "/>
<g>
	<polygon fill="#888888" points="646.416,142.25 591.918,142.25 646.416,87.75 	"/>
</g>
<path fill="#888888" d="M425.106,84.202c0.58,3.348,0.895,6.786,0.895,10.297c0,33.36-27.141,60.501-60.5,60.501
	S305,127.86,305,94.5s27.142-60.5,60.501-60.501c19.328,0,36.557,9.121,47.639,23.274l19.745-15.31
	C417.224,21.922,392.851,8.999,365.5,8.999C318.354,9,280,47.355,280,94.5s38.354,85.5,85.501,85.5
	c47.145,0,85.5-38.355,85.5-85.501c0-1.828-0.072-3.64-0.188-5.439L425.106,84.202z"/>
<polygon fill="#888888" points="403.167,-251.5 468.835,-185.832 403.167,-185.832 "/>
<polygon fill="#888888" points="65.814,9.688 65.901,98.229 21.525,53.958 "/>
<path fill="#888888" d="M-475.43,131.374l-25.029,0.039l-0.154-79.364l32.581-32.582l-13.436-13.434l-32.351,32.351l-79.769,0.156
	l-0.039-25.14l-19,0.028l0.039,25.147l-25.017,0.049l0.037,19l25.009-0.049l0.115,74.01l-25.157,0.04l0.029,19l25.157-0.039
	l0.039,25.013l19-0.028l-0.039-25.014l73.992-0.114l0.049,25.16l19-0.036l-0.049-25.153l25.021-0.039L-475.43,131.374z
	 M-532.855,57.421l-60.607,60.608l-0.095-60.489L-532.855,57.421z M-580.102,131.537l60.524-60.525l0.118,60.432L-580.102,131.537z"
	/>
<g>
	<path fill="#888888" d="M682.166,176.5h-164v-164h164V176.5z M535.166,159.5h130v-130h-130V159.5z"/>
</g>
<g>
	<path fill="#888888" d="M584.666,79h-66.5V12.5h66.5V79z M535.166,62h32.5V29.5h-32.5V62z"/>
</g>
<g>
	
		<rect x="560.895" y="89.626" transform="matrix(0.7071 0.7071 -0.7071 0.7071 245.9428 -397.5006)" fill="#888888" width="83.793" height="16.999"/>
</g>
<g>
	<path fill="#888888" d="M-712.921,72V25.333l-13.452,13.453c-14.343-13.437-33.3-22.001-54.214-23.011v25.047
		c14.023,0.959,26.734,6.728,36.526,15.652L-759.586,72H-712.921z"/>
	<path fill="#888888" d="M-794.92,13h-85v163h84.001h0.999h8.001v-18h-8.001v-49h8.001V91h-8.001V13z M-812.92,158h-49V31h49V158z"
		/>
	<rect x="-754.919" y="91" fill="#888888" width="18" height="18"/>
	<rect x="-779.919" y="91" fill="#888888" width="18" height="18"/>
	<rect x="-729.919" y="91" fill="#888888" width="18" height="18"/>
	<rect x="-729.919" y="136.509" fill="#888888" width="18" height="15.474"/>
	<rect x="-729.919" y="115.018" fill="#888888" width="18" height="15.474"/>
	<rect x="-729.919" y="158" fill="#888888" width="18" height="18"/>
	<rect x="-754.919" y="158" fill="#888888" width="18" height="18"/>
	<rect x="-779.919" y="158" fill="#888888" width="18" height="18"/>
</g>
<path fill="#888888" d="M484.501-251.668c-27.351,0-51.724,12.924-67.385,32.965l19.745,15.311
	c11.082-14.154,28.311-23.275,47.639-23.275c33.359,0.002,60.501,27.141,60.501,60.502c0,33.359-27.142,60.5-60.501,60.5
	c-9.99,0-19.414-2.449-27.728-6.756l-18.271,18.271c13.292,8.521,29.072,13.485,45.999,13.485c47.146,0,85.501-38.355,85.501-85.5
	S531.646-251.666,484.501-251.668z"/>
<g>
	<path fill="#888888" d="M126.26,162.984H12v-24h114.26c14.489,0,26.276-11.791,26.276-26.281V89.736
		c0-14.488-11.787-26.277-26.276-26.277H42.167v-24h84.093c27.723,0,50.276,22.555,50.276,50.277v22.967
		C176.536,140.428,153.982,162.984,126.26,162.984z"/>
</g>
</svg>
