<?xml version="1.0" encoding="utf-8"?>
<!-- Generator: Adobe Illustrator 16.0.0, SVG Export Plug-In . SVG Version: 6.00 Build 0)  -->
<!DOCTYPE svg PUBLIC "-//W3C//DTD SVG 1.1//EN" "http://www.w3.org/Graphics/SVG/1.1/DTD/svg11.dtd">
<svg version="1.1" id="Layer_1" xmlns="http://www.w3.org/2000/svg" xmlns:xlink="http://www.w3.org/1999/xlink" x="0px" y="0px"
	 width="189px" height="189px" viewBox="0 0 189 189" enable-background="new 0 0 189 189" xml:space="preserve">
<path fill="#888888" d="M-220.5,1.438c-51.398,0-93.062,41.664-93.062,93.062s41.664,93.063,93.063,93.063
	s93.069-41.666,93.069-93.063c0-51.398-41.67-93.063-93.059-93.062H-220.5z M-188,52h-11.518c-4.377,0-7.498,0.953-9.021,2.782
	c-1.522,1.833-2.462,4.616-2.462,8.278V78h22.697l-2.975,22H-211v58h-24v-58h-19V78h19V60.85c0-9.46,3.146-16.797,8.438-22.013
	s12.353-7.822,21.148-7.82c7.477,0,13.414,0.309,17.414,0.914V52z"/>
<polygon fill="#888888" points="446.834,74.834 381.166,74.834 446.834,9.166 "/>
<g>
	<polygon fill="#888888" points="141.75,142.25 87.251,142.25 141.75,87.75 	"/>
</g>
<path fill="#888888" d="M425.106,84.202c0.58,3.348,0.895,6.786,0.895,10.297c0,33.36-27.141,60.501-60.5,60.501
	S305,127.86,305,94.5s27.142-60.5,60.501-60.501c19.328,0,36.557,9.121,47.639,23.274l19.745-15.31
	C417.224,21.922,392.851,8.999,365.5,8.999C318.354,9,280,47.355,280,94.5s38.354,85.5,85.501,85.5
	c47.145,0,85.5-38.355,85.5-85.501c0-1.828-0.072-3.64-0.188-5.439L425.106,84.202z"/>
<path fill="#888888" d="M-475.43,131.374l-25.029,0.039l-0.154-79.364l32.581-32.582l-13.436-13.434l-32.351,32.351l-79.769,0.156
	l-0.039-25.14l-19,0.028l0.039,25.147l-25.017,0.049l0.037,19l25.009-0.049l0.115,74.01l-25.157,0.04l0.029,19l25.157-0.039
	l0.039,25.013l19-0.028l-0.039-25.014l73.992-0.114l0.049,25.16l19-0.036l-0.049-25.153l25.021-0.039L-475.43,131.374z
	 M-532.855,57.421l-60.607,60.608l-0.095-60.489L-532.855,57.421z M-580.102,131.537l60.524-60.525l0.118,60.432L-580.102,131.537z"
	/>
<g>
	<path fill="#888888" d="M177.5,176.5h-164v-164h164V176.5z M30.5,159.5h130v-130h-130V159.5z"/>
</g>
<g>
	<path fill="#888888" d="M80,79H13.5V12.5H80V79z M30.5,62H63V29.5H30.5V62z"/>
</g>
<g>
	
		<rect x="56.229" y="89.626" transform="matrix(0.7071 0.7071 -0.7071 0.7071 98.1271 -40.6446)" fill="#888888" width="83.792" height="16.999"/>
</g>
</svg>
