<?xml version="1.0" encoding="utf-8"?>
<!-- Generator: Adobe Illustrator 16.0.0, SVG Export Plug-In . SVG Version: 6.00 Build 0)  -->
<!DOCTYPE svg PUBLIC "-//W3C//DTD SVG 1.1//EN" "http://www.w3.org/Graphics/SVG/1.1/DTD/svg11.dtd">
<svg version="1.1" id="Layer_1" xmlns="http://www.w3.org/2000/svg" xmlns:xlink="http://www.w3.org/1999/xlink" x="0px" y="0px"
	 width="189px" height="189px" viewBox="0 0 189 189" enable-background="new 0 0 189 189" xml:space="preserve">
<path fill="#888888" d="M-220.5,1.438c-51.398,0-93.062,41.664-93.062,93.062c0,51.398,41.664,93.063,93.063,93.063
	s93.069-41.666,93.069-93.063c0-51.398-41.67-93.063-93.059-93.062H-220.5z M-188,52h-11.518c-4.377,0-7.498,0.953-9.021,2.782
	c-1.522,1.833-2.462,4.616-2.462,8.278V78h22.697l-2.975,22H-211v58h-24v-58h-19V78h19V60.85c0-9.46,3.146-16.797,8.438-22.013
	c5.292-5.216,12.353-7.822,21.148-7.82c7.477,0,13.414,0.309,17.414,0.914V52z"/>
<path fill="#888888" d="M450.813,89.06l-25.707-4.858c0.579,3.348,0.895,6.786,0.895,10.297c0,33.36-27.141,60.501-60.5,60.501
	S305,127.859,305,94.5c0-33.36,27.142-60.5,60.501-60.501c15.665,0,29.948,5.994,40.701,15.799l-25.036,25.036h65.668V9.166
	l-22.957,22.957C408.587,17.796,388.06,8.999,365.5,8.999C318.354,9,280,47.355,280,94.5c0,47.145,38.354,85.5,85.501,85.5
	c47.146,0,85.5-38.355,85.5-85.501C451.001,92.671,450.929,90.859,450.813,89.06z"/>
<g>
	<polygon fill="#888888" points="176.999,72 130.334,72 176.999,25.333 	"/>
</g>
<path fill="#888888" d="M-475.43,131.374l-25.029,0.039l-0.154-79.364l32.581-32.582l-13.436-13.434l-32.351,32.351l-79.769,0.156
	l-0.039-25.14l-19,0.028l0.039,25.147l-25.017,0.049l0.037,19l25.009-0.049l0.115,74.01l-25.157,0.04l0.029,19l25.157-0.039
	l0.039,25.014l19-0.029l-0.039-25.014l73.992-0.113l0.049,25.16l19-0.037l-0.049-25.152l25.021-0.039L-475.43,131.374z
	 M-532.855,57.421l-60.607,60.608l-0.095-60.489L-532.855,57.421z M-580.102,131.537l60.524-60.525l0.118,60.431L-580.102,131.537z"
	/>
<path fill="#888888" d="M584.666,12.5h-66.5V79v97.5h164v-164H584.666z M535.166,29.5h32.5V62h-32.5V29.5z M665.166,159.5h-130V79
	h36.488l41.757,41.757l-21.493,21.493h54.498v-54.5l-20.985,20.986l-40.765-40.764V29.5h80.5V159.5z"/>
<g>
	<path fill="#888888" d="M95,176H10V13h85V176z M28,158h49V31H28V158z"/>
</g>
<g>
	<g>
		<rect x="94.001" y="91" fill="#888888" width="9" height="18"/>
	</g>
	<g>
		<path fill="#888888" d="M153.001,109h-18V91h18V109z M128.001,109h-18V91h18V109z"/>
	</g>
	<g>
		<rect x="160.001" y="91" fill="#888888" width="18" height="18"/>
	</g>
	<g>
		<path fill="#888888" d="M178.001,151.982h-18v-15.475h18V151.982z M178.001,130.491h-18v-15.474h18V130.491z"/>
	</g>
	<g>
		<rect x="160.001" y="158" fill="#888888" width="18" height="18"/>
	</g>
	<g>
		<path fill="#888888" d="M153.001,176h-18v-18h18V176z M128.001,176h-18v-18h18V176z"/>
	</g>
	<g>
		<rect x="94.001" y="158" fill="#888888" width="9" height="18"/>
	</g>
</g>
<g>
	<g>
		<path fill="#888888" d="M109.333,40.822c17.625,1.205,33.194,9.99,43.474,23.117l19.745-15.309
			c-14.86-19.018-37.567-31.617-63.219-32.855V40.822z"/>
	</g>
</g>
<g>
	<path fill="#888888" d="M-306.641,507.07h-11.497c-21.918,0-39.75-17.831-39.75-39.749v-80.494c0-21.918,17.832-39.75,39.75-39.75
		h11.497c21.918,0,39.75,17.832,39.75,39.75v80.494C-266.891,489.239-284.722,507.07-306.641,507.07z M-318.138,369.077
		c-9.788,0-17.75,7.963-17.75,17.75v80.494c0,9.787,7.962,17.749,17.75,17.749h11.497c9.788,0,17.75-7.962,17.75-17.749v-80.494
		c0-9.787-7.962-17.75-17.75-17.75H-318.138z"/>
</g>
<path fill="#888888" d="M-288.891,518.312v42.006c0,9.787-7.962,17.749-17.75,17.749h-11.497c-9.788,0-17.75-7.962-17.75-17.749
	v-80.494c0-9.787,7.962-17.75,17.75-17.75h11.497c1.608,0,3.159,0.234,4.641,0.637v-22.356c-1.523-0.179-3.07-0.28-4.641-0.28
	h-11.497c-21.918,0-39.75,17.832-39.75,39.75v80.494c0,21.918,17.832,39.749,39.75,39.749h11.497
	c21.918,0,39.75-17.831,39.75-39.749v-51.171C-275.152,514.913-283.66,517.318-288.891,518.312z"/>
<path fill="#888888" d="M-160.891,518.312v42.006c0,9.787-7.962,17.749-17.75,17.749h-11.497c-9.788,0-17.75-7.962-17.75-17.749
	v-80.494c0-9.787,7.962-17.75,17.75-17.75h11.497c1.608,0,3.159,0.234,4.641,0.637v-22.356c-1.523-0.179-3.07-0.28-4.641-0.28
	h-11.497c-21.918,0-39.75,17.832-39.75,39.75v80.494c0,21.918,17.832,39.749,39.75,39.749h11.497
	c21.918,0,39.75-17.831,39.75-39.749v-51.171C-147.152,514.913-155.66,517.318-160.891,518.312z"/>
<path fill="#888888" d="M-207.888,427.494v-42.006c0-9.787,7.962-17.749,17.75-17.749h11.497c9.788,0,17.75,7.962,17.75,17.749
	v80.494c0,9.787-7.962,17.75-17.75,17.75h-11.497c-1.608,0-3.159-0.234-4.641-0.637v22.356c1.523,0.179,3.07,0.28,4.641,0.28h11.497
	c21.918,0,39.75-17.832,39.75-39.75v-80.494c0-21.918-17.832-39.749-39.75-39.749h-11.497c-21.918,0-39.75,17.831-39.75,39.749
	v51.171C-221.626,430.893-213.118,428.487-207.888,427.494z"/>
</svg>
