<?xml version="1.0" encoding="utf-8"?>
<!-- Generator: Adobe Illustrator 16.0.0, SVG Export Plug-In . SVG Version: 6.00 Build 0)  -->
<!DOCTYPE svg PUBLIC "-//W3C//DTD SVG 1.1//EN" "http://www.w3.org/Graphics/SVG/1.1/DTD/svg11.dtd">
<svg version="1.1" id="Layer_1" xmlns="http://www.w3.org/2000/svg" xmlns:xlink="http://www.w3.org/1999/xlink" x="0px" y="0px"
	 width="189px" height="189px" viewBox="0 0 189 189" enable-background="new 0 0 189 189" xml:space="preserve">
<g>
	<polygon fill="#888888" points="176.999,72 130.334,72 176.999,25.333 	"/>
</g>
<g>
	<path fill="#888888" d="M95,176H10V13h85V176z M28,158h49V31H28V158z"/>
</g>
<g>
	<g>
		<rect x="94.001" y="91" fill="#888888" width="9" height="18"/>
	</g>
	<g>
		<path fill="#888888" d="M153.001,109h-18V91h18V109z M128.001,109h-18V91h18V109z"/>
	</g>
	<g>
		<rect x="160.001" y="91" fill="#888888" width="18" height="18"/>
	</g>
	<g>
		<path fill="#888888" d="M178.001,151.982h-18v-15.476h18V151.982z M178.001,130.491h-18v-15.474h18V130.491z"/>
	</g>
	<g>
		<rect x="160.001" y="158" fill="#888888" width="18" height="18"/>
	</g>
	<g>
		<path fill="#888888" d="M153.001,176h-18v-18h18V176z M128.001,176h-18v-18h18V176z"/>
	</g>
	<g>
		<rect x="94.001" y="158" fill="#888888" width="9" height="18"/>
	</g>
</g>
<g>
	<g>
		<path fill="#888888" d="M109.333,40.822c17.625,1.205,33.194,9.99,43.474,23.117l19.745-15.309
			c-14.86-19.018-37.567-31.617-63.219-32.855V40.822z"/>
	</g>
</g>
</svg>
