<?xml version="1.0" encoding="utf-8"?>
<!-- Generator: Adobe Illustrator 16.0.0, SVG Export Plug-In . SVG Version: 6.00 Build 0)  -->
<!DOCTYPE svg PUBLIC "-//W3C//DTD SVG 1.1//EN" "http://www.w3.org/Graphics/SVG/1.1/DTD/svg11.dtd">
<svg version="1.1" id="Layer_1" xmlns="http://www.w3.org/2000/svg" xmlns:xlink="http://www.w3.org/1999/xlink" x="0px" y="0px"
	 width="189px" height="189px" viewBox="0 0 189 189" enable-background="new 0 0 189 189" xml:space="preserve">
<path fill="#888888" d="M179.813,89.06l-25.705-4.858c0.58,3.348,0.894,6.786,0.894,10.297c0,33.36-27.142,60.501-60.5,60.501
	C61.141,155,34,127.859,34,94.5C34,61.14,61.141,34,94.5,33.999c15.665,0,29.949,5.994,40.701,15.8l-25.035,25.035h65.668V9.166
	l-22.957,22.958C137.587,17.796,117.059,8.999,94.5,8.999C47.356,9,9,47.355,9,94.5C9,141.645,47.355,180,94.5,180
	c47.145,0,85.5-38.355,85.5-85.501C180,92.671,179.927,90.859,179.813,89.06z"/>
</svg>
