<?xml version="1.0" encoding="utf-8"?>
<!-- Generator: Adobe Illustrator 16.0.0, SVG Export Plug-In . SVG Version: 6.00 Build 0)  -->
<!DOCTYPE svg PUBLIC "-//W3C//DTD SVG 1.1//EN" "http://www.w3.org/Graphics/SVG/1.1/DTD/svg11.dtd">
<svg version="1.1" id="Layer_1" xmlns="http://www.w3.org/2000/svg" xmlns:xlink="http://www.w3.org/1999/xlink" x="0px" y="0px"
	 width="189px" height="189px" viewBox="0 0 189 189" enable-background="new 0 0 189 189" xml:space="preserve">
<path fill="#888888" d="M-220.5,1.438c-51.398,0-93.062,41.665-93.062,93.062s41.664,93.063,93.063,93.063
	c51.399,0,93.069-41.666,93.069-93.063c0-51.398-41.67-93.063-93.059-93.062H-220.5z M-188,52h-11.518
	c-4.377,0-7.498,0.953-9.021,2.782c-1.522,1.833-2.462,4.616-2.462,8.279V78h22.697l-2.975,22H-211v58h-24v-58h-19V78h19V60.85
	c0-9.46,3.146-16.797,8.438-22.013s12.353-7.822,21.148-7.82c7.477,0,13.414,0.308,17.414,0.914V52z"/>
<polygon fill="#888888" points="175.834,74.834 110.166,74.834 175.834,9.166 "/>
<path fill="#888888" d="M154.107,84.202c0.58,3.348,0.894,6.786,0.894,10.297c0,33.36-27.141,60.501-60.5,60.501
	C61.141,155,34,127.86,34,94.5s27.141-60.5,60.5-60.501c19.328,0,36.556,9.121,47.639,23.274l19.745-15.309
	C146.223,21.922,121.85,8.999,94.5,8.999C47.356,9,9,47.355,9,94.5s38.355,85.5,85.5,85.5c47.145,0,85.5-38.355,85.5-85.501
	c0-1.828-0.073-3.64-0.188-5.439L154.107,84.202z"/>
</svg>
