<?xml version="1.0" encoding="utf-8"?>
<!-- Generator: Adobe Illustrator 16.0.0, SVG Export Plug-In . SVG Version: 6.00 Build 0)  -->
<!DOCTYPE svg PUBLIC "-//W3C//DTD SVG 1.1//EN" "http://www.w3.org/Graphics/SVG/1.1/DTD/svg11.dtd">
<svg version="1.1" id="Layer_1" xmlns="http://www.w3.org/2000/svg" xmlns:xlink="http://www.w3.org/1999/xlink" x="0px" y="0px"
	 width="189px" height="189px" viewBox="0 0 189 189" enable-background="new 0 0 189 189" xml:space="preserve">
<g>
	<g>
		<path fill="#888888" d="M79.972,145.095l50.592-50.59L79.972,43.913v22.621H27.616v54.014h52.355V145.095z"/>
	</g>
	<g>
		<polygon fill="#888888" points="161.384,174.882 110.256,174.882 110.256,155.882 142.384,155.882 142.384,30.785 110.256,30.785 
			110.256,11.785 161.384,11.785 		"/>
	</g>
</g>
<g>
	<polygon fill="#888888" points="-416.512,140.298 -451.367,115.724 -472.96,128.161 -472.965,159.207 -386.542,159.223 
		-386.54,117.557 	"/>
	<path fill="#888888" d="M-472.957,70.277l-0.004,47.303l23.357-13.382l33.569,23.304l29.495-22.146l0.004-35.061L-472.957,70.277z
		 M-428.508,105.926c-7.75-0.002-14.035-6.289-14.035-14.047c0-7.754,6.287-14.039,14.037-14.037
		c7.756,0.003,14.04,6.292,14.038,14.044C-414.468,99.644-420.755,105.927-428.508,105.926z"/>
</g>
<path fill="#888888" d="M-375.655,179h-108.189c-5.6,0-10.155-4.556-10.155-10.155V60.655c0-5.6,4.556-10.155,10.155-10.155h108.189
	c5.6,0,10.155,4.556,10.155,10.155v108.189C-365.5,174.444-370.056,179-375.655,179z M-481,166h102.5V63.5H-481V166z"/>
<path fill="#888888" d="M-429.957,28.277l-0.001,12.223h34.029c2.569-2.854,6.281-4.66,10.423-4.658
	c4.156,0.002,7.878,1.818,10.448,4.688c10.835,0.319,19.558,9.213,19.558,20.125v11.681l11.961-8.98l0.004-35.061L-429.957,28.277z"
	/>
<polygon fill="#888888" points="-355.5,84.631 -355.5,117.221 -343.542,117.223 -343.54,75.557 "/>
<path fill="#888888" d="M-332.655,8.5h-108.189c-5.6,0-10.155,4.556-10.155,10.155V40.5h13v-19h102.5V124h-20v13h22.845
	c5.6,0,10.155-4.556,10.155-10.155V18.655C-322.5,13.056-327.056,8.5-332.655,8.5z"/>
</svg>
