<?xml version="1.0" encoding="utf-8"?>
<!-- Generator: Adobe Illustrator 16.0.0, SVG Export Plug-In . SVG Version: 6.00 Build 0)  -->
<!DOCTYPE svg PUBLIC "-//W3C//DTD SVG 1.1//EN" "http://www.w3.org/Graphics/SVG/1.1/DTD/svg11.dtd">
<svg version="1.1" id="Layer_1" xmlns="http://www.w3.org/2000/svg" xmlns:xlink="http://www.w3.org/1999/xlink" x="0px" y="0px"
	 width="189px" height="189px" viewBox="0 0 189 189" enable-background="new 0 0 189 189" xml:space="preserve">
<g>
	<path fill="#888888" d="M11.002,25.333V72h46.665L42.142,56.475c9.792-8.925,22.502-14.694,36.526-15.653V15.775
		c-20.915,1.01-39.872,9.574-54.214,23.01L11.002,25.333z"/>
	<path fill="#888888" d="M93.001,13v78H85v18h8.001v49H85v18h8.001H94h84.001V13H93.001z M160.001,158h-49V31h49V158z"/>
	<rect x="35" y="91" fill="#888888" width="18" height="18"/>
	<rect x="60" y="91" fill="#888888" width="18" height="18"/>
	<rect x="10" y="91" fill="#888888" width="18" height="18"/>
	<rect x="10" y="136.507" fill="#888888" width="18" height="15.476"/>
	<rect x="10" y="115.018" fill="#888888" width="18" height="15.475"/>
	<rect x="10" y="158" fill="#888888" width="18" height="18"/>
	<rect x="35" y="158" fill="#888888" width="18" height="18"/>
	<rect x="60" y="158" fill="#888888" width="18" height="18"/>
</g>
</svg>
