<?xml version="1.0" encoding="utf-8"?>
<!-- Generator: Adobe Illustrator 16.0.0, SVG Export Plug-In . SVG Version: 6.00 Build 0)  -->
<!DOCTYPE svg PUBLIC "-//W3C//DTD SVG 1.1//EN" "http://www.w3.org/Graphics/SVG/1.1/DTD/svg11.dtd">
<svg version="1.1" id="Layer_1" xmlns="http://www.w3.org/2000/svg" xmlns:xlink="http://www.w3.org/1999/xlink" x="0px" y="0px"
	 width="189px" height="189px" viewBox="0 0 189 189" enable-background="new 0 0 189 189" xml:space="preserve">
<path fill="#888888" d="M-220.5,1.438c-51.398,0-93.062,41.665-93.062,93.062c0,51.396,41.664,93.063,93.063,93.063
	s93.069-41.666,93.069-93.063c0-51.398-41.67-93.063-93.059-93.062H-220.5z M-188,52h-11.518c-4.377,0-7.498,0.953-9.021,2.782
	c-1.522,1.833-2.462,4.616-2.462,8.279V78h22.697l-2.975,22H-211v58h-24v-58h-19V78h19V60.85c0-9.46,3.146-16.797,8.438-22.013
	s12.353-7.822,21.148-7.82c7.477,0,13.414,0.308,17.414,0.914V52z"/>
<polygon fill="#888888" points="474.834,74.834 409.166,74.834 474.834,9.166 "/>
<path fill="#888888" d="M453.107,84.202c0.58,3.348,0.894,6.786,0.894,10.297c0,33.36-27.142,60.501-60.5,60.501
	C360.141,155,333,127.859,333,94.5c0-33.36,27.141-60.5,60.5-60.501c19.328,0,36.557,9.121,47.639,23.274l19.745-15.309
	C445.223,21.922,420.85,8.999,393.5,8.999C346.355,9,308,47.355,308,94.5c0,47.145,38.355,85.5,85.5,85.5S479,141.645,479,94.499
	c0-1.828-0.073-3.64-0.188-5.439L453.107,84.202z"/>
<path fill="#888888" d="M95,3.215c-40.189,0-72.769,32.58-72.769,72.77C22.231,122.119,95,185.139,95,185.139
	s72.769-63.201,72.769-109.154C167.769,35.794,135.189,3.215,95,3.215z M95,100.879c-18.508,0-33.512-15.004-33.512-33.512
	c0-18.509,15.004-33.513,33.512-33.513c18.508,0,33.513,15.004,33.513,33.513C128.513,85.875,113.508,100.879,95,100.879z"/>
</svg>
