<svg xmlns="http://www.w3.org/2000/svg" width="199" height="189" viewBox="0 0 199 189"><path fill="#888" d="M122.742 114.18c20.775-1.076 37.726-8.158 50.453-21.152C199.675 66 197.727 23.51 197.632 21.716l-.38-7.1H165.36c.333-4.312.508-8.597.508-12.82 0-.592-.022-1.16-.03-1.746H33.162c-.007.585-.03 1.153-.03 1.746 0 4.224.176 8.508.51 12.82H1.748l-.38 7.1c-.095 1.794-2.04 44.28 24.44 71.31 12.73 12.995 29.675 20.077 50.452 21.15 4.99 3.944 10.266 6.726 15.742 8.073v51.7H64.255v15h72v-15H107v-51.7c5.477-1.35 10.752-4.13 15.742-8.07zm59.815-84.563c-.63 11.973-3.966 36.47-20.076 52.915-6.46 6.595-14.43 11.264-23.85 13.982 12-17.667 20.94-42.083 24.94-66.896h19zm-166.097 0h18.978c3.99 24.813 12.932 49.23 24.93 66.895-9.382-2.71-17.338-7.354-23.79-13.92-16.085-16.37-19.462-40.967-20.118-52.975z"/></svg>