<svg xmlns="http://www.w3.org/2000/svg" width="189" height="189" viewBox="0 0 189 189"><path d="M186 88.19c0-7.732-6.268-14-14-14-7.73 0-14 6.268-14 14 0 5.473 3.146 10.2 7.725 12.5l-8.758 17-9.486-50.585c5.8-1.715 10.03-7.068 10.03-13.416 0-7.74-6.27-14-14-14s-14 6.26-14 14c0 4.98 2.62 9.35 6.55 11.83l-17.4 28.17-17.36-44.58 14.43-14.43L94.5 13.47 73.287 34.69l14.425 14.426-17.36 44.573-17.396-28.17c3.928-2.48 6.544-6.85 6.544-11.84 0-7.73-6.268-14-14-14-7.73 0-14 6.27-14 14 0 6.35 4.23 11.7 10.02 13.41l-9.485 50.58-8.758-17C27.853 98.39 31 93.66 31 88.19c0-7.73-6.27-14-14-14s-14 6.27-14 14c0 6.702 4.712 12.294 11 13.67v45.83h161v-45.83c6.29-1.374 11-6.967 11-13.67zm-91.5 40.5c-6.902 0-12.5-5.6-12.5-12.5 0-6.903 5.598-12.5 12.5-12.5 6.903 0 12.5 5.597 12.5 12.5 0 6.9-5.598 12.5-12.5 12.5zM14 160.523h161v15H14z" fill="#888"/></svg>