<svg xmlns="http://www.w3.org/2000/svg" width="189" height="189" viewBox="0 0 189 189"><path d="M123.457 110.843l49.072-35.24c3.06-1.29 5.85-3.126 8.25-5.525.39-.398.78-.807 1.14-1.226l1.47-1.056c-.02-.004-.04-.01-.06-.012-.45.36-.92.7-1.39 1.03 11.41-13.077 7.86-36.084-8.4-52.34-16.8-16.8-40.8-20.03-53.61-7.22-2.7 2.7-4.68 5.902-5.98 9.425l-27.2 37.93c-3.3-1.87-18.87-11.87-10.45-30.51 0 0-17.6 3.35-20.61 19.1 0 0 10.54 16.36 30.67 11.95l-7.45 10.38c7.21 29.53 32.7 39.99 44.54 43.31zm.28-84.716c7.47-1.18 16.816 1.68 24.813 7.99L131.754 50.91c-6.298-7.982-9.18-17.32-8.018-24.783zm41.788-1.612c12.125 12.125 15.43 29.306 7.217 37.52-7.208 7.206-21.318 5.542-32.86-3.165l16.626-16.627 7.593-7.592.52-.51c-1.26-1.58-2.63-3.11-4.11-4.59-8.61-8.61-19.11-13.64-29.03-14.78 8.96-4.71 23.45-.85 34.06 9.76zm-94.87 156l.015.015.146-.148c.593-.493 1.174-1.006 1.726-1.558.55-.55 1.063-1.132 1.556-1.724l33.31-50.805C95.38 122.832 70.456 112.26 63.33 83.113l15.583-15.58C50.326 72.213 38.35 34.117 38.35 34.117l-3.166 28.976-16.556-5.846c4.68 25.747 26.027 31.345 34.34 32.554L14.36 115.03l-.105-.107c-1.067.778-2.086 1.63-3.04 2.58-12.916 12.918-9.657 37.115 7.278 54.05 16.145 16.144 38.884 19.847 52.163 8.968z" fill="#888" stroke="#888" stroke-miterlimit="10"/></svg>