<svg xmlns="http://www.w3.org/2000/svg" width="189" height="189" viewBox="0 0 189 189"><path d="M60.68 185.367c2.08-4.06 3.252-8.33 2.745-12.547-1.48-12.358-24.142-29.73-52.28-39.7L78.6 87.378c-1.904-1.208-3.78-2.35-5.64-3.344-2.342-1.298-4.617-2.42-6.74-3.394-.713-.332-1.4-.633-2.08-.923l-51.064 33.25.034-.118c-13.57 14.37-9.543 40.22 8.994 57.71 11.56 10.91 26.027 16 38.576 14.8zm25.516-92.61l-48.43 34.592c26.73 11.75 41.273 26.31 43.295 43.42.15 1.23.22 2.47.23 3.68l29.36-51.12c-.41-.87-.85-1.73-1.28-2.63-.54-1.19-1.23-2.33-1.89-3.53-.34-.59-.65-1.21-1.02-1.8l-1.13-1.78c-.39-.6-.74-1.22-1.16-1.8-.41-.59-.83-1.18-1.26-1.77-.81-1.21-1.76-2.36-2.68-3.52-.89-1.2-1.94-2.29-2.92-3.44-1-1.14-2.09-2.21-3.13-3.32-2.19-2.12-4.43-4.22-6.81-6.09-.38-.32-.76-.62-1.14-.92zm61.55-70.753L102.11 65.186l20.2-61.726c-5.182 1.44-9.832 4.103-13.55 8.04l.163-.095L81.448 60.35c1.144.582 2.303 1.188 3.48 1.836 2.936 1.57 5.93 3.426 8.99 5.403 3.02 2.05 6.114 4.22 9.09 6.66 3.02 2.39 5.91 5.06 8.737 7.79 1.362 1.42 2.762 2.81 4.067 4.28 1.278 1.49 2.63 2.91 3.812 4.47 1.21 1.52 2.437 3.02 3.52 4.6.56.77 1.107 1.55 1.652 2.32.552.76 1.027 1.57 1.535 2.35.5.78 1 1.56 1.49 2.33.48.73.88 1.51 1.31 2.25l46.94-29.9-.04-.05c13.42-14.41 9.36-40.14-9.11-57.58-6.15-5.81-13.14-9.96-20.21-12.4L147.76 22z" fill="#888"/></svg>