<?xml version="1.0" encoding="utf-8"?>
<!-- Generator: Adobe Illustrator 16.0.0, SVG Export Plug-In . SVG Version: 6.00 Build 0)  -->
<!DOCTYPE svg PUBLIC "-//W3C//DTD SVG 1.1//EN" "http://www.w3.org/Graphics/SVG/1.1/DTD/svg11.dtd">
<svg version="1.1" id="Layer_1" xmlns="http://www.w3.org/2000/svg" xmlns:xlink="http://www.w3.org/1999/xlink" x="0px" y="0px"
	 width="189px" height="189px" viewBox="0 0 189 189" enable-background="new 0 0 189 189" xml:space="preserve">
<g>
	<path fill="#888888" stroke="#888888" stroke-miterlimit="10" d="M123.457,110.843l49.072-35.24
		c3.064-1.291,5.857-3.126,8.256-5.525c0.396-0.398,0.78-0.807,1.146-1.226l1.472-1.056c-0.019-0.004-0.038-0.009-0.057-0.012
		c-0.45,0.361-0.912,0.701-1.382,1.029c11.408-13.076,7.86-36.083-8.396-52.34C156.77-0.324,132.771-3.555,119.961,9.255
		c-2.699,2.7-4.678,5.902-5.977,9.425L86.753,56.61c-3.301-1.865-18.87-11.867-10.453-30.502c0,0-17.594,3.35-20.61,19.101
		c0,0,10.548,16.362,30.671,11.95l-7.448,10.374C86.131,97.066,111.618,107.524,123.457,110.843z M123.736,26.127
		c7.471-1.181,16.817,1.679,24.814,7.989l-16.796,16.795C125.456,42.928,122.573,33.591,123.736,26.127z M165.525,24.515
		c12.125,12.125,15.43,29.306,7.217,37.52c-7.208,7.206-21.318,5.542-32.861-3.165l16.627-16.627l7.593-7.592l0.513-0.513
		c-1.267-1.579-2.636-3.117-4.115-4.597c-8.612-8.611-19.113-13.639-29.032-14.784C140.423,10.045,154.91,13.901,165.525,24.515z"/>
	<path fill="#888888" stroke="#888888" stroke-miterlimit="10" d="M70.655,180.515l0.015,0.015l0.146-0.148
		c0.593-0.493,1.174-1.006,1.726-1.558c0.551-0.551,1.063-1.132,1.556-1.724l33.31-50.805
		c-12.028-3.463-36.952-14.034-44.077-43.182l15.582-15.581c-28.587,4.683-40.562-33.414-40.562-33.414l-3.167,28.976l-16.556-5.846
		c4.681,25.747,26.027,31.345,34.341,32.554l-38.608,25.222l-0.107-0.107c-1.067,0.778-2.086,1.629-3.039,2.581
		c-12.917,12.917-9.658,37.114,7.277,54.05C34.637,187.691,57.376,191.394,70.655,180.515z"/>
</g>
</svg>
