<svg xmlns="http://www.w3.org/2000/svg" width="175" height="189" viewBox="0 0 175 189"><path fill="#888" d="M68.19 58.815c-5.284-14.297-3.48-29.51 3.63-41.758-8.15 3.616-15.17 10.042-19.185 18.76-7.034 15.288-2.713 33.017 8.61 43.7L45.41 113.935l-16.755-7.713-9.253 20.104 16.753 7.71-10.022 21.778-15.077-6.938L1.8 168.98l35.183 16.193L81.2 89.1c5.688.868 11.49.476 16.794-1.13C84.398 83.146 73.29 72.615 68.19 58.816zm68.455 13.567c13.108-9.75 19.125-27.536 13.142-43.728C142.525 9.012 120.69-1.08 101.05 6.18c-19.64 7.26-29.674 29.13-22.416 48.772 5.835 15.784 21.566 25.214 37.132 24.76l13.02 35.23-18.162 6.716 7.673 20.758 18.16-6.712 8.315 22.485-16.437 6.07 7.673 20.76 37.192-13.74-36.555-98.9zm-37.01-25.19c-2.982-8.068 1.154-17.06 9.223-20.04 8.066-2.98 17.06 1.154 20.037 9.222 2.98 8.067-1.158 17.056-9.223 20.04s-17.056-1.156-20.037-9.222z"/></svg>