<?xml version="1.0" encoding="utf-8"?>
<!-- Generator: Adobe Illustrator 16.0.0, SVG Export Plug-In . SVG Version: 6.00 Build 0)  -->
<!DOCTYPE svg PUBLIC "-//W3C//DTD SVG 1.1//EN" "http://www.w3.org/Graphics/SVG/1.1/DTD/svg11.dtd">
<svg version="1.1" id="Layer_1" xmlns="http://www.w3.org/2000/svg" xmlns:xlink="http://www.w3.org/1999/xlink" x="0px" y="0px"
	 width="175px" height="189px" viewBox="0 0 175 189" enable-background="new 0 0 175 189" xml:space="preserve">
<g>
	<path fill="#888888" d="M71.896,168.277c-0.252,1.13-0.396,2.297-0.396,3.5c0,8.836,7.163,16,16,16s16-7.164,16-16
		c0-1.203-0.146-2.37-0.396-3.5H71.896z"/>
	<path fill="#888888" d="M131.89,56.508c-0.002-0.003-0.004-0.006-0.006-0.009l41.001-41.011L162.66,5.267l-40.012,40.021
		C112.917,36.302,102.146,33.425,95,32.518V16.223h7.98v-15H72.02v15H80V32.63c-15.51,2.225-46.108,13.752-49.084,72.479
		c0,0,1.956,19.886-16.916,33h-2.98v15h3.828L3.076,164.884l10.229,10.224l21.993-21.998h0.01L131.89,56.508z"/>
	<path fill="#888888" d="M161.77,138.109c-18.871-13.114-16.853-33-16.853-33c-0.718-14.173-3.046-25.593-6.381-34.801
		l-82.781,82.801H163.98v-15h-2.207H161.77z"/>
</g>
</svg>
