<svg xmlns="http://www.w3.org/2000/svg" width="175" height="189" viewBox="0 0 175 189"><path d="M71.896 168.277c-.252 1.13-.396 2.297-.396 3.5 0 8.836 7.163 16 16 16s16-7.164 16-16c0-1.203-.146-2.37-.396-3.5H71.896zm59.994-111.77l-.006-.01 41-41.01-10.224-10.22-40.012 40.02c-9.73-8.985-20.502-11.862-27.648-12.77V16.224h7.98v-15H72.02v15H80V32.63c-15.51 2.225-46.108 13.752-49.084 72.48 0 0 1.956 19.885-16.916 33h-2.98v15h3.828L3.076 164.883l10.23 10.224 21.992-21.998h.01L131.89 56.5zm29.88 81.603c-18.87-13.115-16.853-33-16.853-33-.718-14.174-3.046-25.594-6.38-34.802l-82.782 82.8H163.98v-15h-2.21z" fill="#888"/></svg>