<?xml version="1.0" encoding="utf-8"?>
<!-- Generator: Adobe Illustrator 16.0.0, SVG Export Plug-In . SVG Version: 6.00 Build 0)  -->
<!DOCTYPE svg PUBLIC "-//W3C//DTD SVG 1.1//EN" "http://www.w3.org/Graphics/SVG/1.1/DTD/svg11.dtd">
<svg version="1.1" id="Layer_1" xmlns="http://www.w3.org/2000/svg" xmlns:xlink="http://www.w3.org/1999/xlink" x="0px" y="0px"
	 width="189px" height="189px" viewBox="0 0 189 189" enable-background="new 0 0 189 189" xml:space="preserve">
<path fill="#888888" d="M94.5,1.438C43.104,1.438,1.438,43.104,1.438,94.5c0,51.396,41.664,93.063,93.063,93.063
	c51.399,0,93.07-41.666,93.07-93.063C187.571,43.103,145.9,1.438,94.5,1.438z M94.5,15.279c11.738,0,21.254,9.516,21.254,21.254
	c0,11.739-9.516,21.254-21.254,21.254s-21.254-9.516-21.254-21.254C73.246,24.795,82.762,15.279,94.5,15.279z M126.852,165H62.148
	l0-28.966h13.918V94.278h-9.405V65.312h55.675v28.966h-9.404v41.756h13.918V165z"/>
</svg>
