<svg xmlns="http://www.w3.org/2000/svg" width="189" height="189" viewBox="0 0 189 189"><path fill="#888" d="M89.873 142.8c6.316-11.745-1.517-20.646-9.48-29.976-7.962-9.33-3.147-13.594-3.147-13.594s16.422-17.132 25.665-26.943c9.25-9.813 27.42 14.737 41.18 10.603 13.77-4.14 30.49-21.826 37.24-33.7 6.75-11.88-3.67-20.004-3.67-20.004-40.8-32.754-59.5-15.41-59.5-15.41-68.5 43.57-102.02 95.855-110.49 108.25-8.47 12.395 8.12 56.647 30.96 57.754 22.84 1.105 44.94-25.232 51.26-36.98zm60.912-75.056s-3.656 3.442-7.098 4.478c-3.44 1.033-17.474-14.445-24.354-12.377 0 .002 11.433-16.567 31.452 7.9zm-107.356 98.4c-5.16 1.55-36.07-29.49-10.36-48.478 0 0-1.92 26.37 21.49 41.844 0 0-5.98 5.078-11.14 6.633z"/></svg>