<svg xmlns="http://www.w3.org/2000/svg" width="189" height="189" viewBox="0 0 189 189"><path fill="#888" d="M142.8 99.127c-11.745-6.317-20.646 1.517-29.976 9.48-9.33 7.962-13.594 3.147-13.594 3.147S82.1 95.332 72.288 86.088c-9.813-9.242 14.737-27.41 10.603-41.172-4.14-13.763-21.82-30.486-33.7-37.232-11.88-6.748-20 3.666-20 3.666-32.75 40.8-15.41 59.503-15.41 59.503 43.58 68.5 95.86 102.022 108.25 110.49 12.4 8.47 56.65-8.12 57.76-30.963 1.11-22.84-25.23-44.936-36.98-51.253zM67.744 38.214s3.442 3.656 4.478 7.098c1.033 3.44-14.445 17.473-12.377 24.354 0 0-16.567-11.432 7.9-31.452zm98.398 107.357c1.55 5.16-29.49 36.07-48.477 10.36 0 0 26.37 1.92 41.844-21.49 0 0 5.07 5.98 6.63 11.14z"/></svg>