<svg xmlns="http://www.w3.org/2000/svg" width="189" height="189" viewBox="0 0 189 189"><path d="M133.536 171V70.025l-61.813 61.813zM119.188 63.157l-.006.006.007-.005zm-.006.006l-.665.412 42.3-42.312L150.21 10.66l-16.675 16.68v-4.136l-69.29 43.898v.05c-.552-.03-1.106-.05-1.667-.05h-9.21v40.424L38.37 122.528V67.124C22.187 67.566 9.203 67 9.203 97.104c0 27.114 10.68 29.342 24.74 29.853L15.76 145.145l10.61 10.604 28.638-28.65h.236l63.938-63.94zM64.535 79.378l44.613-27.646-44.613 44.624V79.378z" fill="#888"/></svg>