<svg xmlns="http://www.w3.org/2000/svg" width="175" height="189" viewBox="0 0 175 189"><path fill="#888" d="M155.292 78.94H122.31v-.012h-.07v-23.36H98.07V22.583h22.71c-3.963-12.41-15.586-21.4-29.31-21.4h-7.69c-16.993 0-30.77 13.775-30.77 30.77V78.93H14.792v7.212c0 37.727 28.834 68.838 65.62 72.473v14.78H47.966v14.423h79.32v-14.424h-32.45v-14.78c36.787-3.632 65.62-34.745 65.62-72.472V78.93h-5.164v.013zm-67.666 65.61c-29.767 0-54.403-22.382-57.968-51.2h23.354v4.568c0 16.992 13.776 30.77 30.77 30.77h7.688c16.99 0 30.768-13.775 30.768-30.77V93.35h23.354c-3.565 28.818-28.2 51.2-57.966 51.2zM19.958 78.928h-5.165v7.212c0 37.727 28.834 68.84 65.62 72.473v14.78h-32.45v14.423h79.324v-14.424h-32.45v-14.78c36.787-3.634 65.62-34.745 65.62-72.472v-7.212h-38.215V31.954c0-16.996-13.777-30.77-30.77-30.77H83.78c-13.723 0-25.346 8.988-29.31 21.4h22.71v32.984H53.01v23.36h-.07v.013H19.958v-.01zm9.7 14.423H53.01v4.57c0 17 13.778 30.77 30.77 30.77h7.687c16.994 0 30.77-13.78 30.77-30.77v-4.57h23.355c-3.564 28.82-28.2 51.2-57.968 51.2-29.765 0-54.4-22.38-57.967-51.2z"/></svg>