<svg xmlns="http://www.w3.org/2000/svg" width="175" height="189" viewBox="0 0 175 189"><path d="M150.533 17.536l-28.42 28.42V31.954c0-16.994-13.776-30.77-30.768-30.77H83.65c-16.99 0-30.77 13.774-30.77 30.77v46.974H14.67v7.212c0 18.667 7.065 35.708 18.656 48.605L18.65 149.42l10.607 10.605L161.14 28.143l-10.607-10.607zm-121 75.815h23.354v4.57c0 5.02 1.205 9.75 3.333 13.93l-12.677 12.68C36.05 115.96 31 105.21 29.533 93.35zm51.203 35.2c.962.09 1.935.15 2.92.15h7.69c16.988 0 30.768-13.77 30.768-30.77v-4.57h23.354c-3.563 28.82-28.2 51.2-57.967 51.2-6.81 0-13.34-1.18-19.43-3.33l-11.05 11.05c7.21 3.34 15.04 5.53 23.27 6.35v14.77H47.84v14.43h79.32V173.4H94.71v-14.78c36.788-3.634 65.622-34.746 65.622-72.473V78.93h-29.977l-49.62 49.617z" fill="#888"/></svg>