<svg xmlns="http://www.w3.org/2000/svg" width="189" height="189" viewBox="0 0 189 189"><path d="M97.94 90.248c-12.626 0-22.9 10.274-22.9 22.903 0 12.63 10.273 22.9 22.9 22.9 12.63 0 22.9-10.27 22.9-22.9 0-6.11-2.382-11.86-6.706-16.19-4.32-4.33-10.073-6.71-16.193-6.71zm42.183-2.748c5.04 7 7.283 16.576 7.283 26.19 0 27.534-23.406 49.505-50.406 49.507v-.057c-28 0-49.463-21.89-49.463-49.424 0-9.826 3.338-19.218 8.262-26.218H9v78.398c0 9.85 9.323 18.602 18.352 18.602h138.846c9.027 0 13.803-8.752 13.803-18.602V87.5h-39.87zm26.074-38H45.5l-21.25-.08C16.25 50.503 9 57.737 9 66.84v6.66h59.432c8.273-6 18.478-9.687 29.512-9.687 10.785 0 21.047 3.688 29.564 9.688H180v-6.66c0-9.84-4.775-17.34-13.803-17.34zm1.803 18h-33v-11h33v11zm-31.186-33l-2.314-12c0-9.94-6.006-18-13.416-18h-52.17c-7.408 0-13.414 8.06-13.414 18l-2.314 12h83.628z" fill="#888" stroke="#888" stroke-miterlimit="10"/></svg>