<svg xmlns="http://www.w3.org/2000/svg" width="203.5" height="193" viewBox="0 0 203.5 193"><path d="M80.54 80.648c0 12.628 10.274 22.903 22.9 22.903 12.63 0 22.9-10.27 22.9-22.9 0-6.11-2.38-11.87-6.704-16.19-4.326-4.32-10.076-6.71-16.195-6.71-12.62 0-22.9 10.28-22.9 22.91zm47.71 72.052c28.055-9.884 48.56-35.77 50.568-66.7h-36.713c-2.674 18.934-18.937 33.5-38.605 33.5S67.567 104.934 64.894 86H27.182c2.023 31.113 22.76 57.117 51.068 66.868V174h-44v15h138v-15h-44v-21.3zM103.5 41.5c18.262 0 33.586 12.553 37.83 29.5h36.994C173.426 33.756 141.582 5 103 5S32.574 33.756 27.676 71H65.67c4.244-16.947 19.568-29.5 37.83-29.5z" fill="#888"/></svg>