<svg xmlns="http://www.w3.org/2000/svg" width="189" height="189" viewBox="0 0 189 189"><g fill="#888"><path d="M94.5 1.5c-51.362 0-93 41.638-93 93s41.638 93 93 93 93-41.638 93-93-41.638-93-93-93zm44.8 113.914l9.76-9.752.003 43.617-43.625-.01L116 138.69l-21.51-21.51-21.512 21.51 10.582 10.585H39.94l-.004-43.616 9.755 9.76L70.61 94.5 49.69 73.587l-9.75 9.752-.004-43.62H83.56L72.975 50.3l21.527 21.525 21.523-21.523-10.586-10.58h43.62v43.615l-9.75-9.754-20.93 20.927 20.91 20.9z"/><path d="M73.917 94.5l20.572 20.568 20.58-20.582L94.5 73.92"/></g></svg>