<svg xmlns="http://www.w3.org/2000/svg" width="189" height="189" viewBox="0 0 189 189"><path fill="#888" d="M94.5 1.5c-51.362 0-93 41.638-93 93s41.638 93 93 93 93-41.638 93-93-41.638-93-93-93zM74.32 139.347l-22.57 22.57-23.29-23.284 22.572-22.57-10.585-10.58H84.07l.004 43.616-9.754-9.76zM40.453 84.685l10.582-10.58-22.575-22.57L51.746 28.25 74.32 50.817l9.752-9.752.003 43.618H40.453zm96.3 77.232l-22.573-22.57-9.752 9.752-.004-43.62h43.623l-10.583 10.58 22.576 22.57-23.287 23.28zm.717-87.813l10.585 10.57h-43.623l-.004-43.61 9.752 9.754 22.57-22.57 23.29 23.287-22.57 22.57z"/></svg>