<?xml version="1.0" encoding="utf-8"?>
<!-- Generator: Adobe Illustrator 16.0.0, SVG Export Plug-In . SVG Version: 6.00 Build 0)  -->
<!DOCTYPE svg PUBLIC "-//W3C//DTD SVG 1.1//EN" "http://www.w3.org/Graphics/SVG/1.1/DTD/svg11.dtd">
<svg version="1.1" id="Layer_1" xmlns="http://www.w3.org/2000/svg" xmlns:xlink="http://www.w3.org/1999/xlink" x="0px" y="0px"
	 width="189px" height="189px" viewBox="0 0 189 189" enable-background="new 0 0 189 189" xml:space="preserve">
<path fill="#888888" d="M94.5,1.5c-51.362,0-93,41.638-93,93s41.638,93,93,93s93-41.638,93-93S145.862,1.5,94.5,1.5z M74.32,139.347
	l-22.57,22.57l-23.29-23.284l22.572-22.569l-10.585-10.582H84.07l0.004,43.617L74.32,139.347z M40.453,84.685l10.582-10.58
	L28.46,51.535l23.286-23.286L74.32,50.818l9.752-9.752l0.003,43.618H40.453z M136.753,161.917l-22.573-22.57l-9.752,9.752
	l-0.004-43.617l43.623,0.002l-10.583,10.58l22.576,22.569L136.753,161.917z M137.47,74.104l10.585,10.571h-43.623l-0.004-43.61
	l9.752,9.753l22.57-22.569l23.29,23.286L137.47,74.104z"/>
</svg>
