<svg xmlns="http://www.w3.org/2000/svg" width="190" height="195" viewBox="0 0 190 195"><path d="M189.452 81.896L77.06 81.9l.003 111.686 36.633-36.406 22.83 37.148 51.81-51.81-37.005-22.74zm-123.848 31.56c-11-5.96-18.104-17.603-18.104-30.97 0-19.416 15.992-35.21 35.408-35.21 15.43 0 28.662 10.325 33.408 24.165.063.05.223.48.282.48h10.963c-5.03-20-23.04-34.97-44.45-34.97-25.3 0-46.27 20.41-46.27 45.71 0 19.41 11.78 35.85 28.78 42.54v-11.74h.01zm0 20.062c-22-7.047-36.6-27.252-36.6-51.032 0-29.613 24.29-53.36 53.904-53.36 25.752 0 47.52 18.796 52.71 42.796h10.88c-5.345-30-31.734-53.466-63.395-53.466-35.5 0-64.77 28.707-64.77 64.205 0 29.72 19.27 54.62 47.27 62v-11.14zm0 18.48c-32-7.545-54.384-35.846-54.384-69.512 0-39.42 32.27-71.144 71.688-71.144 35.59 0 65.383 26.58 70.8 60.58h10.784c-5.51-40-39.902-71.25-81.39-71.25C37.798.672.547 37.357.547 82.662c0 39.578 28.055 72.53 65.055 80.275l.004-10.94z" fill="#888"/></svg>