<svg xmlns="http://www.w3.org/2000/svg" width="217" height="225" viewBox="0 0 217 225"><path d="M128.254 184.89c5.805 7.798 14.446 12.852 23.797 14.165 1.07 1.836 2.22 3.737 3.58 5.668.57.85 1.15 1.724 1.74 2.604.6.888 1.19 1.804 1.88 2.666 1.34 1.762 2.74 3.587 4.18 5.47 2.38 2.93 5.03 5.937 7.93 8.95 5.66-2.13 12.25-6.546 18.82-15.22-5.1-5.815-8.9-12.225-11.65-18.003.11-3.256.52-13.6 1.99-23.77.26-.674.45-1.392.48-2.155l.02-.12v-.11l-.01-.196c.03-.26.05-.67.11-1.16.38-2.13.79-4.2 1.27-6.16.25-.89.51-1.79.84-2.76.42-1.2.9-2.44 1.45-3.7.56-1.26 1.19-2.53 1.87-3.77.69-1.25 1.44-2.46 2.25-3.62.81-1.16 1.64-2.28 2.54-3.29.43-.52.89-1 1.34-1.46.44-.48.93-.9 1.38-1.33.92-.83 1.84-1.55 2.73-2.17.43-.32.89-.58 1.32-.84.43-.27.86-.49 1.27-.7.78-.45 1.58-.72 2.23-.99.68-.24 1.27-.41 1.75-.55.49-.11.88-.17 1.15-.23l.4-.07c2.76-.48 5.39-1.78 7.54-3.89 5.64-5.55 5.71-14.61.16-20.24-5.55-5.63-14.6-5.71-20.24-.17l-1.48 1.44s-.8.78-2.18 2.14c-.67.7-1.45 1.56-2.34 2.52-.83 1.01-1.79 2.12-2.74 3.38-.48.62-.97 1.27-1.44 1.97-.46.69-.97 1.38-1.42 2.12-.94 1.47-1.85 3.03-2.72 4.65-.86 1.63-1.69 3.31-2.41 5.04-.19.43-.36.86-.55 1.29l-.21.52c-.01-.01-.03-.02-.05-.03-.01.02-.04.16-.08.34-.06.16-.12.32-.19.48-.36.86-.66 1.74-.97 2.61-.32.87-.6 1.74-.89 2.61-.25.87-.52 1.73-.77 2.59-.48 1.71-.94 3.39-1.31 5.02-.05.2-.08.38-.12.57-2.08-3.09-5.88-8.01-12.09-15.43 0 0-53.31-74.91-80.26-58.69-23.94 14.42 6.58 37.69 17.82 42.47 8.77 3.73 16.82 9.14 23.67 14.71-2.38.36-7.08.97-6.94 1.26-20.07-1.27-19.18 16.2-19.18 16.2.35 6.73 4.93 10.34 4.93 10.34 2.31 2.19 4.48 3.9 6.51 5.23-12.48 8.85-4 20.01-4 20.01 3.58 4.69 8.69 5.04 8.69 5.04 9.96 1.56 15.57-.27 18.67-3.32zm-11.638-46.396c.987 1.408 1.993 2.613 3.004 3.6-3.188-.87-5.817-1.066-5.817-1.066.33-1.57 1.365-2.326 2.813-2.534zm-4.22 29.854c-.276-.666-.307-1.263-.158-1.8 1.03.253 2.016.406 2.947.45-1.673.71-2.79 1.35-2.79 1.35zM85.642 127c-4.24-2.367-10.088-6.197-15.593-11.204-12.58-5.243-21.42-17.65-21.42-32.124 0-19.215 15.57-34.792 34.79-34.792 11.75 0 22.14 5.835 28.44 14.762 5.67 3.354 11.61 7.766 17.85 13.267-3.29-22.61-22.8-40.03-46.3-40.03-25.8 0-46.79 20.99-46.79 46.79 0 25.71 20.84 46.63 46.51 46.78.72-1.17 1.54-2.33 2.49-3.46zm-7.156 21.376c-.07-1.356-.135-6.147 1.764-11.724-27.835-1.645-49.906-24.73-49.906-52.98 0-29.316 23.767-53.082 53.08-53.083 29.16 0 52.815 23.5 53.075 52.6 2.46 2.39 4.97 4.94 7.53 7.65 1.2 1.27 2.38 2.55 3.53 3.81.6-3.58.94-7.24.94-10.98 0-35.89-29.2-65.09-65.09-65.09S18.33 47.77 18.33 83.66c0 34.23 26.56 62.35 60.15 64.88 0-.06-.01-.118-.01-.178zm5.784 18.356c.15-.487.315-.984.505-1.49-1.963-2.522-4.073-6.063-5.295-10.602-37.418-2.048-67.136-33.035-67.136-70.97 0-39.26 31.826-71.083 71.08-71.084 39.264 0 71.086 31.824 71.086 71.083 0 5.71-.693 11.26-1.967 16.59 3.477 4.01 6.588 7.79 9.21 11.08 3.07-8.66 4.757-17.97 4.757-27.67 0-45.82-37.27-83.09-83.086-83.09C37.612.59.344 37.86.344 83.67c0 45.814 37.27 83.083 83.077 83.083.29.002.57-.017.85-.02z" fill="#888"/></svg>