<svg xmlns="http://www.w3.org/2000/svg" width="241" height="238" viewBox="0 0 241 238"><path d="M222.24 96.742l-.062-.26c16.506-16.524 4.516-26.75 4.516-26.75-6.154-3.936-14.39-1.297-19.32.982-12.72-12.53-31.895-20.507-53.348-20.507-21.803 0-41.25 8.24-53.963 21.12C96.125 69.685 78.745 63.49 89.103 87c-2.853 6.215-4.418 12.944-4.418 19.974 0 31.352 31.045 56.768 69.34 56.768 4.712 0 9.314-.39 13.764-1.12l2.95 5.284c-9.03 4.502-15.24 13.828-15.24 24.604 0 15.175 12.3 27.478 27.48 27.478 2.34 0 4.6-.293 6.77-.842-10.59 6.97-24.61 12.218-42.82 12.27 0 0-29.14 1.412-53.71-24.596 0 0-14.13-13.73-19.23-41.104 0 0-1.56-6.616-7.37-2.006 0 0-5.61 2.832-1.97 12.65.16.44.23.77.21.995 3.2 8.955 7.9 17.547 14.14 25.408 30.61 38.567 86.68 45.02 125.25 14.413 36.99-29.354 44.43-82.14 17.97-120.434zm-100.77-7.536c-9.29 0-16.82 7.53-16.82 16.82s7.53 16.822 16.82 16.822c5.683 0 10.7-2.818 13.746-7.132-3.884 8.136-12.274 13.77-22.003 13.77-13.424 0-24.306-10.73-24.306-23.96S99.79 81.57 113.213 81.57c10.835 0 20.012 6.986 23.148 16.638-2.81-5.35-8.42-9.002-14.89-9.002zm12.094 12.675c0 3-2.426 5.42-5.418 5.42s-5.418-2.42-5.418-5.42c0-2.99 2.426-5.41 5.418-5.41 2.995 0 5.418 2.43 5.418 5.42zm46.934-15.39c-11.09 0-20.08 8.99-20.08 20.08 0 11.09 8.99 20.08 20.08 20.08 7.266 0 13.63-3.86 17.152-9.64-4.39 11.05-15.232 18.87-27.916 18.87-16.57 0-30.002-13.34-30.002-29.8s13.433-29.8 30.002-29.8c13.69 0 25.238 9.11 28.84 21.56-3.254-6.7-10.124-11.33-18.076-11.33zm14.647 15.13c0 3.57-2.896 6.47-6.47 6.47-3.57 0-6.465-2.89-6.465-6.46s2.896-6.46 6.466-6.46c3.572 0 6.47 2.9 6.47 6.47zm16.818-23.44s17.957-2.5 6.437 12.16c0 0-1.64-6.43-6.436-12.16z"/><circle cx="50.346" cy="64.083" r="25.088"/><path d="M69.685 107.43c0-4.667.53-9.5 1.56-14.015-5.896 4.05-13.108 6.648-20.9 6.648-18.29 0-33.43-12.063-35.693-31.063H2v28.038C2 104.268 7.668 112 14.896 112h54.94c-.09-2-.15-3.188-.15-4.57zm-19.34-79.566c16.97 0 31.216 13.05 34.998 27.388 2.023-.583 4.186-.89 6.445-.89 1.48 0 2.95.126 4.364.34 1.245-1 2.848-1.95 3.848-2.878V31.586C100 24.356 92.667 19 85.437 19H79v-6.32C79 5.45 73.213 1 65.983 1H33.985C26.758 1 20 5.45 20 12.68V19h-5.104C7.668 19 2 24.357 2 31.588V58h12.915c2.996-15 17.736-30.136 35.43-30.136z"/></svg>