<svg xmlns="http://www.w3.org/2000/svg" width="241" height="238" viewBox="0 0 241 238"><path d="M222.24 96.742l-.062-.26c16.506-16.524 4.516-26.75 4.516-26.75-4.947-3.164-11.237-2.077-16.076-.346l.058.02c-1.222-.41-3.597-1.155-6.935-1.97-12.6-10.616-30.2-16.78-49.71-16.78-17.38 0-33.25 5.345-45.42 14.345-23.77-1-41.17 4.79-42.21 5.17-3.88 1.44-5.87 5.53-4.44 9.41 1.44 3.89 5.75 5.76 9.63 4.33.02 0 .16-.11.4-.19-1.19 11.78-1.83 34.68 8.57 49.18 4.94 6.88 11.65 11.01 19.96 12.29.89.14 1.77.24 2.64.34 12.67 11.2 30.77 18.22 50.89 18.22 4.71 0 9.31-.39 13.76-1.12l2.96 5.29c-9.03 4.51-15.24 13.83-15.24 24.61 0 15.18 12.3 27.48 27.48 27.48 2.34 0 4.61-.29 6.77-.84-10.59 6.97-24.6 12.22-42.82 12.27 0 0-29.13 1.42-53.7-24.59 0 0-14.13-13.73-19.22-41.1 0 0-1.55-6.61-7.36-2 0 0-5.6 2.83-1.97 12.65.16.44.23.77.21.99 3.2 8.96 7.9 17.55 14.14 25.41 30.61 38.57 86.68 45.02 125.25 14.42 36.99-29.35 44.43-82.14 17.97-120.43zm-30.814-6.673c.045.86.086 1.73.113 2.64-.03-.91-.07-1.78-.12-2.64zm-61.52 6.67c-.012-.78-.033-1.58-.063-2.4.03.81.052 1.62.063 2.39zm-.076-2.8c-.03-.84-.068-1.69-.12-2.57.05.87.09 1.73.12 2.56zm-27.028 36.39c-4.293-.67-7.488-2.64-10.054-6.21-8.146-11.34-6.654-34.6-5.217-43.99 10.56-1.53 25.36-2.11 41.4 2.01.37 3.29.63 6.35.79 9.21-2.43-1.38-5.24-2.17-8.24-2.17-9.29 0-16.82 7.53-16.82 16.82s7.53 16.82 16.82 16.82c1.35 0 2.66-.17 3.92-.47-.96 1.73-1.99 3.05-3.02 4.05-4.13 4.03-10.53 5.31-19.56 3.91zm22.686-8.16c.184-.34.365-.69.543-1.06-.17.37-.35.72-.54 1.06zm4.03-15.08c-.438.11-.896.18-1.37.18-2.993 0-5.42-2.43-5.42-5.42 0-2.99 2.427-5.42 5.42-5.42.616 0 1.208.1 1.76.29.056 3.89-.088 7.33-.39 10.36zm45.654 23.23c-9.027 1.39-15.426.12-19.56-3.91-4.8-4.67-9.722-16.16-6.562-44.27 15.985-4.1 30.82-3.5 41.398-1.98.37 2.41.742 5.73.955 9.52-3.14-2.04-6.885-3.22-10.907-3.22-11.09 0-20.08 8.99-20.08 20.08 0 11.09 8.99 20.08 20.08 20.08.93 0 1.842-.07 2.735-.19.71-.69 1.38-1.47 2.01-2.34-2.56 3.58-5.76 5.55-10.06 6.22zm14.394-16.09c.342-1.3.634-2.64.877-4-.243 1.36-.534 2.7-.877 4zm1.26-6.55c-.674.23-1.397.37-2.15.37-3.57 0-6.466-2.9-6.466-6.47s2.896-6.47 6.466-6.47c1.05 0 2.036.25 2.913.7 0 3.85-.22 7.91-.77 11.86zm23.73-24.7h-.004c.622-1 1.13-2.11 1.47-3.04.155-.42.264-1.15.34-1.58 4.434.39 9.62 3.07 2.04 12.71-.003 0-1.04-4.1-3.848-8.1zm-119.57-33.9c-9.69-9.9-17.5-52.59-17.5-52.59S69.35 39.61 59.5 49.57C49.44 59.74 5.513 68.508 5.513 68.508s24.75 4.807 41.207 11.463c-1.486-10.28 4.35-20.58 14.478-24.32 1.62-.6 14.84-5.28 33.938-6.41-.048-.05-.1-.09-.15-.14z"/></svg>