<svg xmlns="http://www.w3.org/2000/svg" width="241" height="238" viewBox="0 0 241 238"><path d="M220.19 96.482c16.505-16.524 4.517-26.75 4.517-26.75-1.104-.706-2.275-1.19-3.482-1.513C228.342 65.33 238 64.59 238 64.59c-12-16.5-25-14-25-14l14-8c-13.5-17-42.5-10.5-42.5-10.5-46.5-46-86-.5-86-.5 29-15 48 1.5 48 1.5-62.427 6.875-78.563 42.185-80.45 72.572-9.953-6.154-22.385-7.768-33.825-3.847l-4.064-7.273 7.86-4.39-7.31-13.096-28.81 16.1 7.31 13.094 7.86-4.39 4.14 7.396c-14.06 12.057-18.18 32.774-8.81 49.55 10.29 18.42 33.16 25.464 51.92 16.427.12.37.22.735.37 1.13.16.44.23.77.21.995 3.2 8.955 7.9 17.547 14.14 25.408 30.61 38.567 86.68 45.02 125.25 14.413 36.99-29.36 44.43-82.15 17.97-120.44l-.06-.26zm-92.663 10.636c-.438.113-.896.18-1.367.18-2.992 0-5.418-2.425-5.418-5.417 0-2.99 2.426-5.41 5.418-5.41.615 0 1.205.11 1.758.3.057 3.9-.088 7.33-.39 10.36zm-1.134 7.096c-.146.628-.3 1.227-.46 1.805.16-.58.314-1.18.46-1.81zm1.116-6.906c-.08.763-.17 1.5-.27 2.213.1-.71.18-1.45.26-2.21zm-.32 2.56c-.11.73-.22 1.438-.34 2.114.12-.677.23-1.385.34-2.114zm-.37 2.246c-.13.686-.27 1.344-.41 1.977.14-.63.28-1.29.4-1.97zm-3.4 10.223c.44-.808.87-1.704 1.28-2.698-.41.99-.84 1.89-1.28 2.69zm1.31-2.773c.19-.475.37-.976.55-1.496-.18.522-.37 1.023-.56 1.496zm.62-1.702c.17-.514.34-1.05.5-1.61-.16.56-.33 1.096-.5 1.61zm63.17-8.082c.12-.688.23-1.38.32-2.078-.68.244-1.41.384-2.18.384-3.57 0-6.47-2.895-6.47-6.467 0-3.58 2.89-6.47 6.46-6.47 1.05 0 2.03.25 2.91.7 0 4.53-.28 9.35-1.06 13.93zm-.08.466c-.25 1.372-.54 2.717-.89 4.024.34-1.307.63-2.653.88-4.024zm-1.01 4.487c-.36 1.292-.77 2.54-1.23 3.734.46-1.194.87-2.443 1.22-3.734zM178.5 86.49c-11.09 0-20.08 8.99-20.08 20.078 0 11.09 8.99 20.08 20.08 20.08.925 0 1.84-.066 2.733-.19.71-.687 1.375-1.462 2.002-2.335.34-.476.66-.98.965-1.494-.308.51-.626 1.01-.967 1.49-2.57 3.58-5.767 5.56-10.065 6.22-9.024 1.4-15.424.12-19.56-3.91-4.8-4.68-9.722-16.17-6.56-44.27 15.985-4.1 30.82-3.51 41.397-1.99.375 2.41.75 5.73.96 9.53-3.14-2.05-6.883-3.23-10.906-3.23zm10.91 3.248c.054.96.1 1.953.13 2.968-.034-1.015-.076-2.006-.13-2.968zm.13 2.983c.03 1.02.045 2.06.05 3.11-.005-1.05-.02-2.09-.05-3.1zm-3.5 26.19c-.477 1.18-1.013 2.3-1.61 3.34.597-1.04 1.133-2.16 1.61-3.34zm28.44-42.16v.07-.07zm-.03.67c0 .02-.002.04-.004.05l.003-.05zm-.086-1.96c0 .02.005.03.01.05l-.01-.04zm.083.64l.006.07-.01-.06zm-66.084-9.6c1.772-.37 3.53-.69 5.27-.97-5.2 2.98-19.166 14.19-26.23 21.61.21 2.46.345 4.78.43 6.96-.036-.88-.077-1.77-.13-2.69-1.26-.71-2.623-1.26-4.057-1.63-7.035 5.09-14.296 11.2-20.866 18.35 1.016 8.32 8.09 14.77 16.68 14.77 1.352 0 2.664-.16 3.92-.46-.96 1.73-1.997 3.06-3.026 4.06-4.14 4.03-10.537 5.31-19.56 3.91-4.298-.66-7.49-2.64-10.06-6.21-.02-.03-.04-.06-.062-.09-2.295 3.78-4.317 7.77-6.02 11.95-.335-3.94-1.264-7.87-2.824-11.67 17.366-32.2 52.036-51.08 66.54-57.85zM127.9 96.53c-.014-.72-.03-1.46-.06-2.214.03.75.046 1.49.06 2.21zM23.485 151.49c-6.656-11.913-2.38-27.02 9.533-33.677 11.915-6.65 27.02-2.38 33.678 9.54.07.13.134.257.203.386.74 5.66 1.77 10.66 2.75 14.63-.93 7.58-5.32 14.65-12.49 18.65-11.92 6.65-27.02 2.38-33.68-9.54zm121.462 79.928s-29.14 1.412-53.71-24.596c0 0-13.276-12.903-18.73-38.625 7.946-7.573 12.296-18.065 12.31-28.797 3.91 3.022 8.485 4.963 13.695 5.77.9.142 1.786.253 2.662.353h-.034c12.666 11.205 30.773 18.228 50.892 18.228 4.71 0 9.313-.38 13.762-1.12l2.954 5.29c-9.03 4.5-15.235 13.83-15.235 24.61 0 15.18 12.3 27.48 27.477 27.48 2.338 0 4.607-.29 6.773-.84-10.592 6.97-24.606 12.22-42.82 12.27zm-40.43-85.618c-.187-.01-.37-.022-.556-.034.19.01.37.024.56.034zM206.65 84.25c.018.002.033 0 .05 0-.014 0-.032.002-.05 0zm-1.234-.168c.08.017.16.034.24.048-.08-.015-.16-.03-.24-.048zm3.432-.057l.035-.01-.035.01zm-1.188.197c.068-.006.137-.012.203-.02-.067.008-.134.014-.203.02zm2.156-.522c.043-.018.088-.034.13-.053-.042.02-.087.035-.13.053zm1.053-.522v-.002l-.01.002zm.85-.605l.06-.052-.07.06zm.84-.795l-.01.003c.62-.68 1.13-1.5 1.47-2.42.15-.42.26-.84.34-1.27 4.43.39 9.62 2.61 2.03 12.25 0 0-1.04-4.03-3.85-8.56zM49.39 138.69l-8.727-15.622-.33-.642-1 28.793 28.334-8.8zm-10.063 12.74l.007-.21-.667.206z"/></svg>