<svg xmlns="http://www.w3.org/2000/svg" width="241" height="238" viewBox="0 0 241 238"><path d="M9 154.243V182h82v-54H9v26.243zm19.57 20.234c-5.576 0-10.096-4.46-10.096-10.035 0-4.387 2.803-6.44 6.71-9.44h6.77c3.91 3 6.712 5.034 6.712 9.42 0 5.575-4.52 10.055-10.096 10.055zM18 137h64v10H18v-10zm-9 52h82v10H9zm0 15h82v9H9zm0 14h82v9H9zM234.5 65.063c2.093-.292 3.473-.403 3.473-.403-.527-.725-1.058-1.4-1.586-2.055 8.467-14.526-18.222-33.358-43.414-40.167-1.447-.39-2.89-.76-4.363-1.103 4.36-4.244 11.697-4.897 11.697-4.897L189.64 7.77c-8.675 0-10.352 6.53-10.274 11.866-9.64-1.3-22.445-1.64-44.725-.533-30.62 1.52-33.65 16.627-32.04 26.97C71.78 62.785 65.24 91.775 65.86 116h21.63c19.165-28.506 50.285-44.437 62.414-49.835 1.25-.243 2.488-.46 3.72-.657-5.2 2.98-19.165 14.193-26.23 21.605.69 8.156.64 14.742.104 20.074-.438.115-.893.376-1.365.376-2.992 0-5.418-2.23-5.418-5.222 0-1.47.592-3.34 1.55-3.34h-9.178c-3.535 3-7.012 5.96-10.314 9.55 1.017 8.32 8.09 14.54 16.683 14.54 1.33 0 2.62-.27 3.86-.56-.938 1.67-1.95 2.95-2.956 3.94-3.792 3.69-9.36 5.07-17.36 4.19v16.44c13 10.29 29.862 16.67 49.022 16.67 4.713 0 9.31-.39 13.758-1.12l2.95 5.29c-9.032 4.5-15.24 13.83-15.24 24.61 0 15.18 12.3 27.48 27.477 27.48 2.34 0 4.606-.29 6.773-.84-10.59 6.97-24.59 12.22-42.806 12.27 0 0-20.937 1.01-41.937-14.28V225c31 17.31 69.995 15.45 99.27-7.78 36.99-29.357 44.42-82.145 17.958-120.44-.02-.086-.043-.173-.063-.26 16.505-16.523 4.516-26.75 4.516-26.75-1.06-.676-2.18-1.15-3.334-1.47.455-.184.917-.36 1.39-.525 4.804.58 8.99-.06 11.767-2.685zm-20.034 11.684v.07-.07zm-.028.672l-.004.05.004-.05zm-.086-1.97l.008.04c-.005-.02-.006-.03-.008-.05zm.084.63l.006.07c-.003-.02-.004-.05-.006-.07zm-67.4 6.09c15.987-4.1 30.82-3.5 41.4-1.98.904 5.87 1.83 17.14.396 27.54-.68.24-1.41.59-2.173.59-3.58 0-6.47-2.69-6.47-6.26 0-1.31.39-2.08 1.05-3.08H160.3c-1.204 2-1.896 4.99-1.896 8.03 0 11.08 8.99 19.85 20.078 19.85.88 0 1.746-.16 2.597-.28-2.17 2.04-4.74 3.26-7.93 3.75-9.03 1.39-15.43.12-19.56-3.91-4.8-4.68-9.72-16.17-6.56-44.28zm39.34 35.85l.005-.02v.01zm.83-2.51c.037-.13.078-.26.114-.4-.036.13-.077.26-.115.39zm.433-1.58c.06-.24.11-.48.17-.71l-.17.71zm.55-2.45c.06-.33.13-.65.19-.97-.06.32-.13.64-.19.97zm.37-1.97l.18-1.16-.18 1.16zm-61.87 3.16l-.18.84c.06-.28.12-.56.17-.84zm.77-5.26c-.07.69-.15 1.35-.24 2 .08-.65.16-1.31.24-2zm-.34 2.68c-.08.55-.17 1.09-.26 1.61.09-.53.18-1.06.26-1.62zm15.99 27.07c-2.42-2.36-4.47-5.15-6.16-8.39v-.01c1.69 3.24 3.74 6.03 6.15 8.39 5.94 5.78 13.84 8.69 23.55 8.69-9.72 0-17.62-2.91-23.56-8.7zm63.49-52.94h.05-.05zm-1.23-.17l.24.05-.24-.05zm2.24.14c.07-.01.14-.01.2-.02-.07.01-.14.01-.21.02zm1.19-.19l.03-.01-.03.01zm.97-.33l.12-.05-.13.05zm1.91-1.13l.06-.05-.06.05zm4.68 7.76s-1.04-4.04-3.85-8.56h-.01c.62-.69 1.13-1.5 1.47-2.43.15-.42.26-.85.34-1.27 4.43.39 9.62 2.61 2.04 12.25zm-152.4-24c0-.68-.05-1.31-.13-1.31H64V18.61C92 21.35 101.96 1 101.96 1H49v44.64c-5-2.24-10.62-3.537-16.77-3.537-17.535 0-31.76 10.52-31.76 23.5s14.21 23.5 31.745 23.5 31.748-9.823 31.748-22.8z"/></svg>