<svg xmlns="http://www.w3.org/2000/svg" width="241" height="238" viewBox="0 0 241 238"><path d="M146.843 101.05c39.578 6.326 74.19-4.424 77.306-23.97 1.63-10.203-5.63-20.77-18.56-29.463.45 9.875-.5 19.316-4.4 23.793-15.55 17.853-90.46 17.09-92.68-19.49-.3-5.025.45-12.505 2.34-20.242 9.28 12.882 33.49 30.175 94.64 14.292-.77-12.29-3.59-24.86-5.61-29.09-3.74-7.822-13.12-2.73-17.65-1.87-4.53.853-9.81-1.564-9.81-1.564S152.69-2.58 134.06.088c-12.09 1.737-19.61 16.96-23.16 31.38l.09-.354c-16.81 3.976-28.405 12.162-30.15 23.09-3.13 19.56 26.428 40.53 66 46.846zm-16.28-95.704c9.346-8.405 17.895.104 18.766 4.872 1.48 8.296 18.4 7.188 18.4 7.188-42.31 8.314-37.17-12.06-37.17-12.06zm94.985 97.024C213.223 112.574 193.415 119 169.173 119h-.007c-1.71 0-3.434-.497-5.162-.565 3.624 5.232 9.663 8.438 16.512 8.438.903 0 1.793-.17 2.666-.29-2.18 2.077-4.78 3.294-7.992 3.792-9.027 1.398-15.426.105-19.56-3.92-1.937-1.885-3.89-4.89-5.325-9.636-1.94-.25-3.887-.53-5.83-.85-14.37-2.3-27.954-6.46-39.667-12.02-.084.68-.14 1.36-.14 2.07 0 9.29 7.53 16.82 16.82 16.82 1.347 0 2.655-.17 3.91-.47-.958 1.73-1.99 3.05-3.02 4.05-4.134 4.02-10.53 5.3-19.56 3.9-4.292-.67-7.487-2.64-10.053-6.21-5.486-7.64-6.598-20.68-6.302-31.25-9.28-7.16-15.6-15.21-18.68-23.65-.755.24-1.23.41-1.374.47-3.89 1.43-5.88 5.75-4.45 9.63 1.43 3.89 5.74 5.88 9.63 4.44.02-.01.15-.06.39-.14-1.19 11.78-1.83 34.71 8.56 49.21 4.93 6.88 11.64 11.02 19.96 12.31.89.14 1.78.25 2.65.35h-.02c12.66 11.2 30.77 18.22 50.89 18.22 4.71 0 9.31-.39 13.76-1.12l2.95 5.28c-9.04 4.5-15.24 13.82-15.24 24.6 0 15.18 12.3 27.48 27.47 27.48 2.34 0 4.6-.29 6.77-.84-10.6 6.97-24.61 12.22-42.82 12.27 0 0-29.14 1.41-53.71-24.6 0 0-14.13-13.73-19.22-41.11 0 0-1.56-6.62-7.37-2.01 0 0-5.6 2.83-1.97 12.65.16.44.23.77.21 1 3.2 8.95 7.9 17.54 14.14 25.4 30.61 38.56 86.68 45.02 125.25 14.41 35.35-28.06 43.69-77.05 21.26-114.81zM49.558 25.51C44.613 20.513 41.51-1.407 41.51-1.407s-3.252 22.122-8.272 27.14c-5.04 5.042-27.282 8.35-27.282 8.35s22.002 3.122 27.014 8.07c5.11 5.048 8.538 27.41 8.538 27.41s3.28-22.163 8.316-27.19c5.034-5.024 27.238-8.302 27.238-8.302s-22.446-3.44-27.507-8.56zM24.51 59.626s-2.042 13.996-5.187 17.17C16.167 79.982 2.24 82.064 2.24 82.064s13.774 1.986 16.91 5.12c3.197 3.195 5.335 17.346 5.335 17.346s2.062-14.02 5.216-17.198c3.16-3.178 17.06-5.24 17.06-5.24S32.71 79.9 29.54 76.66c-3.093-3.163-5.027-17.034-5.027-17.034z"/></svg>