<svg xmlns="http://www.w3.org/2000/svg" width="241" height="238" viewBox="0 0 241 238"><path d="M51.04 101.417C46.097 96.42 42.995 74.5 42.995 74.5s-3.252 22.123-8.27 27.143c-5.04 5.04-27.283 8.348-27.283 8.348s22.002 3.13 27.014 8.08c5.11 5.05 8.537 27.41 8.537 27.41s3.28-22.16 8.316-27.18c5.03-5.02 27.23-8.3 27.23-8.3s-22.45-3.45-27.51-8.56zm-24.07-25.98s2.06-14.02 5.215-17.197C35.338 55.063 49.238 53 49.238 53s-14.05-2.192-17.217-5.432C28.93 44.405 27 30.534 27 30.534s-2.043 13.996-5.188 17.17c-3.157 3.187-17.084 5.27-17.084 5.27s13.774 1.985 16.91 5.12c3.198 3.194 5.336 17.344 5.336 17.344zm194.893 136.737c-.01-.015-.012-.285-.022-.3-.6-.782-1.74-1.522-2.96-1.997l-1.72-14.814-13.5.22-1 11.733.01.026-6.21 3.174c-.13-.16-.2-.26-.21-.266l-.71-1.03-21.47 6.627C165.42 217.07 148.7 221 147.79 228H144v9h82v-9h-.736c.362-4 .816-12.47-3.4-15.826zM191.233 228c-5.146-2-13.488-6.043-14.314-9.64l17.25-5.175c1.39 1.56 4.63 4.98 10.27 7.303l2.65 7.512h-15.86zm-54.065-15.298c.126-.982-.243-2.224-.77-3.418l9.21-11.652-9.722-9.368-9.017 7.6-.02.03-6.65-2.147c.02-.208.04-.326.04-.334l.22-1.23-19.52-10.85c-7.19-5.03-21.43-14.425-27.03-10.122l-2.57-2.56-6.36 6.36 57.98 57.98 6.36-6.36-.63-.63c3.07-2.56 9.04-7.88 8.43-13.24 0-.02.01-.03.01-.05zm-21.3.444l-11.214-11.215c-2.226-5.05-5.618-13.45-3.66-16.58l15.687 8.72c-.12 2.09.02 6.53 2.36 12.16l-3.17 6.92zM71.363 161.57l3.78 3.777c.793-.158 1.632-.236 2.51-.236 2.144 0 4.532.47 7.236 1.43-4.02-6.83-8.47-16.75-10.89-29.74 0 0-1.56-6.62-7.37-2 0 0-5.61 2.83-1.97 12.65.16.44.23.77.21 1 1.64 4.61 3.69 9.11 6.14 13.48l.34-.34zm.22-106.637c.02-.006.157-.087.397-.168-1.187 11.778-1.83 34.694 8.567 49.19 4.933 6.88 11.646 11.012 19.957 12.3.89.138 1.765.246 2.63.343 12.666 11.203 30.773 18.223 50.892 18.223 4.71 0 9.313-.38 13.763-1.12l2.95 5.29c-9.03 4.5-15.24 13.83-15.24 24.61 0 15.18 12.3 27.48 27.48 27.48 2.34 0 4.6-.29 6.77-.84-10.35 6.81-23.98 11.97-41.6 12.24l-3.92 4.96c20.92 1.1 42.32-5.12 60.03-19.17 36.99-29.35 44.43-82.14 17.97-120.43l-.06-.26c16.5-16.52 4.51-26.75 4.51-26.75-4.95-3.16-11.24-2.08-16.08-.35l.05.02c-1-.33-2.78-.9-5.23-1.53l7.37-15.61C162.98-2 105.98 17.5 105.98 17.5l8.3 14.42c-1.97 1.164-3.87 2.407-5.68 3.747-23.77-1-41.172 4.99-42.212 5.374-3.89 1.44-5.88 5.63-4.44 9.52 1.43 3.89 5.74 5.82 9.63 4.38zm144.44-3.43c.153-.42.262-1.38.338-1.804 4.44.38 9.63 3.4 2.04 13.05 0 0-1.03-3.76-3.84-7.76.63-1 1.14-2.58 1.48-3.5zm-86.505 26.69c-.438.115-.896.183-1.37.183-2.993 0-5.42-2.426-5.42-5.418s2.427-5.418 5.42-5.418c.616 0 1.208.107 1.76.297.056 3.893-.088 7.33-.39 10.357zm45.654 23.23c-9.027 1.4-15.426.12-19.56-3.904-4.8-4.68-9.722-16.17-6.562-44.28 15.985-4.1 30.82-3.5 41.398-1.98.37 2.41.742 5.73.955 9.53-3.14-2.04-6.885-3.23-10.907-3.23-11.09 0-20.08 8.99-20.08 20.08s8.99 20.08 20.08 20.08c.93 0 1.842-.07 2.735-.19.71-.69 1.38-1.47 2.01-2.34-2.56 3.58-5.76 5.55-10.06 6.22zm14.394-16.084c.342-1.31.634-2.64.877-4.01-.243 1.36-.534 2.7-.877 4zm1.26-6.56c-.676.24-1.397.37-2.15.37-3.57 0-6.466-2.9-6.466-6.47s2.896-6.47 6.466-6.47c1.05 0 2.036.25 2.913.69 0 3.85-.22 7.91-.77 11.86zM87.53 51.22c10.552-1.52 25.356-2.103 41.392 2.02.37 3.295.627 6.355.788 9.207-2.437-1.38-5.243-2.17-8.24-2.17-9.29 0-16.82 7.53-16.82 16.82s7.53 16.82 16.82 16.82c1.35 0 2.656-.165 3.912-.464-.96 1.727-1.99 3.054-3.02 4.056-4.135 4.02-10.532 5.3-19.562 3.9-4.293-.67-7.488-2.64-10.054-6.21-8.143-11.34-6.652-34.59-5.215-43.99z"/></svg>