<svg xmlns="http://www.w3.org/2000/svg" width="241" height="238" viewBox="-3 -1.5 241 238"><path d="M89.47 47.53s-2.14-14.15-5.337-17.346c-3.135-3.134-16.91-5.12-16.91-5.12s13.928-2.082 17.084-5.27c3.145-3.173 5.188-17.17 5.188-17.17s1.935 13.872 5.027 17.035c3.167 3.23 17.217 5.43 17.217 5.43s-13.9 2.06-17.06 5.24c-3.16 3.18-5.22 17.2-5.22 17.2zm-53 176s-2.14-14.15-5.337-17.346c-3.135-3.134-16.91-5.12-16.91-5.12s13.928-2.082 17.084-5.27c3.145-3.173 5.188-17.17 5.188-17.17s1.935 13.872 5.027 17.035c3.167 3.23 17.217 5.43 17.217 5.43s-13.9 2.06-17.06 5.24c-3.16 3.18-5.22 17.2-5.22 17.2zM222.24 96.742l-.062-.26c16.505-16.524 4.516-26.75 4.516-26.75-4.948-3.164-11.238-2.077-16.077-.346l.058.02c-1.222-.41-3.597-1.156-6.935-1.97-.215-.18-.442-.352-.66-.53 4.503-12.637 16.907-11.814 16.907-11.814l-17-20 12-1c-39-34-88-9-88-9-23.438 11.72-14.646 29.04-11.158 34.375-2.53 1.394-4.94 2.938-7.23 4.625-23.77-1-41.18 5.24-42.22 5.623-3.89 1.435-5.88 5.75-4.44 9.636 1.43 3.89 5.74 5.88 9.63 4.45.02 0 .15-.05.39-.13-1.19 11.78-1.83 34.71 8.56 49.21 4.93 6.88 11.64 11.02 19.95 12.31.89.14 1.77.26 2.65.35h-.02c12.66 11.2 30.77 18.23 50.89 18.23 4.71 0 9.31-.38 13.76-1.12l2.95 5.29c-9.03 4.51-15.24 13.83-15.24 24.61 0 15.18 12.3 27.48 27.48 27.48 2.34 0 4.61-.29 6.77-.84-10.59 6.97-24.61 12.22-42.82 12.27 0 0-29.14 1.41-53.71-24.59 0 0-14.13-13.73-19.22-41.1 0 0-1.56-6.61-7.37-2 0 0-5.61 2.84-1.97 12.65.16.44.23.77.21 1 3.2 8.96 7.9 17.55 14.14 25.41 30.6 38.57 86.68 45.02 125.25 14.41 36.99-29.36 44.43-82.14 17.97-120.44zm-30.816-6.69c.047.866.088 1.75.115 2.658-.03-.91-.07-1.792-.12-2.66zm-61.518 6.696c-.012-.784-.034-1.592-.063-2.414.03.82.052 1.63.063 2.414zm-.075-2.78c-.03-.842-.07-1.702-.12-2.585.05.883.09 1.743.12 2.586zm-27.02 36.38c-4.29-.666-7.49-2.64-10.05-6.21-8.14-11.338-6.65-34.595-5.21-43.99 10.55-1.523 25.36-2.106 41.39 2.017.37 3.295.63 6.355.79 9.207-2.43-1.373-5.24-2.165-8.24-2.165-9.29 0-16.82 7.53-16.82 16.82s7.53 16.822 16.82 16.822c1.35 0 2.66-.17 3.91-.47-.96 1.72-1.99 3.05-3.02 4.05-4.13 4.02-10.53 5.3-19.56 3.9zm22.69-8.156c.19-.34.37-.687.55-1.056-.17.37-.36.718-.54 1.056zm4.03-15.075c-.44.114-.89.182-1.37.182-2.99 0-5.42-2.43-5.42-5.42s2.43-5.42 5.42-5.42c.62 0 1.21.1 1.76.29.06 3.89-.09 7.33-.39 10.35zm45.66 23.23c-9.02 1.398-15.42.12-19.56-3.905-4.8-4.675-9.72-16.162-6.56-44.27 15.99-4.095 30.82-3.503 41.4-1.983.37 2.4.74 5.73.96 9.52-3.14-2.04-6.88-3.23-10.91-3.23-11.09 0-20.08 8.99-20.08 20.08s8.99 20.07 20.08 20.07c.93 0 1.85-.07 2.74-.19.71-.69 1.38-1.47 2.01-2.34-2.57 3.58-5.76 5.56-10.06 6.22zm14.4-16.085c.34-1.3.64-2.64.88-4.004-.24 1.365-.53 2.703-.87 4.004zm1.26-6.552c-.67.238-1.39.376-2.15.376-3.57 0-6.46-2.895-6.46-6.467s2.9-6.47 6.47-6.47c1.05 0 2.04.25 2.92.7.01 3.85-.22 7.91-.76 11.86zM214.56 83h-.005c.622-1 1.13-2.11 1.47-3.036.155-.418.263-1.148.34-1.573 4.433.39 9.62 3.07 2.04 12.71-.002 0-1.04-4.1-3.848-8.1zM72 65.067C72 61.164 68.835 58 64.932 58H8.068C4.165 58 1 61.164 1 65.067v106.865C1 175.836 4.165 179 8.068 179H64.93c3.905 0 7.07-3.164 7.07-7.067V65.067zm-36.513 2.358c9.94 0 18 8.06 18 18s-8.06 18-18 18-18-8.06-18-18 8.06-18 18-18zM58 153H44v14H29v-14H15v-15h14v-14h15v14h14v15z"/></svg>