<svg xmlns="http://www.w3.org/2000/svg" width="241" height="238" viewBox="0 0 241 238"><path d="M222.24 96.742l-.062-.26c16.506-16.524 4.516-26.75 4.516-26.75-3.79-2.423-8.36-2.35-12.47-1.407-.355-5.333-2.337-11.74-7.237-19.233-17-26-52-21-52-21-14 1-8-15-8-15-36.73 0-31.533 30.71-27.068 45.132-4.04 1.938-7.83 4.2-11.32 6.776-23.77-1-41.18 4.786-42.22 5.17-3.89 1.434-5.88 5.522-4.44 9.408 1.43 3.887 5.74 5.762 9.63 4.33.02-.007.15-.113.39-.194-1.19 11.778-1.83 34.682 8.56 49.18 4.93 6.878 11.64 11.005 19.95 12.292.89.14 1.76.242 2.63.34 12.67 11.2 30.77 18.22 50.89 18.22 4.71 0 9.31-.388 13.76-1.122l2.95 5.285c-9.03 4.5-15.24 13.82-15.24 24.6 0 15.17 12.3 27.47 27.48 27.47 2.34 0 4.61-.3 6.77-.84-10.59 6.97-24.61 12.21-42.82 12.27 0 0-29.14 1.41-53.71-24.6 0 0-2.63-2.57-6.03-7.67-2.72-11.2-10.67-20.99-10.73-33.43-.04-6.4 2.33-12.31 2.65-18.39.63-12.29-9.53-17.58-21.81-19.36L57.01 77l-23.3-4.433-.02-3.62 23.27-1.803.03 5.218c1.11-.316 1.935-1.607 1.928-3.148l1.11-11.76 8.15-.045c.014 2.46 2.02 4.45 4.486 4.43 2.468-.02 4.458-2.02 4.44-4.49l-.037-7.44c-.01-2.47-2.02-4.45-4.49-4.44-2.46.01-4.45 2.02-4.44 4.49l.01 1.48-7.56.04 1.34-14.14 6.15-.04c.02 2.47 2.02 4.45 4.49 4.44 2.47-.02 4.46-2.02 4.44-4.49l-.04-7.44c-.01-2.48-2.02-4.46-4.49-4.45-2.46.01-4.45 2.02-4.44 4.49l.01 1.49-5.55.03.48-5.06c-.01-1.77-1.46-3.2-3.23-3.2l-29.82.17c-1.776.01-3.208 1.45-3.19 3.23l.53 5.05-6.6.03-.01-1.49c-.01-2.47-2.025-4.46-4.488-4.44-2.47.01-4.46 2.02-4.44 4.49l.04 7.44c.01 2.47 2.02 4.45 4.48 4.44 2.47-.02 4.45-2.02 4.44-4.49l7.2-.04 1.49 14.13-8.61.05-.01-1.49c-.02-2.47-2.02-4.46-4.49-4.44-2.47.01-4.46 2.02-4.44 4.48l.04 7.44c.01 2.46 2.02 4.46 4.49 4.44 2.47-.02 4.45-2.02 4.44-4.49l9.2-.05 1.24 11.74c.01 1.54.84 2.82 1.95 3.13l.31 55.62c-12.28 1.92-22.41 7.31-21.63 19.61.38 6.06 2.81 11.96 2.85 18.34.08 13.11-8.65 23.36-10.74 35.37-3.32 19.04 13.89 29.61 41.97 29.46 23.62-.14 38.08-6.86 41.4-19.03 31.69 30.27 81.62 33.31 116.91 5.3 36.99-29.37 44.43-82.15 17.97-120.45zM54.944 58.04c-1.946.01-3.543-1.566-3.55-3.517-.012-1.946 1.56-3.54 3.517-3.55 1.95-.018 3.54 1.56 3.55 3.517.01 1.947-1.56 3.538-3.51 3.55zm-.152-27.717c1.947-.014 3.545 1.563 3.56 3.517.002 1.947-1.57 3.54-3.524 3.55-1.942.016-3.54-1.562-3.547-3.512-.01-1.95 1.57-3.544 3.51-3.555zm-19.94.107c1.948-.008 3.545 1.57 3.553 3.514.012 1.954-1.563 3.548-3.516 3.56-1.95.006-3.54-1.563-3.56-3.515-.02-1.96 1.56-3.55 3.51-3.56zm-3.404 24.206c-.01-1.948 1.563-3.542 3.517-3.56 1.95-.007 3.547 1.57 3.55 3.516.014 1.955-1.562 3.55-3.512 3.556-1.945.01-3.538-1.562-3.554-3.512zM45 147.568c9.726-.053 17.65 7.79 17.704 17.514.058 9.727-7.785 17.652-17.51 17.71-9.726.052-17.647-7.785-17.703-17.513-.05-9.73 7.79-17.66 17.51-17.72zm18.885 66.868l-35.48.19c-3.282.02-5.968-2.628-5.986-5.913l-.01-.994c-.01-.73.13-1.43.36-2.07l.06-.18c.03-.09.08-.18.12-.27.03-.08.07-.16.11-.24.04-.08.08-.15.12-.23.05-.09.1-.18.15-.26.04-.07.08-.13.12-.19.06-.1.13-.19.2-.28l.11-.15c.09-.11.18-.21.27-.31l.08-.09c.26-.27.55-.5.85-.71.01-.01.02-.01.02-.02.14-.1.28-.19.43-.27l.11-.06c.12-.07.24-.13.37-.19l.15-.06c.11-.05.23-.1.36-.14.05-.02.11-.04.17-.06.12-.04.24-.07.36-.1.06-.02.12-.04.19-.05.12-.03.25-.05.39-.06.05-.01.11-.02.17-.03.19-.02.38-.03.57-.03l35.48-.2c.19 0 .38.01.57.03.07 0 .13.02.2.02.12.01.24.03.35.05l.23.05c.1.02.2.05.31.07.08.02.16.05.24.08.09.03.18.06.27.1.08.03.16.06.24.1l.24.11c.08.04.16.08.25.13.07.03-.02.22.05.26.09.05.04.23.11.3.2.22.64.23.86.43.02.02.12-.03.14-.01.09.09.22.15.3.24.03.03.08.05.11.08.08.1.18.18.25.29.03.03.06.06.08.1.08.1.15.21.23.33l.06.09c.07.12.14.24.2.36l.03.06c.39.79.63 1.68.63 2.63l.01.99c.02 3.28-2.63 5.97-5.92 5.99zM191.425 90.07c.046.86.087 1.736.114 2.64-.03-.903-.07-1.78-.12-2.64zm-61.52 6.678c-.01-.778-.032-1.58-.062-2.397.03.82.052 1.62.063 2.4zm-.075-2.793c-.03-.836-.068-1.688-.12-2.564.05.88.09 1.73.12 2.57zm-27.028 36.393c-4.293-.666-7.488-2.64-10.054-6.21-8.146-11.338-6.654-34.595-5.217-43.99 10.56-1.523 25.36-2.106 41.4 2.017.37 3.295.63 6.355.79 9.207-2.43-1.373-5.24-2.165-8.24-2.165-9.29 0-16.82 7.53-16.82 16.82s7.53 16.823 16.82 16.823c1.35 0 2.66-.164 3.92-.464-.96 1.728-1.99 3.054-3.02 4.056-4.13 4.027-10.53 5.304-19.56 3.906zm22.686-8.157c.184-.33.365-.68.543-1.05-.17.37-.35.72-.54 1.06zm4.03-15.07c-.438.12-.896.18-1.37.18-2.993 0-5.42-2.42-5.42-5.42 0-2.99 2.427-5.41 5.42-5.41.616 0 1.208.11 1.76.3.056 3.9-.088 7.33-.39 10.36zm45.654 23.23c-9.027 1.4-15.426.12-19.56-3.9-4.8-4.67-9.722-16.16-6.562-44.27 15.985-4.09 30.82-3.5 41.398-1.98.37 2.41.742 5.74.955 9.53-3.14-2.04-6.885-3.22-10.907-3.22-11.09 0-20.08 8.99-20.08 20.08 0 11.09 8.99 20.08 20.08 20.08.93 0 1.842-.06 2.735-.19.71-.68 1.38-1.46 2.01-2.33-2.56 3.58-5.76 5.56-10.06 6.22zm14.394-16.08c.342-1.3.634-2.64.877-4-.243 1.37-.534 2.71-.877 4.01zm1.26-6.55c-.674.24-1.397.38-2.15.38-3.57 0-6.466-2.89-6.466-6.46s2.896-6.46 6.466-6.46c1.05 0 2.036.26 2.913.7 0 3.86-.22 7.92-.77 11.86zM214.556 83h-.004c.622-1 1.13-2.11 1.47-3.036.155-.418.264-1.148.34-1.573 4.434.39 9.62 3.07 2.04 12.71-.003 0-1.04-4.1-3.848-8.1z"/></svg>