<svg xmlns="http://www.w3.org/2000/svg" width="241" height="238" viewBox="0 0 241 238"><path d="M222.24 96.742l-.062-.26c16.506-16.524 4.516-26.75 4.516-26.75-4.947-3.164-11.237-2.077-16.076-.346l.058.02c-1.222-.41-3.597-1.155-6.935-1.97-12.6-10.616-30.2-16.78-49.71-16.78-17.38 0-33.25 5.345-45.42 14.345h.01c-23.77-1-41.18 4.79-42.22 5.17-3.88 1.44-5.87 5.53-4.44 9.41 1.44 3.89 5.75 5.76 9.63 4.33.02 0 .16-.11.4-.19-1.18 11.78-1.82 34.68 8.57 49.18 4.93 6.88 11.65 11.01 19.96 12.29.9.14 1.78.25 2.65.34h-.02c12.67 11.21 30.78 18.23 50.9 18.23 4.71 0 9.31-.39 13.76-1.12l2.96 5.29c-9.03 4.51-15.23 13.83-15.23 24.61 0 15.18 12.31 27.48 27.48 27.48 2.34 0 4.61-.29 6.77-.84-10.59 6.97-24.61 12.22-42.82 12.27 0 0-29.14 1.42-53.71-24.59 0 0-14.13-13.73-19.22-41.1 0 0-1.55-6.61-7.36-2 0 0-5.6 2.83-1.97 12.65.17.44.23.77.22.99 3.2 8.95 7.9 17.55 14.14 25.41 30.61 38.57 86.68 45.02 125.25 14.42 36.99-29.36 44.43-82.15 17.97-120.44zM216 76.737v.065-.065zm.452.675l-.005.04.005-.04zm-.09-1.97c.004.016.008.03.01.046-.002-.015-.006-.03-.01-.046zm.087.634v.068l-.01-.068zm-1.97-4.417c-.08-.09-.16-.17-.24-.25.08.08.16.16.24.25zm1.06 1.47c-.02-.03-.03-.05-.04-.07l.03.07zm-.27-.45c-.05-.07-.09-.15-.14-.21.05.06.09.14.14.21zm-.37-.52c-.07-.08-.13-.17-.2-.25.06.08.13.16.19.24zM212.24 70c-.217-.103-.438-.2-.67-.285-.03-.01-.097-.034-.153-.056l.153.05c.23.08.455.18.67.29zm1.743 1.175c-.095-.083-.19-.164-.288-.243.1.078.193.158.287.242zm-.534-.438c-.11-.083-.23-.16-.34-.235.11.074.23.15.34.232zm-.58-.394c-.14-.08-.27-.155-.42-.23.14.074.28.15.41.23zm-1.63-.748c-.01 0-.01 0-.01-.003v.005zm-55.64 56.837c-4.8-4.673-9.72-16.16-6.56-44.27 15.98-4.092 30.82-3.5 41.4-1.98.46 3.027.93 7.49 1.09 12.52-.03-1.02-.08-2.02-.13-2.99-3.14-2.04-6.89-3.23-10.91-3.23-11.09 0-20.08 8.99-20.08 20.08 0 11.09 8.99 20.08 20.08 20.08.93 0 1.84-.066 2.73-.19.71-.687 1.37-1.462 2-2.335.34-.476.66-.98.97-1.493-.31.516-.63 1.02-.97 1.493-2.57 3.58-5.77 5.558-10.07 6.224-9.03 1.4-15.43.12-19.56-3.9zm-9.33-59.04c1.03-.254 2.06-.496 3.09-.72-1.02.224-2.06.467-3.09.72zm44.24 42.368c.11-.683.23-1.37.32-2.062-.68.244-1.41.384-2.18.384-3.57 0-6.47-2.897-6.47-6.47 0-3.57 2.89-6.465 6.46-6.465 1.05 0 2.03.255 2.91.7.01 4.523-.27 9.343-1.06 13.914zm-4.1 12.476c.29-.52.58-1.05.85-1.603-.27.553-.56 1.085-.85 1.603zm.85-1.607c.27-.56.51-1.14.75-1.73-.24.59-.49 1.16-.76 1.72zm.93-2.17c.23-.6.45-1.2.65-1.81-.2.61-.43 1.21-.66 1.81zm.65-1.82c.2-.62.39-1.26.57-1.91-.18.65-.36 1.29-.57 1.91zm.69-2.39c.34-1.3.63-2.64.87-4.01-.25 1.36-.54 2.7-.88 4zm1.97-21.55c.03 1.02.05 2.06.05 3.12 0-1.06-.02-2.11-.05-3.13zm-2.23-27.86l1.75.21c-.58-.07-1.16-.15-1.75-.22zm13.51 2.35l-.5-.12.5.12zm-1.42-.33c-.24-.06-.49-.11-.73-.16.24.05.49.1.73.16zm-2.1-.45l-.95-.19c.33.06.64.12.95.19zm-1.78-.34c-.36-.07-.72-.14-1.09-.2.37.07.73.13 1.09.2zm-1.83-.33c-.59-.11-1.19-.2-1.81-.3.62.1 1.22.19 1.81.29zm-2.47-.4l-1.43-.21c.48.06.96.13 1.43.2zm-4.34-.58c-.72-.09-1.46-.16-2.21-.23.75.07 1.49.14 2.21.23zM186 64.5c-.584-.055-1.18-.104-1.783-.15.6.045 1.2.095 1.785.15zm-2.453-.203c-.8-.06-1.615-.11-2.44-.15.824.043 1.64.096 2.44.153zm-2.707-.162c-.75-.04-1.514-.07-2.28-.094.77.03 1.53.06 2.28.1zm-2.985-.114c-.713-.02-1.434-.03-2.16-.03.727.01 1.447.02 2.16.04zm-2.67-.04c-.887 0-1.785.01-2.694.02.91-.01 1.81-.02 2.7-.02zm-19.22 1.45c-.86.14-1.73.29-2.603.44.873-.15 1.74-.3 2.605-.44zm15.965-1.41c-.743.02-1.49.04-2.248.07.76-.03 1.508-.05 2.25-.07zm-2.99.1c-.904.05-1.815.09-2.733.16.92-.06 1.83-.11 2.73-.15zm-2.84.16c-.954.07-1.92.15-2.893.24.975-.09 1.94-.17 2.89-.24zm-3.654.32c-.77.08-1.546.17-2.325.26.78-.09 1.56-.18 2.33-.26zm-3.05.35c-.99.13-1.99.27-2.995.42 1.01-.15 2.01-.29 3-.42zm-9.45 1.61c.85-.18 1.69-.35 2.534-.51-.846.16-1.69.33-2.54.51zm-7.792 1.95c-1.055.31-2.11.63-3.174.97 1.063-.34 2.12-.66 3.174-.96zm3.345-.91c-.82.21-1.63.43-2.44.66.81-.23 1.62-.45 2.43-.65zm-15.99 39.52c-.44.12-.9.19-1.37.19-3 0-5.42-2.43-5.42-5.42 0-2.99 2.42-5.42 5.42-5.42.61 0 1.21.11 1.76.3.05 3.9-.09 7.33-.39 10.36zm0 .01c-.09.84-.18 1.64-.29 2.41.1-.77.2-1.57.28-2.4zm-.33 2.68c-.11.76-.23 1.49-.36 2.19.13-.7.24-1.43.35-2.19zm-.38 2.3c-.13.72-.27 1.4-.43 2.06.15-.66.3-1.34.43-2.05zm-.44 2.11c-.15.65-.31 1.27-.48 1.86.16-.59.32-1.21.47-1.86zm-15.62-49.84l-.71-.06.71.06zm22.43 3.97c-.41-.11-.81-.21-1.22-.32.41.11.81.21 1.22.33zm-3.76-.99l-1.41-.33 1.41.33zm-3.73-.85c-.48-.1-.97-.19-1.45-.29.48.1.96.19 1.45.29zm-3.7-.71l-1.42-.24 1.42.24zm-3.67-.58c-.45-.06-.9-.13-1.34-.18l1.34.18zm-3.69-.46c-.39-.04-.78-.09-1.16-.13.38.04.77.09 1.16.13zm-23.9 59.41c-8.14-11.34-6.65-34.6-5.21-43.99 10.55-1.53 25.35-2.11 41.39 2.01.61 5.47.92 10.3.98 14.59-.03-1.7-.09-3.49-.2-5.37-2.44-1.37-5.25-2.16-8.24-2.16-9.29 0-16.82 7.53-16.82 16.82s7.53 16.83 16.82 16.83c1.35 0 2.66-.16 3.92-.46.22-.39.43-.81.64-1.25-1.14 2.36-2.41 4.07-3.67 5.31-4.14 4.03-10.53 5.31-19.56 3.91-4.3-.67-7.49-2.64-10.06-6.21zm35.1-7.88c-.17.59-.35 1.15-.53 1.69.18-.54.36-1.1.52-1.69zm-.54 1.74c-.19.54-.38 1.06-.58 1.55.2-.49.39-1.01.58-1.55zm-.61 1.62c-.2.48-.4.94-.61 1.38.2-.43.41-.89.6-1.38zm-20.2 26.18l-.55-.03.55.03zM208.64 85h.044-.043zm-1.238-.92c.08.02.16.035.238.05-.077-.015-.158-.03-.238-.05zm3.437-.057l.02-.006-.02.006zm-1.19.2c.06-.007.13-.012.19-.02l-.2.02zm2.16-.526c.04-.016.08-.03.12-.048l-.12.04zm1.9-1.13l.06-.044-.06.045zm.83.433c.62-1 1.13-2.11 1.47-3.036.15-.418.26-1.148.34-1.573 4.43.39 9.62 3.07 2.04 12.71-.01 0-1.04-4.1-3.85-8.1zM34.24 62.947c-5.06-.238-9.03-1.926-11.806-4.988-1.227-1.36-2.035-2.82-2.625-4.24-2.34 4.89-1.24 11.45 3.2 16.3 5.59 6.1 14.36 7.18 19.57 2.4.13-.13.24-.27.37-.39-1.54-4.79-4.1-8.86-8.72-9.09zm-10.727-13.58c.525 3.104 2.647 8.324 10.957 8.727 5.78.284 9.292 4.052 11.482 8.443 1.03-4.482-.332-9.752-4.063-13.823-5.19-5.662-13.1-6.985-18.38-3.348zm85.422 132.985c-1.66-4.787-1.566-9.102.246-12.814.8-1.64 1.86-2.936 2.97-4.012-5.41-.354-11.09 3.103-13.94 9.025-3.59 7.46-1.33 16 5.04 19.07.17.08.34.13.5.21 3.88-3.2 6.71-7.09 5.2-11.47zm8.625-15.004c-2.687 1.642-6.747 5.55-4.034 13.414 1.883 5.47-.312 10.133-3.576 13.797 4.545-.71 8.932-3.94 11.325-8.91 3.332-6.92 1.625-14.76-3.714-18.31zM18.17 135.07L3.547 199.023l44.266 16.685 31.23-57.692L18.17 135.07zm20.378 52.84c-.183.01-.354.046-.536.06-7.06.39-13.156-6.003-13.61-14.267-.357-6.567 2.95-12.332 7.86-14.635-.447 1.476-.75 3.12-.66 4.942.205 4.128 2.205 7.95 5.967 11.343 3.42 3.108 2.82 7.88.97 12.558zm5.8-2.353c1.09-4.783.764-9.925-3.524-13.81-6.17-5.58-4.5-10.962-2.938-13.696 6.39.54 11.666 6.58 12.085 14.25.31 5.52-1.98 10.46-5.62 13.27zm42.265-34.307l-71.226-26.848 11.653-16.98 62.028 23.38zm30.033-86.52s-36.658.36-31.658-42.64c0 0 7 24 34 12s71-21 86 12l2.75 2.25.25 24.75"/></svg>