<svg xmlns="http://www.w3.org/2000/svg" width="988.25" height="186.541" viewBox="0 0 988.25 186.541"><g fill="#888"><path d="M32.024 14.76H0v166.217h75.56v-44.12H32.023zm86.57 39.157c-13.046 0-23.36 5.963-30.943 17.885-7.58 11.924-11.37 28.192-11.37 48.804 0 19.784 3.72 35.526 11.14 47.225 7.43 11.7 17.46 17.55 30.1 17.55 11.28 0 20.37-3.44 27.25-10.32 6.89-6.88 11.35-17.02 13.37-30.41h-28.03c-.67 3.31-1.96 5.85-3.86 7.62-1.89 1.77-4.26 2.65-7.1 2.65-4.2 0-7.47-2.12-9.82-6.37-2.34-4.25-3.58-10.28-3.72-18.11l54.91-.11v-2.93c0-23.02-3.71-41.02-11.14-54-7.42-12.98-17.68-19.47-30.77-19.47zm-13 51.907c.18-7.146 1.387-12.732 3.62-16.757 2.235-4.025 5.27-6.038 9.107-6.038 4.16 0 7.34 1.9 9.55 5.69 2.21 3.8 3.48 9.5 3.79 17.09H105.6zm103.696 40.96c-3.702 0-6.274-.845-7.72-2.54-1.443-1.69-2.166-4.604-2.166-8.744V86.415h13.744V58.32h-13.744V20.403H170.29V58.32h-10.358v28.096h10.36v61.497c0 13.017 1.84 22.117 5.517 27.31 3.68 5.19 10.16 7.787 19.46 7.787 2.57 0 5.34-.097 8.29-.28 2.96-.19 6.24-.474 9.85-.85v-35.32c-.55.08-1.1.134-1.66.17-.57.038-1.39.055-2.48.055zm9.18-87.564h11.51c0 6.47-.894 11.436-2.675 14.896-1.783 3.462-4.73 5.944-8.836 7.448v19.407c8.44-1.8 14.94-6.46 19.5-13.99 4.55-7.52 6.83-17.34 6.83-29.45V14.76h-26.33v44.46zm76.343 41.978c-.902-.3-2.232-.752-3.992-1.354-6.63-2.332-9.95-5.943-9.95-10.833 0-2.78.68-4.9 2.03-6.37 1.36-1.46 3.32-2.2 5.9-2.2s4.71 1.1 6.4 3.28c1.7 2.19 2.65 5.12 2.88 8.8h26.33c-.9-12.79-4.37-22.42-10.39-28.89-6.02-6.47-14.52-9.7-25.49-9.7-11.82 0-20.82 3.44-26.98 10.33-6.16 6.88-9.24 16.91-9.24 30.07 0 10.91 2.1 19.19 6.3 24.83 4.2 5.65 13.18 10.91 26.95 15.8.36.16.86.34 1.49.57 7.27 2.64 10.9 6.7 10.9 12.19 0 3.31-.82 5.83-2.47 7.56-1.64 1.73-4 2.6-7.07 2.6-3.2 0-5.61-1.27-7.21-3.83-1.6-2.56-2.4-6.43-2.4-11.62h-28.44c.64 14.37 4.08 25.13 10.33 32.27 6.25 7.15 15.34 10.72 27.25 10.72 12.87 0 22.59-3.57 29.15-10.72 6.57-7.14 9.85-17.75 9.85-31.82 0-11.13-2.01-19.58-6.02-25.33-4.02-5.76-12.7-11.19-26.06-16.3zM863.525 58.32h29.52v122.656h-29.52zm0-47.622h29.52v35.094h-29.52zm82.91 136.087c-3.7 0-6.27-.846-7.72-2.54-1.44-1.69-2.164-4.605-2.164-8.745V86.415h13.75V58.32h-13.75V20.403h-29.11V58.32h-10.36v28.096h10.36v61.5c0 13.016 1.84 22.114 5.52 27.307 3.68 5.19 10.17 7.787 19.47 7.787 2.58 0 5.34-.097 8.3-.28 2.96-.19 6.24-.474 9.86-.85v-35.32c-.54.08-1.09.134-1.66.17-.56.038-1.39.055-2.47.055zM958.53 14.76V56.4l6.77 65.22h16.25l6.768-65.22V14.76zm.27 120.402h29.25v45.814H958.8zm-507.202-53.11c9.945-8.484 14.205-20.9 12.818-36.75-1.77-20.24-10.348-33.99-24.273-39.405C429.658 1.9 416.83 2.775 400.74 4.182c-1.465.13-2.93.257-4.392.386L346.784 8.9l15.346 175.337 58.16-5.084c16.092-1.408 29.264-2.562 40.283-11.388 11.528-9.364 16.93-25.563 15.096-46.534-1.84-20.97-9.4-33.58-24.08-39.17zm-60.37-36.985l11.708-1.022c15.365-1.346 21.688-.67 22.904 13.232 1.025 11.704-3.797 15.565-14.588 16.51l-17.375 1.52-2.648-30.24zm27.852 92.906l-19.57 1.713-2.838-32.436 19.203-1.677c12.438-1.09 18.633 2.303 19.7 14.496 1.068 12.19-4.057 16.81-16.495 17.9zM513.393 2.227l15.348 175.34-38.95 3.41-15.35-175.34zm277.175 39.68c-14.267 1.248-24.414 9.508-32.398 25.69-8.68-14.97-18.057-21.03-30.86-19.91-13.718 1.2-23.706 9.2-30.956 25.314l-1.666-19.02-35.114 3.07 11.332 129.49 38.04-3.32-6.08-69.5c-1.32-15.12 2.566-23.32 11.16-24.07 9.878-.86 14.195 6.38 15.712 23.69l5.912 67.55 37.856-3.31-6.018-68.77c-1.408-16.09 2.14-24.02 11.647-24.85 9.328-.81 13.625 6.18 15.015 22.03l6.06 69.26 38.042-3.32-7.725-88.27c-2.476-28.29-17.097-43.72-39.96-41.72zM546.936 46.76c9.28 0 16.795-7.52 16.798-16.8-.003-9.276-7.52-16.797-16.798-16.797-9.278 0-16.8 7.52-16.8 16.798 0 9.28 7.52 16.8 16.8 16.8z"/><circle cx="626.383" cy="24.399" r="16.799"/><path d="M649.42 49.32l-37.68 2.64 3.52 62.688v-.012c.127 2.438.19 4.727.19 6.856 0 3.5-.17 6.576-.5 9.218v-.005c-.52 4.168-1.616 7.382-3.114 9.722v.002c-1.512 2.35-3.455 4.02-6.104 5.23-1.865.84-4.185 1.48-6.935 1.87-.287-.04-.594-.06-.926-.06-.19 0-.39 0-.61.02h.02c-1.33.11-2.6.17-3.79.17-2.82 0-5.22-.32-7.21-.91-2.79-.83-4.94-2.22-6.77-4.34-1.81-2.11-3.34-5.14-4.44-9.19-1.11-4.13-1.98-9.45-2.54-15.88v.01l-5.21-62.31-37.68 2.64 5.99 68.46c.86 9.75 2.82 18.34 5.98 25.76 3.15 7.41 7.51 13.64 13.07 18.54 8.15 7.21 18.39 11.29 30.24 12.27.43.16.93.3 1.46.31h.01c1.4.03 2.79.05 4.18.05 2.85 0 5.65-.08 8.42-.22 8.86-.47 16.79-2.17 23.73-5.19 6.95-3.02 12.88-7.36 17.67-12.96 4.33-5.06 7.56-11.05 9.69-17.86 2.13-6.82 3.16-14.45 3.16-22.87 0-1.89-.05-3.82-.15-5.8l-3.62-68.89z"/></g></svg>