<svg xmlns="http://www.w3.org/2000/svg" width="329" height="173.083" viewBox="0 0 329 173.083"><path d="M0 168.657V1.513h32.203V124.29H75.98v44.367H0zm130.826-36.54h28.188c-2.043 13.468-6.524 23.66-13.446 30.583-6.923 6.922-16.057 10.383-27.4 10.383-12.71 0-22.8-5.883-30.265-17.646-7.467-11.763-11.198-27.59-11.198-47.485 0-20.728 3.813-37.084 11.438-49.076 7.625-11.99 17.996-17.985 31.113-17.985 13.162 0 23.477 6.53 30.942 19.58 7.468 13.05 11.2 31.15 11.2 54.3v2.95l-55.214.12c.135 7.87 1.383 13.94 3.744 18.21 2.36 4.27 5.65 6.41 9.87 6.41 2.86 0 5.243-.89 7.148-2.66 1.906-1.78 3.2-4.33 3.88-7.66zM106.18 93.085h26.212c-.318-7.64-1.59-13.37-3.813-17.19-2.23-3.817-5.43-5.73-9.61-5.73-3.86 0-6.91 2.025-9.16 6.072-2.25 4.046-3.46 9.663-3.64 16.848zm94.336 29.846c0 4.16.727 7.09 2.18 8.8 1.45 1.7 4.04 2.56 7.762 2.56 1.09 0 1.916-.02 2.484-.06.566-.03 1.123-.09 1.668-.17v35.52c-3.63.38-6.934.66-9.906.85-2.973.19-5.752.29-8.34.29-9.35 0-15.875-2.61-19.574-7.83-3.7-5.22-5.55-14.37-5.55-27.46V73.57h-10.415V45.316h10.416V7.186h29.28v38.126h13.82v28.255h-13.82v49.362zM246.174 1.52v43c0 12.18-2.293 22.053-6.877 29.615-4.586 7.564-11.12 12.255-19.606 14.07V68.688c4.13-1.512 7.09-4.008 8.89-7.488 1.79-3.48 2.69-8.474 2.69-14.98h-11.58V1.513h26.49zm5.556 128.337h28.593c0 5.22.807 9.116 2.418 11.688 1.61 2.573 4.03 3.855 7.25 3.855 3.09 0 5.46-.862 7.12-2.6 1.66-1.74 2.49-4.274 2.49-7.606 0-5.52-3.65-9.604-10.96-12.254-.64-.228-1.13-.415-1.49-.567-13.84-4.916-22.87-10.213-27.1-15.887-4.22-5.673-6.33-13.993-6.33-24.962 0-13.237 3.1-23.317 9.3-30.24 6.19-6.922 15.24-10.383 27.13-10.383 11.03 0 19.57 3.25 25.64 9.76 6.06 6.51 9.54 16.19 10.45 29.05h-26.49c-.23-3.7-1.19-6.65-2.89-8.85-1.7-2.19-3.84-3.29-6.43-3.29-2.58 0-4.56.74-5.92 2.21-1.36 1.48-2.04 3.62-2.04 6.42 0 4.92 3.34 8.55 10.01 10.89 1.77.61 3.11 1.07 4.02 1.37 13.44 5.15 22.18 10.61 26.21 16.4 4.04 5.79 6.07 14.28 6.07 25.48 0 14.15-3.3 24.81-9.9 32-6.6 7.19-16.37 10.79-29.31 10.79-11.98 0-21.12-3.59-27.4-10.78-6.29-7.18-9.75-18-10.39-32.45z" fill="#7F8080"/></svg>