<svg xmlns="http://www.w3.org/2000/svg" width="126.333" height="186.67" viewBox="0 0 126.333 186.67"><path d="M.42 41.99V6.7h29.685v35.29H.42zm0 135.938V54.584h29.685v123.344H.42zM73.853 132.2c0 4.158.73 7.09 2.183 8.792 1.45 1.702 4.037 2.553 7.762 2.553 1.09 0 1.916-.02 2.482-.058.565-.036 1.123-.094 1.668-.17v35.52c-3.63.376-6.935.66-9.904.85-2.975.188-5.752.285-8.34.285-9.353 0-15.875-2.607-19.574-7.83-3.7-5.222-5.55-14.373-5.55-27.46V82.84H34.164V54.588H44.58v-38.13h29.273v38.126h13.82v28.254h-13.82v49.36zm28.91-13.958l-6.808-65.586V10.783h29.955v41.87l-6.813 65.587-16.335.002zm-6.537 59.686V131.86h29.412v46.067H96.226z" fill="#7F8080"/></svg>