<svg xmlns="http://www.w3.org/2000/svg" width="501.795" height="176" viewBox="0 0 501.795 176"><path d="M182.087 44.223c7.75 0 14.055-6.306 14.055-14.055s-6.305-14.055-14.055-14.055-14.056 6.305-14.056 14.055 6.31 14.055 14.06 14.055zm68.333-4.68c7.75 0 14.058-6.306 14.058-14.056s-6.307-14.053-14.057-14.053-14.05 6.306-14.05 14.056 6.31 14.05 14.06 14.05zm18.072 7.444l-32.567 1.707 3.23 57.548c.276 5.318.19 9.848-.26 13.45-.41 3.302-1.27 5.993-2.562 8.01-1.216 1.903-2.835 3.294-4.953 4.253-1.563.705-3.453 1.227-5.63 1.543-.463-.06-.897-.064-1.354-.025-3.592.313-6.672.11-9.105-.604-2.23-.66-4.03-1.82-5.5-3.53-1.55-1.82-2.78-4.37-3.64-7.57-.94-3.51-1.66-7.98-2.12-13.27l-4.81-57.45-32.49 2.84 5.43 62.07c1.47 16.74 6.9 29.37 16.15 37.54 6.88 6.07 15.51 9.58 25.65 10.44.5.18.94.23 1.29.23 1.18.03 2.36.04 3.52.04 2.4 0 4.79-.07 7.11-.19 15.24-.81 27.06-5.99 35.13-15.41 8.03-9.38 11.65-22.65 10.77-39.44l-3.28-62.2zM94.19 71.92c8.938-7.628 12.766-18.783 11.52-33.027-1.593-18.19-9.3-30.548-21.814-35.415-9.424-3.593-20.95-2.806-35.414-1.54-1.314.114-2.63.228-3.944.344L-.006 6.178l13.79 157.576 52.27-4.57c14.462-1.266 26.298-2.3 36.204-10.23 10.36-8.414 15.215-22.977 13.563-41.816-1.65-18.855-8.43-30.186-21.63-35.22zM39.937 38.68l10.52-.92c13.808-1.207 19.49-.602 20.584 11.893.93 10.52-3.41 13.99-13.11 14.84l-15.61 1.363-2.38-27.176zm25.03 83.496l-17.59 1.54-2.55-29.15 17.257-1.51c11.18-.976 16.744 2.07 17.703 13.028.96 10.96-3.645 15.115-14.82 16.092zM149.73.174l13.794 157.59-35.015 3.064-13.8-157.59zm247.498 35.67c-12.815 1.12-21.938 8.545-29.113 23.084-7.807-13.45-16.23-18.896-27.732-17.893-12.328 1.078-21.306 8.27-27.82 22.75L311.07 46.69l-31.564 2.76 10.188 116.375 34.188-2.988-5.467-62.463c-1.188-13.588 2.31-20.96 10.03-21.636 8.874-.78 12.76 5.73 14.116 21.29l5.32 60.706 34.02-2.977-5.4-61.81c-1.27-14.463 1.92-21.584 10.47-22.332 8.39-.732 12.25 5.555 13.49 19.795l5.45 62.24 16.92-1.472 5.28-100.875c-5.95-12.424-16.63-18.703-30.87-17.46zm93.526 18.51c.86.045 1.81.113 2.844.203 1.03.092 2.03.215 2.99.373.96.155 1.85.312 2.664.46.816.15 1.438.31 1.857.476l-1.61 30.68c-.57-.173-1.35-.353-2.34-.552-1-.195-2.05-.377-3.15-.54-1.11-.167-2.19-.294-3.27-.39-1.07-.09-1.97-.154-2.68-.19-4.23-.224-8.13.108-11.73.997-3.6.89-6.73 2.47-9.4 4.73-2.67 2.27-4.8 5.31-6.4 9.13-1.6 3.83-2.55 8.57-2.84 14.22l-3.2 61.04-32.71-1.71 6.29-119.94 24.77 1.3 3.88 18.28 1.6.09c1.88-2.99 3.88-5.68 6.02-8.08 2.13-2.39 4.47-4.4 7.03-6.03 2.56-1.62 5.42-2.83 8.58-3.64 3.17-.8 6.75-1.09 10.76-.89z" fill="#888"/></svg>