<svg xmlns="http://www.w3.org/2000/svg" width="79.5" height="166" viewBox="0 0 79.5 166"><path fill="#888" d="M68.67 45.375c.86.045 1.81.113 2.844.203 1.03.092 2.03.215 2.99.373.96.16 1.85.32 2.664.47.816.15 1.438.31 1.857.48l-1.607 30.68c-.563-.17-1.344-.35-2.338-.55-.994-.19-2.043-.37-3.145-.54-1.105-.16-2.19-.29-3.264-.39-1.06-.09-1.96-.15-2.68-.19-4.22-.22-8.12.11-11.72 1-3.6.89-6.73 2.46-9.39 4.73-2.66 2.27-4.79 5.31-6.39 9.13-1.6 3.83-2.54 8.57-2.84 14.22l-3.2 61.03-32.71-1.72L6.01 44.35l24.778 1.3 3.884 18.272 1.608.086c1.88-2.984 3.882-5.676 6.02-8.075 2.132-2.396 4.478-4.408 7.036-6.032 2.563-1.62 5.422-2.83 8.58-3.63 3.166-.8 6.748-1.1 10.754-.89z"/></svg>