<?xml version="1.0" encoding="utf-8"?>
<!-- Generator: Adobe Illustrator 16.0.0, SVG Export Plug-In . SVG Version: 6.00 Build 0)  -->
<!DOCTYPE svg PUBLIC "-//W3C//DTD SVG 1.1//EN" "http://www.w3.org/Graphics/SVG/1.1/DTD/svg11.dtd">
<svg version="1.1" id="Layer_1" xmlns="http://www.w3.org/2000/svg" xmlns:xlink="http://www.w3.org/1999/xlink" x="0px" y="0px"
	 width="182px" height="189px" viewBox="-7 0 182 189" enable-background="new -7 0 182 189" xml:space="preserve">
<g>
	<path fill="#878787" d="M160.389,41.718c3.712-5.496,6.901-13.788,0.25-21.445c0,0-6.529-6.877-20.208-0.51
		C127.813,7.92,109.729,1.154,90.545,1.154c-19.621,0-38.006,7.033-50.655,19.34c-0.001-0.001-0.003-0.001-0.004-0.001l0.004-0.005
		c-0.185-0.069-0.348-0.118-0.528-0.182c-0.117-0.04-0.233-0.081-0.355-0.122c-9.936-3.448-12.479,1.221-12.479,1.221
		c-4.063,6.318,1.49,15.64,1.584,15.797c0.002,0.007,0.004,0.014,0.008,0.021c-2.616,5.957-3.939,12.21-3.939,18.598
		c0,30.143,29.77,54.666,66.364,54.666c3.966,0.001,7.934-0.292,11.822-0.866l1.21,2.167c-8.373,4.919-13.498,13.805-13.498,23.624
		c0,14.474,11.276,26.366,25.505,27.348c-0.099,0.049,12.244,2.476,25.324-5.885c-4.285,3.442-8.95,6.515-13.899,9.099
		c-3.595,1.922-7.427,3.418-11.278,4.757c-3.876,1.292-7.856,2.248-11.844,3.009c0.425-0.105,0.06-0.019,0.127-0.037l-0.104,0.016
		l-0.212,0.032l-0.416,0.065l-0.835,0.133l-1.669,0.267c-0.537,0.074-1.164,0.204-1.622,0.236l-1.426,0.123
		c-0.966,0.072-1.841,0.206-2.865,0.237l-2.997,0.145c-3.993,0.061-7.946-0.055-11.815-0.549
		c-7.729-0.958-15.118-2.952-21.758-5.903c-3.32-1.468-6.475-3.111-9.401-4.951c-2.958-1.781-5.667-3.79-8.203-5.816
		c-5.02-4.133-9.236-8.546-12.559-12.979c-3.321-4.439-5.767-8.852-7.619-12.84c-1.87-3.983-3.058-7.61-3.901-10.604
		c-0.207-0.749-0.402-1.455-0.586-2.124c-0.149-0.675-0.289-1.308-0.42-1.897c-0.266-1.174-0.484-2.167-0.596-2.994
		c-0.275-1.63-0.422-2.497-0.422-2.497c-0.066-0.396-0.158-0.8-0.272-1.193c-1.649-5.713-7.615-9.008-13.328-7.36
		c-5.711,1.649-9.007,7.616-7.357,13.329l0.175,0.609c0,0,0.316,1.089,0.904,3.132c0.271,1.026,0.691,2.269,1.202,3.724
		c0.254,0.727,0.527,1.509,0.818,2.343c0.329,0.817,0.679,1.688,1.05,2.609c1.504,3.666,3.539,8.055,6.43,12.764
		c2.868,4.719,6.537,9.792,11.149,14.786c4.595,5.005,10.213,9.837,16.674,14.172c3.256,2.127,6.693,4.183,10.378,5.95
		c3.65,1.829,7.525,3.402,11.55,4.745c8.04,2.703,16.743,4.321,25.638,4.662c4.452,0.191,8.942-0.045,13.419-0.49
		c4.479-0.489,8.936-1.37,13.305-2.455c4.357-1.197,8.656-2.612,12.799-4.376c4.12-1.803,8.145-3.798,11.93-6.136
		c7.584-4.639,14.373-10.294,20.051-16.571c2.85-3.127,5.456-6.386,7.74-9.757c2.344-3.332,4.332-6.797,6.127-10.232
		c3.51-6.918,6.037-13.854,7.596-20.44c1.151-4.805,1.84-9.396,2.207-13.665c0.352-3.262,0.533-6.572,0.533-9.93
		C175.303,73.46,169.811,56.195,160.389,41.718z M55.362,79.914c-13.238,0-23.968-10.577-23.968-23.625
		c0-13.047,10.73-23.625,23.968-23.625s23.97,10.578,23.97,23.625C79.332,69.337,68.6,79.914,55.362,79.914z M111.097,84.751
		c-16.339,0-29.585-13.16-29.585-29.392c0-16.232,13.246-29.39,29.585-29.39c14.476,0,26.502,10.333,29.063,23.973
		c-2.515-8.046-10.023-13.887-18.898-13.887c-10.938,0-19.8,8.865-19.8,19.799c0,10.935,8.862,19.798,19.8,19.798
		c8.181,0,15.2-4.963,18.218-12.042C135.888,75.822,124.551,84.751,111.097,84.751z M136.773,50.974
		c0,3.522-2.854,6.377-6.375,6.377c-3.524,0-6.379-2.855-6.379-6.377c0-3.521,2.854-6.377,6.379-6.377
		C133.92,44.597,136.773,47.453,136.773,50.974z"/>
	<path fill="#878787" d="M46.012,55.854c0,9.161,7.426,16.587,16.587,16.587s16.587-7.426,16.587-16.587
		c0-9.16-7.426-16.587-16.587-16.587S46.012,46.694,46.012,55.854z M70.254,46.423c2.951,0,5.343,2.392,5.343,5.343
		s-2.392,5.343-5.343,5.343s-5.344-2.392-5.344-5.343S67.303,46.423,70.254,46.423z"/>
</g>
</svg>
