<svg xmlns="http://www.w3.org/2000/svg" width="182" height="189" viewBox="-7 0 182 189"><g fill="#878787"><path d="M160.39 41.718c3.71-5.496 6.9-13.788.25-21.445 0 0-6.53-6.877-20.21-.51-12.617-11.843-30.7-18.61-49.885-18.61-19.62 0-38.006 7.034-50.655 19.34h-.004l.004-.005c-.185-.07-.348-.118-.528-.182l-.355-.122c-9.936-3.448-12.48 1.22-12.48 1.22-4.062 6.32 1.49 15.64 1.585 15.798.002.007.004.014.008.02-2.616 5.958-3.94 12.21-3.94 18.6 0 30.142 29.77 54.665 66.365 54.665 3.966 0 7.934-.292 11.822-.866l1.21 2.17c-8.373 4.92-13.498 13.81-13.498 23.63 0 14.48 11.27 26.37 25.5 27.35-.1.05 12.24 2.48 25.32-5.88-4.29 3.44-8.95 6.52-13.9 9.1-3.6 1.92-7.43 3.42-11.28 4.76-3.88 1.3-7.86 2.25-11.85 3.01.42-.1.06-.02.12-.03l-.11.02-.22.03-.42.07-.84.14-1.67.27c-.54.08-1.17.21-1.62.24l-1.43.12c-.97.07-1.84.21-2.87.24l-2.99.15c-4 .06-7.95-.05-11.82-.55-7.73-.95-15.12-2.95-21.76-5.9-3.32-1.47-6.48-3.11-9.4-4.95-2.96-1.78-5.67-3.79-8.21-5.82-5.02-4.13-9.24-8.54-12.56-12.98-3.32-4.43-5.77-8.85-7.62-12.84-1.87-3.98-3.06-7.61-3.9-10.6l-.58-2.13-.42-1.89c-.27-1.17-.49-2.16-.6-2.99l-.42-2.49c-.07-.4-.16-.8-.27-1.2-1.65-5.71-7.61-9.01-13.32-7.36-5.71 1.65-9.01 7.62-7.36 13.33l.17.61.9 3.13c.27 1.03.69 2.27 1.2 3.72l.81 2.35 1.05 2.61c1.5 3.67 3.54 8.06 6.43 12.77 2.87 4.72 6.54 9.8 11.15 14.79 4.59 5.01 10.21 9.84 16.67 14.18 3.26 2.13 6.69 4.18 10.38 5.95 3.65 1.83 7.53 3.4 11.55 4.75 8.04 2.7 16.74 4.32 25.64 4.66 4.45.19 8.94-.04 13.42-.49 4.48-.49 8.94-1.37 13.31-2.45 4.35-1.19 8.65-2.61 12.8-4.37 4.12-1.8 8.14-3.8 11.93-6.14 7.58-4.64 14.37-10.29 20.05-16.57 2.85-3.13 5.45-6.38 7.74-9.76 2.34-3.33 4.33-6.79 6.12-10.23 3.51-6.92 6.03-13.85 7.59-20.44 1.15-4.8 1.84-9.39 2.2-13.66.35-3.26.53-6.57.53-9.93-.01-18.56-5.5-35.82-14.92-50.3zM55.36 79.914c-13.238 0-23.968-10.577-23.968-23.625s10.73-23.63 23.968-23.63 23.97 10.58 23.97 23.62S68.6 79.91 55.362 79.91zm55.735 4.837c-16.34 0-29.585-13.16-29.585-29.39s13.246-29.39 29.585-29.39c14.476 0 26.502 10.34 29.063 23.98-2.515-8.04-10.023-13.88-18.898-13.88-10.938 0-19.8 8.87-19.8 19.8 0 10.94 8.862 19.8 19.8 19.8 8.18 0 15.2-4.96 18.218-12.04-3.592 12.22-14.93 21.14-28.383 21.14zm25.675-33.77c0 3.53-2.85 6.38-6.37 6.38-3.525 0-6.38-2.85-6.38-6.37s2.854-6.37 6.38-6.37c3.52 0 6.374 2.86 6.374 6.38z"/><path d="M46.012 55.854c0 9.16 7.426 16.587 16.587 16.587s16.58-7.42 16.58-16.58c0-9.16-7.43-16.58-16.59-16.58S46 46.7 46 55.86zm24.242-9.43c2.95 0 5.343 2.39 5.343 5.342s-2.392 5.343-5.343 5.343-5.344-2.4-5.344-5.35 2.393-5.35 5.344-5.35z"/></g></svg>