<svg xmlns="http://www.w3.org/2000/svg" width="175" height="189" viewBox="0 0 175 189"><path fill="#888" d="M159.012 47.892c-.02-.088-.04-.174-.063-.26 16.5-16.522 4.51-26.748 4.51-26.748-6.16-3.934-14.39-1.294-19.32.982C131.43 9.34 112.25 1.363 90.8 1.363c-21.797 0-41.246 8.238-53.955 21.12-3.938-1.643-21.317-7.84-10.96 15.67-2.853 6.213-4.418 12.942-4.418 19.97 0 31.35 31.043 56.762 69.333 56.762 4.714 0 9.313-.388 13.765-1.117l2.953 5.282c-9.03 4.502-15.235 13.827-15.235 24.604 0 15.173 12.3 27.474 27.474 27.474 2.338 0 4.605-.293 6.775-.84-10.59 6.97-24.602 12.217-42.815 12.27 0 0-29.136 1.412-53.7-24.592 0 0-14.13-13.73-19.22-41.1 0 0-1.558-6.62-7.368-2.01 0 0-5.61 2.83-1.98 12.65.16.438.23.77.21.995 3.2 8.96 7.9 17.55 14.14 25.41 30.6 38.57 86.67 45.02 125.23 14.41C178.01 138.97 185.46 86.19 159 47.9zM58.25 40.356c-9.29 0-16.82 7.53-16.82 16.818s7.53 16.82 16.82 16.82c5.68 0 10.7-2.82 13.745-7.133-3.887 8.14-12.275 13.77-22 13.77-13.426 0-24.307-10.72-24.307-23.95s10.88-23.96 24.306-23.96c10.833 0 20.01 6.99 23.146 16.64-2.815-5.35-8.424-9-14.89-9zm12.093 12.672c0 2.994-2.426 5.418-5.417 5.418-2.99 0-5.42-2.424-5.42-5.418 0-2.99 2.43-5.416 5.42-5.416 2.99-.002 5.417 2.425 5.417 5.416zM117.27 37.64c-11.085 0-20.075 8.99-20.075 20.076 0 11.088 8.99 20.076 20.076 20.076 7.27 0 13.64-3.86 17.16-9.64-4.39 11.047-15.23 18.864-27.91 18.864-16.56 0-30-13.344-30-29.803s13.43-29.8 30-29.8c13.69 0 25.24 9.107 28.84 21.556-3.25-6.71-10.12-11.33-18.07-11.33zm14.644 15.127c0 3.573-2.896 6.467-6.465 6.467-3.58 0-6.47-2.895-6.47-6.467 0-3.57 2.89-6.465 6.47-6.465 3.57 0 6.46 2.894 6.46 6.465zm16.818-23.44s17.953-2.496 6.438 12.162c.002-.01-1.645-6.44-6.438-12.17z"/></svg>