<svg xmlns="http://www.w3.org/2000/svg" width="182" height="183" viewBox="0 0 182 183"><path fill="#888" d="M180.23 97.865c.95-17.647-3.575-35.672-14.016-51.286 5.265-5.6 7.824-11.13 7.61-16.45-.25-6.3-4.356-9.87-4.53-10.02l-.097-.08-.107-.07c-2.242-1.44-4.904-2.16-7.91-2.16-3.887 0-7.746 1.23-10.604 2.44C138 8.36 119.918 1.58 100.736 1.58c-19.546 0-37.862 7.005-50.464 19.265-1.884-.698-4.634-1.51-7.227-1.51-3.562-.002-5.327 1.56-6.182 2.87-1.967 3.015-1.417 8.027 1.684 15.306-2.605 5.94-3.925 12.17-3.925 18.53 0 30.03 29.66 54.46 66.114 54.46 3.95 0 7.904-.29 11.777-.86l1.207 2.16c-8.346 4.9-13.45 13.76-13.45 23.54 0 14.11 10.768 25.73 24.513 27.14-5.534 2.25-11.42 3.88-17.454 4.8-3.69.58-7.44.79-11.17.85-3.75.02-7.49-.3-11.19-.78.62.06.11.01.23.02l-.11-.01-.2-.03-.41-.06-.81-.13-1.62-.26c-.51-.09-1.15-.16-1.54-.27l-1.24-.29c-.84-.21-1.6-.33-2.51-.6l-2.66-.74c-3.51-1.1-6.93-2.33-10.18-3.89-6.5-3.06-12.39-6.97-17.41-11.45-2.52-2.22-4.85-4.56-6.92-7.02-2.13-2.4-3.96-4.95-5.65-7.47-3.3-5.09-5.82-10.22-7.54-15.13-1.74-4.9-2.77-9.53-3.35-13.65-.61-4.11-.7-7.73-.65-10.69l.04-2.1.14-1.85c.08-1.14.15-2.11.28-2.9l.3-2.41c.02-.22.05-.48.06-.72.33-5.9-4.19-10.95-10.09-11.28-5.9-.33-10.96 4.18-11.29 10.08l-.01.18-.18 3.16c-.08 1.03-.1 2.29-.1 3.79V94c.04.856.08 1.768.12 2.73.2 3.836.65 8.505 1.79 13.738 1.11 5.24 2.84 11.062 5.46 17.116 2.6 6.06 6.2 12.285 10.72 18.33 2.3 2.995 4.79 5.983 7.6 8.785 2.76 2.86 5.81 5.54 9.06 8.06 6.5 5.07 13.96 9.35 22.02 12.52 4.02 1.61 8.22 2.84 12.47 3.87 4.27.99 8.65 1.62 13 2.03 4.39.3 8.79.39 13.16.1 4.36-.33 8.7-.86 12.93-1.8 8.46-1.83 16.52-4.85 23.75-8.79 3.62-1.96 7.07-4.12 10.25-6.48 3.23-2.32 6.17-4.86 8.92-7.44 5.45-5.23 10.01-10.8 13.56-16.36 3.56-5.55 6.22-11.02 8.16-16.01 1.97-4.99 3.18-9.52 3.99-13.27.19-.94.38-1.84.56-2.67.14-.86.27-1.65.38-2.39.24-1.49.44-2.74.52-3.76l.33-3.12c.04-.46-.02-.91-.16-1.32z"/></svg>