<svg xmlns="http://www.w3.org/2000/svg" width="196" height="175" viewBox="0 0 196 175"><path fill="#888" d="M152.5 11.104c0-5.028-4.076-9.104-9.105-9.104h-89.79C48.577 2 44.5 6.076 44.5 11.104v152.79c0 5.03 4.077 9.105 9.105 9.105h89.79c5.028 0 9.104-4.08 9.104-9.11V11.1zM81.815 10h34.958c2.54 0 4.6 3.23 4.6 7s-2.06 7-4.6 7H81.815c-2.54 0-4.6-3.23-4.6-7s2.06-7 4.6-7zM99.52 167.564c-7.29 0-13.2-5.912-13.2-13.2 0-7.294 5.91-13.203 13.2-13.203 7.292 0 13.204 5.91 13.204 13.21 0 7.29-5.91 13.2-13.203 13.2zM139.5 135h-82V37h82v98z"/></svg>