<svg xmlns="http://www.w3.org/2000/svg" width="189" height="189" viewBox="0 0 189 189"><path fill="#7F8080" d="M177.21 27H13.17C6.202 27 0 32.453 0 39.78v106.1C0 153.21 6.202 160 13.17 160h164.04c6.972 0 11.79-6.79 11.79-14.12V39.78c0-7.327-4.818-12.78-11.79-12.78zM34.163 111.193c-9.525 0-17.247-7.724-17.247-17.25s7.722-17.246 17.247-17.246S51.41 84.42 51.41 93.947s-7.722 17.246-17.248 17.246zm61.03 0c-9.527 0-17.25-7.724-17.25-17.25s7.72-17.246 17.25-17.246c9.52 0 17.245 7.722 17.245 17.247s-7.72 17.25-17.246 17.25zm61.03 0c-9.526 0-17.25-7.724-17.25-17.25s7.724-17.246 17.25-17.246c9.523 0 17.246 7.722 17.246 17.247s-7.73 17.25-17.25 17.25z"/></svg>