<svg xmlns="http://www.w3.org/2000/svg" width="196" height="175" viewBox="0 0 196 175"><path d="M47.29 24.368c4.462 0 8.082-3.62 8.082-8.084 0-4.464-8.083-14.243-8.083-14.243s-8.09 9.78-8.09 14.25c0 4.47 3.61 8.09 8.08 8.09zm0-9.264c1.773 0 3.213 1.44 3.213 3.215s-3.213 5.66-3.213 5.66-3.22-3.89-3.22-5.67c0-1.78 1.44-3.22 3.217-3.22zm51.067 9.264c4.463 0 8.083-3.62 8.083-8.084 0-4.464-8.083-14.243-8.083-14.243s-8.083 9.78-8.083 14.25c0 4.47 3.618 8.09 8.083 8.09zm0-9.264c1.774 0 3.213 1.44 3.213 3.215s-3.213 5.66-3.213 5.66-3.215-3.89-3.215-5.67c0-1.78 1.44-3.22 3.215-3.22zm51.07 9.264c4.462 0 8.082-3.62 8.082-8.084 0-4.464-8.09-14.243-8.09-14.243s-8.09 9.78-8.09 14.25c0 4.47 3.62 8.09 8.08 8.09zm0-9.264c1.773 0 3.214 1.44 3.214 3.215s-3.21 5.66-3.21 5.66-3.21-3.89-3.21-5.67c0-1.78 1.44-3.22 3.22-3.22zM174.26 67H153.5V32h-9v35h-42V32h-9v35h-42V32h-9v35H22.45C13.98 67 7.5 73.733 7.5 82.202v26.375c7-2.917 14.97-5.224 19.557-3.636 5.92 2.05 10.82 16.72 16.9 18.23 14.034 3.5 40.18-18.94 54.643-18.94 14.463 0 40.645 22.37 54.676 18.88 6.078-1.51 10.654-16.29 16.574-18.34 4.418-1.53 11.65.59 18.65 3.38V82.21c0-8.47-5.768-15.2-14.238-15.2zm-4.092 54.633c-5.92 2.047-10.95 16.825-17.027 18.338-14.03 3.5-40.18-18.87-54.64-18.87s-40.63 22.44-54.66 18.95c-6.08-1.51-11.2-16.18-17.12-18.23-3.03-1.05-7.21-.39-12.21 1.02v35.91c0 7.79 6.28 14.28 14.07 14.28h139.57c7.79 0 13.36-6.48 13.36-14.27v-36.28c-5-1.26-8.46-1.81-11.33-.82z" fill="#888"/></svg>