<svg xmlns="http://www.w3.org/2000/svg" width="203.5" height="193" viewBox="0 0 203.5 193"><path fill="#888" d="M202.833 119c-.614-3.07-3.926-3.74-8.07-3.273-1.304-3.63-2.788-4.603-2.788-4.603-11.412 7.222-19.918 10.394-26.09 11.546-2.816.087-6.176.143-9.87.115-2.896-.652-4.122-1.793-4.122-1.793 48.1-7.4 53.31-59.31 49.607-67.325-2.718-5.89-10.434 5.144-14.338 11.417 4.166-7.78 11.8-26.232 4.338-46.75C181.633-8.8 162.833 5 162.833 5c20.35 39.466-36.842 96.26-54.726 97.49-11.306.78-11.27-8.296-9.718-15.08 1.62-2.958 4.25-6.108 8.48-8.352 10.48-5.55 6.78-25.284-8.02-26.517 0 0-51.19-8.01-94.97 28.99 0 0 11.25-2.09 24.94-4-6.58 19.31-23.64 70.88-22.85 84.53.98 16.9 15.47 29.81 32.37 28.83 16.9-.97 29.81-15.47 28.83-32.37-.8-13.76-24.04-63.67-32.65-81.75 19.96-2.55 42.39-4.11 42.73 1.69.61 10.48-7.63 83.58 43.55 87.89 51.21 4.3 62.69-23.35 62.69-23.35s21.18-14.75 19.33-24z"/></svg>