<svg xmlns="http://www.w3.org/2000/svg" width="189" height="189" viewBox="0 0 189 189"><path fill="#888" d="M125.564 79.284l-.02-.035c-.084-.15-2.13-3.61-6.556-3.61-1.658 0-3.426.49-5.262 1.47-.05-.04-.09-.08-.14-.12-5.528-4.57-12.875-7.09-20.66-7.09-7.368 0-14.327 2.25-19.743 6.35-14.81-3.96-10.035 8.75-8.673 11.87-.64 2.04-.98 4.18-.98 6.35 0 6.63 3.11 12.85 8.74 17.5 5.53 4.56 12.88 7.08 20.67 7.08 7.79 0 15.13-2.52 20.66-7.09 5.64-4.65 8.74-10.87 8.74-17.5 0-1.4-.14-2.77-.4-4.11.68-.64 1.57-1.57 2.37-2.7 2.15-3 2.59-5.91 1.28-8.41zm56.622 18.51c-.713-8.504-15.15-25.785-18.188-33.762-3.357-8.84-4.336-21.36-10.555-28.487-5.65-6.483-25.295-5.784-33.1-9.396-8.103-3.75-20.75-19.88-29.68-19.88S69.143 22.5 60.99 26.14c-7.176 3.21-24.703 2.462-30.463 7.813-6.604 6.134-9.023 25.495-11.506 34.157-2.24 7.84-12.28 22.062-12.23 30.21.05 7.9 9.23 21.84 12.24 29.146 3.06 7.466 6.33 24.232 12.03 29.938 5.71 5.706 22.51 8.906 29.94 12.036 7.6 3.19 21.96 13.31 30.21 13.28 8.01-.03 21.53-10.84 29.15-13.29 8.5-2.74 28.73-.62 35.04-6.94 6.31-6.31 8.04-22.97 10.73-31.48 2.69-8.51 16.83-24.33 16.08-33.23zM94.5 157.48c-34.78 0-62.976-28.192-62.976-62.978 0-34.78 28.193-62.977 62.975-62.977s62.97 28.195 62.97 62.977c0 34.78-28.2 62.977-62.98 62.977zm0-11.3c-28.496 0-51.678-23.183-51.678-51.678 0-28.495 23.182-51.677 51.677-51.677s51.67 23.182 51.67 51.677-23.18 51.678-51.68 51.678zm0-95.355c-24.084 0-43.678 19.593-43.678 43.677 0 24.083 19.593 43.678 43.677 43.678 24.08 0 43.67-19.595 43.67-43.678 0-24.084-19.6-43.677-43.68-43.677z"/></svg>