<svg xmlns="http://www.w3.org/2000/svg" width="193.333" height="186" viewBox="0 0 193.333 186"><path fill="#888" d="M177.915 83.83c0-10.658-3.73-20.665-10.268-29.353 3.938-7.2 7.242-17.807-1.018-25.684-9.16-8.733-19.31-1.2-25.06 4.787-12.87-6.346-28.31-10.048-44.92-10.048-16.78 0-32.38 3.776-45.32 10.245-5.71-6.018-15.99-13.812-25.24-4.985-8.44 8.048-4.81 18.938-.76 26.14C19 63.512 15.4 73.36 15.4 83.828c0 24.636 19.91 45.818 48.436 55.175-24.965 13.967-24.97 41.477-24.97 41.477l117.203.113s-.01-28.04-25.61-41.92c27.99-9.518 47.44-30.493 47.44-54.842z"/></svg>