<svg xmlns="http://www.w3.org/2000/svg" width="193.333" height="186" viewBox="0 0 193.333 186"><path fill="#888" d="M177.793 86.947H135.33v-27l-27 .002v-35.8c-3.81-.41-7.705-.63-11.667-.63-16.782 0-32.375 3.77-45.32 10.24-5.712-6.02-15.986-13.81-25.24-4.99-8.433 8.05-4.807 18.94-.76 26.14-6.325 8.58-9.925 18.43-9.925 28.9 0 24.63 19.91 45.82 48.436 55.17-24.975 13.96-24.98 41.48-24.98 41.48l117.203.11s-.005-28.04-25.605-41.92c26.79-9.11 45.74-28.72 47.32-51.73zM165.33 44.945l28.003.003-.002-15.002h-28l.01-27.998-15-.003.01 28.002h-27.01V44.95l27-.003v27h15z"/></svg>