<svg xmlns="http://www.w3.org/2000/svg" width="193.333" height="186" viewBox="0 0 193.333 186"><path fill="#888" d="M177.915 83.83c0-10.658-3.73-20.665-10.268-29.353 3.938-7.2 7.242-17.807-1.018-25.684-9.16-8.733-19.31-1.2-25.06 4.787-12.87-6.346-28.31-10.048-44.92-10.048-16.78 0-32.38 3.776-45.32 10.245-5.71-6.018-15.99-13.812-25.24-4.985-5.38 5.134-5.85 11.425-4.44 17.177.27-.01.53-.04.8-.04 4.48 0 8.86 1.19 13.01 3.55 9.38 5.33 25.99 19.51 30.61 34.85 3.27 10.89-2.42 20.45-6.19 26.78l-.22.36c2.49 2.37 5.12 4.87 7.4 7.05 5.29-4.21 12.04-8.45 20.71-8.45 4.47 0 8.87 1.14 13.07 3.41 9.16 4.93 35.05 24.67 33.83 49.91-.31 6.41-2.77 12.17-6.57 17.15l27.92.02s-.01-28.04-25.61-41.92c27.99-9.52 47.44-30.49 47.44-54.84zM93.78 126.716c-8.243-4.434-14.49 1.065-21.04 6.655-6.548 5.59-9.54 2.21-9.54 2.21s-12.024-11.52-18.91-18.01c-6.89-6.48 10.343-19.24 7.44-28.9-2.904-9.66-15.32-21.39-23.654-26.13-8.338-4.73-14.04 2.58-14.04 2.58C-8.954 93.75 3.22 106.87 3.22 106.87c30.583 48.08 67.28 71.608 75.98 77.553 8.7 5.944 39.76-5.698 40.537-21.733.775-16.03-17.71-31.54-25.957-35.974zM41.1 83.96s2.417 2.567 3.144 4.983c.725 2.414-10.14 12.264-8.687 17.095 0 0-11.628-8.024 5.543-22.077zm69.067 75.354c1.088 3.62-20.7 25.313-34.025 7.266 0 0 18.508 1.35 29.37-15.082-.004.002 3.563 4.195 4.655 7.816z"/></svg>